; NON-PLATED HOLES START AT T1
; THROUGH (PLATED) HOLES START AT T100
M48
INCH
T1C0.064000
T100C0.040000
T101C0.035000
T102C0.015748
%
T1
X001976Y013346
X001979Y012346
X003979Y013346
X002979Y012346
X002979Y013346
X003979Y012346
T100
X004369Y017008
X011369Y016250
X014369Y016150
X012369Y016150
X013369Y016250
X002369Y017008
X015369Y016250
X010369Y016150
T101
X007369Y004150
X010369Y005150
X005369Y001150
X012369Y001150
X010369Y004150
X007369Y005150
X001369Y001150
X016369Y001150
T102
X003240Y014594
X000599Y014114
T00
M30
