G04 MADE WITH FRITZING*
G04 WWW.FRITZING.ORG*
G04 DOUBLE SIDED*
G04 HOLES PLATED*
G04 CONTOUR ON CENTER OF CONTOUR VECTOR*
%FSLAX26Y26*%
%MOIN*%
%ADD10C,0.074000*%
%ADD11C,0.075000*%
%ADD12C,0.082000*%
%ADD13C,0.078000*%
%ADD14C,0.039370*%
%ADD15R,0.075000X0.075000*%
%ADD16R,0.082000X0.082000*%
%ADD17C,0.024000*%
%G04COPPER0*%
%FSLAX26Y26*%
%MOIN*%
D10*
X1554720Y1516210D03*
X1454720Y1506210D03*
X1354720Y1516210D03*
X1254720Y1506210D03*
X1154720Y1516210D03*
X1054720Y1506210D03*
X1554720Y1516210D03*
X1454720Y1506210D03*
X1354720Y1516210D03*
X1254720Y1506210D03*
X1154720Y1516210D03*
X1054720Y1506210D03*
D11*
X754721Y406210D03*
X1054720Y406210D03*
X754721Y306210D03*
X1054720Y306210D03*
X618882Y143890D03*
X218882Y143890D03*
X1564700Y138590D03*
X1164700Y138590D03*
D12*
X1059030Y777606D03*
X1059030Y1075606D03*
D13*
X204380Y730520D03*
X304380Y730520D03*
D14*
X234370Y1080344D03*
X564000Y1079140D03*
D15*
X754721Y406210D03*
D16*
X1059030Y776606D03*
D17*
X1054440Y1486212D02*
X1052430Y1342875D01*
D02*
X1052430Y1342875D02*
X993843Y1268316D01*
D02*
X993843Y1268316D02*
X996000Y1007140D01*
X996000Y1007140D02*
X996506Y868889D01*
D02*
X996506Y868889D02*
X1047170Y794931D01*
D02*
X763369Y290990D02*
X851239Y136400D01*
D02*
X851239Y136400D02*
X1147200Y138470D01*
D02*
X241273Y1076554D02*
X324000Y1031140D01*
X324000Y1031140D02*
X324000Y791140D01*
X324000Y791140D02*
X310231Y748593D01*
D02*
X630628Y130910D02*
X689997Y65340D01*
D02*
X689997Y65340D02*
X1304900Y62610D01*
D02*
X1304900Y62610D02*
X1299440Y245720D01*
D02*
X1299440Y245720D02*
X1069350Y396610D01*
D02*
X564121Y1087013D02*
X565675Y1188124D01*
D02*
X565675Y1188124D02*
X43499Y1190788D01*
D02*
X43499Y1190788D02*
X47762Y1087453D01*
D02*
X47762Y1087453D02*
X50495Y734907D01*
D02*
X50495Y734907D02*
X185388Y731058D01*
D02*
X218885Y161390D02*
X218955Y634560D01*
D02*
X218955Y634560D02*
X645010Y637220D01*
D02*
X645010Y637220D02*
X1020000Y743140D01*
X1020000Y743140D02*
X1043290Y763707D01*
G04 End of Copper0*
M02*