G04 MADE WITH FRITZING*
G04 WWW.FRITZING.ORG*
G04 DOUBLE SIDED*
G04 HOLES PLATED*
G04 CONTOUR ON CENTER OF CONTOUR VECTOR*
%ASAXBY*%
%FSLAX23Y23*%
%MOIN*%
%OFA0B0*%
%SFA1.0B1.0*%
%ADD10C,0.080000*%
%ADD11C,0.075000*%
%ADD12C,0.039370*%
%ADD13C,0.074000*%
%ADD14C,0.064000*%
%ADD15R,0.080000X0.079986*%
%ADD16R,0.070247X0.121256*%
%ADD17R,0.070000X0.121256*%
%ADD18R,0.075000X0.075000*%
%ADD19R,0.181102X0.039370*%
%ADD20R,0.133858X0.062992*%
%ADD21C,0.024000*%
%LNCOPPER1*%
G90*
G70*
G54D10*
X237Y1701D03*
X437Y1701D03*
X237Y1701D03*
X437Y1701D03*
G54D11*
X537Y115D03*
X137Y115D03*
X1637Y115D03*
X1237Y115D03*
G54D12*
X60Y1411D03*
X324Y1459D03*
G54D13*
X1537Y1625D03*
X1437Y1615D03*
X1337Y1625D03*
X1237Y1615D03*
X1137Y1625D03*
X1037Y1615D03*
X1537Y1625D03*
X1437Y1615D03*
X1337Y1625D03*
X1237Y1615D03*
X1137Y1625D03*
X1037Y1615D03*
G54D14*
X198Y1335D03*
X298Y1335D03*
X398Y1335D03*
X198Y1235D03*
X298Y1235D03*
X398Y1235D03*
G54D11*
X737Y515D03*
X1037Y515D03*
X737Y415D03*
X1037Y415D03*
G54D15*
X237Y1701D03*
X237Y1701D03*
G54D16*
X443Y1112D03*
X535Y1112D03*
X237Y954D03*
X337Y954D03*
X437Y954D03*
X537Y954D03*
X637Y954D03*
X737Y954D03*
X837Y954D03*
G54D17*
X837Y1615D03*
X737Y1615D03*
X637Y1615D03*
X537Y1615D03*
X437Y1615D03*
X337Y1615D03*
X237Y1615D03*
G54D18*
X737Y515D03*
G54D19*
X1337Y1215D03*
X1337Y1136D03*
G54D20*
X1542Y1310D03*
X1542Y1042D03*
G54D19*
X337Y515D03*
X337Y594D03*
G54D20*
X132Y421D03*
X132Y688D03*
G54D19*
X1337Y715D03*
X1337Y636D03*
G54D20*
X1542Y810D03*
X1542Y542D03*
G54D21*
X1637Y133D02*
X1637Y316D01*
D02*
X1338Y316D02*
X1337Y622D01*
D02*
X1637Y316D02*
X1338Y316D01*
D02*
X754Y521D02*
X1295Y701D01*
D02*
X422Y1057D02*
X420Y1051D01*
X420Y1051D02*
X137Y1115D01*
D02*
X137Y1115D02*
X137Y814D01*
D02*
X137Y814D02*
X228Y739D01*
X228Y739D02*
X468Y643D01*
X468Y643D02*
X468Y547D01*
X468Y547D02*
X394Y529D01*
D02*
X1337Y1605D02*
X1337Y1229D01*
D02*
X516Y1167D02*
X444Y1387D01*
X444Y1387D02*
X132Y1387D01*
X132Y1387D02*
X37Y1315D01*
D02*
X37Y1315D02*
X36Y763D01*
X36Y763D02*
X36Y619D01*
X36Y619D02*
X252Y601D01*
D02*
X1531Y1606D02*
X1452Y1363D01*
X1452Y1363D02*
X1452Y1171D01*
X1452Y1171D02*
X1383Y1150D01*
D02*
X65Y1417D02*
X208Y1581D01*
D02*
X639Y899D02*
X660Y355D01*
X660Y355D02*
X804Y355D01*
X804Y355D02*
X1023Y505D01*
D02*
X554Y115D02*
X638Y114D01*
D02*
X638Y114D02*
X660Y355D01*
D02*
X332Y1560D02*
X325Y1467D01*
G04 End of Copper1*
M02*