G04 MADE WITH FRITZING*
G04 WWW.FRITZING.ORG*
G04 DOUBLE SIDED*
G04 HOLES PLATED*
G04 CONTOUR ON CENTER OF CONTOUR VECTOR*
%FSLAX26Y26*%
%MOIN*%
%ADD10C,0.080000*%
%ADD11C,0.075000*%
%ADD12C,0.039370*%
%ADD13C,0.074000*%
%ADD14R,0.080000X0.079986*%
%ADD15R,0.075000X0.075000*%
%ADD16C,0.024000*%
%G04COPPER0*%
%FSLAX26Y26*%
%MOIN*%
D10*
X236953Y1700837D03*
X436953Y1700837D03*
X236953Y1700837D03*
X436953Y1700837D03*
D11*
X463441Y115020D03*
X63441Y115020D03*
X1636950Y115020D03*
X1236950Y115020D03*
D12*
X57277Y1617644D03*
X336953Y1485069D03*
D13*
X1536950Y1625018D03*
X1436950Y1615018D03*
X1336950Y1625018D03*
X1236950Y1615018D03*
X1136950Y1625018D03*
X1036950Y1615018D03*
X1536950Y1625018D03*
X1436950Y1615018D03*
X1336950Y1625018D03*
X1236950Y1615018D03*
X1136950Y1625018D03*
X1036950Y1615018D03*
D11*
X736953Y515020D03*
X1036950Y515020D03*
X736953Y415020D03*
X1036950Y415020D03*
D14*
X236953Y1700844D03*
X236953Y1700844D03*
D15*
X736953Y515020D03*
D16*
X1154950Y148010D02*
X738385Y150730D01*
D02*
X738385Y150730D02*
X737048Y397520D01*
D02*
X1220720Y121550D02*
X1154950Y148010D01*
D02*
X63369Y132520D02*
X57310Y1609770D01*
D02*
X456953Y1700801D02*
X1188000Y1699460D01*
X1188000Y1699460D02*
X1226920Y1632321D01*
D02*
X255113Y1692459D02*
X396000Y1627460D01*
X396000Y1627460D02*
X1016960Y1615406D01*
D02*
X344827Y1485065D02*
X858182Y1484838D01*
D02*
X1029710Y1324201D02*
X1036810Y432520D01*
D02*
X858182Y1484838D02*
X1029710Y1324201D01*
G04 End of Copper0*
M02*