G04 MADE WITH FRITZING*
G04 WWW.FRITZING.ORG*
G04 DOUBLE SIDED*
G04 HOLES PLATED*
G04 CONTOUR ON CENTER OF CONTOUR VECTOR*
%FSLAX26Y26*%
%MOIN*%
%ADD10C,0.005000*%
%ADD11C,0.010417*%
%ADD12R,0.001000X0.001000*%
%G04SILK0*%
%FSLAX26Y26*%
%MOIN*%
D10*
X1604720Y1705050D02*
X1604720Y1485050D01*
D02*
X1004720Y1705050D02*
X1004720Y1485050D01*
D02*
X1004720Y1705050D02*
X1604720Y1705050D01*
D02*
X1004720Y1485050D02*
X1054720Y1485050D01*
D02*
X1054720Y1485050D02*
X1554720Y1485050D01*
D02*
X1554720Y1485050D02*
X1604720Y1485050D01*
D02*
X1554720Y1485050D02*
X1554720Y1535050D01*
D11*
D02*
X150841Y1760737D02*
X561660Y1760737D01*
D02*
X561660Y1760737D02*
X561660Y1364904D01*
D02*
X561660Y1364904D02*
X150841Y1364904D01*
D02*
X150841Y1364904D02*
X150841Y1760737D01*
D02*
X561660Y1507334D02*
X150841Y1507334D01*
D12*
X500Y1783480D02*
X1741500Y1783480D01*
X500Y1782480D02*
X1741500Y1782480D01*
X500Y1781480D02*
X1741500Y1781480D01*
X500Y1780480D02*
X1741500Y1780480D01*
X500Y1779480D02*
X1741500Y1779480D01*
X500Y1778480D02*
X1741500Y1778480D01*
X500Y1777480D02*
X1741500Y1777480D01*
X500Y1776480D02*
X1741500Y1776480D01*
X500Y1775480D02*
X7500Y1775480D01*
X1734500Y1775480D02*
X1741500Y1775480D01*
X500Y1774480D02*
X7500Y1774480D01*
X1734500Y1774480D02*
X1741500Y1774480D01*
X500Y1773480D02*
X7500Y1773480D01*
X1734500Y1773480D02*
X1741500Y1773480D01*
X500Y1772480D02*
X7500Y1772480D01*
X1734500Y1772480D02*
X1741500Y1772480D01*
X500Y1771480D02*
X7500Y1771480D01*
X1734500Y1771480D02*
X1741500Y1771480D01*
X500Y1770480D02*
X7500Y1770480D01*
X1734500Y1770480D02*
X1741500Y1770480D01*
X500Y1769480D02*
X7500Y1769480D01*
X1734500Y1769480D02*
X1741500Y1769480D01*
X500Y1768480D02*
X7500Y1768480D01*
X1734500Y1768480D02*
X1741500Y1768480D01*
X500Y1767480D02*
X7500Y1767480D01*
X1734500Y1767480D02*
X1741500Y1767480D01*
X500Y1766480D02*
X7500Y1766480D01*
X1734500Y1766480D02*
X1741500Y1766480D01*
X500Y1765480D02*
X7500Y1765480D01*
X1734500Y1765480D02*
X1741500Y1765480D01*
X500Y1764480D02*
X7500Y1764480D01*
X1734500Y1764480D02*
X1741500Y1764480D01*
X500Y1763480D02*
X7500Y1763480D01*
X1734500Y1763480D02*
X1741500Y1763480D01*
X500Y1762480D02*
X7500Y1762480D01*
X1734500Y1762480D02*
X1741500Y1762480D01*
X500Y1761480D02*
X7500Y1761480D01*
X1734500Y1761480D02*
X1741500Y1761480D01*
X500Y1760480D02*
X7500Y1760480D01*
X1734500Y1760480D02*
X1741500Y1760480D01*
X500Y1759480D02*
X7500Y1759480D01*
X1734500Y1759480D02*
X1741500Y1759480D01*
X500Y1758480D02*
X7500Y1758480D01*
X1734500Y1758480D02*
X1741500Y1758480D01*
X500Y1757480D02*
X7500Y1757480D01*
X1734500Y1757480D02*
X1741500Y1757480D01*
X500Y1756480D02*
X7500Y1756480D01*
X1734500Y1756480D02*
X1741500Y1756480D01*
X500Y1755480D02*
X7500Y1755480D01*
X1734500Y1755480D02*
X1741500Y1755480D01*
X500Y1754480D02*
X7500Y1754480D01*
X1734500Y1754480D02*
X1741500Y1754480D01*
X500Y1753480D02*
X7500Y1753480D01*
X1734500Y1753480D02*
X1741500Y1753480D01*
X500Y1752480D02*
X7500Y1752480D01*
X1734500Y1752480D02*
X1741500Y1752480D01*
X500Y1751480D02*
X7500Y1751480D01*
X1734500Y1751480D02*
X1741500Y1751480D01*
X500Y1750480D02*
X7500Y1750480D01*
X1734500Y1750480D02*
X1741500Y1750480D01*
X500Y1749480D02*
X7500Y1749480D01*
X1734500Y1749480D02*
X1741500Y1749480D01*
X500Y1748480D02*
X7500Y1748480D01*
X1734500Y1748480D02*
X1741500Y1748480D01*
X500Y1747480D02*
X7500Y1747480D01*
X1734500Y1747480D02*
X1741500Y1747480D01*
X500Y1746480D02*
X7500Y1746480D01*
X1734500Y1746480D02*
X1741500Y1746480D01*
X500Y1745480D02*
X7500Y1745480D01*
X1734500Y1745480D02*
X1741500Y1745480D01*
X500Y1744480D02*
X7500Y1744480D01*
X1734500Y1744480D02*
X1741500Y1744480D01*
X500Y1743480D02*
X7500Y1743480D01*
X1734500Y1743480D02*
X1741500Y1743480D01*
X500Y1742480D02*
X7500Y1742480D01*
X1734500Y1742480D02*
X1741500Y1742480D01*
X500Y1741480D02*
X7500Y1741480D01*
X1734500Y1741480D02*
X1741500Y1741480D01*
X500Y1740480D02*
X7500Y1740480D01*
X1734500Y1740480D02*
X1741500Y1740480D01*
X500Y1739480D02*
X7500Y1739480D01*
X1734500Y1739480D02*
X1741500Y1739480D01*
X500Y1738480D02*
X7500Y1738480D01*
X1734500Y1738480D02*
X1741500Y1738480D01*
X500Y1737480D02*
X7500Y1737480D01*
X1734500Y1737480D02*
X1741500Y1737480D01*
X500Y1736480D02*
X7500Y1736480D01*
X1734500Y1736480D02*
X1741500Y1736480D01*
X500Y1735480D02*
X7500Y1735480D01*
X1734500Y1735480D02*
X1741500Y1735480D01*
X500Y1734480D02*
X7500Y1734480D01*
X1734500Y1734480D02*
X1741500Y1734480D01*
X500Y1733480D02*
X7500Y1733480D01*
X1734500Y1733480D02*
X1741500Y1733480D01*
X500Y1732480D02*
X7500Y1732480D01*
X1734500Y1732480D02*
X1741500Y1732480D01*
X500Y1731480D02*
X7500Y1731480D01*
X1734500Y1731480D02*
X1741500Y1731480D01*
X500Y1730480D02*
X7500Y1730480D01*
X1734500Y1730480D02*
X1741500Y1730480D01*
X500Y1729480D02*
X7500Y1729480D01*
X1734500Y1729480D02*
X1741500Y1729480D01*
X500Y1728480D02*
X7500Y1728480D01*
X1734500Y1728480D02*
X1741500Y1728480D01*
X500Y1727480D02*
X7500Y1727480D01*
X1734500Y1727480D02*
X1741500Y1727480D01*
X500Y1726480D02*
X7500Y1726480D01*
X1734500Y1726480D02*
X1741500Y1726480D01*
X500Y1725480D02*
X7500Y1725480D01*
X1734500Y1725480D02*
X1741500Y1725480D01*
X500Y1724480D02*
X7500Y1724480D01*
X1734500Y1724480D02*
X1741500Y1724480D01*
X500Y1723480D02*
X7500Y1723480D01*
X1734500Y1723480D02*
X1741500Y1723480D01*
X500Y1722480D02*
X7500Y1722480D01*
X1734500Y1722480D02*
X1741500Y1722480D01*
X500Y1721480D02*
X7500Y1721480D01*
X1734500Y1721480D02*
X1741500Y1721480D01*
X500Y1720480D02*
X7500Y1720480D01*
X1734500Y1720480D02*
X1741500Y1720480D01*
X500Y1719480D02*
X7500Y1719480D01*
X1734500Y1719480D02*
X1741500Y1719480D01*
X500Y1718480D02*
X7500Y1718480D01*
X1734500Y1718480D02*
X1741500Y1718480D01*
X500Y1717480D02*
X7500Y1717480D01*
X1734500Y1717480D02*
X1741500Y1717480D01*
X500Y1716480D02*
X7500Y1716480D01*
X1734500Y1716480D02*
X1741500Y1716480D01*
X500Y1715480D02*
X7500Y1715480D01*
X1734500Y1715480D02*
X1741500Y1715480D01*
X500Y1714480D02*
X7500Y1714480D01*
X1734500Y1714480D02*
X1741500Y1714480D01*
X500Y1713480D02*
X7500Y1713480D01*
X1734500Y1713480D02*
X1741500Y1713480D01*
X500Y1712480D02*
X7500Y1712480D01*
X1734500Y1712480D02*
X1741500Y1712480D01*
X500Y1711480D02*
X7500Y1711480D01*
X1734500Y1711480D02*
X1741500Y1711480D01*
X500Y1710480D02*
X7500Y1710480D01*
X1734500Y1710480D02*
X1741500Y1710480D01*
X500Y1709480D02*
X7500Y1709480D01*
X1734500Y1709480D02*
X1741500Y1709480D01*
X500Y1708480D02*
X7500Y1708480D01*
X1734500Y1708480D02*
X1741500Y1708480D01*
X500Y1707480D02*
X7500Y1707480D01*
X1734500Y1707480D02*
X1741500Y1707480D01*
X500Y1706480D02*
X7500Y1706480D01*
X1734500Y1706480D02*
X1741500Y1706480D01*
X500Y1705480D02*
X7500Y1705480D01*
X1734500Y1705480D02*
X1741500Y1705480D01*
X500Y1704480D02*
X7500Y1704480D01*
X1734500Y1704480D02*
X1741500Y1704480D01*
X500Y1703480D02*
X7500Y1703480D01*
X1734500Y1703480D02*
X1741500Y1703480D01*
X500Y1702480D02*
X7500Y1702480D01*
X1734500Y1702480D02*
X1741500Y1702480D01*
X500Y1701480D02*
X7500Y1701480D01*
X1734500Y1701480D02*
X1741500Y1701480D01*
X500Y1700480D02*
X7500Y1700480D01*
X1734500Y1700480D02*
X1741500Y1700480D01*
X500Y1699480D02*
X7500Y1699480D01*
X1734500Y1699480D02*
X1741500Y1699480D01*
X500Y1698480D02*
X7500Y1698480D01*
X1734500Y1698480D02*
X1741500Y1698480D01*
X500Y1697480D02*
X7500Y1697480D01*
X1734500Y1697480D02*
X1741500Y1697480D01*
X500Y1696480D02*
X7500Y1696480D01*
X1734500Y1696480D02*
X1741500Y1696480D01*
X500Y1695480D02*
X7500Y1695480D01*
X1734500Y1695480D02*
X1741500Y1695480D01*
X500Y1694480D02*
X7500Y1694480D01*
X1734500Y1694480D02*
X1741500Y1694480D01*
X500Y1693480D02*
X7500Y1693480D01*
X1734500Y1693480D02*
X1741500Y1693480D01*
X500Y1692480D02*
X7500Y1692480D01*
X1734500Y1692480D02*
X1741500Y1692480D01*
X500Y1691480D02*
X7500Y1691480D01*
X1734500Y1691480D02*
X1741500Y1691480D01*
X500Y1690480D02*
X7500Y1690480D01*
X1734500Y1690480D02*
X1741500Y1690480D01*
X500Y1689480D02*
X7500Y1689480D01*
X1734500Y1689480D02*
X1741500Y1689480D01*
X500Y1688480D02*
X7500Y1688480D01*
X1734500Y1688480D02*
X1741500Y1688480D01*
X500Y1687480D02*
X7500Y1687480D01*
X1734500Y1687480D02*
X1741500Y1687480D01*
X500Y1686480D02*
X7500Y1686480D01*
X1734500Y1686480D02*
X1741500Y1686480D01*
X500Y1685480D02*
X7500Y1685480D01*
X1734500Y1685480D02*
X1741500Y1685480D01*
X500Y1684480D02*
X7500Y1684480D01*
X1734500Y1684480D02*
X1741500Y1684480D01*
X500Y1683480D02*
X7500Y1683480D01*
X1734500Y1683480D02*
X1741500Y1683480D01*
X500Y1682480D02*
X7500Y1682480D01*
X1734500Y1682480D02*
X1741500Y1682480D01*
X500Y1681480D02*
X7500Y1681480D01*
X1734500Y1681480D02*
X1741500Y1681480D01*
X500Y1680480D02*
X7500Y1680480D01*
X1734500Y1680480D02*
X1741500Y1680480D01*
X500Y1679480D02*
X7500Y1679480D01*
X1734500Y1679480D02*
X1741500Y1679480D01*
X500Y1678480D02*
X7500Y1678480D01*
X1734500Y1678480D02*
X1741500Y1678480D01*
X500Y1677480D02*
X7500Y1677480D01*
X1734500Y1677480D02*
X1741500Y1677480D01*
X500Y1676480D02*
X7500Y1676480D01*
X1734500Y1676480D02*
X1741500Y1676480D01*
X500Y1675480D02*
X7500Y1675480D01*
X1734500Y1675480D02*
X1741500Y1675480D01*
X500Y1674480D02*
X7500Y1674480D01*
X1734500Y1674480D02*
X1741500Y1674480D01*
X500Y1673480D02*
X7500Y1673480D01*
X1734500Y1673480D02*
X1741500Y1673480D01*
X500Y1672480D02*
X7500Y1672480D01*
X1734500Y1672480D02*
X1741500Y1672480D01*
X500Y1671480D02*
X7500Y1671480D01*
X1734500Y1671480D02*
X1741500Y1671480D01*
X500Y1670480D02*
X7500Y1670480D01*
X1734500Y1670480D02*
X1741500Y1670480D01*
X500Y1669480D02*
X7500Y1669480D01*
X1734500Y1669480D02*
X1741500Y1669480D01*
X500Y1668480D02*
X7500Y1668480D01*
X1734500Y1668480D02*
X1741500Y1668480D01*
X500Y1667480D02*
X7500Y1667480D01*
X1734500Y1667480D02*
X1741500Y1667480D01*
X500Y1666480D02*
X7500Y1666480D01*
X1734500Y1666480D02*
X1741500Y1666480D01*
X500Y1665480D02*
X7500Y1665480D01*
X1734500Y1665480D02*
X1741500Y1665480D01*
X500Y1664480D02*
X7500Y1664480D01*
X1734500Y1664480D02*
X1741500Y1664480D01*
X500Y1663480D02*
X7500Y1663480D01*
X1734500Y1663480D02*
X1741500Y1663480D01*
X500Y1662480D02*
X7500Y1662480D01*
X1734500Y1662480D02*
X1741500Y1662480D01*
X500Y1661480D02*
X7500Y1661480D01*
X1734500Y1661480D02*
X1741500Y1661480D01*
X500Y1660480D02*
X7500Y1660480D01*
X1734500Y1660480D02*
X1741500Y1660480D01*
X500Y1659480D02*
X7500Y1659480D01*
X1734500Y1659480D02*
X1741500Y1659480D01*
X500Y1658480D02*
X7500Y1658480D01*
X1734500Y1658480D02*
X1741500Y1658480D01*
X500Y1657480D02*
X7500Y1657480D01*
X1734500Y1657480D02*
X1741500Y1657480D01*
X500Y1656480D02*
X7500Y1656480D01*
X1734500Y1656480D02*
X1741500Y1656480D01*
X500Y1655480D02*
X7500Y1655480D01*
X1734500Y1655480D02*
X1741500Y1655480D01*
X500Y1654480D02*
X7500Y1654480D01*
X1734500Y1654480D02*
X1741500Y1654480D01*
X500Y1653480D02*
X7500Y1653480D01*
X1734500Y1653480D02*
X1741500Y1653480D01*
X500Y1652480D02*
X7500Y1652480D01*
X1734500Y1652480D02*
X1741500Y1652480D01*
X500Y1651480D02*
X7500Y1651480D01*
X1734500Y1651480D02*
X1741500Y1651480D01*
X500Y1650480D02*
X7500Y1650480D01*
X1734500Y1650480D02*
X1741500Y1650480D01*
X500Y1649480D02*
X7500Y1649480D01*
X1734500Y1649480D02*
X1741500Y1649480D01*
X500Y1648480D02*
X7500Y1648480D01*
X1734500Y1648480D02*
X1741500Y1648480D01*
X500Y1647480D02*
X7500Y1647480D01*
X1734500Y1647480D02*
X1741500Y1647480D01*
X500Y1646480D02*
X7500Y1646480D01*
X1734500Y1646480D02*
X1741500Y1646480D01*
X500Y1645480D02*
X7500Y1645480D01*
X1734500Y1645480D02*
X1741500Y1645480D01*
X500Y1644480D02*
X7500Y1644480D01*
X1734500Y1644480D02*
X1741500Y1644480D01*
X500Y1643480D02*
X7500Y1643480D01*
X1734500Y1643480D02*
X1741500Y1643480D01*
X500Y1642480D02*
X7500Y1642480D01*
X1734500Y1642480D02*
X1741500Y1642480D01*
X500Y1641480D02*
X7500Y1641480D01*
X1734500Y1641480D02*
X1741500Y1641480D01*
X500Y1640480D02*
X7500Y1640480D01*
X1734500Y1640480D02*
X1741500Y1640480D01*
X500Y1639480D02*
X7500Y1639480D01*
X1734500Y1639480D02*
X1741500Y1639480D01*
X500Y1638480D02*
X7500Y1638480D01*
X1734500Y1638480D02*
X1741500Y1638480D01*
X500Y1637480D02*
X7500Y1637480D01*
X1734500Y1637480D02*
X1741500Y1637480D01*
X500Y1636480D02*
X7500Y1636480D01*
X1734500Y1636480D02*
X1741500Y1636480D01*
X500Y1635480D02*
X7500Y1635480D01*
X1734500Y1635480D02*
X1741500Y1635480D01*
X500Y1634480D02*
X7500Y1634480D01*
X1734500Y1634480D02*
X1741500Y1634480D01*
X500Y1633480D02*
X7500Y1633480D01*
X1734500Y1633480D02*
X1741500Y1633480D01*
X500Y1632480D02*
X7500Y1632480D01*
X1734500Y1632480D02*
X1741500Y1632480D01*
X500Y1631480D02*
X7500Y1631480D01*
X1734500Y1631480D02*
X1741500Y1631480D01*
X500Y1630480D02*
X7500Y1630480D01*
X1734500Y1630480D02*
X1741500Y1630480D01*
X500Y1629480D02*
X7500Y1629480D01*
X1734500Y1629480D02*
X1741500Y1629480D01*
X500Y1628480D02*
X7500Y1628480D01*
X1734500Y1628480D02*
X1741500Y1628480D01*
X500Y1627480D02*
X7500Y1627480D01*
X1734500Y1627480D02*
X1741500Y1627480D01*
X500Y1626480D02*
X7500Y1626480D01*
X1734500Y1626480D02*
X1741500Y1626480D01*
X500Y1625480D02*
X7500Y1625480D01*
X1734500Y1625480D02*
X1741500Y1625480D01*
X500Y1624480D02*
X7500Y1624480D01*
X1734500Y1624480D02*
X1741500Y1624480D01*
X500Y1623480D02*
X7500Y1623480D01*
X1734500Y1623480D02*
X1741500Y1623480D01*
X500Y1622480D02*
X7500Y1622480D01*
X1734500Y1622480D02*
X1741500Y1622480D01*
X500Y1621480D02*
X7500Y1621480D01*
X1734500Y1621480D02*
X1741500Y1621480D01*
X500Y1620480D02*
X7500Y1620480D01*
X1734500Y1620480D02*
X1741500Y1620480D01*
X500Y1619480D02*
X7500Y1619480D01*
X1734500Y1619480D02*
X1741500Y1619480D01*
X500Y1618480D02*
X7500Y1618480D01*
X1734500Y1618480D02*
X1741500Y1618480D01*
X500Y1617480D02*
X7500Y1617480D01*
X1734500Y1617480D02*
X1741500Y1617480D01*
X500Y1616480D02*
X7500Y1616480D01*
X1734500Y1616480D02*
X1741500Y1616480D01*
X500Y1615480D02*
X7500Y1615480D01*
X1734500Y1615480D02*
X1741500Y1615480D01*
X500Y1614480D02*
X7500Y1614480D01*
X1734500Y1614480D02*
X1741500Y1614480D01*
X500Y1613480D02*
X7500Y1613480D01*
X1734500Y1613480D02*
X1741500Y1613480D01*
X500Y1612480D02*
X7500Y1612480D01*
X1734500Y1612480D02*
X1741500Y1612480D01*
X500Y1611480D02*
X7500Y1611480D01*
X1734500Y1611480D02*
X1741500Y1611480D01*
X500Y1610480D02*
X7500Y1610480D01*
X1734500Y1610480D02*
X1741500Y1610480D01*
X500Y1609480D02*
X7500Y1609480D01*
X1734500Y1609480D02*
X1741500Y1609480D01*
X500Y1608480D02*
X7500Y1608480D01*
X1734500Y1608480D02*
X1741500Y1608480D01*
X500Y1607480D02*
X7500Y1607480D01*
X1734500Y1607480D02*
X1741500Y1607480D01*
X500Y1606480D02*
X7500Y1606480D01*
X1734500Y1606480D02*
X1741500Y1606480D01*
X500Y1605480D02*
X7500Y1605480D01*
X1734500Y1605480D02*
X1741500Y1605480D01*
X500Y1604480D02*
X7500Y1604480D01*
X1734500Y1604480D02*
X1741500Y1604480D01*
X500Y1603480D02*
X7500Y1603480D01*
X1734500Y1603480D02*
X1741500Y1603480D01*
X500Y1602480D02*
X7500Y1602480D01*
X1734500Y1602480D02*
X1741500Y1602480D01*
X500Y1601480D02*
X7500Y1601480D01*
X1734500Y1601480D02*
X1741500Y1601480D01*
X500Y1600480D02*
X7500Y1600480D01*
X1734500Y1600480D02*
X1741500Y1600480D01*
X500Y1599480D02*
X7500Y1599480D01*
X1734500Y1599480D02*
X1741500Y1599480D01*
X500Y1598480D02*
X7500Y1598480D01*
X1734500Y1598480D02*
X1741500Y1598480D01*
X500Y1597480D02*
X7500Y1597480D01*
X1734500Y1597480D02*
X1741500Y1597480D01*
X500Y1596480D02*
X7500Y1596480D01*
X1734500Y1596480D02*
X1741500Y1596480D01*
X500Y1595480D02*
X7500Y1595480D01*
X1734500Y1595480D02*
X1741500Y1595480D01*
X500Y1594480D02*
X7500Y1594480D01*
X1734500Y1594480D02*
X1741500Y1594480D01*
X500Y1593480D02*
X7500Y1593480D01*
X1734500Y1593480D02*
X1741500Y1593480D01*
X500Y1592480D02*
X7500Y1592480D01*
X1734500Y1592480D02*
X1741500Y1592480D01*
X500Y1591480D02*
X7500Y1591480D01*
X1734500Y1591480D02*
X1741500Y1591480D01*
X500Y1590480D02*
X7500Y1590480D01*
X1734500Y1590480D02*
X1741500Y1590480D01*
X500Y1589480D02*
X7500Y1589480D01*
X1734500Y1589480D02*
X1741500Y1589480D01*
X500Y1588480D02*
X7500Y1588480D01*
X1734500Y1588480D02*
X1741500Y1588480D01*
X500Y1587480D02*
X7500Y1587480D01*
X1734500Y1587480D02*
X1741500Y1587480D01*
X500Y1586480D02*
X7500Y1586480D01*
X1734500Y1586480D02*
X1741500Y1586480D01*
X500Y1585480D02*
X7500Y1585480D01*
X1734500Y1585480D02*
X1741500Y1585480D01*
X500Y1584480D02*
X7500Y1584480D01*
X1734500Y1584480D02*
X1741500Y1584480D01*
X500Y1583480D02*
X7500Y1583480D01*
X1734500Y1583480D02*
X1741500Y1583480D01*
X500Y1582480D02*
X7500Y1582480D01*
X1734500Y1582480D02*
X1741500Y1582480D01*
X500Y1581480D02*
X7500Y1581480D01*
X1734500Y1581480D02*
X1741500Y1581480D01*
X500Y1580480D02*
X7500Y1580480D01*
X1734500Y1580480D02*
X1741500Y1580480D01*
X500Y1579480D02*
X7500Y1579480D01*
X1734500Y1579480D02*
X1741500Y1579480D01*
X500Y1578480D02*
X7500Y1578480D01*
X1734500Y1578480D02*
X1741500Y1578480D01*
X500Y1577480D02*
X7500Y1577480D01*
X1734500Y1577480D02*
X1741500Y1577480D01*
X500Y1576480D02*
X7500Y1576480D01*
X1734500Y1576480D02*
X1741500Y1576480D01*
X500Y1575480D02*
X7500Y1575480D01*
X1734500Y1575480D02*
X1741500Y1575480D01*
X500Y1574480D02*
X7500Y1574480D01*
X1734500Y1574480D02*
X1741500Y1574480D01*
X500Y1573480D02*
X7500Y1573480D01*
X1734500Y1573480D02*
X1741500Y1573480D01*
X500Y1572480D02*
X7500Y1572480D01*
X1734500Y1572480D02*
X1741500Y1572480D01*
X500Y1571480D02*
X7500Y1571480D01*
X1734500Y1571480D02*
X1741500Y1571480D01*
X500Y1570480D02*
X7500Y1570480D01*
X1734500Y1570480D02*
X1741500Y1570480D01*
X500Y1569480D02*
X7500Y1569480D01*
X1734500Y1569480D02*
X1741500Y1569480D01*
X500Y1568480D02*
X7500Y1568480D01*
X1734500Y1568480D02*
X1741500Y1568480D01*
X500Y1567480D02*
X7500Y1567480D01*
X1734500Y1567480D02*
X1741500Y1567480D01*
X500Y1566480D02*
X7500Y1566480D01*
X1734500Y1566480D02*
X1741500Y1566480D01*
X500Y1565480D02*
X7500Y1565480D01*
X1734500Y1565480D02*
X1741500Y1565480D01*
X500Y1564480D02*
X7500Y1564480D01*
X1734500Y1564480D02*
X1741500Y1564480D01*
X500Y1563480D02*
X7500Y1563480D01*
X1734500Y1563480D02*
X1741500Y1563480D01*
X500Y1562480D02*
X7500Y1562480D01*
X1734500Y1562480D02*
X1741500Y1562480D01*
X500Y1561480D02*
X7500Y1561480D01*
X1734500Y1561480D02*
X1741500Y1561480D01*
X500Y1560480D02*
X7500Y1560480D01*
X1734500Y1560480D02*
X1741500Y1560480D01*
X500Y1559480D02*
X7500Y1559480D01*
X1734500Y1559480D02*
X1741500Y1559480D01*
X500Y1558480D02*
X7500Y1558480D01*
X1734500Y1558480D02*
X1741500Y1558480D01*
X500Y1557480D02*
X7500Y1557480D01*
X1734500Y1557480D02*
X1741500Y1557480D01*
X500Y1556480D02*
X7500Y1556480D01*
X1734500Y1556480D02*
X1741500Y1556480D01*
X500Y1555480D02*
X7500Y1555480D01*
X1734500Y1555480D02*
X1741500Y1555480D01*
X500Y1554480D02*
X7500Y1554480D01*
X1734500Y1554480D02*
X1741500Y1554480D01*
X500Y1553480D02*
X7500Y1553480D01*
X1734500Y1553480D02*
X1741500Y1553480D01*
X500Y1552480D02*
X7500Y1552480D01*
X1734500Y1552480D02*
X1741500Y1552480D01*
X500Y1551480D02*
X7500Y1551480D01*
X1734500Y1551480D02*
X1741500Y1551480D01*
X500Y1550480D02*
X7500Y1550480D01*
X1734500Y1550480D02*
X1741500Y1550480D01*
X500Y1549480D02*
X7500Y1549480D01*
X1734500Y1549480D02*
X1741500Y1549480D01*
X500Y1548480D02*
X7500Y1548480D01*
X1734500Y1548480D02*
X1741500Y1548480D01*
X500Y1547480D02*
X7500Y1547480D01*
X1734500Y1547480D02*
X1741500Y1547480D01*
X500Y1546480D02*
X7500Y1546480D01*
X1734500Y1546480D02*
X1741500Y1546480D01*
X500Y1545480D02*
X7500Y1545480D01*
X1734500Y1545480D02*
X1741500Y1545480D01*
X500Y1544480D02*
X7500Y1544480D01*
X1734500Y1544480D02*
X1741500Y1544480D01*
X500Y1543480D02*
X7500Y1543480D01*
X1734500Y1543480D02*
X1741500Y1543480D01*
X500Y1542480D02*
X7500Y1542480D01*
X1734500Y1542480D02*
X1741500Y1542480D01*
X500Y1541480D02*
X7500Y1541480D01*
X1734500Y1541480D02*
X1741500Y1541480D01*
X500Y1540480D02*
X7500Y1540480D01*
X1734500Y1540480D02*
X1741500Y1540480D01*
X500Y1539480D02*
X7500Y1539480D01*
X1734500Y1539480D02*
X1741500Y1539480D01*
X500Y1538480D02*
X7500Y1538480D01*
X1734500Y1538480D02*
X1741500Y1538480D01*
X500Y1537480D02*
X7500Y1537480D01*
X1073500Y1537480D02*
X1235500Y1537480D01*
X1272500Y1537480D02*
X1435500Y1537480D01*
X1472500Y1537480D02*
X1554500Y1537480D01*
X1734500Y1537480D02*
X1741500Y1537480D01*
X500Y1536480D02*
X7500Y1536480D01*
X1070500Y1536480D02*
X1237500Y1536480D01*
X1270500Y1536480D02*
X1437500Y1536480D01*
X1470500Y1536480D02*
X1555500Y1536480D01*
X1734500Y1536480D02*
X1741500Y1536480D01*
X500Y1535480D02*
X7500Y1535480D01*
X1068500Y1535480D02*
X1240500Y1535480D01*
X1268500Y1535480D02*
X1440500Y1535480D01*
X1468500Y1535480D02*
X1555500Y1535480D01*
X1734500Y1535480D02*
X1741500Y1535480D01*
X500Y1534480D02*
X7500Y1534480D01*
X1064500Y1534480D02*
X1243500Y1534480D01*
X1264500Y1534480D02*
X1443500Y1534480D01*
X1464500Y1534480D02*
X1555500Y1534480D01*
X1734500Y1534480D02*
X1741500Y1534480D01*
X500Y1533480D02*
X7500Y1533480D01*
X1059500Y1533480D02*
X1249500Y1533480D01*
X1259500Y1533480D02*
X1449500Y1533480D01*
X1458500Y1533480D02*
X1555500Y1533480D01*
X1734500Y1533480D02*
X1741500Y1533480D01*
X500Y1532480D02*
X7500Y1532480D01*
X1052500Y1532480D02*
X1056500Y1532480D01*
X1734500Y1532480D02*
X1741500Y1532480D01*
X500Y1531480D02*
X7500Y1531480D01*
X1052500Y1531480D02*
X1056500Y1531480D01*
X1734500Y1531480D02*
X1741500Y1531480D01*
X500Y1530480D02*
X7500Y1530480D01*
X1052500Y1530480D02*
X1056500Y1530480D01*
X1734500Y1530480D02*
X1741500Y1530480D01*
X500Y1529480D02*
X7500Y1529480D01*
X1052500Y1529480D02*
X1056500Y1529480D01*
X1734500Y1529480D02*
X1741500Y1529480D01*
X500Y1528480D02*
X7500Y1528480D01*
X1052500Y1528480D02*
X1056500Y1528480D01*
X1734500Y1528480D02*
X1741500Y1528480D01*
X500Y1527480D02*
X7500Y1527480D01*
X1052500Y1527480D02*
X1056500Y1527480D01*
X1734500Y1527480D02*
X1741500Y1527480D01*
X500Y1526480D02*
X7500Y1526480D01*
X1052500Y1526480D02*
X1056500Y1526480D01*
X1734500Y1526480D02*
X1741500Y1526480D01*
X500Y1525480D02*
X7500Y1525480D01*
X1052500Y1525480D02*
X1056500Y1525480D01*
X1734500Y1525480D02*
X1741500Y1525480D01*
X500Y1524480D02*
X7500Y1524480D01*
X1052500Y1524480D02*
X1056500Y1524480D01*
X1734500Y1524480D02*
X1741500Y1524480D01*
X500Y1523480D02*
X7500Y1523480D01*
X1052500Y1523480D02*
X1056500Y1523480D01*
X1734500Y1523480D02*
X1741500Y1523480D01*
X500Y1522480D02*
X7500Y1522480D01*
X1052500Y1522480D02*
X1056500Y1522480D01*
X1734500Y1522480D02*
X1741500Y1522480D01*
X500Y1521480D02*
X7500Y1521480D01*
X1052500Y1521480D02*
X1056500Y1521480D01*
X1734500Y1521480D02*
X1741500Y1521480D01*
X500Y1520480D02*
X7500Y1520480D01*
X1052500Y1520480D02*
X1056500Y1520480D01*
X1734500Y1520480D02*
X1741500Y1520480D01*
X500Y1519480D02*
X7500Y1519480D01*
X1052500Y1519480D02*
X1056500Y1519480D01*
X1734500Y1519480D02*
X1741500Y1519480D01*
X500Y1518480D02*
X7500Y1518480D01*
X1052500Y1518480D02*
X1056500Y1518480D01*
X1734500Y1518480D02*
X1741500Y1518480D01*
X500Y1517480D02*
X7500Y1517480D01*
X1052500Y1517480D02*
X1056500Y1517480D01*
X1734500Y1517480D02*
X1741500Y1517480D01*
X500Y1516480D02*
X7500Y1516480D01*
X1052500Y1516480D02*
X1056500Y1516480D01*
X1734500Y1516480D02*
X1741500Y1516480D01*
X500Y1515480D02*
X7500Y1515480D01*
X1052500Y1515480D02*
X1056500Y1515480D01*
X1734500Y1515480D02*
X1741500Y1515480D01*
X500Y1514480D02*
X7500Y1514480D01*
X1052500Y1514480D02*
X1056500Y1514480D01*
X1734500Y1514480D02*
X1741500Y1514480D01*
X500Y1513480D02*
X7500Y1513480D01*
X1052500Y1513480D02*
X1056500Y1513480D01*
X1734500Y1513480D02*
X1741500Y1513480D01*
X500Y1512480D02*
X7500Y1512480D01*
X1052500Y1512480D02*
X1056500Y1512480D01*
X1734500Y1512480D02*
X1741500Y1512480D01*
X500Y1511480D02*
X7500Y1511480D01*
X1052500Y1511480D02*
X1056500Y1511480D01*
X1734500Y1511480D02*
X1741500Y1511480D01*
X500Y1510480D02*
X7500Y1510480D01*
X1052500Y1510480D02*
X1056500Y1510480D01*
X1734500Y1510480D02*
X1741500Y1510480D01*
X500Y1509480D02*
X7500Y1509480D01*
X1052500Y1509480D02*
X1056500Y1509480D01*
X1734500Y1509480D02*
X1741500Y1509480D01*
X500Y1508480D02*
X7500Y1508480D01*
X1052500Y1508480D02*
X1056500Y1508480D01*
X1734500Y1508480D02*
X1741500Y1508480D01*
X500Y1507480D02*
X7500Y1507480D01*
X1052500Y1507480D02*
X1056500Y1507480D01*
X1734500Y1507480D02*
X1741500Y1507480D01*
X500Y1506480D02*
X7500Y1506480D01*
X1052500Y1506480D02*
X1056500Y1506480D01*
X1734500Y1506480D02*
X1741500Y1506480D01*
X500Y1505480D02*
X7500Y1505480D01*
X1052500Y1505480D02*
X1056500Y1505480D01*
X1734500Y1505480D02*
X1741500Y1505480D01*
X500Y1504480D02*
X7500Y1504480D01*
X1052500Y1504480D02*
X1056500Y1504480D01*
X1734500Y1504480D02*
X1741500Y1504480D01*
X500Y1503480D02*
X7500Y1503480D01*
X1052500Y1503480D02*
X1056500Y1503480D01*
X1734500Y1503480D02*
X1741500Y1503480D01*
X500Y1502480D02*
X7500Y1502480D01*
X1052500Y1502480D02*
X1056500Y1502480D01*
X1734500Y1502480D02*
X1741500Y1502480D01*
X500Y1501480D02*
X7500Y1501480D01*
X1052500Y1501480D02*
X1056500Y1501480D01*
X1734500Y1501480D02*
X1741500Y1501480D01*
X500Y1500480D02*
X7500Y1500480D01*
X1052500Y1500480D02*
X1056500Y1500480D01*
X1734500Y1500480D02*
X1741500Y1500480D01*
X500Y1499480D02*
X7500Y1499480D01*
X1052500Y1499480D02*
X1056500Y1499480D01*
X1734500Y1499480D02*
X1741500Y1499480D01*
X500Y1498480D02*
X7500Y1498480D01*
X1052500Y1498480D02*
X1056500Y1498480D01*
X1734500Y1498480D02*
X1741500Y1498480D01*
X500Y1497480D02*
X7500Y1497480D01*
X1052500Y1497480D02*
X1056500Y1497480D01*
X1734500Y1497480D02*
X1741500Y1497480D01*
X500Y1496480D02*
X7500Y1496480D01*
X1052500Y1496480D02*
X1056500Y1496480D01*
X1734500Y1496480D02*
X1741500Y1496480D01*
X500Y1495480D02*
X7500Y1495480D01*
X1052500Y1495480D02*
X1056500Y1495480D01*
X1734500Y1495480D02*
X1741500Y1495480D01*
X500Y1494480D02*
X7500Y1494480D01*
X1052500Y1494480D02*
X1056500Y1494480D01*
X1734500Y1494480D02*
X1741500Y1494480D01*
X500Y1493480D02*
X7500Y1493480D01*
X1052500Y1493480D02*
X1056500Y1493480D01*
X1734500Y1493480D02*
X1741500Y1493480D01*
X500Y1492480D02*
X7500Y1492480D01*
X1052500Y1492480D02*
X1056500Y1492480D01*
X1734500Y1492480D02*
X1741500Y1492480D01*
X500Y1491480D02*
X7500Y1491480D01*
X1052500Y1491480D02*
X1056500Y1491480D01*
X1734500Y1491480D02*
X1741500Y1491480D01*
X500Y1490480D02*
X7500Y1490480D01*
X1052500Y1490480D02*
X1056500Y1490480D01*
X1734500Y1490480D02*
X1741500Y1490480D01*
X500Y1489480D02*
X7500Y1489480D01*
X1052500Y1489480D02*
X1056500Y1489480D01*
X1734500Y1489480D02*
X1741500Y1489480D01*
X500Y1488480D02*
X7500Y1488480D01*
X1052500Y1488480D02*
X1056500Y1488480D01*
X1734500Y1488480D02*
X1741500Y1488480D01*
X500Y1487480D02*
X7500Y1487480D01*
X1052500Y1487480D02*
X1056500Y1487480D01*
X1734500Y1487480D02*
X1741500Y1487480D01*
X500Y1486480D02*
X7500Y1486480D01*
X1052500Y1486480D02*
X1056500Y1486480D01*
X1734500Y1486480D02*
X1741500Y1486480D01*
X500Y1485480D02*
X7500Y1485480D01*
X1052500Y1485480D02*
X1056500Y1485480D01*
X1734500Y1485480D02*
X1741500Y1485480D01*
X500Y1484480D02*
X7500Y1484480D01*
X1052500Y1484480D02*
X1056500Y1484480D01*
X1734500Y1484480D02*
X1741500Y1484480D01*
X500Y1483480D02*
X7500Y1483480D01*
X1053500Y1483480D02*
X1055500Y1483480D01*
X1734500Y1483480D02*
X1741500Y1483480D01*
X500Y1482480D02*
X7500Y1482480D01*
X1734500Y1482480D02*
X1741500Y1482480D01*
X500Y1481480D02*
X7500Y1481480D01*
X1734500Y1481480D02*
X1741500Y1481480D01*
X500Y1480480D02*
X7500Y1480480D01*
X1734500Y1480480D02*
X1741500Y1480480D01*
X500Y1479480D02*
X7500Y1479480D01*
X1734500Y1479480D02*
X1741500Y1479480D01*
X500Y1478480D02*
X7500Y1478480D01*
X1734500Y1478480D02*
X1741500Y1478480D01*
X500Y1477480D02*
X7500Y1477480D01*
X1734500Y1477480D02*
X1741500Y1477480D01*
X500Y1476480D02*
X7500Y1476480D01*
X1734500Y1476480D02*
X1741500Y1476480D01*
X500Y1475480D02*
X7500Y1475480D01*
X1734500Y1475480D02*
X1741500Y1475480D01*
X500Y1474480D02*
X7500Y1474480D01*
X1734500Y1474480D02*
X1741500Y1474480D01*
X500Y1473480D02*
X7500Y1473480D01*
X1734500Y1473480D02*
X1741500Y1473480D01*
X500Y1472480D02*
X7500Y1472480D01*
X1734500Y1472480D02*
X1741500Y1472480D01*
X500Y1471480D02*
X7500Y1471480D01*
X1734500Y1471480D02*
X1741500Y1471480D01*
X500Y1470480D02*
X7500Y1470480D01*
X1734500Y1470480D02*
X1741500Y1470480D01*
X500Y1469480D02*
X7500Y1469480D01*
X1734500Y1469480D02*
X1741500Y1469480D01*
X500Y1468480D02*
X7500Y1468480D01*
X1734500Y1468480D02*
X1741500Y1468480D01*
X500Y1467480D02*
X7500Y1467480D01*
X1734500Y1467480D02*
X1741500Y1467480D01*
X500Y1466480D02*
X7500Y1466480D01*
X1734500Y1466480D02*
X1741500Y1466480D01*
X500Y1465480D02*
X7500Y1465480D01*
X1734500Y1465480D02*
X1741500Y1465480D01*
X500Y1464480D02*
X7500Y1464480D01*
X1734500Y1464480D02*
X1741500Y1464480D01*
X500Y1463480D02*
X7500Y1463480D01*
X1734500Y1463480D02*
X1741500Y1463480D01*
X500Y1462480D02*
X7500Y1462480D01*
X1734500Y1462480D02*
X1741500Y1462480D01*
X500Y1461480D02*
X7500Y1461480D01*
X1734500Y1461480D02*
X1741500Y1461480D01*
X500Y1460480D02*
X7500Y1460480D01*
X1734500Y1460480D02*
X1741500Y1460480D01*
X500Y1459480D02*
X7500Y1459480D01*
X1734500Y1459480D02*
X1741500Y1459480D01*
X500Y1458480D02*
X7500Y1458480D01*
X1734500Y1458480D02*
X1741500Y1458480D01*
X500Y1457480D02*
X7500Y1457480D01*
X1734500Y1457480D02*
X1741500Y1457480D01*
X500Y1456480D02*
X7500Y1456480D01*
X1734500Y1456480D02*
X1741500Y1456480D01*
X500Y1455480D02*
X7500Y1455480D01*
X1734500Y1455480D02*
X1741500Y1455480D01*
X500Y1454480D02*
X7500Y1454480D01*
X1734500Y1454480D02*
X1741500Y1454480D01*
X500Y1453480D02*
X7500Y1453480D01*
X1734500Y1453480D02*
X1741500Y1453480D01*
X500Y1452480D02*
X7500Y1452480D01*
X1734500Y1452480D02*
X1741500Y1452480D01*
X500Y1451480D02*
X7500Y1451480D01*
X1734500Y1451480D02*
X1741500Y1451480D01*
X500Y1450480D02*
X7500Y1450480D01*
X1734500Y1450480D02*
X1741500Y1450480D01*
X500Y1449480D02*
X7500Y1449480D01*
X1734500Y1449480D02*
X1741500Y1449480D01*
X500Y1448480D02*
X7500Y1448480D01*
X1734500Y1448480D02*
X1741500Y1448480D01*
X500Y1447480D02*
X7500Y1447480D01*
X1734500Y1447480D02*
X1741500Y1447480D01*
X500Y1446480D02*
X7500Y1446480D01*
X1734500Y1446480D02*
X1741500Y1446480D01*
X500Y1445480D02*
X7500Y1445480D01*
X1734500Y1445480D02*
X1741500Y1445480D01*
X500Y1444480D02*
X7500Y1444480D01*
X1734500Y1444480D02*
X1741500Y1444480D01*
X500Y1443480D02*
X7500Y1443480D01*
X1734500Y1443480D02*
X1741500Y1443480D01*
X500Y1442480D02*
X7500Y1442480D01*
X1734500Y1442480D02*
X1741500Y1442480D01*
X500Y1441480D02*
X7500Y1441480D01*
X1734500Y1441480D02*
X1741500Y1441480D01*
X500Y1440480D02*
X7500Y1440480D01*
X1734500Y1440480D02*
X1741500Y1440480D01*
X500Y1439480D02*
X7500Y1439480D01*
X1734500Y1439480D02*
X1741500Y1439480D01*
X500Y1438480D02*
X7500Y1438480D01*
X1734500Y1438480D02*
X1741500Y1438480D01*
X500Y1437480D02*
X7500Y1437480D01*
X1734500Y1437480D02*
X1741500Y1437480D01*
X500Y1436480D02*
X7500Y1436480D01*
X1734500Y1436480D02*
X1741500Y1436480D01*
X500Y1435480D02*
X7500Y1435480D01*
X1734500Y1435480D02*
X1741500Y1435480D01*
X500Y1434480D02*
X7500Y1434480D01*
X1734500Y1434480D02*
X1741500Y1434480D01*
X500Y1433480D02*
X7500Y1433480D01*
X1734500Y1433480D02*
X1741500Y1433480D01*
X500Y1432480D02*
X7500Y1432480D01*
X1734500Y1432480D02*
X1741500Y1432480D01*
X500Y1431480D02*
X7500Y1431480D01*
X1734500Y1431480D02*
X1741500Y1431480D01*
X500Y1430480D02*
X7500Y1430480D01*
X1734500Y1430480D02*
X1741500Y1430480D01*
X500Y1429480D02*
X7500Y1429480D01*
X1734500Y1429480D02*
X1741500Y1429480D01*
X500Y1428480D02*
X7500Y1428480D01*
X1734500Y1428480D02*
X1741500Y1428480D01*
X500Y1427480D02*
X7500Y1427480D01*
X1734500Y1427480D02*
X1741500Y1427480D01*
X500Y1426480D02*
X7500Y1426480D01*
X1734500Y1426480D02*
X1741500Y1426480D01*
X500Y1425480D02*
X7500Y1425480D01*
X1734500Y1425480D02*
X1741500Y1425480D01*
X500Y1424480D02*
X7500Y1424480D01*
X1734500Y1424480D02*
X1741500Y1424480D01*
X500Y1423480D02*
X7500Y1423480D01*
X1734500Y1423480D02*
X1741500Y1423480D01*
X500Y1422480D02*
X7500Y1422480D01*
X1734500Y1422480D02*
X1741500Y1422480D01*
X500Y1421480D02*
X7500Y1421480D01*
X1734500Y1421480D02*
X1741500Y1421480D01*
X500Y1420480D02*
X7500Y1420480D01*
X1734500Y1420480D02*
X1741500Y1420480D01*
X500Y1419480D02*
X7500Y1419480D01*
X1734500Y1419480D02*
X1741500Y1419480D01*
X500Y1418480D02*
X7500Y1418480D01*
X1734500Y1418480D02*
X1741500Y1418480D01*
X500Y1417480D02*
X7500Y1417480D01*
X1734500Y1417480D02*
X1741500Y1417480D01*
X500Y1416480D02*
X7500Y1416480D01*
X1734500Y1416480D02*
X1741500Y1416480D01*
X500Y1415480D02*
X7500Y1415480D01*
X1734500Y1415480D02*
X1741500Y1415480D01*
X500Y1414480D02*
X7500Y1414480D01*
X1734500Y1414480D02*
X1741500Y1414480D01*
X500Y1413480D02*
X7500Y1413480D01*
X1734500Y1413480D02*
X1741500Y1413480D01*
X500Y1412480D02*
X7500Y1412480D01*
X1734500Y1412480D02*
X1741500Y1412480D01*
X500Y1411480D02*
X7500Y1411480D01*
X1734500Y1411480D02*
X1741500Y1411480D01*
X500Y1410480D02*
X7500Y1410480D01*
X1734500Y1410480D02*
X1741500Y1410480D01*
X500Y1409480D02*
X7500Y1409480D01*
X1734500Y1409480D02*
X1741500Y1409480D01*
X500Y1408480D02*
X7500Y1408480D01*
X1734500Y1408480D02*
X1741500Y1408480D01*
X500Y1407480D02*
X7500Y1407480D01*
X1734500Y1407480D02*
X1741500Y1407480D01*
X500Y1406480D02*
X7500Y1406480D01*
X1734500Y1406480D02*
X1741500Y1406480D01*
X500Y1405480D02*
X7500Y1405480D01*
X1734500Y1405480D02*
X1741500Y1405480D01*
X500Y1404480D02*
X7500Y1404480D01*
X1734500Y1404480D02*
X1741500Y1404480D01*
X500Y1403480D02*
X7500Y1403480D01*
X1734500Y1403480D02*
X1741500Y1403480D01*
X500Y1402480D02*
X7500Y1402480D01*
X1734500Y1402480D02*
X1741500Y1402480D01*
X500Y1401480D02*
X7500Y1401480D01*
X1734500Y1401480D02*
X1741500Y1401480D01*
X500Y1400480D02*
X7500Y1400480D01*
X1734500Y1400480D02*
X1741500Y1400480D01*
X500Y1399480D02*
X7500Y1399480D01*
X1734500Y1399480D02*
X1741500Y1399480D01*
X500Y1398480D02*
X7500Y1398480D01*
X1734500Y1398480D02*
X1741500Y1398480D01*
X500Y1397480D02*
X7500Y1397480D01*
X1734500Y1397480D02*
X1741500Y1397480D01*
X500Y1396480D02*
X7500Y1396480D01*
X1734500Y1396480D02*
X1741500Y1396480D01*
X500Y1395480D02*
X7500Y1395480D01*
X1734500Y1395480D02*
X1741500Y1395480D01*
X500Y1394480D02*
X7500Y1394480D01*
X1734500Y1394480D02*
X1741500Y1394480D01*
X500Y1393480D02*
X7500Y1393480D01*
X1734500Y1393480D02*
X1741500Y1393480D01*
X500Y1392480D02*
X7500Y1392480D01*
X1734500Y1392480D02*
X1741500Y1392480D01*
X500Y1391480D02*
X7500Y1391480D01*
X1734500Y1391480D02*
X1741500Y1391480D01*
X500Y1390480D02*
X7500Y1390480D01*
X1734500Y1390480D02*
X1741500Y1390480D01*
X500Y1389480D02*
X7500Y1389480D01*
X1734500Y1389480D02*
X1741500Y1389480D01*
X500Y1388480D02*
X7500Y1388480D01*
X1734500Y1388480D02*
X1741500Y1388480D01*
X500Y1387480D02*
X7500Y1387480D01*
X1734500Y1387480D02*
X1741500Y1387480D01*
X500Y1386480D02*
X7500Y1386480D01*
X1734500Y1386480D02*
X1741500Y1386480D01*
X500Y1385480D02*
X7500Y1385480D01*
X1734500Y1385480D02*
X1741500Y1385480D01*
X500Y1384480D02*
X7500Y1384480D01*
X1734500Y1384480D02*
X1741500Y1384480D01*
X500Y1383480D02*
X7500Y1383480D01*
X1734500Y1383480D02*
X1741500Y1383480D01*
X500Y1382480D02*
X7500Y1382480D01*
X1734500Y1382480D02*
X1741500Y1382480D01*
X500Y1381480D02*
X7500Y1381480D01*
X1734500Y1381480D02*
X1741500Y1381480D01*
X500Y1380480D02*
X7500Y1380480D01*
X1734500Y1380480D02*
X1741500Y1380480D01*
X500Y1379480D02*
X7500Y1379480D01*
X1734500Y1379480D02*
X1741500Y1379480D01*
X500Y1378480D02*
X7500Y1378480D01*
X1734500Y1378480D02*
X1741500Y1378480D01*
X500Y1377480D02*
X7500Y1377480D01*
X1734500Y1377480D02*
X1741500Y1377480D01*
X500Y1376480D02*
X7500Y1376480D01*
X1734500Y1376480D02*
X1741500Y1376480D01*
X500Y1375480D02*
X7500Y1375480D01*
X1734500Y1375480D02*
X1741500Y1375480D01*
X500Y1374480D02*
X7500Y1374480D01*
X1734500Y1374480D02*
X1741500Y1374480D01*
X500Y1373480D02*
X7500Y1373480D01*
X1734500Y1373480D02*
X1741500Y1373480D01*
X500Y1372480D02*
X7500Y1372480D01*
X1734500Y1372480D02*
X1741500Y1372480D01*
X500Y1371480D02*
X7500Y1371480D01*
X1734500Y1371480D02*
X1741500Y1371480D01*
X500Y1370480D02*
X7500Y1370480D01*
X1734500Y1370480D02*
X1741500Y1370480D01*
X500Y1369480D02*
X7500Y1369480D01*
X1734500Y1369480D02*
X1741500Y1369480D01*
X500Y1368480D02*
X7500Y1368480D01*
X1734500Y1368480D02*
X1741500Y1368480D01*
X500Y1367480D02*
X7500Y1367480D01*
X1734500Y1367480D02*
X1741500Y1367480D01*
X500Y1366480D02*
X7500Y1366480D01*
X1734500Y1366480D02*
X1741500Y1366480D01*
X500Y1365480D02*
X7500Y1365480D01*
X1734500Y1365480D02*
X1741500Y1365480D01*
X500Y1364480D02*
X7500Y1364480D01*
X1734500Y1364480D02*
X1741500Y1364480D01*
X500Y1363480D02*
X7500Y1363480D01*
X1734500Y1363480D02*
X1741500Y1363480D01*
X500Y1362480D02*
X7500Y1362480D01*
X1734500Y1362480D02*
X1741500Y1362480D01*
X500Y1361480D02*
X7500Y1361480D01*
X1734500Y1361480D02*
X1741500Y1361480D01*
X500Y1360480D02*
X7500Y1360480D01*
X1734500Y1360480D02*
X1741500Y1360480D01*
X500Y1359480D02*
X7500Y1359480D01*
X1734500Y1359480D02*
X1741500Y1359480D01*
X500Y1358480D02*
X7500Y1358480D01*
X1734500Y1358480D02*
X1741500Y1358480D01*
X500Y1357480D02*
X7500Y1357480D01*
X1734500Y1357480D02*
X1741500Y1357480D01*
X500Y1356480D02*
X7500Y1356480D01*
X1734500Y1356480D02*
X1741500Y1356480D01*
X500Y1355480D02*
X7500Y1355480D01*
X1734500Y1355480D02*
X1741500Y1355480D01*
X500Y1354480D02*
X7500Y1354480D01*
X1734500Y1354480D02*
X1741500Y1354480D01*
X500Y1353480D02*
X7500Y1353480D01*
X1734500Y1353480D02*
X1741500Y1353480D01*
X500Y1352480D02*
X7500Y1352480D01*
X1734500Y1352480D02*
X1741500Y1352480D01*
X500Y1351480D02*
X7500Y1351480D01*
X1734500Y1351480D02*
X1741500Y1351480D01*
X500Y1350480D02*
X7500Y1350480D01*
X1734500Y1350480D02*
X1741500Y1350480D01*
X500Y1349480D02*
X7500Y1349480D01*
X1734500Y1349480D02*
X1741500Y1349480D01*
X500Y1348480D02*
X7500Y1348480D01*
X1734500Y1348480D02*
X1741500Y1348480D01*
X500Y1347480D02*
X7500Y1347480D01*
X1734500Y1347480D02*
X1741500Y1347480D01*
X500Y1346480D02*
X7500Y1346480D01*
X1734500Y1346480D02*
X1741500Y1346480D01*
X500Y1345480D02*
X7500Y1345480D01*
X1734500Y1345480D02*
X1741500Y1345480D01*
X500Y1344480D02*
X7500Y1344480D01*
X1734500Y1344480D02*
X1741500Y1344480D01*
X500Y1343480D02*
X7500Y1343480D01*
X1734500Y1343480D02*
X1741500Y1343480D01*
X500Y1342480D02*
X7500Y1342480D01*
X1734500Y1342480D02*
X1741500Y1342480D01*
X500Y1341480D02*
X7500Y1341480D01*
X1734500Y1341480D02*
X1741500Y1341480D01*
X500Y1340480D02*
X7500Y1340480D01*
X1734500Y1340480D02*
X1741500Y1340480D01*
X500Y1339480D02*
X7500Y1339480D01*
X1734500Y1339480D02*
X1741500Y1339480D01*
X500Y1338480D02*
X7500Y1338480D01*
X1734500Y1338480D02*
X1741500Y1338480D01*
X500Y1337480D02*
X7500Y1337480D01*
X1734500Y1337480D02*
X1741500Y1337480D01*
X500Y1336480D02*
X7500Y1336480D01*
X1734500Y1336480D02*
X1741500Y1336480D01*
X500Y1335480D02*
X7500Y1335480D01*
X1734500Y1335480D02*
X1741500Y1335480D01*
X500Y1334480D02*
X7500Y1334480D01*
X1734500Y1334480D02*
X1741500Y1334480D01*
X500Y1333480D02*
X7500Y1333480D01*
X1734500Y1333480D02*
X1741500Y1333480D01*
X500Y1332480D02*
X7500Y1332480D01*
X1734500Y1332480D02*
X1741500Y1332480D01*
X500Y1331480D02*
X7500Y1331480D01*
X1734500Y1331480D02*
X1741500Y1331480D01*
X500Y1330480D02*
X7500Y1330480D01*
X1734500Y1330480D02*
X1741500Y1330480D01*
X500Y1329480D02*
X7500Y1329480D01*
X1734500Y1329480D02*
X1741500Y1329480D01*
X500Y1328480D02*
X7500Y1328480D01*
X1734500Y1328480D02*
X1741500Y1328480D01*
X500Y1327480D02*
X7500Y1327480D01*
X1734500Y1327480D02*
X1741500Y1327480D01*
X500Y1326480D02*
X7500Y1326480D01*
X1734500Y1326480D02*
X1741500Y1326480D01*
X500Y1325480D02*
X7500Y1325480D01*
X1734500Y1325480D02*
X1741500Y1325480D01*
X500Y1324480D02*
X7500Y1324480D01*
X1734500Y1324480D02*
X1741500Y1324480D01*
X500Y1323480D02*
X7500Y1323480D01*
X1734500Y1323480D02*
X1741500Y1323480D01*
X500Y1322480D02*
X7500Y1322480D01*
X1734500Y1322480D02*
X1741500Y1322480D01*
X500Y1321480D02*
X7500Y1321480D01*
X1734500Y1321480D02*
X1741500Y1321480D01*
X500Y1320480D02*
X7500Y1320480D01*
X1734500Y1320480D02*
X1741500Y1320480D01*
X500Y1319480D02*
X7500Y1319480D01*
X1734500Y1319480D02*
X1741500Y1319480D01*
X500Y1318480D02*
X7500Y1318480D01*
X1734500Y1318480D02*
X1741500Y1318480D01*
X500Y1317480D02*
X7500Y1317480D01*
X1734500Y1317480D02*
X1741500Y1317480D01*
X500Y1316480D02*
X7500Y1316480D01*
X1734500Y1316480D02*
X1741500Y1316480D01*
X500Y1315480D02*
X7500Y1315480D01*
X1734500Y1315480D02*
X1741500Y1315480D01*
X500Y1314480D02*
X7500Y1314480D01*
X1734500Y1314480D02*
X1741500Y1314480D01*
X500Y1313480D02*
X7500Y1313480D01*
X1734500Y1313480D02*
X1741500Y1313480D01*
X500Y1312480D02*
X7500Y1312480D01*
X1734500Y1312480D02*
X1741500Y1312480D01*
X500Y1311480D02*
X7500Y1311480D01*
X1734500Y1311480D02*
X1741500Y1311480D01*
X500Y1310480D02*
X7500Y1310480D01*
X1734500Y1310480D02*
X1741500Y1310480D01*
X500Y1309480D02*
X7500Y1309480D01*
X1734500Y1309480D02*
X1741500Y1309480D01*
X500Y1308480D02*
X7500Y1308480D01*
X1734500Y1308480D02*
X1741500Y1308480D01*
X500Y1307480D02*
X7500Y1307480D01*
X1734500Y1307480D02*
X1741500Y1307480D01*
X500Y1306480D02*
X7500Y1306480D01*
X1734500Y1306480D02*
X1741500Y1306480D01*
X500Y1305480D02*
X7500Y1305480D01*
X1734500Y1305480D02*
X1741500Y1305480D01*
X500Y1304480D02*
X7500Y1304480D01*
X1734500Y1304480D02*
X1741500Y1304480D01*
X500Y1303480D02*
X7500Y1303480D01*
X1734500Y1303480D02*
X1741500Y1303480D01*
X500Y1302480D02*
X7500Y1302480D01*
X1734500Y1302480D02*
X1741500Y1302480D01*
X500Y1301480D02*
X7500Y1301480D01*
X1734500Y1301480D02*
X1741500Y1301480D01*
X500Y1300480D02*
X7500Y1300480D01*
X1734500Y1300480D02*
X1741500Y1300480D01*
X500Y1299480D02*
X7500Y1299480D01*
X1734500Y1299480D02*
X1741500Y1299480D01*
X500Y1298480D02*
X7500Y1298480D01*
X1734500Y1298480D02*
X1741500Y1298480D01*
X500Y1297480D02*
X7500Y1297480D01*
X1734500Y1297480D02*
X1741500Y1297480D01*
X500Y1296480D02*
X7500Y1296480D01*
X1734500Y1296480D02*
X1741500Y1296480D01*
X500Y1295480D02*
X7500Y1295480D01*
X1734500Y1295480D02*
X1741500Y1295480D01*
X500Y1294480D02*
X7500Y1294480D01*
X1734500Y1294480D02*
X1741500Y1294480D01*
X500Y1293480D02*
X7500Y1293480D01*
X1734500Y1293480D02*
X1741500Y1293480D01*
X500Y1292480D02*
X7500Y1292480D01*
X1734500Y1292480D02*
X1741500Y1292480D01*
X500Y1291480D02*
X7500Y1291480D01*
X1734500Y1291480D02*
X1741500Y1291480D01*
X500Y1290480D02*
X7500Y1290480D01*
X1734500Y1290480D02*
X1741500Y1290480D01*
X500Y1289480D02*
X7500Y1289480D01*
X1734500Y1289480D02*
X1741500Y1289480D01*
X500Y1288480D02*
X7500Y1288480D01*
X1734500Y1288480D02*
X1741500Y1288480D01*
X500Y1287480D02*
X7500Y1287480D01*
X1734500Y1287480D02*
X1741500Y1287480D01*
X500Y1286480D02*
X7500Y1286480D01*
X1734500Y1286480D02*
X1741500Y1286480D01*
X500Y1285480D02*
X7500Y1285480D01*
X1734500Y1285480D02*
X1741500Y1285480D01*
X500Y1284480D02*
X7500Y1284480D01*
X1734500Y1284480D02*
X1741500Y1284480D01*
X500Y1283480D02*
X7500Y1283480D01*
X1734500Y1283480D02*
X1741500Y1283480D01*
X500Y1282480D02*
X7500Y1282480D01*
X1734500Y1282480D02*
X1741500Y1282480D01*
X500Y1281480D02*
X7500Y1281480D01*
X1734500Y1281480D02*
X1741500Y1281480D01*
X500Y1280480D02*
X7500Y1280480D01*
X1734500Y1280480D02*
X1741500Y1280480D01*
X500Y1279480D02*
X7500Y1279480D01*
X1734500Y1279480D02*
X1741500Y1279480D01*
X500Y1278480D02*
X7500Y1278480D01*
X1734500Y1278480D02*
X1741500Y1278480D01*
X500Y1277480D02*
X7500Y1277480D01*
X1734500Y1277480D02*
X1741500Y1277480D01*
X500Y1276480D02*
X7500Y1276480D01*
X1734500Y1276480D02*
X1741500Y1276480D01*
X500Y1275480D02*
X7500Y1275480D01*
X1734500Y1275480D02*
X1741500Y1275480D01*
X500Y1274480D02*
X7500Y1274480D01*
X1734500Y1274480D02*
X1741500Y1274480D01*
X500Y1273480D02*
X7500Y1273480D01*
X1734500Y1273480D02*
X1741500Y1273480D01*
X500Y1272480D02*
X7500Y1272480D01*
X1734500Y1272480D02*
X1741500Y1272480D01*
X500Y1271480D02*
X7500Y1271480D01*
X1734500Y1271480D02*
X1741500Y1271480D01*
X500Y1270480D02*
X7500Y1270480D01*
X1734500Y1270480D02*
X1741500Y1270480D01*
X500Y1269480D02*
X7500Y1269480D01*
X1734500Y1269480D02*
X1741500Y1269480D01*
X500Y1268480D02*
X7500Y1268480D01*
X1734500Y1268480D02*
X1741500Y1268480D01*
X500Y1267480D02*
X7500Y1267480D01*
X1734500Y1267480D02*
X1741500Y1267480D01*
X500Y1266480D02*
X7500Y1266480D01*
X1734500Y1266480D02*
X1741500Y1266480D01*
X500Y1265480D02*
X7500Y1265480D01*
X1734500Y1265480D02*
X1741500Y1265480D01*
X500Y1264480D02*
X7500Y1264480D01*
X1734500Y1264480D02*
X1741500Y1264480D01*
X500Y1263480D02*
X7500Y1263480D01*
X1734500Y1263480D02*
X1741500Y1263480D01*
X500Y1262480D02*
X7500Y1262480D01*
X1734500Y1262480D02*
X1741500Y1262480D01*
X500Y1261480D02*
X7500Y1261480D01*
X1734500Y1261480D02*
X1741500Y1261480D01*
X500Y1260480D02*
X7500Y1260480D01*
X1734500Y1260480D02*
X1741500Y1260480D01*
X500Y1259480D02*
X7500Y1259480D01*
X1734500Y1259480D02*
X1741500Y1259480D01*
X500Y1258480D02*
X7500Y1258480D01*
X1734500Y1258480D02*
X1741500Y1258480D01*
X500Y1257480D02*
X7500Y1257480D01*
X1734500Y1257480D02*
X1741500Y1257480D01*
X500Y1256480D02*
X7500Y1256480D01*
X1734500Y1256480D02*
X1741500Y1256480D01*
X500Y1255480D02*
X7500Y1255480D01*
X1734500Y1255480D02*
X1741500Y1255480D01*
X500Y1254480D02*
X7500Y1254480D01*
X1734500Y1254480D02*
X1741500Y1254480D01*
X500Y1253480D02*
X7500Y1253480D01*
X1734500Y1253480D02*
X1741500Y1253480D01*
X500Y1252480D02*
X7500Y1252480D01*
X1734500Y1252480D02*
X1741500Y1252480D01*
X500Y1251480D02*
X7500Y1251480D01*
X1734500Y1251480D02*
X1741500Y1251480D01*
X500Y1250480D02*
X7500Y1250480D01*
X1734500Y1250480D02*
X1741500Y1250480D01*
X500Y1249480D02*
X7500Y1249480D01*
X1734500Y1249480D02*
X1741500Y1249480D01*
X500Y1248480D02*
X7500Y1248480D01*
X1734500Y1248480D02*
X1741500Y1248480D01*
X500Y1247480D02*
X7500Y1247480D01*
X1734500Y1247480D02*
X1741500Y1247480D01*
X500Y1246480D02*
X7500Y1246480D01*
X1734500Y1246480D02*
X1741500Y1246480D01*
X500Y1245480D02*
X7500Y1245480D01*
X1734500Y1245480D02*
X1741500Y1245480D01*
X500Y1244480D02*
X7500Y1244480D01*
X1734500Y1244480D02*
X1741500Y1244480D01*
X500Y1243480D02*
X7500Y1243480D01*
X1734500Y1243480D02*
X1741500Y1243480D01*
X500Y1242480D02*
X7500Y1242480D01*
X1734500Y1242480D02*
X1741500Y1242480D01*
X500Y1241480D02*
X7500Y1241480D01*
X1734500Y1241480D02*
X1741500Y1241480D01*
X500Y1240480D02*
X7500Y1240480D01*
X1734500Y1240480D02*
X1741500Y1240480D01*
X500Y1239480D02*
X7500Y1239480D01*
X1734500Y1239480D02*
X1741500Y1239480D01*
X500Y1238480D02*
X7500Y1238480D01*
X1734500Y1238480D02*
X1741500Y1238480D01*
X500Y1237480D02*
X7500Y1237480D01*
X1734500Y1237480D02*
X1741500Y1237480D01*
X500Y1236480D02*
X7500Y1236480D01*
X1734500Y1236480D02*
X1741500Y1236480D01*
X500Y1235480D02*
X7500Y1235480D01*
X1734500Y1235480D02*
X1741500Y1235480D01*
X500Y1234480D02*
X7500Y1234480D01*
X1734500Y1234480D02*
X1741500Y1234480D01*
X500Y1233480D02*
X7500Y1233480D01*
X1734500Y1233480D02*
X1741500Y1233480D01*
X500Y1232480D02*
X7500Y1232480D01*
X1734500Y1232480D02*
X1741500Y1232480D01*
X500Y1231480D02*
X7500Y1231480D01*
X1734500Y1231480D02*
X1741500Y1231480D01*
X500Y1230480D02*
X7500Y1230480D01*
X1734500Y1230480D02*
X1741500Y1230480D01*
X500Y1229480D02*
X7500Y1229480D01*
X1734500Y1229480D02*
X1741500Y1229480D01*
X500Y1228480D02*
X7500Y1228480D01*
X1734500Y1228480D02*
X1741500Y1228480D01*
X500Y1227480D02*
X7500Y1227480D01*
X1734500Y1227480D02*
X1741500Y1227480D01*
X500Y1226480D02*
X7500Y1226480D01*
X1734500Y1226480D02*
X1741500Y1226480D01*
X500Y1225480D02*
X7500Y1225480D01*
X1734500Y1225480D02*
X1741500Y1225480D01*
X500Y1224480D02*
X7500Y1224480D01*
X1734500Y1224480D02*
X1741500Y1224480D01*
X500Y1223480D02*
X7500Y1223480D01*
X1734500Y1223480D02*
X1741500Y1223480D01*
X500Y1222480D02*
X7500Y1222480D01*
X1734500Y1222480D02*
X1741500Y1222480D01*
X500Y1221480D02*
X7500Y1221480D01*
X1734500Y1221480D02*
X1741500Y1221480D01*
X500Y1220480D02*
X7500Y1220480D01*
X1734500Y1220480D02*
X1741500Y1220480D01*
X500Y1219480D02*
X7500Y1219480D01*
X1734500Y1219480D02*
X1741500Y1219480D01*
X500Y1218480D02*
X7500Y1218480D01*
X1734500Y1218480D02*
X1741500Y1218480D01*
X500Y1217480D02*
X7500Y1217480D01*
X1734500Y1217480D02*
X1741500Y1217480D01*
X500Y1216480D02*
X7500Y1216480D01*
X1734500Y1216480D02*
X1741500Y1216480D01*
X500Y1215480D02*
X7500Y1215480D01*
X1734500Y1215480D02*
X1741500Y1215480D01*
X500Y1214480D02*
X7500Y1214480D01*
X1734500Y1214480D02*
X1741500Y1214480D01*
X500Y1213480D02*
X7500Y1213480D01*
X1734500Y1213480D02*
X1741500Y1213480D01*
X500Y1212480D02*
X7500Y1212480D01*
X1734500Y1212480D02*
X1741500Y1212480D01*
X500Y1211480D02*
X7500Y1211480D01*
X1734500Y1211480D02*
X1741500Y1211480D01*
X500Y1210480D02*
X7500Y1210480D01*
X1734500Y1210480D02*
X1741500Y1210480D01*
X500Y1209480D02*
X7500Y1209480D01*
X1734500Y1209480D02*
X1741500Y1209480D01*
X500Y1208480D02*
X7500Y1208480D01*
X1734500Y1208480D02*
X1741500Y1208480D01*
X500Y1207480D02*
X7500Y1207480D01*
X1734500Y1207480D02*
X1741500Y1207480D01*
X500Y1206480D02*
X7500Y1206480D01*
X1734500Y1206480D02*
X1741500Y1206480D01*
X500Y1205480D02*
X7500Y1205480D01*
X1734500Y1205480D02*
X1741500Y1205480D01*
X500Y1204480D02*
X7500Y1204480D01*
X1734500Y1204480D02*
X1741500Y1204480D01*
X500Y1203480D02*
X7500Y1203480D01*
X1734500Y1203480D02*
X1741500Y1203480D01*
X500Y1202480D02*
X7500Y1202480D01*
X1734500Y1202480D02*
X1741500Y1202480D01*
X500Y1201480D02*
X7500Y1201480D01*
X1734500Y1201480D02*
X1741500Y1201480D01*
X500Y1200480D02*
X7500Y1200480D01*
X1734500Y1200480D02*
X1741500Y1200480D01*
X500Y1199480D02*
X7500Y1199480D01*
X1734500Y1199480D02*
X1741500Y1199480D01*
X500Y1198480D02*
X7500Y1198480D01*
X1734500Y1198480D02*
X1741500Y1198480D01*
X500Y1197480D02*
X7500Y1197480D01*
X1734500Y1197480D02*
X1741500Y1197480D01*
X500Y1196480D02*
X7500Y1196480D01*
X1734500Y1196480D02*
X1741500Y1196480D01*
X500Y1195480D02*
X7500Y1195480D01*
X1734500Y1195480D02*
X1741500Y1195480D01*
X500Y1194480D02*
X7500Y1194480D01*
X1734500Y1194480D02*
X1741500Y1194480D01*
X500Y1193480D02*
X7500Y1193480D01*
X1734500Y1193480D02*
X1741500Y1193480D01*
X500Y1192480D02*
X7500Y1192480D01*
X1734500Y1192480D02*
X1741500Y1192480D01*
X500Y1191480D02*
X7500Y1191480D01*
X1734500Y1191480D02*
X1741500Y1191480D01*
X500Y1190480D02*
X7500Y1190480D01*
X1734500Y1190480D02*
X1741500Y1190480D01*
X500Y1189480D02*
X7500Y1189480D01*
X1734500Y1189480D02*
X1741500Y1189480D01*
X500Y1188480D02*
X7500Y1188480D01*
X1734500Y1188480D02*
X1741500Y1188480D01*
X500Y1187480D02*
X7500Y1187480D01*
X1734500Y1187480D02*
X1741500Y1187480D01*
X500Y1186480D02*
X7500Y1186480D01*
X1734500Y1186480D02*
X1741500Y1186480D01*
X500Y1185480D02*
X7500Y1185480D01*
X1734500Y1185480D02*
X1741500Y1185480D01*
X500Y1184480D02*
X7500Y1184480D01*
X1734500Y1184480D02*
X1741500Y1184480D01*
X500Y1183480D02*
X7500Y1183480D01*
X1734500Y1183480D02*
X1741500Y1183480D01*
X500Y1182480D02*
X7500Y1182480D01*
X1734500Y1182480D02*
X1741500Y1182480D01*
X500Y1181480D02*
X7500Y1181480D01*
X1734500Y1181480D02*
X1741500Y1181480D01*
X500Y1180480D02*
X7500Y1180480D01*
X1734500Y1180480D02*
X1741500Y1180480D01*
X500Y1179480D02*
X7500Y1179480D01*
X1734500Y1179480D02*
X1741500Y1179480D01*
X500Y1178480D02*
X7500Y1178480D01*
X1734500Y1178480D02*
X1741500Y1178480D01*
X500Y1177480D02*
X7500Y1177480D01*
X1734500Y1177480D02*
X1741500Y1177480D01*
X500Y1176480D02*
X7500Y1176480D01*
X1734500Y1176480D02*
X1741500Y1176480D01*
X500Y1175480D02*
X7500Y1175480D01*
X1734500Y1175480D02*
X1741500Y1175480D01*
X500Y1174480D02*
X7500Y1174480D01*
X1734500Y1174480D02*
X1741500Y1174480D01*
X500Y1173480D02*
X7500Y1173480D01*
X1734500Y1173480D02*
X1741500Y1173480D01*
X500Y1172480D02*
X7500Y1172480D01*
X1734500Y1172480D02*
X1741500Y1172480D01*
X500Y1171480D02*
X7500Y1171480D01*
X1734500Y1171480D02*
X1741500Y1171480D01*
X500Y1170480D02*
X7500Y1170480D01*
X1734500Y1170480D02*
X1741500Y1170480D01*
X500Y1169480D02*
X7500Y1169480D01*
X1734500Y1169480D02*
X1741500Y1169480D01*
X500Y1168480D02*
X7500Y1168480D01*
X1734500Y1168480D02*
X1741500Y1168480D01*
X500Y1167480D02*
X7500Y1167480D01*
X1734500Y1167480D02*
X1741500Y1167480D01*
X500Y1166480D02*
X7500Y1166480D01*
X1734500Y1166480D02*
X1741500Y1166480D01*
X500Y1165480D02*
X7500Y1165480D01*
X1734500Y1165480D02*
X1741500Y1165480D01*
X500Y1164480D02*
X7500Y1164480D01*
X1734500Y1164480D02*
X1741500Y1164480D01*
X500Y1163480D02*
X7500Y1163480D01*
X1734500Y1163480D02*
X1741500Y1163480D01*
X500Y1162480D02*
X7500Y1162480D01*
X1734500Y1162480D02*
X1741500Y1162480D01*
X500Y1161480D02*
X7500Y1161480D01*
X1734500Y1161480D02*
X1741500Y1161480D01*
X500Y1160480D02*
X7500Y1160480D01*
X1734500Y1160480D02*
X1741500Y1160480D01*
X500Y1159480D02*
X7500Y1159480D01*
X1734500Y1159480D02*
X1741500Y1159480D01*
X500Y1158480D02*
X7500Y1158480D01*
X1734500Y1158480D02*
X1741500Y1158480D01*
X500Y1157480D02*
X7500Y1157480D01*
X1734500Y1157480D02*
X1741500Y1157480D01*
X500Y1156480D02*
X7500Y1156480D01*
X1734500Y1156480D02*
X1741500Y1156480D01*
X500Y1155480D02*
X7500Y1155480D01*
X1734500Y1155480D02*
X1741500Y1155480D01*
X500Y1154480D02*
X7500Y1154480D01*
X1734500Y1154480D02*
X1741500Y1154480D01*
X500Y1153480D02*
X7500Y1153480D01*
X1734500Y1153480D02*
X1741500Y1153480D01*
X500Y1152480D02*
X7500Y1152480D01*
X1734500Y1152480D02*
X1741500Y1152480D01*
X500Y1151480D02*
X7500Y1151480D01*
X1734500Y1151480D02*
X1741500Y1151480D01*
X500Y1150480D02*
X7500Y1150480D01*
X1734500Y1150480D02*
X1741500Y1150480D01*
X500Y1149480D02*
X7500Y1149480D01*
X1734500Y1149480D02*
X1741500Y1149480D01*
X500Y1148480D02*
X7500Y1148480D01*
X1734500Y1148480D02*
X1741500Y1148480D01*
X500Y1147480D02*
X7500Y1147480D01*
X1734500Y1147480D02*
X1741500Y1147480D01*
X500Y1146480D02*
X7500Y1146480D01*
X1734500Y1146480D02*
X1741500Y1146480D01*
X500Y1145480D02*
X7500Y1145480D01*
X1734500Y1145480D02*
X1741500Y1145480D01*
X500Y1144480D02*
X7500Y1144480D01*
X1734500Y1144480D02*
X1741500Y1144480D01*
X500Y1143480D02*
X7500Y1143480D01*
X1734500Y1143480D02*
X1741500Y1143480D01*
X500Y1142480D02*
X7500Y1142480D01*
X1734500Y1142480D02*
X1741500Y1142480D01*
X500Y1141480D02*
X7500Y1141480D01*
X1734500Y1141480D02*
X1741500Y1141480D01*
X500Y1140480D02*
X7500Y1140480D01*
X1734500Y1140480D02*
X1741500Y1140480D01*
X500Y1139480D02*
X7500Y1139480D01*
X1734500Y1139480D02*
X1741500Y1139480D01*
X500Y1138480D02*
X7500Y1138480D01*
X1734500Y1138480D02*
X1741500Y1138480D01*
X500Y1137480D02*
X7500Y1137480D01*
X1734500Y1137480D02*
X1741500Y1137480D01*
X500Y1136480D02*
X7500Y1136480D01*
X1734500Y1136480D02*
X1741500Y1136480D01*
X500Y1135480D02*
X7500Y1135480D01*
X1734500Y1135480D02*
X1741500Y1135480D01*
X500Y1134480D02*
X7500Y1134480D01*
X1734500Y1134480D02*
X1741500Y1134480D01*
X500Y1133480D02*
X7500Y1133480D01*
X1734500Y1133480D02*
X1741500Y1133480D01*
X500Y1132480D02*
X7500Y1132480D01*
X1734500Y1132480D02*
X1741500Y1132480D01*
X500Y1131480D02*
X7500Y1131480D01*
X1734500Y1131480D02*
X1741500Y1131480D01*
X500Y1130480D02*
X7500Y1130480D01*
X1734500Y1130480D02*
X1741500Y1130480D01*
X500Y1129480D02*
X7500Y1129480D01*
X1734500Y1129480D02*
X1741500Y1129480D01*
X500Y1128480D02*
X7500Y1128480D01*
X1734500Y1128480D02*
X1741500Y1128480D01*
X500Y1127480D02*
X7500Y1127480D01*
X1734500Y1127480D02*
X1741500Y1127480D01*
X500Y1126480D02*
X7500Y1126480D01*
X1734500Y1126480D02*
X1741500Y1126480D01*
X500Y1125480D02*
X7500Y1125480D01*
X1734500Y1125480D02*
X1741500Y1125480D01*
X500Y1124480D02*
X7500Y1124480D01*
X1734500Y1124480D02*
X1741500Y1124480D01*
X500Y1123480D02*
X7500Y1123480D01*
X1734500Y1123480D02*
X1741500Y1123480D01*
X500Y1122480D02*
X7500Y1122480D01*
X1734500Y1122480D02*
X1741500Y1122480D01*
X500Y1121480D02*
X7500Y1121480D01*
X1734500Y1121480D02*
X1741500Y1121480D01*
X500Y1120480D02*
X7500Y1120480D01*
X1734500Y1120480D02*
X1741500Y1120480D01*
X500Y1119480D02*
X7500Y1119480D01*
X1734500Y1119480D02*
X1741500Y1119480D01*
X500Y1118480D02*
X7500Y1118480D01*
X1734500Y1118480D02*
X1741500Y1118480D01*
X500Y1117480D02*
X7500Y1117480D01*
X1734500Y1117480D02*
X1741500Y1117480D01*
X500Y1116480D02*
X7500Y1116480D01*
X1734500Y1116480D02*
X1741500Y1116480D01*
X500Y1115480D02*
X7500Y1115480D01*
X1734500Y1115480D02*
X1741500Y1115480D01*
X500Y1114480D02*
X7500Y1114480D01*
X1734500Y1114480D02*
X1741500Y1114480D01*
X500Y1113480D02*
X7500Y1113480D01*
X1734500Y1113480D02*
X1741500Y1113480D01*
X500Y1112480D02*
X7500Y1112480D01*
X1734500Y1112480D02*
X1741500Y1112480D01*
X500Y1111480D02*
X7500Y1111480D01*
X1734500Y1111480D02*
X1741500Y1111480D01*
X500Y1110480D02*
X7500Y1110480D01*
X1734500Y1110480D02*
X1741500Y1110480D01*
X500Y1109480D02*
X7500Y1109480D01*
X1734500Y1109480D02*
X1741500Y1109480D01*
X500Y1108480D02*
X7500Y1108480D01*
X1734500Y1108480D02*
X1741500Y1108480D01*
X500Y1107480D02*
X7500Y1107480D01*
X1734500Y1107480D02*
X1741500Y1107480D01*
X500Y1106480D02*
X7500Y1106480D01*
X1734500Y1106480D02*
X1741500Y1106480D01*
X500Y1105480D02*
X7500Y1105480D01*
X1734500Y1105480D02*
X1741500Y1105480D01*
X500Y1104480D02*
X7500Y1104480D01*
X1734500Y1104480D02*
X1741500Y1104480D01*
X500Y1103480D02*
X7500Y1103480D01*
X1734500Y1103480D02*
X1741500Y1103480D01*
X500Y1102480D02*
X7500Y1102480D01*
X1734500Y1102480D02*
X1741500Y1102480D01*
X500Y1101480D02*
X7500Y1101480D01*
X1734500Y1101480D02*
X1741500Y1101480D01*
X500Y1100480D02*
X7500Y1100480D01*
X1734500Y1100480D02*
X1741500Y1100480D01*
X500Y1099480D02*
X7500Y1099480D01*
X1734500Y1099480D02*
X1741500Y1099480D01*
X500Y1098480D02*
X7500Y1098480D01*
X1734500Y1098480D02*
X1741500Y1098480D01*
X500Y1097480D02*
X7500Y1097480D01*
X1734500Y1097480D02*
X1741500Y1097480D01*
X500Y1096480D02*
X7500Y1096480D01*
X1734500Y1096480D02*
X1741500Y1096480D01*
X500Y1095480D02*
X7500Y1095480D01*
X1734500Y1095480D02*
X1741500Y1095480D01*
X500Y1094480D02*
X7500Y1094480D01*
X1734500Y1094480D02*
X1741500Y1094480D01*
X500Y1093480D02*
X7500Y1093480D01*
X1734500Y1093480D02*
X1741500Y1093480D01*
X500Y1092480D02*
X7500Y1092480D01*
X1734500Y1092480D02*
X1741500Y1092480D01*
X500Y1091480D02*
X7500Y1091480D01*
X1734500Y1091480D02*
X1741500Y1091480D01*
X500Y1090480D02*
X7500Y1090480D01*
X1734500Y1090480D02*
X1741500Y1090480D01*
X500Y1089480D02*
X7500Y1089480D01*
X1734500Y1089480D02*
X1741500Y1089480D01*
X500Y1088480D02*
X7500Y1088480D01*
X1734500Y1088480D02*
X1741500Y1088480D01*
X500Y1087480D02*
X7500Y1087480D01*
X1734500Y1087480D02*
X1741500Y1087480D01*
X500Y1086480D02*
X7500Y1086480D01*
X1734500Y1086480D02*
X1741500Y1086480D01*
X500Y1085480D02*
X7500Y1085480D01*
X1734500Y1085480D02*
X1741500Y1085480D01*
X500Y1084480D02*
X7500Y1084480D01*
X1734500Y1084480D02*
X1741500Y1084480D01*
X500Y1083480D02*
X7500Y1083480D01*
X1734500Y1083480D02*
X1741500Y1083480D01*
X500Y1082480D02*
X7500Y1082480D01*
X1734500Y1082480D02*
X1741500Y1082480D01*
X500Y1081480D02*
X7500Y1081480D01*
X1734500Y1081480D02*
X1741500Y1081480D01*
X500Y1080480D02*
X7500Y1080480D01*
X1734500Y1080480D02*
X1741500Y1080480D01*
X500Y1079480D02*
X7500Y1079480D01*
X1734500Y1079480D02*
X1741500Y1079480D01*
X500Y1078480D02*
X7500Y1078480D01*
X1734500Y1078480D02*
X1741500Y1078480D01*
X500Y1077480D02*
X7500Y1077480D01*
X1734500Y1077480D02*
X1741500Y1077480D01*
X500Y1076480D02*
X7500Y1076480D01*
X1734500Y1076480D02*
X1741500Y1076480D01*
X500Y1075480D02*
X7500Y1075480D01*
X1734500Y1075480D02*
X1741500Y1075480D01*
X500Y1074480D02*
X7500Y1074480D01*
X1734500Y1074480D02*
X1741500Y1074480D01*
X500Y1073480D02*
X7500Y1073480D01*
X1734500Y1073480D02*
X1741500Y1073480D01*
X500Y1072480D02*
X7500Y1072480D01*
X1734500Y1072480D02*
X1741500Y1072480D01*
X500Y1071480D02*
X7500Y1071480D01*
X1734500Y1071480D02*
X1741500Y1071480D01*
X500Y1070480D02*
X7500Y1070480D01*
X1734500Y1070480D02*
X1741500Y1070480D01*
X500Y1069480D02*
X7500Y1069480D01*
X1734500Y1069480D02*
X1741500Y1069480D01*
X500Y1068480D02*
X7500Y1068480D01*
X1734500Y1068480D02*
X1741500Y1068480D01*
X500Y1067480D02*
X7500Y1067480D01*
X1734500Y1067480D02*
X1741500Y1067480D01*
X500Y1066480D02*
X7500Y1066480D01*
X1734500Y1066480D02*
X1741500Y1066480D01*
X500Y1065480D02*
X7500Y1065480D01*
X1734500Y1065480D02*
X1741500Y1065480D01*
X500Y1064480D02*
X7500Y1064480D01*
X1734500Y1064480D02*
X1741500Y1064480D01*
X500Y1063480D02*
X7500Y1063480D01*
X1734500Y1063480D02*
X1741500Y1063480D01*
X500Y1062480D02*
X7500Y1062480D01*
X1734500Y1062480D02*
X1741500Y1062480D01*
X500Y1061480D02*
X7500Y1061480D01*
X1734500Y1061480D02*
X1741500Y1061480D01*
X500Y1060480D02*
X7500Y1060480D01*
X1734500Y1060480D02*
X1741500Y1060480D01*
X500Y1059480D02*
X7500Y1059480D01*
X1734500Y1059480D02*
X1741500Y1059480D01*
X500Y1058480D02*
X7500Y1058480D01*
X1734500Y1058480D02*
X1741500Y1058480D01*
X500Y1057480D02*
X7500Y1057480D01*
X1734500Y1057480D02*
X1741500Y1057480D01*
X500Y1056480D02*
X7500Y1056480D01*
X1734500Y1056480D02*
X1741500Y1056480D01*
X500Y1055480D02*
X7500Y1055480D01*
X1734500Y1055480D02*
X1741500Y1055480D01*
X500Y1054480D02*
X7500Y1054480D01*
X1734500Y1054480D02*
X1741500Y1054480D01*
X500Y1053480D02*
X7500Y1053480D01*
X1734500Y1053480D02*
X1741500Y1053480D01*
X500Y1052480D02*
X7500Y1052480D01*
X1734500Y1052480D02*
X1741500Y1052480D01*
X500Y1051480D02*
X7500Y1051480D01*
X1734500Y1051480D02*
X1741500Y1051480D01*
X500Y1050480D02*
X7500Y1050480D01*
X1734500Y1050480D02*
X1741500Y1050480D01*
X500Y1049480D02*
X7500Y1049480D01*
X1734500Y1049480D02*
X1741500Y1049480D01*
X500Y1048480D02*
X7500Y1048480D01*
X1734500Y1048480D02*
X1741500Y1048480D01*
X500Y1047480D02*
X7500Y1047480D01*
X1734500Y1047480D02*
X1741500Y1047480D01*
X500Y1046480D02*
X7500Y1046480D01*
X1734500Y1046480D02*
X1741500Y1046480D01*
X500Y1045480D02*
X7500Y1045480D01*
X1734500Y1045480D02*
X1741500Y1045480D01*
X500Y1044480D02*
X7500Y1044480D01*
X1734500Y1044480D02*
X1741500Y1044480D01*
X500Y1043480D02*
X7500Y1043480D01*
X1734500Y1043480D02*
X1741500Y1043480D01*
X500Y1042480D02*
X7500Y1042480D01*
X1734500Y1042480D02*
X1741500Y1042480D01*
X500Y1041480D02*
X7500Y1041480D01*
X1734500Y1041480D02*
X1741500Y1041480D01*
X500Y1040480D02*
X7500Y1040480D01*
X1734500Y1040480D02*
X1741500Y1040480D01*
X500Y1039480D02*
X7500Y1039480D01*
X1734500Y1039480D02*
X1741500Y1039480D01*
X500Y1038480D02*
X7500Y1038480D01*
X1734500Y1038480D02*
X1741500Y1038480D01*
X500Y1037480D02*
X7500Y1037480D01*
X1734500Y1037480D02*
X1741500Y1037480D01*
X500Y1036480D02*
X7500Y1036480D01*
X1734500Y1036480D02*
X1741500Y1036480D01*
X500Y1035480D02*
X7500Y1035480D01*
X1734500Y1035480D02*
X1741500Y1035480D01*
X500Y1034480D02*
X7500Y1034480D01*
X1734500Y1034480D02*
X1741500Y1034480D01*
X500Y1033480D02*
X7500Y1033480D01*
X1734500Y1033480D02*
X1741500Y1033480D01*
X500Y1032480D02*
X7500Y1032480D01*
X1734500Y1032480D02*
X1741500Y1032480D01*
X500Y1031480D02*
X7500Y1031480D01*
X1734500Y1031480D02*
X1741500Y1031480D01*
X500Y1030480D02*
X7500Y1030480D01*
X1734500Y1030480D02*
X1741500Y1030480D01*
X500Y1029480D02*
X7500Y1029480D01*
X1734500Y1029480D02*
X1741500Y1029480D01*
X500Y1028480D02*
X7500Y1028480D01*
X1734500Y1028480D02*
X1741500Y1028480D01*
X500Y1027480D02*
X7500Y1027480D01*
X1734500Y1027480D02*
X1741500Y1027480D01*
X500Y1026480D02*
X7500Y1026480D01*
X1734500Y1026480D02*
X1741500Y1026480D01*
X500Y1025480D02*
X7500Y1025480D01*
X1734500Y1025480D02*
X1741500Y1025480D01*
X500Y1024480D02*
X7500Y1024480D01*
X1734500Y1024480D02*
X1741500Y1024480D01*
X500Y1023480D02*
X7500Y1023480D01*
X1734500Y1023480D02*
X1741500Y1023480D01*
X500Y1022480D02*
X7500Y1022480D01*
X1734500Y1022480D02*
X1741500Y1022480D01*
X500Y1021480D02*
X7500Y1021480D01*
X1734500Y1021480D02*
X1741500Y1021480D01*
X500Y1020480D02*
X7500Y1020480D01*
X1734500Y1020480D02*
X1741500Y1020480D01*
X500Y1019480D02*
X7500Y1019480D01*
X1734500Y1019480D02*
X1741500Y1019480D01*
X500Y1018480D02*
X7500Y1018480D01*
X1734500Y1018480D02*
X1741500Y1018480D01*
X500Y1017480D02*
X7500Y1017480D01*
X1734500Y1017480D02*
X1741500Y1017480D01*
X500Y1016480D02*
X7500Y1016480D01*
X1734500Y1016480D02*
X1741500Y1016480D01*
X500Y1015480D02*
X7500Y1015480D01*
X1734500Y1015480D02*
X1741500Y1015480D01*
X500Y1014480D02*
X7500Y1014480D01*
X1734500Y1014480D02*
X1741500Y1014480D01*
X500Y1013480D02*
X7500Y1013480D01*
X1734500Y1013480D02*
X1741500Y1013480D01*
X500Y1012480D02*
X7500Y1012480D01*
X1734500Y1012480D02*
X1741500Y1012480D01*
X500Y1011480D02*
X7500Y1011480D01*
X1734500Y1011480D02*
X1741500Y1011480D01*
X500Y1010480D02*
X7500Y1010480D01*
X1734500Y1010480D02*
X1741500Y1010480D01*
X500Y1009480D02*
X7500Y1009480D01*
X1734500Y1009480D02*
X1741500Y1009480D01*
X500Y1008480D02*
X7500Y1008480D01*
X1734500Y1008480D02*
X1741500Y1008480D01*
X500Y1007480D02*
X7500Y1007480D01*
X1734500Y1007480D02*
X1741500Y1007480D01*
X500Y1006480D02*
X7500Y1006480D01*
X1734500Y1006480D02*
X1741500Y1006480D01*
X500Y1005480D02*
X7500Y1005480D01*
X1734500Y1005480D02*
X1741500Y1005480D01*
X500Y1004480D02*
X7500Y1004480D01*
X1734500Y1004480D02*
X1741500Y1004480D01*
X500Y1003480D02*
X7500Y1003480D01*
X1734500Y1003480D02*
X1741500Y1003480D01*
X500Y1002480D02*
X7500Y1002480D01*
X1734500Y1002480D02*
X1741500Y1002480D01*
X500Y1001480D02*
X7500Y1001480D01*
X1734500Y1001480D02*
X1741500Y1001480D01*
X500Y1000480D02*
X7500Y1000480D01*
X1734500Y1000480D02*
X1741500Y1000480D01*
X500Y999480D02*
X7500Y999480D01*
X1734500Y999480D02*
X1741500Y999480D01*
X500Y998480D02*
X7500Y998480D01*
X1734500Y998480D02*
X1741500Y998480D01*
X500Y997480D02*
X7500Y997480D01*
X1734500Y997480D02*
X1741500Y997480D01*
X500Y996480D02*
X7500Y996480D01*
X1734500Y996480D02*
X1741500Y996480D01*
X500Y995480D02*
X7500Y995480D01*
X1734500Y995480D02*
X1741500Y995480D01*
X500Y994480D02*
X7500Y994480D01*
X1734500Y994480D02*
X1741500Y994480D01*
X500Y993480D02*
X7500Y993480D01*
X1734500Y993480D02*
X1741500Y993480D01*
X500Y992480D02*
X7500Y992480D01*
X1734500Y992480D02*
X1741500Y992480D01*
X500Y991480D02*
X7500Y991480D01*
X1734500Y991480D02*
X1741500Y991480D01*
X500Y990480D02*
X7500Y990480D01*
X1734500Y990480D02*
X1741500Y990480D01*
X500Y989480D02*
X7500Y989480D01*
X1734500Y989480D02*
X1741500Y989480D01*
X500Y988480D02*
X7500Y988480D01*
X1734500Y988480D02*
X1741500Y988480D01*
X500Y987480D02*
X7500Y987480D01*
X1734500Y987480D02*
X1741500Y987480D01*
X500Y986480D02*
X7500Y986480D01*
X1734500Y986480D02*
X1741500Y986480D01*
X500Y985480D02*
X7500Y985480D01*
X1734500Y985480D02*
X1741500Y985480D01*
X500Y984480D02*
X7500Y984480D01*
X1734500Y984480D02*
X1741500Y984480D01*
X500Y983480D02*
X7500Y983480D01*
X1734500Y983480D02*
X1741500Y983480D01*
X500Y982480D02*
X7500Y982480D01*
X1734500Y982480D02*
X1741500Y982480D01*
X500Y981480D02*
X7500Y981480D01*
X1734500Y981480D02*
X1741500Y981480D01*
X500Y980480D02*
X7500Y980480D01*
X1734500Y980480D02*
X1741500Y980480D01*
X500Y979480D02*
X7500Y979480D01*
X1734500Y979480D02*
X1741500Y979480D01*
X500Y978480D02*
X7500Y978480D01*
X1734500Y978480D02*
X1741500Y978480D01*
X500Y977480D02*
X7500Y977480D01*
X1734500Y977480D02*
X1741500Y977480D01*
X500Y976480D02*
X7500Y976480D01*
X1734500Y976480D02*
X1741500Y976480D01*
X500Y975480D02*
X7500Y975480D01*
X1734500Y975480D02*
X1741500Y975480D01*
X500Y974480D02*
X7500Y974480D01*
X1734500Y974480D02*
X1741500Y974480D01*
X500Y973480D02*
X7500Y973480D01*
X1734500Y973480D02*
X1741500Y973480D01*
X500Y972480D02*
X7500Y972480D01*
X1734500Y972480D02*
X1741500Y972480D01*
X500Y971480D02*
X7500Y971480D01*
X1734500Y971480D02*
X1741500Y971480D01*
X500Y970480D02*
X7500Y970480D01*
X1734500Y970480D02*
X1741500Y970480D01*
X500Y969480D02*
X7500Y969480D01*
X1734500Y969480D02*
X1741500Y969480D01*
X500Y968480D02*
X7500Y968480D01*
X1734500Y968480D02*
X1741500Y968480D01*
X500Y967480D02*
X7500Y967480D01*
X1734500Y967480D02*
X1741500Y967480D01*
X500Y966480D02*
X7500Y966480D01*
X1734500Y966480D02*
X1741500Y966480D01*
X500Y965480D02*
X7500Y965480D01*
X1734500Y965480D02*
X1741500Y965480D01*
X500Y964480D02*
X7500Y964480D01*
X1734500Y964480D02*
X1741500Y964480D01*
X500Y963480D02*
X7500Y963480D01*
X1734500Y963480D02*
X1741500Y963480D01*
X500Y962480D02*
X7500Y962480D01*
X1734500Y962480D02*
X1741500Y962480D01*
X500Y961480D02*
X7500Y961480D01*
X1734500Y961480D02*
X1741500Y961480D01*
X500Y960480D02*
X7500Y960480D01*
X1734500Y960480D02*
X1741500Y960480D01*
X500Y959480D02*
X7500Y959480D01*
X1734500Y959480D02*
X1741500Y959480D01*
X500Y958480D02*
X7500Y958480D01*
X1734500Y958480D02*
X1741500Y958480D01*
X500Y957480D02*
X7500Y957480D01*
X1734500Y957480D02*
X1741500Y957480D01*
X500Y956480D02*
X7500Y956480D01*
X1734500Y956480D02*
X1741500Y956480D01*
X500Y955480D02*
X7500Y955480D01*
X1734500Y955480D02*
X1741500Y955480D01*
X500Y954480D02*
X7500Y954480D01*
X1734500Y954480D02*
X1741500Y954480D01*
X500Y953480D02*
X7500Y953480D01*
X1734500Y953480D02*
X1741500Y953480D01*
X500Y952480D02*
X7500Y952480D01*
X1734500Y952480D02*
X1741500Y952480D01*
X500Y951480D02*
X7500Y951480D01*
X1734500Y951480D02*
X1741500Y951480D01*
X500Y950480D02*
X7500Y950480D01*
X1734500Y950480D02*
X1741500Y950480D01*
X500Y949480D02*
X7500Y949480D01*
X1734500Y949480D02*
X1741500Y949480D01*
X500Y948480D02*
X7500Y948480D01*
X1734500Y948480D02*
X1741500Y948480D01*
X500Y947480D02*
X7500Y947480D01*
X1734500Y947480D02*
X1741500Y947480D01*
X500Y946480D02*
X7500Y946480D01*
X1734500Y946480D02*
X1741500Y946480D01*
X500Y945480D02*
X7500Y945480D01*
X1734500Y945480D02*
X1741500Y945480D01*
X500Y944480D02*
X7500Y944480D01*
X1734500Y944480D02*
X1741500Y944480D01*
X500Y943480D02*
X7500Y943480D01*
X1734500Y943480D02*
X1741500Y943480D01*
X500Y942480D02*
X7500Y942480D01*
X1734500Y942480D02*
X1741500Y942480D01*
X500Y941480D02*
X7500Y941480D01*
X1734500Y941480D02*
X1741500Y941480D01*
X500Y940480D02*
X7500Y940480D01*
X1734500Y940480D02*
X1741500Y940480D01*
X500Y939480D02*
X7500Y939480D01*
X1734500Y939480D02*
X1741500Y939480D01*
X500Y938480D02*
X7500Y938480D01*
X1734500Y938480D02*
X1741500Y938480D01*
X500Y937480D02*
X7500Y937480D01*
X1734500Y937480D02*
X1741500Y937480D01*
X500Y936480D02*
X7500Y936480D01*
X1734500Y936480D02*
X1741500Y936480D01*
X500Y935480D02*
X7500Y935480D01*
X1734500Y935480D02*
X1741500Y935480D01*
X500Y934480D02*
X7500Y934480D01*
X1734500Y934480D02*
X1741500Y934480D01*
X500Y933480D02*
X7500Y933480D01*
X1734500Y933480D02*
X1741500Y933480D01*
X500Y932480D02*
X7500Y932480D01*
X1734500Y932480D02*
X1741500Y932480D01*
X500Y931480D02*
X7500Y931480D01*
X1734500Y931480D02*
X1741500Y931480D01*
X500Y930480D02*
X7500Y930480D01*
X1734500Y930480D02*
X1741500Y930480D01*
X500Y929480D02*
X7500Y929480D01*
X1734500Y929480D02*
X1741500Y929480D01*
X500Y928480D02*
X7500Y928480D01*
X1734500Y928480D02*
X1741500Y928480D01*
X500Y927480D02*
X7500Y927480D01*
X1734500Y927480D02*
X1741500Y927480D01*
X500Y926480D02*
X7500Y926480D01*
X1734500Y926480D02*
X1741500Y926480D01*
X500Y925480D02*
X7500Y925480D01*
X1734500Y925480D02*
X1741500Y925480D01*
X500Y924480D02*
X7500Y924480D01*
X1734500Y924480D02*
X1741500Y924480D01*
X500Y923480D02*
X7500Y923480D01*
X1734500Y923480D02*
X1741500Y923480D01*
X500Y922480D02*
X7500Y922480D01*
X1734500Y922480D02*
X1741500Y922480D01*
X500Y921480D02*
X7500Y921480D01*
X1734500Y921480D02*
X1741500Y921480D01*
X500Y920480D02*
X7500Y920480D01*
X1734500Y920480D02*
X1741500Y920480D01*
X500Y919480D02*
X7500Y919480D01*
X1734500Y919480D02*
X1741500Y919480D01*
X500Y918480D02*
X7500Y918480D01*
X1734500Y918480D02*
X1741500Y918480D01*
X500Y917480D02*
X7500Y917480D01*
X1734500Y917480D02*
X1741500Y917480D01*
X500Y916480D02*
X7500Y916480D01*
X1734500Y916480D02*
X1741500Y916480D01*
X500Y915480D02*
X7500Y915480D01*
X1734500Y915480D02*
X1741500Y915480D01*
X500Y914480D02*
X7500Y914480D01*
X1734500Y914480D02*
X1741500Y914480D01*
X500Y913480D02*
X7500Y913480D01*
X1734500Y913480D02*
X1741500Y913480D01*
X500Y912480D02*
X7500Y912480D01*
X1734500Y912480D02*
X1741500Y912480D01*
X500Y911480D02*
X7500Y911480D01*
X1734500Y911480D02*
X1741500Y911480D01*
X500Y910480D02*
X7500Y910480D01*
X1734500Y910480D02*
X1741500Y910480D01*
X500Y909480D02*
X7500Y909480D01*
X1734500Y909480D02*
X1741500Y909480D01*
X500Y908480D02*
X7500Y908480D01*
X1734500Y908480D02*
X1741500Y908480D01*
X500Y907480D02*
X7500Y907480D01*
X1734500Y907480D02*
X1741500Y907480D01*
X500Y906480D02*
X7500Y906480D01*
X1734500Y906480D02*
X1741500Y906480D01*
X500Y905480D02*
X7500Y905480D01*
X1734500Y905480D02*
X1741500Y905480D01*
X500Y904480D02*
X7500Y904480D01*
X1734500Y904480D02*
X1741500Y904480D01*
X500Y903480D02*
X7500Y903480D01*
X1734500Y903480D02*
X1741500Y903480D01*
X500Y902480D02*
X7500Y902480D01*
X1734500Y902480D02*
X1741500Y902480D01*
X500Y901480D02*
X7500Y901480D01*
X1734500Y901480D02*
X1741500Y901480D01*
X500Y900480D02*
X7500Y900480D01*
X1734500Y900480D02*
X1741500Y900480D01*
X500Y899480D02*
X7500Y899480D01*
X1734500Y899480D02*
X1741500Y899480D01*
X500Y898480D02*
X7500Y898480D01*
X1734500Y898480D02*
X1741500Y898480D01*
X500Y897480D02*
X7500Y897480D01*
X1734500Y897480D02*
X1741500Y897480D01*
X500Y896480D02*
X7500Y896480D01*
X1734500Y896480D02*
X1741500Y896480D01*
X500Y895480D02*
X7500Y895480D01*
X1734500Y895480D02*
X1741500Y895480D01*
X500Y894480D02*
X7500Y894480D01*
X1734500Y894480D02*
X1741500Y894480D01*
X500Y893480D02*
X7500Y893480D01*
X1734500Y893480D02*
X1741500Y893480D01*
X500Y892480D02*
X7500Y892480D01*
X1734500Y892480D02*
X1741500Y892480D01*
X500Y891480D02*
X7500Y891480D01*
X1734500Y891480D02*
X1741500Y891480D01*
X500Y890480D02*
X7500Y890480D01*
X1734500Y890480D02*
X1741500Y890480D01*
X500Y889480D02*
X7500Y889480D01*
X1734500Y889480D02*
X1741500Y889480D01*
X500Y888480D02*
X7500Y888480D01*
X1734500Y888480D02*
X1741500Y888480D01*
X500Y887480D02*
X7500Y887480D01*
X1734500Y887480D02*
X1741500Y887480D01*
X500Y886480D02*
X7500Y886480D01*
X1734500Y886480D02*
X1741500Y886480D01*
X500Y885480D02*
X7500Y885480D01*
X1734500Y885480D02*
X1741500Y885480D01*
X500Y884480D02*
X7500Y884480D01*
X1734500Y884480D02*
X1741500Y884480D01*
X500Y883480D02*
X7500Y883480D01*
X1734500Y883480D02*
X1741500Y883480D01*
X500Y882480D02*
X7500Y882480D01*
X1734500Y882480D02*
X1741500Y882480D01*
X500Y881480D02*
X7500Y881480D01*
X1734500Y881480D02*
X1741500Y881480D01*
X500Y880480D02*
X7500Y880480D01*
X1734500Y880480D02*
X1741500Y880480D01*
X500Y879480D02*
X7500Y879480D01*
X1734500Y879480D02*
X1741500Y879480D01*
X500Y878480D02*
X7500Y878480D01*
X1734500Y878480D02*
X1741500Y878480D01*
X500Y877480D02*
X7500Y877480D01*
X1734500Y877480D02*
X1741500Y877480D01*
X500Y876480D02*
X7500Y876480D01*
X1734500Y876480D02*
X1741500Y876480D01*
X500Y875480D02*
X7500Y875480D01*
X1734500Y875480D02*
X1741500Y875480D01*
X500Y874480D02*
X7500Y874480D01*
X1734500Y874480D02*
X1741500Y874480D01*
X500Y873480D02*
X7500Y873480D01*
X1734500Y873480D02*
X1741500Y873480D01*
X500Y872480D02*
X7500Y872480D01*
X1734500Y872480D02*
X1741500Y872480D01*
X500Y871480D02*
X7500Y871480D01*
X1734500Y871480D02*
X1741500Y871480D01*
X500Y870480D02*
X7500Y870480D01*
X1734500Y870480D02*
X1741500Y870480D01*
X500Y869480D02*
X7500Y869480D01*
X1734500Y869480D02*
X1741500Y869480D01*
X500Y868480D02*
X7500Y868480D01*
X1734500Y868480D02*
X1741500Y868480D01*
X500Y867480D02*
X7500Y867480D01*
X1734500Y867480D02*
X1741500Y867480D01*
X500Y866480D02*
X7500Y866480D01*
X1734500Y866480D02*
X1741500Y866480D01*
X500Y865480D02*
X7500Y865480D01*
X1734500Y865480D02*
X1741500Y865480D01*
X500Y864480D02*
X7500Y864480D01*
X1734500Y864480D02*
X1741500Y864480D01*
X500Y863480D02*
X7500Y863480D01*
X1734500Y863480D02*
X1741500Y863480D01*
X500Y862480D02*
X7500Y862480D01*
X1734500Y862480D02*
X1741500Y862480D01*
X500Y861480D02*
X7500Y861480D01*
X1734500Y861480D02*
X1741500Y861480D01*
X500Y860480D02*
X7500Y860480D01*
X1734500Y860480D02*
X1741500Y860480D01*
X500Y859480D02*
X7500Y859480D01*
X1734500Y859480D02*
X1741500Y859480D01*
X500Y858480D02*
X7500Y858480D01*
X1734500Y858480D02*
X1741500Y858480D01*
X500Y857480D02*
X7500Y857480D01*
X1734500Y857480D02*
X1741500Y857480D01*
X500Y856480D02*
X7500Y856480D01*
X1734500Y856480D02*
X1741500Y856480D01*
X500Y855480D02*
X7500Y855480D01*
X1734500Y855480D02*
X1741500Y855480D01*
X500Y854480D02*
X7500Y854480D01*
X1734500Y854480D02*
X1741500Y854480D01*
X500Y853480D02*
X7500Y853480D01*
X1734500Y853480D02*
X1741500Y853480D01*
X500Y852480D02*
X7500Y852480D01*
X1734500Y852480D02*
X1741500Y852480D01*
X500Y851480D02*
X7500Y851480D01*
X1734500Y851480D02*
X1741500Y851480D01*
X500Y850480D02*
X7500Y850480D01*
X1734500Y850480D02*
X1741500Y850480D01*
X500Y849480D02*
X7500Y849480D01*
X1734500Y849480D02*
X1741500Y849480D01*
X500Y848480D02*
X7500Y848480D01*
X1734500Y848480D02*
X1741500Y848480D01*
X500Y847480D02*
X7500Y847480D01*
X1734500Y847480D02*
X1741500Y847480D01*
X500Y846480D02*
X7500Y846480D01*
X1734500Y846480D02*
X1741500Y846480D01*
X500Y845480D02*
X7500Y845480D01*
X1734500Y845480D02*
X1741500Y845480D01*
X500Y844480D02*
X7500Y844480D01*
X1734500Y844480D02*
X1741500Y844480D01*
X500Y843480D02*
X7500Y843480D01*
X1734500Y843480D02*
X1741500Y843480D01*
X500Y842480D02*
X7500Y842480D01*
X1734500Y842480D02*
X1741500Y842480D01*
X500Y841480D02*
X7500Y841480D01*
X1734500Y841480D02*
X1741500Y841480D01*
X500Y840480D02*
X7500Y840480D01*
X1734500Y840480D02*
X1741500Y840480D01*
X500Y839480D02*
X7500Y839480D01*
X1734500Y839480D02*
X1741500Y839480D01*
X500Y838480D02*
X7500Y838480D01*
X1734500Y838480D02*
X1741500Y838480D01*
X500Y837480D02*
X7500Y837480D01*
X1734500Y837480D02*
X1741500Y837480D01*
X500Y836480D02*
X7500Y836480D01*
X1734500Y836480D02*
X1741500Y836480D01*
X500Y835480D02*
X7500Y835480D01*
X1734500Y835480D02*
X1741500Y835480D01*
X500Y834480D02*
X7500Y834480D01*
X1734500Y834480D02*
X1741500Y834480D01*
X500Y833480D02*
X7500Y833480D01*
X1734500Y833480D02*
X1741500Y833480D01*
X500Y832480D02*
X7500Y832480D01*
X1734500Y832480D02*
X1741500Y832480D01*
X500Y831480D02*
X7500Y831480D01*
X1734500Y831480D02*
X1741500Y831480D01*
X500Y830480D02*
X7500Y830480D01*
X1734500Y830480D02*
X1741500Y830480D01*
X500Y829480D02*
X7500Y829480D01*
X1734500Y829480D02*
X1741500Y829480D01*
X500Y828480D02*
X7500Y828480D01*
X1734500Y828480D02*
X1741500Y828480D01*
X500Y827480D02*
X7500Y827480D01*
X1734500Y827480D02*
X1741500Y827480D01*
X500Y826480D02*
X7500Y826480D01*
X1734500Y826480D02*
X1741500Y826480D01*
X500Y825480D02*
X7500Y825480D01*
X1734500Y825480D02*
X1741500Y825480D01*
X500Y824480D02*
X7500Y824480D01*
X1734500Y824480D02*
X1741500Y824480D01*
X500Y823480D02*
X7500Y823480D01*
X1734500Y823480D02*
X1741500Y823480D01*
X500Y822480D02*
X7500Y822480D01*
X1734500Y822480D02*
X1741500Y822480D01*
X500Y821480D02*
X7500Y821480D01*
X1734500Y821480D02*
X1741500Y821480D01*
X500Y820480D02*
X7500Y820480D01*
X1734500Y820480D02*
X1741500Y820480D01*
X500Y819480D02*
X7500Y819480D01*
X1734500Y819480D02*
X1741500Y819480D01*
X500Y818480D02*
X7500Y818480D01*
X1734500Y818480D02*
X1741500Y818480D01*
X500Y817480D02*
X7500Y817480D01*
X1734500Y817480D02*
X1741500Y817480D01*
X500Y816480D02*
X7500Y816480D01*
X1734500Y816480D02*
X1741500Y816480D01*
X500Y815480D02*
X7500Y815480D01*
X1734500Y815480D02*
X1741500Y815480D01*
X500Y814480D02*
X7500Y814480D01*
X1734500Y814480D02*
X1741500Y814480D01*
X500Y813480D02*
X7500Y813480D01*
X1734500Y813480D02*
X1741500Y813480D01*
X500Y812480D02*
X7500Y812480D01*
X1734500Y812480D02*
X1741500Y812480D01*
X500Y811480D02*
X7500Y811480D01*
X1734500Y811480D02*
X1741500Y811480D01*
X500Y810480D02*
X7500Y810480D01*
X1734500Y810480D02*
X1741500Y810480D01*
X500Y809480D02*
X7500Y809480D01*
X1734500Y809480D02*
X1741500Y809480D01*
X500Y808480D02*
X7500Y808480D01*
X1734500Y808480D02*
X1741500Y808480D01*
X500Y807480D02*
X7500Y807480D01*
X1734500Y807480D02*
X1741500Y807480D01*
X500Y806480D02*
X7500Y806480D01*
X1734500Y806480D02*
X1741500Y806480D01*
X500Y805480D02*
X7500Y805480D01*
X1734500Y805480D02*
X1741500Y805480D01*
X500Y804480D02*
X7500Y804480D01*
X1734500Y804480D02*
X1741500Y804480D01*
X500Y803480D02*
X7500Y803480D01*
X1734500Y803480D02*
X1741500Y803480D01*
X500Y802480D02*
X7500Y802480D01*
X1734500Y802480D02*
X1741500Y802480D01*
X500Y801480D02*
X7500Y801480D01*
X1734500Y801480D02*
X1741500Y801480D01*
X500Y800480D02*
X7500Y800480D01*
X1734500Y800480D02*
X1741500Y800480D01*
X500Y799480D02*
X7500Y799480D01*
X1734500Y799480D02*
X1741500Y799480D01*
X500Y798480D02*
X7500Y798480D01*
X1734500Y798480D02*
X1741500Y798480D01*
X500Y797480D02*
X7500Y797480D01*
X1734500Y797480D02*
X1741500Y797480D01*
X500Y796480D02*
X7500Y796480D01*
X1734500Y796480D02*
X1741500Y796480D01*
X500Y795480D02*
X7500Y795480D01*
X1734500Y795480D02*
X1741500Y795480D01*
X500Y794480D02*
X7500Y794480D01*
X1734500Y794480D02*
X1741500Y794480D01*
X500Y793480D02*
X7500Y793480D01*
X1734500Y793480D02*
X1741500Y793480D01*
X500Y792480D02*
X7500Y792480D01*
X1734500Y792480D02*
X1741500Y792480D01*
X500Y791480D02*
X7500Y791480D01*
X1734500Y791480D02*
X1741500Y791480D01*
X500Y790480D02*
X7500Y790480D01*
X1734500Y790480D02*
X1741500Y790480D01*
X500Y789480D02*
X7500Y789480D01*
X1734500Y789480D02*
X1741500Y789480D01*
X500Y788480D02*
X7500Y788480D01*
X1734500Y788480D02*
X1741500Y788480D01*
X500Y787480D02*
X7500Y787480D01*
X1734500Y787480D02*
X1741500Y787480D01*
X500Y786480D02*
X7500Y786480D01*
X1734500Y786480D02*
X1741500Y786480D01*
X500Y785480D02*
X7500Y785480D01*
X1734500Y785480D02*
X1741500Y785480D01*
X500Y784480D02*
X7500Y784480D01*
X1734500Y784480D02*
X1741500Y784480D01*
X500Y783480D02*
X7500Y783480D01*
X1734500Y783480D02*
X1741500Y783480D01*
X500Y782480D02*
X7500Y782480D01*
X1734500Y782480D02*
X1741500Y782480D01*
X500Y781480D02*
X7500Y781480D01*
X1734500Y781480D02*
X1741500Y781480D01*
X500Y780480D02*
X7500Y780480D01*
X1734500Y780480D02*
X1741500Y780480D01*
X500Y779480D02*
X7500Y779480D01*
X1734500Y779480D02*
X1741500Y779480D01*
X500Y778480D02*
X7500Y778480D01*
X1734500Y778480D02*
X1741500Y778480D01*
X500Y777480D02*
X7500Y777480D01*
X1734500Y777480D02*
X1741500Y777480D01*
X500Y776480D02*
X7500Y776480D01*
X1734500Y776480D02*
X1741500Y776480D01*
X500Y775480D02*
X7500Y775480D01*
X1734500Y775480D02*
X1741500Y775480D01*
X500Y774480D02*
X7500Y774480D01*
X1734500Y774480D02*
X1741500Y774480D01*
X500Y773480D02*
X7500Y773480D01*
X1734500Y773480D02*
X1741500Y773480D01*
X500Y772480D02*
X7500Y772480D01*
X1734500Y772480D02*
X1741500Y772480D01*
X500Y771480D02*
X7500Y771480D01*
X1734500Y771480D02*
X1741500Y771480D01*
X500Y770480D02*
X7500Y770480D01*
X1734500Y770480D02*
X1741500Y770480D01*
X500Y769480D02*
X7500Y769480D01*
X1734500Y769480D02*
X1741500Y769480D01*
X500Y768480D02*
X7500Y768480D01*
X1734500Y768480D02*
X1741500Y768480D01*
X500Y767480D02*
X7500Y767480D01*
X1734500Y767480D02*
X1741500Y767480D01*
X500Y766480D02*
X7500Y766480D01*
X1734500Y766480D02*
X1741500Y766480D01*
X500Y765480D02*
X7500Y765480D01*
X1734500Y765480D02*
X1741500Y765480D01*
X500Y764480D02*
X7500Y764480D01*
X1734500Y764480D02*
X1741500Y764480D01*
X500Y763480D02*
X7500Y763480D01*
X1734500Y763480D02*
X1741500Y763480D01*
X500Y762480D02*
X7500Y762480D01*
X1734500Y762480D02*
X1741500Y762480D01*
X500Y761480D02*
X7500Y761480D01*
X1734500Y761480D02*
X1741500Y761480D01*
X500Y760480D02*
X7500Y760480D01*
X1734500Y760480D02*
X1741500Y760480D01*
X500Y759480D02*
X7500Y759480D01*
X1734500Y759480D02*
X1741500Y759480D01*
X500Y758480D02*
X7500Y758480D01*
X1734500Y758480D02*
X1741500Y758480D01*
X500Y757480D02*
X7500Y757480D01*
X1734500Y757480D02*
X1741500Y757480D01*
X500Y756480D02*
X7500Y756480D01*
X1734500Y756480D02*
X1741500Y756480D01*
X500Y755480D02*
X7500Y755480D01*
X1734500Y755480D02*
X1741500Y755480D01*
X500Y754480D02*
X7500Y754480D01*
X1734500Y754480D02*
X1741500Y754480D01*
X500Y753480D02*
X7500Y753480D01*
X1734500Y753480D02*
X1741500Y753480D01*
X500Y752480D02*
X7500Y752480D01*
X1734500Y752480D02*
X1741500Y752480D01*
X500Y751480D02*
X7500Y751480D01*
X1734500Y751480D02*
X1741500Y751480D01*
X500Y750480D02*
X7500Y750480D01*
X1734500Y750480D02*
X1741500Y750480D01*
X500Y749480D02*
X7500Y749480D01*
X1734500Y749480D02*
X1741500Y749480D01*
X500Y748480D02*
X7500Y748480D01*
X1734500Y748480D02*
X1741500Y748480D01*
X500Y747480D02*
X7500Y747480D01*
X1734500Y747480D02*
X1741500Y747480D01*
X500Y746480D02*
X7500Y746480D01*
X1734500Y746480D02*
X1741500Y746480D01*
X500Y745480D02*
X7500Y745480D01*
X1734500Y745480D02*
X1741500Y745480D01*
X500Y744480D02*
X7500Y744480D01*
X1734500Y744480D02*
X1741500Y744480D01*
X500Y743480D02*
X7500Y743480D01*
X1734500Y743480D02*
X1741500Y743480D01*
X500Y742480D02*
X7500Y742480D01*
X1734500Y742480D02*
X1741500Y742480D01*
X500Y741480D02*
X7500Y741480D01*
X1734500Y741480D02*
X1741500Y741480D01*
X500Y740480D02*
X7500Y740480D01*
X1734500Y740480D02*
X1741500Y740480D01*
X500Y739480D02*
X7500Y739480D01*
X1734500Y739480D02*
X1741500Y739480D01*
X500Y738480D02*
X7500Y738480D01*
X1734500Y738480D02*
X1741500Y738480D01*
X500Y737480D02*
X7500Y737480D01*
X1734500Y737480D02*
X1741500Y737480D01*
X500Y736480D02*
X7500Y736480D01*
X1734500Y736480D02*
X1741500Y736480D01*
X500Y735480D02*
X7500Y735480D01*
X1734500Y735480D02*
X1741500Y735480D01*
X500Y734480D02*
X7500Y734480D01*
X1734500Y734480D02*
X1741500Y734480D01*
X500Y733480D02*
X7500Y733480D01*
X1734500Y733480D02*
X1741500Y733480D01*
X500Y732480D02*
X7500Y732480D01*
X1734500Y732480D02*
X1741500Y732480D01*
X500Y731480D02*
X7500Y731480D01*
X1734500Y731480D02*
X1741500Y731480D01*
X500Y730480D02*
X7500Y730480D01*
X1734500Y730480D02*
X1741500Y730480D01*
X500Y729480D02*
X7500Y729480D01*
X1734500Y729480D02*
X1741500Y729480D01*
X500Y728480D02*
X7500Y728480D01*
X1734500Y728480D02*
X1741500Y728480D01*
X500Y727480D02*
X7500Y727480D01*
X1734500Y727480D02*
X1741500Y727480D01*
X500Y726480D02*
X7500Y726480D01*
X1734500Y726480D02*
X1741500Y726480D01*
X500Y725480D02*
X7500Y725480D01*
X1734500Y725480D02*
X1741500Y725480D01*
X500Y724480D02*
X7500Y724480D01*
X1734500Y724480D02*
X1741500Y724480D01*
X500Y723480D02*
X7500Y723480D01*
X1734500Y723480D02*
X1741500Y723480D01*
X500Y722480D02*
X7500Y722480D01*
X1734500Y722480D02*
X1741500Y722480D01*
X500Y721480D02*
X7500Y721480D01*
X1734500Y721480D02*
X1741500Y721480D01*
X500Y720480D02*
X7500Y720480D01*
X1734500Y720480D02*
X1741500Y720480D01*
X500Y719480D02*
X7500Y719480D01*
X1734500Y719480D02*
X1741500Y719480D01*
X500Y718480D02*
X7500Y718480D01*
X1734500Y718480D02*
X1741500Y718480D01*
X500Y717480D02*
X7500Y717480D01*
X1734500Y717480D02*
X1741500Y717480D01*
X500Y716480D02*
X7500Y716480D01*
X1734500Y716480D02*
X1741500Y716480D01*
X500Y715480D02*
X7500Y715480D01*
X1734500Y715480D02*
X1741500Y715480D01*
X500Y714480D02*
X7500Y714480D01*
X1734500Y714480D02*
X1741500Y714480D01*
X500Y713480D02*
X7500Y713480D01*
X1734500Y713480D02*
X1741500Y713480D01*
X500Y712480D02*
X7500Y712480D01*
X1734500Y712480D02*
X1741500Y712480D01*
X500Y711480D02*
X7500Y711480D01*
X1734500Y711480D02*
X1741500Y711480D01*
X500Y710480D02*
X7500Y710480D01*
X1734500Y710480D02*
X1741500Y710480D01*
X500Y709480D02*
X7500Y709480D01*
X1734500Y709480D02*
X1741500Y709480D01*
X500Y708480D02*
X7500Y708480D01*
X1734500Y708480D02*
X1741500Y708480D01*
X500Y707480D02*
X7500Y707480D01*
X1734500Y707480D02*
X1741500Y707480D01*
X500Y706480D02*
X7500Y706480D01*
X1734500Y706480D02*
X1741500Y706480D01*
X500Y705480D02*
X7500Y705480D01*
X1734500Y705480D02*
X1741500Y705480D01*
X500Y704480D02*
X7500Y704480D01*
X1734500Y704480D02*
X1741500Y704480D01*
X500Y703480D02*
X7500Y703480D01*
X1734500Y703480D02*
X1741500Y703480D01*
X500Y702480D02*
X7500Y702480D01*
X1734500Y702480D02*
X1741500Y702480D01*
X500Y701480D02*
X7500Y701480D01*
X1734500Y701480D02*
X1741500Y701480D01*
X500Y700480D02*
X7500Y700480D01*
X1734500Y700480D02*
X1741500Y700480D01*
X500Y699480D02*
X7500Y699480D01*
X1734500Y699480D02*
X1741500Y699480D01*
X500Y698480D02*
X7500Y698480D01*
X1734500Y698480D02*
X1741500Y698480D01*
X500Y697480D02*
X7500Y697480D01*
X1734500Y697480D02*
X1741500Y697480D01*
X500Y696480D02*
X7500Y696480D01*
X1734500Y696480D02*
X1741500Y696480D01*
X500Y695480D02*
X7500Y695480D01*
X1734500Y695480D02*
X1741500Y695480D01*
X500Y694480D02*
X7500Y694480D01*
X1734500Y694480D02*
X1741500Y694480D01*
X500Y693480D02*
X7500Y693480D01*
X1734500Y693480D02*
X1741500Y693480D01*
X500Y692480D02*
X7500Y692480D01*
X1734500Y692480D02*
X1741500Y692480D01*
X500Y691480D02*
X7500Y691480D01*
X1734500Y691480D02*
X1741500Y691480D01*
X500Y690480D02*
X7500Y690480D01*
X1734500Y690480D02*
X1741500Y690480D01*
X500Y689480D02*
X7500Y689480D01*
X1734500Y689480D02*
X1741500Y689480D01*
X500Y688480D02*
X7500Y688480D01*
X1734500Y688480D02*
X1741500Y688480D01*
X500Y687480D02*
X7500Y687480D01*
X1734500Y687480D02*
X1741500Y687480D01*
X500Y686480D02*
X7500Y686480D01*
X1734500Y686480D02*
X1741500Y686480D01*
X500Y685480D02*
X7500Y685480D01*
X1734500Y685480D02*
X1741500Y685480D01*
X500Y684480D02*
X7500Y684480D01*
X1734500Y684480D02*
X1741500Y684480D01*
X500Y683480D02*
X7500Y683480D01*
X1734500Y683480D02*
X1741500Y683480D01*
X500Y682480D02*
X7500Y682480D01*
X1734500Y682480D02*
X1741500Y682480D01*
X500Y681480D02*
X7500Y681480D01*
X1734500Y681480D02*
X1741500Y681480D01*
X500Y680480D02*
X7500Y680480D01*
X1734500Y680480D02*
X1741500Y680480D01*
X500Y679480D02*
X7500Y679480D01*
X1734500Y679480D02*
X1741500Y679480D01*
X500Y678480D02*
X7500Y678480D01*
X1734500Y678480D02*
X1741500Y678480D01*
X500Y677480D02*
X7500Y677480D01*
X1734500Y677480D02*
X1741500Y677480D01*
X500Y676480D02*
X7500Y676480D01*
X1734500Y676480D02*
X1741500Y676480D01*
X500Y675480D02*
X7500Y675480D01*
X1734500Y675480D02*
X1741500Y675480D01*
X500Y674480D02*
X7500Y674480D01*
X1734500Y674480D02*
X1741500Y674480D01*
X500Y673480D02*
X7500Y673480D01*
X1734500Y673480D02*
X1741500Y673480D01*
X500Y672480D02*
X7500Y672480D01*
X1734500Y672480D02*
X1741500Y672480D01*
X500Y671480D02*
X7500Y671480D01*
X1734500Y671480D02*
X1741500Y671480D01*
X500Y670480D02*
X7500Y670480D01*
X1734500Y670480D02*
X1741500Y670480D01*
X500Y669480D02*
X7500Y669480D01*
X1734500Y669480D02*
X1741500Y669480D01*
X500Y668480D02*
X7500Y668480D01*
X1734500Y668480D02*
X1741500Y668480D01*
X500Y667480D02*
X7500Y667480D01*
X1734500Y667480D02*
X1741500Y667480D01*
X500Y666480D02*
X7500Y666480D01*
X1734500Y666480D02*
X1741500Y666480D01*
X500Y665480D02*
X7500Y665480D01*
X1734500Y665480D02*
X1741500Y665480D01*
X500Y664480D02*
X7500Y664480D01*
X1734500Y664480D02*
X1741500Y664480D01*
X500Y663480D02*
X7500Y663480D01*
X1734500Y663480D02*
X1741500Y663480D01*
X500Y662480D02*
X7500Y662480D01*
X1734500Y662480D02*
X1741500Y662480D01*
X500Y661480D02*
X7500Y661480D01*
X1734500Y661480D02*
X1741500Y661480D01*
X500Y660480D02*
X7500Y660480D01*
X1734500Y660480D02*
X1741500Y660480D01*
X500Y659480D02*
X7500Y659480D01*
X1734500Y659480D02*
X1741500Y659480D01*
X500Y658480D02*
X7500Y658480D01*
X1734500Y658480D02*
X1741500Y658480D01*
X500Y657480D02*
X7500Y657480D01*
X1734500Y657480D02*
X1741500Y657480D01*
X500Y656480D02*
X7500Y656480D01*
X1734500Y656480D02*
X1741500Y656480D01*
X500Y655480D02*
X7500Y655480D01*
X1734500Y655480D02*
X1741500Y655480D01*
X500Y654480D02*
X7500Y654480D01*
X1734500Y654480D02*
X1741500Y654480D01*
X500Y653480D02*
X7500Y653480D01*
X1734500Y653480D02*
X1741500Y653480D01*
X500Y652480D02*
X7500Y652480D01*
X1734500Y652480D02*
X1741500Y652480D01*
X500Y651480D02*
X7500Y651480D01*
X1734500Y651480D02*
X1741500Y651480D01*
X500Y650480D02*
X7500Y650480D01*
X1734500Y650480D02*
X1741500Y650480D01*
X500Y649480D02*
X7500Y649480D01*
X1734500Y649480D02*
X1741500Y649480D01*
X500Y648480D02*
X7500Y648480D01*
X1734500Y648480D02*
X1741500Y648480D01*
X500Y647480D02*
X7500Y647480D01*
X1734500Y647480D02*
X1741500Y647480D01*
X500Y646480D02*
X7500Y646480D01*
X1734500Y646480D02*
X1741500Y646480D01*
X500Y645480D02*
X7500Y645480D01*
X1734500Y645480D02*
X1741500Y645480D01*
X500Y644480D02*
X7500Y644480D01*
X1734500Y644480D02*
X1741500Y644480D01*
X500Y643480D02*
X7500Y643480D01*
X1734500Y643480D02*
X1741500Y643480D01*
X500Y642480D02*
X7500Y642480D01*
X1734500Y642480D02*
X1741500Y642480D01*
X500Y641480D02*
X7500Y641480D01*
X1734500Y641480D02*
X1741500Y641480D01*
X500Y640480D02*
X7500Y640480D01*
X1734500Y640480D02*
X1741500Y640480D01*
X500Y639480D02*
X7500Y639480D01*
X1734500Y639480D02*
X1741500Y639480D01*
X500Y638480D02*
X7500Y638480D01*
X1734500Y638480D02*
X1741500Y638480D01*
X500Y637480D02*
X7500Y637480D01*
X1734500Y637480D02*
X1741500Y637480D01*
X500Y636480D02*
X7500Y636480D01*
X1734500Y636480D02*
X1741500Y636480D01*
X500Y635480D02*
X7500Y635480D01*
X1734500Y635480D02*
X1741500Y635480D01*
X500Y634480D02*
X7500Y634480D01*
X1734500Y634480D02*
X1741500Y634480D01*
X500Y633480D02*
X7500Y633480D01*
X1734500Y633480D02*
X1741500Y633480D01*
X500Y632480D02*
X7500Y632480D01*
X1734500Y632480D02*
X1741500Y632480D01*
X500Y631480D02*
X7500Y631480D01*
X1734500Y631480D02*
X1741500Y631480D01*
X500Y630480D02*
X7500Y630480D01*
X1734500Y630480D02*
X1741500Y630480D01*
X500Y629480D02*
X7500Y629480D01*
X1734500Y629480D02*
X1741500Y629480D01*
X500Y628480D02*
X7500Y628480D01*
X1734500Y628480D02*
X1741500Y628480D01*
X500Y627480D02*
X7500Y627480D01*
X1734500Y627480D02*
X1741500Y627480D01*
X500Y626480D02*
X7500Y626480D01*
X1734500Y626480D02*
X1741500Y626480D01*
X500Y625480D02*
X7500Y625480D01*
X1734500Y625480D02*
X1741500Y625480D01*
X500Y624480D02*
X7500Y624480D01*
X1734500Y624480D02*
X1741500Y624480D01*
X500Y623480D02*
X7500Y623480D01*
X1734500Y623480D02*
X1741500Y623480D01*
X500Y622480D02*
X7500Y622480D01*
X1734500Y622480D02*
X1741500Y622480D01*
X500Y621480D02*
X7500Y621480D01*
X1734500Y621480D02*
X1741500Y621480D01*
X500Y620480D02*
X7500Y620480D01*
X1734500Y620480D02*
X1741500Y620480D01*
X500Y619480D02*
X7500Y619480D01*
X1734500Y619480D02*
X1741500Y619480D01*
X500Y618480D02*
X7500Y618480D01*
X1734500Y618480D02*
X1741500Y618480D01*
X500Y617480D02*
X7500Y617480D01*
X1734500Y617480D02*
X1741500Y617480D01*
X500Y616480D02*
X7500Y616480D01*
X1734500Y616480D02*
X1741500Y616480D01*
X500Y615480D02*
X7500Y615480D01*
X1734500Y615480D02*
X1741500Y615480D01*
X500Y614480D02*
X7500Y614480D01*
X1734500Y614480D02*
X1741500Y614480D01*
X500Y613480D02*
X7500Y613480D01*
X1734500Y613480D02*
X1741500Y613480D01*
X500Y612480D02*
X7500Y612480D01*
X1734500Y612480D02*
X1741500Y612480D01*
X500Y611480D02*
X7500Y611480D01*
X1734500Y611480D02*
X1741500Y611480D01*
X500Y610480D02*
X7500Y610480D01*
X1734500Y610480D02*
X1741500Y610480D01*
X500Y609480D02*
X7500Y609480D01*
X1734500Y609480D02*
X1741500Y609480D01*
X500Y608480D02*
X7500Y608480D01*
X1734500Y608480D02*
X1741500Y608480D01*
X500Y607480D02*
X7500Y607480D01*
X1734500Y607480D02*
X1741500Y607480D01*
X500Y606480D02*
X7500Y606480D01*
X1734500Y606480D02*
X1741500Y606480D01*
X500Y605480D02*
X7500Y605480D01*
X1734500Y605480D02*
X1741500Y605480D01*
X500Y604480D02*
X7500Y604480D01*
X1734500Y604480D02*
X1741500Y604480D01*
X500Y603480D02*
X7500Y603480D01*
X1734500Y603480D02*
X1741500Y603480D01*
X500Y602480D02*
X7500Y602480D01*
X1734500Y602480D02*
X1741500Y602480D01*
X500Y601480D02*
X7500Y601480D01*
X1734500Y601480D02*
X1741500Y601480D01*
X500Y600480D02*
X7500Y600480D01*
X1734500Y600480D02*
X1741500Y600480D01*
X500Y599480D02*
X7500Y599480D01*
X1734500Y599480D02*
X1741500Y599480D01*
X500Y598480D02*
X7500Y598480D01*
X1734500Y598480D02*
X1741500Y598480D01*
X500Y597480D02*
X7500Y597480D01*
X1734500Y597480D02*
X1741500Y597480D01*
X500Y596480D02*
X7500Y596480D01*
X1734500Y596480D02*
X1741500Y596480D01*
X500Y595480D02*
X7500Y595480D01*
X1734500Y595480D02*
X1741500Y595480D01*
X500Y594480D02*
X7500Y594480D01*
X1734500Y594480D02*
X1741500Y594480D01*
X500Y593480D02*
X7500Y593480D01*
X1734500Y593480D02*
X1741500Y593480D01*
X500Y592480D02*
X7500Y592480D01*
X1734500Y592480D02*
X1741500Y592480D01*
X500Y591480D02*
X7500Y591480D01*
X1734500Y591480D02*
X1741500Y591480D01*
X500Y590480D02*
X7500Y590480D01*
X1734500Y590480D02*
X1741500Y590480D01*
X500Y589480D02*
X7500Y589480D01*
X1734500Y589480D02*
X1741500Y589480D01*
X500Y588480D02*
X7500Y588480D01*
X1734500Y588480D02*
X1741500Y588480D01*
X500Y587480D02*
X7500Y587480D01*
X1734500Y587480D02*
X1741500Y587480D01*
X500Y586480D02*
X7500Y586480D01*
X1734500Y586480D02*
X1741500Y586480D01*
X500Y585480D02*
X7500Y585480D01*
X1734500Y585480D02*
X1741500Y585480D01*
X500Y584480D02*
X7500Y584480D01*
X1734500Y584480D02*
X1741500Y584480D01*
X500Y583480D02*
X7500Y583480D01*
X1734500Y583480D02*
X1741500Y583480D01*
X500Y582480D02*
X7500Y582480D01*
X1734500Y582480D02*
X1741500Y582480D01*
X500Y581480D02*
X7500Y581480D01*
X1734500Y581480D02*
X1741500Y581480D01*
X500Y580480D02*
X7500Y580480D01*
X1734500Y580480D02*
X1741500Y580480D01*
X500Y579480D02*
X7500Y579480D01*
X1734500Y579480D02*
X1741500Y579480D01*
X500Y578480D02*
X7500Y578480D01*
X1734500Y578480D02*
X1741500Y578480D01*
X500Y577480D02*
X7500Y577480D01*
X1734500Y577480D02*
X1741500Y577480D01*
X500Y576480D02*
X7500Y576480D01*
X1734500Y576480D02*
X1741500Y576480D01*
X500Y575480D02*
X7500Y575480D01*
X1734500Y575480D02*
X1741500Y575480D01*
X500Y574480D02*
X7500Y574480D01*
X1734500Y574480D02*
X1741500Y574480D01*
X500Y573480D02*
X7500Y573480D01*
X1734500Y573480D02*
X1741500Y573480D01*
X500Y572480D02*
X7500Y572480D01*
X1734500Y572480D02*
X1741500Y572480D01*
X500Y571480D02*
X7500Y571480D01*
X1734500Y571480D02*
X1741500Y571480D01*
X500Y570480D02*
X7500Y570480D01*
X1734500Y570480D02*
X1741500Y570480D01*
X500Y569480D02*
X7500Y569480D01*
X1734500Y569480D02*
X1741500Y569480D01*
X500Y568480D02*
X7500Y568480D01*
X1734500Y568480D02*
X1741500Y568480D01*
X500Y567480D02*
X7500Y567480D01*
X1734500Y567480D02*
X1741500Y567480D01*
X500Y566480D02*
X7500Y566480D01*
X1734500Y566480D02*
X1741500Y566480D01*
X500Y565480D02*
X7500Y565480D01*
X1734500Y565480D02*
X1741500Y565480D01*
X500Y564480D02*
X7500Y564480D01*
X1734500Y564480D02*
X1741500Y564480D01*
X500Y563480D02*
X7500Y563480D01*
X1734500Y563480D02*
X1741500Y563480D01*
X500Y562480D02*
X7500Y562480D01*
X1734500Y562480D02*
X1741500Y562480D01*
X500Y561480D02*
X7500Y561480D01*
X1734500Y561480D02*
X1741500Y561480D01*
X500Y560480D02*
X7500Y560480D01*
X1734500Y560480D02*
X1741500Y560480D01*
X500Y559480D02*
X7500Y559480D01*
X1734500Y559480D02*
X1741500Y559480D01*
X500Y558480D02*
X7500Y558480D01*
X1734500Y558480D02*
X1741500Y558480D01*
X500Y557480D02*
X7500Y557480D01*
X1734500Y557480D02*
X1741500Y557480D01*
X500Y556480D02*
X7500Y556480D01*
X1734500Y556480D02*
X1741500Y556480D01*
X500Y555480D02*
X7500Y555480D01*
X1734500Y555480D02*
X1741500Y555480D01*
X500Y554480D02*
X7500Y554480D01*
X1734500Y554480D02*
X1741500Y554480D01*
X500Y553480D02*
X7500Y553480D01*
X1734500Y553480D02*
X1741500Y553480D01*
X500Y552480D02*
X7500Y552480D01*
X1734500Y552480D02*
X1741500Y552480D01*
X500Y551480D02*
X7500Y551480D01*
X1734500Y551480D02*
X1741500Y551480D01*
X500Y550480D02*
X7500Y550480D01*
X1734500Y550480D02*
X1741500Y550480D01*
X500Y549480D02*
X7500Y549480D01*
X1734500Y549480D02*
X1741500Y549480D01*
X500Y548480D02*
X7500Y548480D01*
X1734500Y548480D02*
X1741500Y548480D01*
X500Y547480D02*
X7500Y547480D01*
X1734500Y547480D02*
X1741500Y547480D01*
X500Y546480D02*
X7500Y546480D01*
X1734500Y546480D02*
X1741500Y546480D01*
X500Y545480D02*
X7500Y545480D01*
X1734500Y545480D02*
X1741500Y545480D01*
X500Y544480D02*
X7500Y544480D01*
X1734500Y544480D02*
X1741500Y544480D01*
X500Y543480D02*
X7500Y543480D01*
X1734500Y543480D02*
X1741500Y543480D01*
X500Y542480D02*
X7500Y542480D01*
X1734500Y542480D02*
X1741500Y542480D01*
X500Y541480D02*
X7500Y541480D01*
X1734500Y541480D02*
X1741500Y541480D01*
X500Y540480D02*
X7500Y540480D01*
X1734500Y540480D02*
X1741500Y540480D01*
X500Y539480D02*
X7500Y539480D01*
X1734500Y539480D02*
X1741500Y539480D01*
X500Y538480D02*
X7500Y538480D01*
X1734500Y538480D02*
X1741500Y538480D01*
X500Y537480D02*
X7500Y537480D01*
X1734500Y537480D02*
X1741500Y537480D01*
X500Y536480D02*
X7500Y536480D01*
X1734500Y536480D02*
X1741500Y536480D01*
X500Y535480D02*
X7500Y535480D01*
X1734500Y535480D02*
X1741500Y535480D01*
X500Y534480D02*
X7500Y534480D01*
X1734500Y534480D02*
X1741500Y534480D01*
X500Y533480D02*
X7500Y533480D01*
X1734500Y533480D02*
X1741500Y533480D01*
X500Y532480D02*
X7500Y532480D01*
X1734500Y532480D02*
X1741500Y532480D01*
X500Y531480D02*
X7500Y531480D01*
X1734500Y531480D02*
X1741500Y531480D01*
X500Y530480D02*
X7500Y530480D01*
X1734500Y530480D02*
X1741500Y530480D01*
X500Y529480D02*
X7500Y529480D01*
X1734500Y529480D02*
X1741500Y529480D01*
X500Y528480D02*
X7500Y528480D01*
X1734500Y528480D02*
X1741500Y528480D01*
X500Y527480D02*
X7500Y527480D01*
X1734500Y527480D02*
X1741500Y527480D01*
X500Y526480D02*
X7500Y526480D01*
X1734500Y526480D02*
X1741500Y526480D01*
X500Y525480D02*
X7500Y525480D01*
X1734500Y525480D02*
X1741500Y525480D01*
X500Y524480D02*
X7500Y524480D01*
X1734500Y524480D02*
X1741500Y524480D01*
X500Y523480D02*
X7500Y523480D01*
X1734500Y523480D02*
X1741500Y523480D01*
X500Y522480D02*
X7500Y522480D01*
X1734500Y522480D02*
X1741500Y522480D01*
X500Y521480D02*
X7500Y521480D01*
X1734500Y521480D02*
X1741500Y521480D01*
X500Y520480D02*
X7500Y520480D01*
X1734500Y520480D02*
X1741500Y520480D01*
X500Y519480D02*
X7500Y519480D01*
X1734500Y519480D02*
X1741500Y519480D01*
X500Y518480D02*
X7500Y518480D01*
X1734500Y518480D02*
X1741500Y518480D01*
X500Y517480D02*
X7500Y517480D01*
X1734500Y517480D02*
X1741500Y517480D01*
X500Y516480D02*
X7500Y516480D01*
X1734500Y516480D02*
X1741500Y516480D01*
X500Y515480D02*
X7500Y515480D01*
X1734500Y515480D02*
X1741500Y515480D01*
X500Y514480D02*
X7500Y514480D01*
X1734500Y514480D02*
X1741500Y514480D01*
X500Y513480D02*
X7500Y513480D01*
X1734500Y513480D02*
X1741500Y513480D01*
X500Y512480D02*
X7500Y512480D01*
X1734500Y512480D02*
X1741500Y512480D01*
X500Y511480D02*
X7500Y511480D01*
X1734500Y511480D02*
X1741500Y511480D01*
X500Y510480D02*
X7500Y510480D01*
X1734500Y510480D02*
X1741500Y510480D01*
X500Y509480D02*
X7500Y509480D01*
X1734500Y509480D02*
X1741500Y509480D01*
X500Y508480D02*
X7500Y508480D01*
X1734500Y508480D02*
X1741500Y508480D01*
X500Y507480D02*
X7500Y507480D01*
X1734500Y507480D02*
X1741500Y507480D01*
X500Y506480D02*
X7500Y506480D01*
X1734500Y506480D02*
X1741500Y506480D01*
X500Y505480D02*
X7500Y505480D01*
X1734500Y505480D02*
X1741500Y505480D01*
X500Y504480D02*
X7500Y504480D01*
X1734500Y504480D02*
X1741500Y504480D01*
X500Y503480D02*
X7500Y503480D01*
X1734500Y503480D02*
X1741500Y503480D01*
X500Y502480D02*
X7500Y502480D01*
X1734500Y502480D02*
X1741500Y502480D01*
X500Y501480D02*
X7500Y501480D01*
X1734500Y501480D02*
X1741500Y501480D01*
X500Y500480D02*
X7500Y500480D01*
X1734500Y500480D02*
X1741500Y500480D01*
X500Y499480D02*
X7500Y499480D01*
X1734500Y499480D02*
X1741500Y499480D01*
X500Y498480D02*
X7500Y498480D01*
X1734500Y498480D02*
X1741500Y498480D01*
X500Y497480D02*
X7500Y497480D01*
X1734500Y497480D02*
X1741500Y497480D01*
X500Y496480D02*
X7500Y496480D01*
X1734500Y496480D02*
X1741500Y496480D01*
X500Y495480D02*
X7500Y495480D01*
X1734500Y495480D02*
X1741500Y495480D01*
X500Y494480D02*
X7500Y494480D01*
X1734500Y494480D02*
X1741500Y494480D01*
X500Y493480D02*
X7500Y493480D01*
X1734500Y493480D02*
X1741500Y493480D01*
X500Y492480D02*
X7500Y492480D01*
X1734500Y492480D02*
X1741500Y492480D01*
X500Y491480D02*
X7500Y491480D01*
X1734500Y491480D02*
X1741500Y491480D01*
X500Y490480D02*
X7500Y490480D01*
X1734500Y490480D02*
X1741500Y490480D01*
X500Y489480D02*
X7500Y489480D01*
X1734500Y489480D02*
X1741500Y489480D01*
X500Y488480D02*
X7500Y488480D01*
X1734500Y488480D02*
X1741500Y488480D01*
X500Y487480D02*
X7500Y487480D01*
X1734500Y487480D02*
X1741500Y487480D01*
X500Y486480D02*
X7500Y486480D01*
X1734500Y486480D02*
X1741500Y486480D01*
X500Y485480D02*
X7500Y485480D01*
X1734500Y485480D02*
X1741500Y485480D01*
X500Y484480D02*
X7500Y484480D01*
X1734500Y484480D02*
X1741500Y484480D01*
X500Y483480D02*
X7500Y483480D01*
X1734500Y483480D02*
X1741500Y483480D01*
X500Y482480D02*
X7500Y482480D01*
X1734500Y482480D02*
X1741500Y482480D01*
X500Y481480D02*
X7500Y481480D01*
X1734500Y481480D02*
X1741500Y481480D01*
X500Y480480D02*
X7500Y480480D01*
X1734500Y480480D02*
X1741500Y480480D01*
X500Y479480D02*
X7500Y479480D01*
X1734500Y479480D02*
X1741500Y479480D01*
X500Y478480D02*
X7500Y478480D01*
X1734500Y478480D02*
X1741500Y478480D01*
X500Y477480D02*
X7500Y477480D01*
X1734500Y477480D02*
X1741500Y477480D01*
X500Y476480D02*
X7500Y476480D01*
X1734500Y476480D02*
X1741500Y476480D01*
X500Y475480D02*
X7500Y475480D01*
X1734500Y475480D02*
X1741500Y475480D01*
X500Y474480D02*
X7500Y474480D01*
X1734500Y474480D02*
X1741500Y474480D01*
X500Y473480D02*
X7500Y473480D01*
X1734500Y473480D02*
X1741500Y473480D01*
X500Y472480D02*
X7500Y472480D01*
X1734500Y472480D02*
X1741500Y472480D01*
X500Y471480D02*
X7500Y471480D01*
X1734500Y471480D02*
X1741500Y471480D01*
X500Y470480D02*
X7500Y470480D01*
X1734500Y470480D02*
X1741500Y470480D01*
X500Y469480D02*
X7500Y469480D01*
X1734500Y469480D02*
X1741500Y469480D01*
X500Y468480D02*
X7500Y468480D01*
X1734500Y468480D02*
X1741500Y468480D01*
X500Y467480D02*
X7500Y467480D01*
X1734500Y467480D02*
X1741500Y467480D01*
X500Y466480D02*
X7500Y466480D01*
X1734500Y466480D02*
X1741500Y466480D01*
X500Y465480D02*
X7500Y465480D01*
X1734500Y465480D02*
X1741500Y465480D01*
X500Y464480D02*
X7500Y464480D01*
X1734500Y464480D02*
X1741500Y464480D01*
X500Y463480D02*
X7500Y463480D01*
X1734500Y463480D02*
X1741500Y463480D01*
X500Y462480D02*
X7500Y462480D01*
X1734500Y462480D02*
X1741500Y462480D01*
X500Y461480D02*
X7500Y461480D01*
X1734500Y461480D02*
X1741500Y461480D01*
X500Y460480D02*
X7500Y460480D01*
X1734500Y460480D02*
X1741500Y460480D01*
X500Y459480D02*
X7500Y459480D01*
X1734500Y459480D02*
X1741500Y459480D01*
X500Y458480D02*
X7500Y458480D01*
X1734500Y458480D02*
X1741500Y458480D01*
X500Y457480D02*
X7500Y457480D01*
X1734500Y457480D02*
X1741500Y457480D01*
X500Y456480D02*
X7500Y456480D01*
X1734500Y456480D02*
X1741500Y456480D01*
X500Y455480D02*
X7500Y455480D01*
X1734500Y455480D02*
X1741500Y455480D01*
X500Y454480D02*
X7500Y454480D01*
X1734500Y454480D02*
X1741500Y454480D01*
X500Y453480D02*
X7500Y453480D01*
X1734500Y453480D02*
X1741500Y453480D01*
X500Y452480D02*
X7500Y452480D01*
X1734500Y452480D02*
X1741500Y452480D01*
X500Y451480D02*
X7500Y451480D01*
X1734500Y451480D02*
X1741500Y451480D01*
X500Y450480D02*
X7500Y450480D01*
X1734500Y450480D02*
X1741500Y450480D01*
X500Y449480D02*
X7500Y449480D01*
X1734500Y449480D02*
X1741500Y449480D01*
X500Y448480D02*
X7500Y448480D01*
X1734500Y448480D02*
X1741500Y448480D01*
X500Y447480D02*
X7500Y447480D01*
X1734500Y447480D02*
X1741500Y447480D01*
X500Y446480D02*
X7500Y446480D01*
X1734500Y446480D02*
X1741500Y446480D01*
X500Y445480D02*
X7500Y445480D01*
X1734500Y445480D02*
X1741500Y445480D01*
X500Y444480D02*
X7500Y444480D01*
X1734500Y444480D02*
X1741500Y444480D01*
X500Y443480D02*
X7500Y443480D01*
X1734500Y443480D02*
X1741500Y443480D01*
X500Y442480D02*
X7500Y442480D01*
X1734500Y442480D02*
X1741500Y442480D01*
X500Y441480D02*
X7500Y441480D01*
X1734500Y441480D02*
X1741500Y441480D01*
X500Y440480D02*
X7500Y440480D01*
X1734500Y440480D02*
X1741500Y440480D01*
X500Y439480D02*
X7500Y439480D01*
X1734500Y439480D02*
X1741500Y439480D01*
X500Y438480D02*
X7500Y438480D01*
X1734500Y438480D02*
X1741500Y438480D01*
X500Y437480D02*
X7500Y437480D01*
X1734500Y437480D02*
X1741500Y437480D01*
X500Y436480D02*
X7500Y436480D01*
X1734500Y436480D02*
X1741500Y436480D01*
X500Y435480D02*
X7500Y435480D01*
X1734500Y435480D02*
X1741500Y435480D01*
X500Y434480D02*
X7500Y434480D01*
X1734500Y434480D02*
X1741500Y434480D01*
X500Y433480D02*
X7500Y433480D01*
X1734500Y433480D02*
X1741500Y433480D01*
X500Y432480D02*
X7500Y432480D01*
X1734500Y432480D02*
X1741500Y432480D01*
X500Y431480D02*
X7500Y431480D01*
X1734500Y431480D02*
X1741500Y431480D01*
X500Y430480D02*
X7500Y430480D01*
X1734500Y430480D02*
X1741500Y430480D01*
X500Y429480D02*
X7500Y429480D01*
X1734500Y429480D02*
X1741500Y429480D01*
X500Y428480D02*
X7500Y428480D01*
X1734500Y428480D02*
X1741500Y428480D01*
X500Y427480D02*
X7500Y427480D01*
X1734500Y427480D02*
X1741500Y427480D01*
X500Y426480D02*
X7500Y426480D01*
X1734500Y426480D02*
X1741500Y426480D01*
X500Y425480D02*
X7500Y425480D01*
X1734500Y425480D02*
X1741500Y425480D01*
X500Y424480D02*
X7500Y424480D01*
X1734500Y424480D02*
X1741500Y424480D01*
X500Y423480D02*
X7500Y423480D01*
X1734500Y423480D02*
X1741500Y423480D01*
X500Y422480D02*
X7500Y422480D01*
X1734500Y422480D02*
X1741500Y422480D01*
X500Y421480D02*
X7500Y421480D01*
X1734500Y421480D02*
X1741500Y421480D01*
X500Y420480D02*
X7500Y420480D01*
X1734500Y420480D02*
X1741500Y420480D01*
X500Y419480D02*
X7500Y419480D01*
X1734500Y419480D02*
X1741500Y419480D01*
X500Y418480D02*
X7500Y418480D01*
X1734500Y418480D02*
X1741500Y418480D01*
X500Y417480D02*
X7500Y417480D01*
X1734500Y417480D02*
X1741500Y417480D01*
X500Y416480D02*
X7500Y416480D01*
X1734500Y416480D02*
X1741500Y416480D01*
X500Y415480D02*
X7500Y415480D01*
X1734500Y415480D02*
X1741500Y415480D01*
X500Y414480D02*
X7500Y414480D01*
X1734500Y414480D02*
X1741500Y414480D01*
X500Y413480D02*
X7500Y413480D01*
X1734500Y413480D02*
X1741500Y413480D01*
X500Y412480D02*
X7500Y412480D01*
X1734500Y412480D02*
X1741500Y412480D01*
X500Y411480D02*
X7500Y411480D01*
X1734500Y411480D02*
X1741500Y411480D01*
X500Y410480D02*
X7500Y410480D01*
X1734500Y410480D02*
X1741500Y410480D01*
X500Y409480D02*
X7500Y409480D01*
X1734500Y409480D02*
X1741500Y409480D01*
X500Y408480D02*
X7500Y408480D01*
X1734500Y408480D02*
X1741500Y408480D01*
X500Y407480D02*
X7500Y407480D01*
X1734500Y407480D02*
X1741500Y407480D01*
X500Y406480D02*
X7500Y406480D01*
X1734500Y406480D02*
X1741500Y406480D01*
X500Y405480D02*
X7500Y405480D01*
X1734500Y405480D02*
X1741500Y405480D01*
X500Y404480D02*
X7500Y404480D01*
X1734500Y404480D02*
X1741500Y404480D01*
X500Y403480D02*
X7500Y403480D01*
X1734500Y403480D02*
X1741500Y403480D01*
X500Y402480D02*
X7500Y402480D01*
X1734500Y402480D02*
X1741500Y402480D01*
X500Y401480D02*
X7500Y401480D01*
X1734500Y401480D02*
X1741500Y401480D01*
X500Y400480D02*
X7500Y400480D01*
X1734500Y400480D02*
X1741500Y400480D01*
X500Y399480D02*
X7500Y399480D01*
X1734500Y399480D02*
X1741500Y399480D01*
X500Y398480D02*
X7500Y398480D01*
X1734500Y398480D02*
X1741500Y398480D01*
X500Y397480D02*
X7500Y397480D01*
X1734500Y397480D02*
X1741500Y397480D01*
X500Y396480D02*
X7500Y396480D01*
X1734500Y396480D02*
X1741500Y396480D01*
X500Y395480D02*
X7500Y395480D01*
X1734500Y395480D02*
X1741500Y395480D01*
X500Y394480D02*
X7500Y394480D01*
X1734500Y394480D02*
X1741500Y394480D01*
X500Y393480D02*
X7500Y393480D01*
X1734500Y393480D02*
X1741500Y393480D01*
X500Y392480D02*
X7500Y392480D01*
X1734500Y392480D02*
X1741500Y392480D01*
X500Y391480D02*
X7500Y391480D01*
X1734500Y391480D02*
X1741500Y391480D01*
X500Y390480D02*
X7500Y390480D01*
X1734500Y390480D02*
X1741500Y390480D01*
X500Y389480D02*
X7500Y389480D01*
X1734500Y389480D02*
X1741500Y389480D01*
X500Y388480D02*
X7500Y388480D01*
X1734500Y388480D02*
X1741500Y388480D01*
X500Y387480D02*
X7500Y387480D01*
X1734500Y387480D02*
X1741500Y387480D01*
X500Y386480D02*
X7500Y386480D01*
X1734500Y386480D02*
X1741500Y386480D01*
X500Y385480D02*
X7500Y385480D01*
X1734500Y385480D02*
X1741500Y385480D01*
X500Y384480D02*
X7500Y384480D01*
X1734500Y384480D02*
X1741500Y384480D01*
X500Y383480D02*
X7500Y383480D01*
X1734500Y383480D02*
X1741500Y383480D01*
X500Y382480D02*
X7500Y382480D01*
X1734500Y382480D02*
X1741500Y382480D01*
X500Y381480D02*
X7500Y381480D01*
X1734500Y381480D02*
X1741500Y381480D01*
X500Y380480D02*
X7500Y380480D01*
X1734500Y380480D02*
X1741500Y380480D01*
X500Y379480D02*
X7500Y379480D01*
X1734500Y379480D02*
X1741500Y379480D01*
X500Y378480D02*
X7500Y378480D01*
X1734500Y378480D02*
X1741500Y378480D01*
X500Y377480D02*
X7500Y377480D01*
X1734500Y377480D02*
X1741500Y377480D01*
X500Y376480D02*
X7500Y376480D01*
X1734500Y376480D02*
X1741500Y376480D01*
X500Y375480D02*
X7500Y375480D01*
X1734500Y375480D02*
X1741500Y375480D01*
X500Y374480D02*
X7500Y374480D01*
X1734500Y374480D02*
X1741500Y374480D01*
X500Y373480D02*
X7500Y373480D01*
X1734500Y373480D02*
X1741500Y373480D01*
X500Y372480D02*
X7500Y372480D01*
X1734500Y372480D02*
X1741500Y372480D01*
X500Y371480D02*
X7500Y371480D01*
X1734500Y371480D02*
X1741500Y371480D01*
X500Y370480D02*
X7500Y370480D01*
X1734500Y370480D02*
X1741500Y370480D01*
X500Y369480D02*
X7500Y369480D01*
X1734500Y369480D02*
X1741500Y369480D01*
X500Y368480D02*
X7500Y368480D01*
X1734500Y368480D02*
X1741500Y368480D01*
X500Y367480D02*
X7500Y367480D01*
X1734500Y367480D02*
X1741500Y367480D01*
X500Y366480D02*
X7500Y366480D01*
X1734500Y366480D02*
X1741500Y366480D01*
X500Y365480D02*
X7500Y365480D01*
X1734500Y365480D02*
X1741500Y365480D01*
X500Y364480D02*
X7500Y364480D01*
X1734500Y364480D02*
X1741500Y364480D01*
X500Y363480D02*
X7500Y363480D01*
X1734500Y363480D02*
X1741500Y363480D01*
X500Y362480D02*
X7500Y362480D01*
X1734500Y362480D02*
X1741500Y362480D01*
X500Y361480D02*
X7500Y361480D01*
X1734500Y361480D02*
X1741500Y361480D01*
X500Y360480D02*
X7500Y360480D01*
X1734500Y360480D02*
X1741500Y360480D01*
X500Y359480D02*
X7500Y359480D01*
X1734500Y359480D02*
X1741500Y359480D01*
X500Y358480D02*
X7500Y358480D01*
X1734500Y358480D02*
X1741500Y358480D01*
X500Y357480D02*
X7500Y357480D01*
X1734500Y357480D02*
X1741500Y357480D01*
X500Y356480D02*
X7500Y356480D01*
X1734500Y356480D02*
X1741500Y356480D01*
X500Y355480D02*
X7500Y355480D01*
X1734500Y355480D02*
X1741500Y355480D01*
X500Y354480D02*
X7500Y354480D01*
X1734500Y354480D02*
X1741500Y354480D01*
X500Y353480D02*
X7500Y353480D01*
X1734500Y353480D02*
X1741500Y353480D01*
X500Y352480D02*
X7500Y352480D01*
X1734500Y352480D02*
X1741500Y352480D01*
X500Y351480D02*
X7500Y351480D01*
X1734500Y351480D02*
X1741500Y351480D01*
X500Y350480D02*
X7500Y350480D01*
X1734500Y350480D02*
X1741500Y350480D01*
X500Y349480D02*
X7500Y349480D01*
X1734500Y349480D02*
X1741500Y349480D01*
X500Y348480D02*
X7500Y348480D01*
X1734500Y348480D02*
X1741500Y348480D01*
X500Y347480D02*
X7500Y347480D01*
X1734500Y347480D02*
X1741500Y347480D01*
X500Y346480D02*
X7500Y346480D01*
X1734500Y346480D02*
X1741500Y346480D01*
X500Y345480D02*
X7500Y345480D01*
X1734500Y345480D02*
X1741500Y345480D01*
X500Y344480D02*
X7500Y344480D01*
X1734500Y344480D02*
X1741500Y344480D01*
X500Y343480D02*
X7500Y343480D01*
X1734500Y343480D02*
X1741500Y343480D01*
X500Y342480D02*
X7500Y342480D01*
X1734500Y342480D02*
X1741500Y342480D01*
X500Y341480D02*
X7500Y341480D01*
X1734500Y341480D02*
X1741500Y341480D01*
X500Y340480D02*
X7500Y340480D01*
X1734500Y340480D02*
X1741500Y340480D01*
X500Y339480D02*
X7500Y339480D01*
X1734500Y339480D02*
X1741500Y339480D01*
X500Y338480D02*
X7500Y338480D01*
X1734500Y338480D02*
X1741500Y338480D01*
X500Y337480D02*
X7500Y337480D01*
X1734500Y337480D02*
X1741500Y337480D01*
X500Y336480D02*
X7500Y336480D01*
X1734500Y336480D02*
X1741500Y336480D01*
X500Y335480D02*
X7500Y335480D01*
X1734500Y335480D02*
X1741500Y335480D01*
X500Y334480D02*
X7500Y334480D01*
X1734500Y334480D02*
X1741500Y334480D01*
X500Y333480D02*
X7500Y333480D01*
X1734500Y333480D02*
X1741500Y333480D01*
X500Y332480D02*
X7500Y332480D01*
X1734500Y332480D02*
X1741500Y332480D01*
X500Y331480D02*
X7500Y331480D01*
X1734500Y331480D02*
X1741500Y331480D01*
X500Y330480D02*
X7500Y330480D01*
X1734500Y330480D02*
X1741500Y330480D01*
X500Y329480D02*
X7500Y329480D01*
X1734500Y329480D02*
X1741500Y329480D01*
X500Y328480D02*
X7500Y328480D01*
X1734500Y328480D02*
X1741500Y328480D01*
X500Y327480D02*
X7500Y327480D01*
X1734500Y327480D02*
X1741500Y327480D01*
X500Y326480D02*
X7500Y326480D01*
X1734500Y326480D02*
X1741500Y326480D01*
X500Y325480D02*
X7500Y325480D01*
X1734500Y325480D02*
X1741500Y325480D01*
X500Y324480D02*
X7500Y324480D01*
X1734500Y324480D02*
X1741500Y324480D01*
X500Y323480D02*
X7500Y323480D01*
X1734500Y323480D02*
X1741500Y323480D01*
X500Y322480D02*
X7500Y322480D01*
X1734500Y322480D02*
X1741500Y322480D01*
X500Y321480D02*
X7500Y321480D01*
X1734500Y321480D02*
X1741500Y321480D01*
X500Y320480D02*
X7500Y320480D01*
X1734500Y320480D02*
X1741500Y320480D01*
X500Y319480D02*
X7500Y319480D01*
X1734500Y319480D02*
X1741500Y319480D01*
X500Y318480D02*
X7500Y318480D01*
X1734500Y318480D02*
X1741500Y318480D01*
X500Y317480D02*
X7500Y317480D01*
X1734500Y317480D02*
X1741500Y317480D01*
X500Y316480D02*
X7500Y316480D01*
X1734500Y316480D02*
X1741500Y316480D01*
X500Y315480D02*
X7500Y315480D01*
X1734500Y315480D02*
X1741500Y315480D01*
X500Y314480D02*
X7500Y314480D01*
X1734500Y314480D02*
X1741500Y314480D01*
X500Y313480D02*
X7500Y313480D01*
X1734500Y313480D02*
X1741500Y313480D01*
X500Y312480D02*
X7500Y312480D01*
X1734500Y312480D02*
X1741500Y312480D01*
X500Y311480D02*
X7500Y311480D01*
X1734500Y311480D02*
X1741500Y311480D01*
X500Y310480D02*
X7500Y310480D01*
X1734500Y310480D02*
X1741500Y310480D01*
X500Y309480D02*
X7500Y309480D01*
X1734500Y309480D02*
X1741500Y309480D01*
X500Y308480D02*
X7500Y308480D01*
X1734500Y308480D02*
X1741500Y308480D01*
X500Y307480D02*
X7500Y307480D01*
X1734500Y307480D02*
X1741500Y307480D01*
X500Y306480D02*
X7500Y306480D01*
X1734500Y306480D02*
X1741500Y306480D01*
X500Y305480D02*
X7500Y305480D01*
X1734500Y305480D02*
X1741500Y305480D01*
X500Y304480D02*
X7500Y304480D01*
X1734500Y304480D02*
X1741500Y304480D01*
X500Y303480D02*
X7500Y303480D01*
X1734500Y303480D02*
X1741500Y303480D01*
X500Y302480D02*
X7500Y302480D01*
X1734500Y302480D02*
X1741500Y302480D01*
X500Y301480D02*
X7500Y301480D01*
X1734500Y301480D02*
X1741500Y301480D01*
X500Y300480D02*
X7500Y300480D01*
X1734500Y300480D02*
X1741500Y300480D01*
X500Y299480D02*
X7500Y299480D01*
X1734500Y299480D02*
X1741500Y299480D01*
X500Y298480D02*
X7500Y298480D01*
X1734500Y298480D02*
X1741500Y298480D01*
X500Y297480D02*
X7500Y297480D01*
X1734500Y297480D02*
X1741500Y297480D01*
X500Y296480D02*
X7500Y296480D01*
X1734500Y296480D02*
X1741500Y296480D01*
X500Y295480D02*
X7500Y295480D01*
X1734500Y295480D02*
X1741500Y295480D01*
X500Y294480D02*
X7500Y294480D01*
X1734500Y294480D02*
X1741500Y294480D01*
X500Y293480D02*
X7500Y293480D01*
X1734500Y293480D02*
X1741500Y293480D01*
X500Y292480D02*
X7500Y292480D01*
X1734500Y292480D02*
X1741500Y292480D01*
X500Y291480D02*
X7500Y291480D01*
X1734500Y291480D02*
X1741500Y291480D01*
X500Y290480D02*
X7500Y290480D01*
X1734500Y290480D02*
X1741500Y290480D01*
X500Y289480D02*
X7500Y289480D01*
X1734500Y289480D02*
X1741500Y289480D01*
X500Y288480D02*
X7500Y288480D01*
X1734500Y288480D02*
X1741500Y288480D01*
X500Y287480D02*
X7500Y287480D01*
X1734500Y287480D02*
X1741500Y287480D01*
X500Y286480D02*
X7500Y286480D01*
X1734500Y286480D02*
X1741500Y286480D01*
X500Y285480D02*
X7500Y285480D01*
X1734500Y285480D02*
X1741500Y285480D01*
X500Y284480D02*
X7500Y284480D01*
X1734500Y284480D02*
X1741500Y284480D01*
X500Y283480D02*
X7500Y283480D01*
X1734500Y283480D02*
X1741500Y283480D01*
X500Y282480D02*
X7500Y282480D01*
X1734500Y282480D02*
X1741500Y282480D01*
X500Y281480D02*
X7500Y281480D01*
X1734500Y281480D02*
X1741500Y281480D01*
X500Y280480D02*
X7500Y280480D01*
X1734500Y280480D02*
X1741500Y280480D01*
X500Y279480D02*
X7500Y279480D01*
X1734500Y279480D02*
X1741500Y279480D01*
X500Y278480D02*
X7500Y278480D01*
X1734500Y278480D02*
X1741500Y278480D01*
X500Y277480D02*
X7500Y277480D01*
X1734500Y277480D02*
X1741500Y277480D01*
X500Y276480D02*
X7500Y276480D01*
X1734500Y276480D02*
X1741500Y276480D01*
X500Y275480D02*
X7500Y275480D01*
X1734500Y275480D02*
X1741500Y275480D01*
X500Y274480D02*
X7500Y274480D01*
X1734500Y274480D02*
X1741500Y274480D01*
X500Y273480D02*
X7500Y273480D01*
X1734500Y273480D02*
X1741500Y273480D01*
X500Y272480D02*
X7500Y272480D01*
X1734500Y272480D02*
X1741500Y272480D01*
X500Y271480D02*
X7500Y271480D01*
X1734500Y271480D02*
X1741500Y271480D01*
X500Y270480D02*
X7500Y270480D01*
X1734500Y270480D02*
X1741500Y270480D01*
X500Y269480D02*
X7500Y269480D01*
X1734500Y269480D02*
X1741500Y269480D01*
X500Y268480D02*
X7500Y268480D01*
X1734500Y268480D02*
X1741500Y268480D01*
X500Y267480D02*
X7500Y267480D01*
X1734500Y267480D02*
X1741500Y267480D01*
X500Y266480D02*
X7500Y266480D01*
X1734500Y266480D02*
X1741500Y266480D01*
X500Y265480D02*
X7500Y265480D01*
X1734500Y265480D02*
X1741500Y265480D01*
X500Y264480D02*
X7500Y264480D01*
X1734500Y264480D02*
X1741500Y264480D01*
X500Y263480D02*
X7500Y263480D01*
X1734500Y263480D02*
X1741500Y263480D01*
X500Y262480D02*
X7500Y262480D01*
X1734500Y262480D02*
X1741500Y262480D01*
X500Y261480D02*
X7500Y261480D01*
X1734500Y261480D02*
X1741500Y261480D01*
X500Y260480D02*
X7500Y260480D01*
X1734500Y260480D02*
X1741500Y260480D01*
X500Y259480D02*
X7500Y259480D01*
X1734500Y259480D02*
X1741500Y259480D01*
X500Y258480D02*
X7500Y258480D01*
X1734500Y258480D02*
X1741500Y258480D01*
X500Y257480D02*
X7500Y257480D01*
X1734500Y257480D02*
X1741500Y257480D01*
X500Y256480D02*
X7500Y256480D01*
X1734500Y256480D02*
X1741500Y256480D01*
X500Y255480D02*
X7500Y255480D01*
X1734500Y255480D02*
X1741500Y255480D01*
X500Y254480D02*
X7500Y254480D01*
X1734500Y254480D02*
X1741500Y254480D01*
X500Y253480D02*
X7500Y253480D01*
X1734500Y253480D02*
X1741500Y253480D01*
X500Y252480D02*
X7500Y252480D01*
X1734500Y252480D02*
X1741500Y252480D01*
X500Y251480D02*
X7500Y251480D01*
X1734500Y251480D02*
X1741500Y251480D01*
X500Y250480D02*
X7500Y250480D01*
X1734500Y250480D02*
X1741500Y250480D01*
X500Y249480D02*
X7500Y249480D01*
X1734500Y249480D02*
X1741500Y249480D01*
X500Y248480D02*
X7500Y248480D01*
X1734500Y248480D02*
X1741500Y248480D01*
X500Y247480D02*
X7500Y247480D01*
X1734500Y247480D02*
X1741500Y247480D01*
X500Y246480D02*
X7500Y246480D01*
X1734500Y246480D02*
X1741500Y246480D01*
X500Y245480D02*
X7500Y245480D01*
X1734500Y245480D02*
X1741500Y245480D01*
X500Y244480D02*
X7500Y244480D01*
X1734500Y244480D02*
X1741500Y244480D01*
X500Y243480D02*
X7500Y243480D01*
X1734500Y243480D02*
X1741500Y243480D01*
X500Y242480D02*
X7500Y242480D01*
X1734500Y242480D02*
X1741500Y242480D01*
X500Y241480D02*
X7500Y241480D01*
X1734500Y241480D02*
X1741500Y241480D01*
X500Y240480D02*
X7500Y240480D01*
X1734500Y240480D02*
X1741500Y240480D01*
X500Y239480D02*
X7500Y239480D01*
X1734500Y239480D02*
X1741500Y239480D01*
X500Y238480D02*
X7500Y238480D01*
X1734500Y238480D02*
X1741500Y238480D01*
X500Y237480D02*
X7500Y237480D01*
X1734500Y237480D02*
X1741500Y237480D01*
X500Y236480D02*
X7500Y236480D01*
X1734500Y236480D02*
X1741500Y236480D01*
X500Y235480D02*
X7500Y235480D01*
X1734500Y235480D02*
X1741500Y235480D01*
X500Y234480D02*
X7500Y234480D01*
X1734500Y234480D02*
X1741500Y234480D01*
X500Y233480D02*
X7500Y233480D01*
X1734500Y233480D02*
X1741500Y233480D01*
X500Y232480D02*
X7500Y232480D01*
X1734500Y232480D02*
X1741500Y232480D01*
X500Y231480D02*
X7500Y231480D01*
X1734500Y231480D02*
X1741500Y231480D01*
X500Y230480D02*
X7500Y230480D01*
X1734500Y230480D02*
X1741500Y230480D01*
X500Y229480D02*
X7500Y229480D01*
X1734500Y229480D02*
X1741500Y229480D01*
X500Y228480D02*
X7500Y228480D01*
X1734500Y228480D02*
X1741500Y228480D01*
X500Y227480D02*
X7500Y227480D01*
X1734500Y227480D02*
X1741500Y227480D01*
X500Y226480D02*
X7500Y226480D01*
X1734500Y226480D02*
X1741500Y226480D01*
X500Y225480D02*
X7500Y225480D01*
X1734500Y225480D02*
X1741500Y225480D01*
X500Y224480D02*
X7500Y224480D01*
X1734500Y224480D02*
X1741500Y224480D01*
X500Y223480D02*
X7500Y223480D01*
X1734500Y223480D02*
X1741500Y223480D01*
X500Y222480D02*
X7500Y222480D01*
X1734500Y222480D02*
X1741500Y222480D01*
X500Y221480D02*
X7500Y221480D01*
X1734500Y221480D02*
X1741500Y221480D01*
X500Y220480D02*
X7500Y220480D01*
X1734500Y220480D02*
X1741500Y220480D01*
X500Y219480D02*
X7500Y219480D01*
X1734500Y219480D02*
X1741500Y219480D01*
X500Y218480D02*
X7500Y218480D01*
X1734500Y218480D02*
X1741500Y218480D01*
X500Y217480D02*
X7500Y217480D01*
X1734500Y217480D02*
X1741500Y217480D01*
X500Y216480D02*
X7500Y216480D01*
X1734500Y216480D02*
X1741500Y216480D01*
X500Y215480D02*
X7500Y215480D01*
X1734500Y215480D02*
X1741500Y215480D01*
X500Y214480D02*
X7500Y214480D01*
X1734500Y214480D02*
X1741500Y214480D01*
X500Y213480D02*
X7500Y213480D01*
X1734500Y213480D02*
X1741500Y213480D01*
X500Y212480D02*
X7500Y212480D01*
X1734500Y212480D02*
X1741500Y212480D01*
X500Y211480D02*
X7500Y211480D01*
X1734500Y211480D02*
X1741500Y211480D01*
X500Y210480D02*
X7500Y210480D01*
X1734500Y210480D02*
X1741500Y210480D01*
X500Y209480D02*
X7500Y209480D01*
X1734500Y209480D02*
X1741500Y209480D01*
X500Y208480D02*
X7500Y208480D01*
X1734500Y208480D02*
X1741500Y208480D01*
X500Y207480D02*
X7500Y207480D01*
X1734500Y207480D02*
X1741500Y207480D01*
X500Y206480D02*
X7500Y206480D01*
X1734500Y206480D02*
X1741500Y206480D01*
X500Y205480D02*
X7500Y205480D01*
X1734500Y205480D02*
X1741500Y205480D01*
X500Y204480D02*
X7500Y204480D01*
X1734500Y204480D02*
X1741500Y204480D01*
X500Y203480D02*
X7500Y203480D01*
X1734500Y203480D02*
X1741500Y203480D01*
X500Y202480D02*
X7500Y202480D01*
X1734500Y202480D02*
X1741500Y202480D01*
X500Y201480D02*
X7500Y201480D01*
X1734500Y201480D02*
X1741500Y201480D01*
X500Y200480D02*
X7500Y200480D01*
X1734500Y200480D02*
X1741500Y200480D01*
X500Y199480D02*
X7500Y199480D01*
X1734500Y199480D02*
X1741500Y199480D01*
X500Y198480D02*
X7500Y198480D01*
X1734500Y198480D02*
X1741500Y198480D01*
X500Y197480D02*
X7500Y197480D01*
X1734500Y197480D02*
X1741500Y197480D01*
X500Y196480D02*
X7500Y196480D01*
X1734500Y196480D02*
X1741500Y196480D01*
X500Y195480D02*
X7500Y195480D01*
X1734500Y195480D02*
X1741500Y195480D01*
X500Y194480D02*
X7500Y194480D01*
X1734500Y194480D02*
X1741500Y194480D01*
X500Y193480D02*
X7500Y193480D01*
X1734500Y193480D02*
X1741500Y193480D01*
X500Y192480D02*
X7500Y192480D01*
X1734500Y192480D02*
X1741500Y192480D01*
X500Y191480D02*
X7500Y191480D01*
X1734500Y191480D02*
X1741500Y191480D01*
X500Y190480D02*
X7500Y190480D01*
X1734500Y190480D02*
X1741500Y190480D01*
X500Y189480D02*
X7500Y189480D01*
X1734500Y189480D02*
X1741500Y189480D01*
X500Y188480D02*
X7500Y188480D01*
X1734500Y188480D02*
X1741500Y188480D01*
X500Y187480D02*
X7500Y187480D01*
X1734500Y187480D02*
X1741500Y187480D01*
X500Y186480D02*
X7500Y186480D01*
X1734500Y186480D02*
X1741500Y186480D01*
X500Y185480D02*
X7500Y185480D01*
X1734500Y185480D02*
X1741500Y185480D01*
X500Y184480D02*
X7500Y184480D01*
X1734500Y184480D02*
X1741500Y184480D01*
X500Y183480D02*
X7500Y183480D01*
X1734500Y183480D02*
X1741500Y183480D01*
X500Y182480D02*
X7500Y182480D01*
X1734500Y182480D02*
X1741500Y182480D01*
X500Y181480D02*
X7500Y181480D01*
X1734500Y181480D02*
X1741500Y181480D01*
X500Y180480D02*
X7500Y180480D01*
X1734500Y180480D02*
X1741500Y180480D01*
X500Y179480D02*
X7500Y179480D01*
X1734500Y179480D02*
X1741500Y179480D01*
X500Y178480D02*
X7500Y178480D01*
X1734500Y178480D02*
X1741500Y178480D01*
X500Y177480D02*
X7500Y177480D01*
X1734500Y177480D02*
X1741500Y177480D01*
X500Y176480D02*
X7500Y176480D01*
X1734500Y176480D02*
X1741500Y176480D01*
X500Y175480D02*
X7500Y175480D01*
X1734500Y175480D02*
X1741500Y175480D01*
X500Y174480D02*
X7500Y174480D01*
X1734500Y174480D02*
X1741500Y174480D01*
X500Y173480D02*
X7500Y173480D01*
X1734500Y173480D02*
X1741500Y173480D01*
X500Y172480D02*
X7500Y172480D01*
X1734500Y172480D02*
X1741500Y172480D01*
X500Y171480D02*
X7500Y171480D01*
X1734500Y171480D02*
X1741500Y171480D01*
X500Y170480D02*
X7500Y170480D01*
X1734500Y170480D02*
X1741500Y170480D01*
X500Y169480D02*
X7500Y169480D01*
X1734500Y169480D02*
X1741500Y169480D01*
X500Y168480D02*
X7500Y168480D01*
X1734500Y168480D02*
X1741500Y168480D01*
X500Y167480D02*
X7500Y167480D01*
X1734500Y167480D02*
X1741500Y167480D01*
X500Y166480D02*
X7500Y166480D01*
X1734500Y166480D02*
X1741500Y166480D01*
X500Y165480D02*
X7500Y165480D01*
X1734500Y165480D02*
X1741500Y165480D01*
X500Y164480D02*
X7500Y164480D01*
X1734500Y164480D02*
X1741500Y164480D01*
X500Y163480D02*
X7500Y163480D01*
X1734500Y163480D02*
X1741500Y163480D01*
X500Y162480D02*
X7500Y162480D01*
X1734500Y162480D02*
X1741500Y162480D01*
X500Y161480D02*
X7500Y161480D01*
X1734500Y161480D02*
X1741500Y161480D01*
X500Y160480D02*
X7500Y160480D01*
X1734500Y160480D02*
X1741500Y160480D01*
X500Y159480D02*
X7500Y159480D01*
X1734500Y159480D02*
X1741500Y159480D01*
X500Y158480D02*
X7500Y158480D01*
X1734500Y158480D02*
X1741500Y158480D01*
X500Y157480D02*
X7500Y157480D01*
X1734500Y157480D02*
X1741500Y157480D01*
X500Y156480D02*
X7500Y156480D01*
X1734500Y156480D02*
X1741500Y156480D01*
X500Y155480D02*
X7500Y155480D01*
X1734500Y155480D02*
X1741500Y155480D01*
X500Y154480D02*
X7500Y154480D01*
X1734500Y154480D02*
X1741500Y154480D01*
X500Y153480D02*
X7500Y153480D01*
X1734500Y153480D02*
X1741500Y153480D01*
X500Y152480D02*
X7500Y152480D01*
X1734500Y152480D02*
X1741500Y152480D01*
X500Y151480D02*
X7500Y151480D01*
X1734500Y151480D02*
X1741500Y151480D01*
X500Y150480D02*
X7500Y150480D01*
X1734500Y150480D02*
X1741500Y150480D01*
X500Y149480D02*
X7500Y149480D01*
X1734500Y149480D02*
X1741500Y149480D01*
X500Y148480D02*
X7500Y148480D01*
X1734500Y148480D02*
X1741500Y148480D01*
X500Y147480D02*
X7500Y147480D01*
X1734500Y147480D02*
X1741500Y147480D01*
X500Y146480D02*
X7500Y146480D01*
X1734500Y146480D02*
X1741500Y146480D01*
X500Y145480D02*
X7500Y145480D01*
X1734500Y145480D02*
X1741500Y145480D01*
X500Y144480D02*
X7500Y144480D01*
X1734500Y144480D02*
X1741500Y144480D01*
X500Y143480D02*
X7500Y143480D01*
X1734500Y143480D02*
X1741500Y143480D01*
X500Y142480D02*
X7500Y142480D01*
X1734500Y142480D02*
X1741500Y142480D01*
X500Y141480D02*
X7500Y141480D01*
X1734500Y141480D02*
X1741500Y141480D01*
X500Y140480D02*
X7500Y140480D01*
X1734500Y140480D02*
X1741500Y140480D01*
X500Y139480D02*
X7500Y139480D01*
X1734500Y139480D02*
X1741500Y139480D01*
X500Y138480D02*
X7500Y138480D01*
X1734500Y138480D02*
X1741500Y138480D01*
X500Y137480D02*
X7500Y137480D01*
X1734500Y137480D02*
X1741500Y137480D01*
X500Y136480D02*
X7500Y136480D01*
X1734500Y136480D02*
X1741500Y136480D01*
X500Y135480D02*
X7500Y135480D01*
X1734500Y135480D02*
X1741500Y135480D01*
X500Y134480D02*
X7500Y134480D01*
X1734500Y134480D02*
X1741500Y134480D01*
X500Y133480D02*
X7500Y133480D01*
X1734500Y133480D02*
X1741500Y133480D01*
X500Y132480D02*
X7500Y132480D01*
X1734500Y132480D02*
X1741500Y132480D01*
X500Y131480D02*
X7500Y131480D01*
X1734500Y131480D02*
X1741500Y131480D01*
X500Y130480D02*
X7500Y130480D01*
X1734500Y130480D02*
X1741500Y130480D01*
X500Y129480D02*
X7500Y129480D01*
X1734500Y129480D02*
X1741500Y129480D01*
X500Y128480D02*
X7500Y128480D01*
X1734500Y128480D02*
X1741500Y128480D01*
X500Y127480D02*
X7500Y127480D01*
X1734500Y127480D02*
X1741500Y127480D01*
X500Y126480D02*
X7500Y126480D01*
X1734500Y126480D02*
X1741500Y126480D01*
X500Y125480D02*
X7500Y125480D01*
X1734500Y125480D02*
X1741500Y125480D01*
X500Y124480D02*
X7500Y124480D01*
X1734500Y124480D02*
X1741500Y124480D01*
X500Y123480D02*
X7500Y123480D01*
X1734500Y123480D02*
X1741500Y123480D01*
X500Y122480D02*
X7500Y122480D01*
X1734500Y122480D02*
X1741500Y122480D01*
X500Y121480D02*
X7500Y121480D01*
X1734500Y121480D02*
X1741500Y121480D01*
X500Y120480D02*
X7500Y120480D01*
X1734500Y120480D02*
X1741500Y120480D01*
X500Y119480D02*
X7500Y119480D01*
X1734500Y119480D02*
X1741500Y119480D01*
X500Y118480D02*
X7500Y118480D01*
X1734500Y118480D02*
X1741500Y118480D01*
X500Y117480D02*
X7500Y117480D01*
X1734500Y117480D02*
X1741500Y117480D01*
X500Y116480D02*
X7500Y116480D01*
X1734500Y116480D02*
X1741500Y116480D01*
X500Y115480D02*
X7500Y115480D01*
X1734500Y115480D02*
X1741500Y115480D01*
X500Y114480D02*
X7500Y114480D01*
X1734500Y114480D02*
X1741500Y114480D01*
X500Y113480D02*
X7500Y113480D01*
X1734500Y113480D02*
X1741500Y113480D01*
X500Y112480D02*
X7500Y112480D01*
X1734500Y112480D02*
X1741500Y112480D01*
X500Y111480D02*
X7500Y111480D01*
X1734500Y111480D02*
X1741500Y111480D01*
X500Y110480D02*
X7500Y110480D01*
X1734500Y110480D02*
X1741500Y110480D01*
X500Y109480D02*
X7500Y109480D01*
X1734500Y109480D02*
X1741500Y109480D01*
X500Y108480D02*
X7500Y108480D01*
X1734500Y108480D02*
X1741500Y108480D01*
X500Y107480D02*
X7500Y107480D01*
X1734500Y107480D02*
X1741500Y107480D01*
X500Y106480D02*
X7500Y106480D01*
X1734500Y106480D02*
X1741500Y106480D01*
X500Y105480D02*
X7500Y105480D01*
X1734500Y105480D02*
X1741500Y105480D01*
X500Y104480D02*
X7500Y104480D01*
X1734500Y104480D02*
X1741500Y104480D01*
X500Y103480D02*
X7500Y103480D01*
X1734500Y103480D02*
X1741500Y103480D01*
X500Y102480D02*
X7500Y102480D01*
X1734500Y102480D02*
X1741500Y102480D01*
X500Y101480D02*
X7500Y101480D01*
X1734500Y101480D02*
X1741500Y101480D01*
X500Y100480D02*
X7500Y100480D01*
X1734500Y100480D02*
X1741500Y100480D01*
X500Y99480D02*
X7500Y99480D01*
X1734500Y99480D02*
X1741500Y99480D01*
X500Y98480D02*
X7500Y98480D01*
X1734500Y98480D02*
X1741500Y98480D01*
X500Y97480D02*
X7500Y97480D01*
X1734500Y97480D02*
X1741500Y97480D01*
X500Y96480D02*
X7500Y96480D01*
X1734500Y96480D02*
X1741500Y96480D01*
X500Y95480D02*
X7500Y95480D01*
X1734500Y95480D02*
X1741500Y95480D01*
X500Y94480D02*
X7500Y94480D01*
X1734500Y94480D02*
X1741500Y94480D01*
X500Y93480D02*
X7500Y93480D01*
X1734500Y93480D02*
X1741500Y93480D01*
X500Y92480D02*
X7500Y92480D01*
X1734500Y92480D02*
X1741500Y92480D01*
X500Y91480D02*
X7500Y91480D01*
X1734500Y91480D02*
X1741500Y91480D01*
X500Y90480D02*
X7500Y90480D01*
X1734500Y90480D02*
X1741500Y90480D01*
X500Y89480D02*
X7500Y89480D01*
X1734500Y89480D02*
X1741500Y89480D01*
X500Y88480D02*
X7500Y88480D01*
X1734500Y88480D02*
X1741500Y88480D01*
X500Y87480D02*
X7500Y87480D01*
X1734500Y87480D02*
X1741500Y87480D01*
X500Y86480D02*
X7500Y86480D01*
X1734500Y86480D02*
X1741500Y86480D01*
X500Y85480D02*
X7500Y85480D01*
X1734500Y85480D02*
X1741500Y85480D01*
X500Y84480D02*
X7500Y84480D01*
X1734500Y84480D02*
X1741500Y84480D01*
X500Y83480D02*
X7500Y83480D01*
X1734500Y83480D02*
X1741500Y83480D01*
X500Y82480D02*
X7500Y82480D01*
X1734500Y82480D02*
X1741500Y82480D01*
X500Y81480D02*
X7500Y81480D01*
X1734500Y81480D02*
X1741500Y81480D01*
X500Y80480D02*
X7500Y80480D01*
X1734500Y80480D02*
X1741500Y80480D01*
X500Y79480D02*
X7500Y79480D01*
X1734500Y79480D02*
X1741500Y79480D01*
X500Y78480D02*
X7500Y78480D01*
X1734500Y78480D02*
X1741500Y78480D01*
X500Y77480D02*
X7500Y77480D01*
X1734500Y77480D02*
X1741500Y77480D01*
X500Y76480D02*
X7500Y76480D01*
X1734500Y76480D02*
X1741500Y76480D01*
X500Y75480D02*
X7500Y75480D01*
X1734500Y75480D02*
X1741500Y75480D01*
X500Y74480D02*
X7500Y74480D01*
X1734500Y74480D02*
X1741500Y74480D01*
X500Y73480D02*
X7500Y73480D01*
X1734500Y73480D02*
X1741500Y73480D01*
X500Y72480D02*
X7500Y72480D01*
X1734500Y72480D02*
X1741500Y72480D01*
X500Y71480D02*
X7500Y71480D01*
X1734500Y71480D02*
X1741500Y71480D01*
X500Y70480D02*
X7500Y70480D01*
X1734500Y70480D02*
X1741500Y70480D01*
X500Y69480D02*
X7500Y69480D01*
X1734500Y69480D02*
X1741500Y69480D01*
X500Y68480D02*
X7500Y68480D01*
X1734500Y68480D02*
X1741500Y68480D01*
X500Y67480D02*
X7500Y67480D01*
X1734500Y67480D02*
X1741500Y67480D01*
X500Y66480D02*
X7500Y66480D01*
X1734500Y66480D02*
X1741500Y66480D01*
X500Y65480D02*
X7500Y65480D01*
X1734500Y65480D02*
X1741500Y65480D01*
X500Y64480D02*
X7500Y64480D01*
X1734500Y64480D02*
X1741500Y64480D01*
X500Y63480D02*
X7500Y63480D01*
X1734500Y63480D02*
X1741500Y63480D01*
X500Y62480D02*
X7500Y62480D01*
X1734500Y62480D02*
X1741500Y62480D01*
X500Y61480D02*
X7500Y61480D01*
X1734500Y61480D02*
X1741500Y61480D01*
X500Y60480D02*
X7500Y60480D01*
X1734500Y60480D02*
X1741500Y60480D01*
X500Y59480D02*
X7500Y59480D01*
X1734500Y59480D02*
X1741500Y59480D01*
X500Y58480D02*
X7500Y58480D01*
X1734500Y58480D02*
X1741500Y58480D01*
X500Y57480D02*
X7500Y57480D01*
X1734500Y57480D02*
X1741500Y57480D01*
X500Y56480D02*
X7500Y56480D01*
X1734500Y56480D02*
X1741500Y56480D01*
X500Y55480D02*
X7500Y55480D01*
X1734500Y55480D02*
X1741500Y55480D01*
X500Y54480D02*
X7500Y54480D01*
X1734500Y54480D02*
X1741500Y54480D01*
X500Y53480D02*
X7500Y53480D01*
X1734500Y53480D02*
X1741500Y53480D01*
X500Y52480D02*
X7500Y52480D01*
X1734500Y52480D02*
X1741500Y52480D01*
X500Y51480D02*
X7500Y51480D01*
X1734500Y51480D02*
X1741500Y51480D01*
X500Y50480D02*
X7500Y50480D01*
X1734500Y50480D02*
X1741500Y50480D01*
X500Y49480D02*
X7500Y49480D01*
X1734500Y49480D02*
X1741500Y49480D01*
X500Y48480D02*
X7500Y48480D01*
X1734500Y48480D02*
X1741500Y48480D01*
X500Y47480D02*
X7500Y47480D01*
X1734500Y47480D02*
X1741500Y47480D01*
X500Y46480D02*
X7500Y46480D01*
X1734500Y46480D02*
X1741500Y46480D01*
X500Y45480D02*
X7500Y45480D01*
X1734500Y45480D02*
X1741500Y45480D01*
X500Y44480D02*
X7500Y44480D01*
X1734500Y44480D02*
X1741500Y44480D01*
X500Y43480D02*
X7500Y43480D01*
X1734500Y43480D02*
X1741500Y43480D01*
X500Y42480D02*
X7500Y42480D01*
X1734500Y42480D02*
X1741500Y42480D01*
X500Y41480D02*
X7500Y41480D01*
X1734500Y41480D02*
X1741500Y41480D01*
X500Y40480D02*
X7500Y40480D01*
X1734500Y40480D02*
X1741500Y40480D01*
X500Y39480D02*
X7500Y39480D01*
X1734500Y39480D02*
X1741500Y39480D01*
X500Y38480D02*
X7500Y38480D01*
X1734500Y38480D02*
X1741500Y38480D01*
X500Y37480D02*
X7500Y37480D01*
X1734500Y37480D02*
X1741500Y37480D01*
X500Y36480D02*
X7500Y36480D01*
X1734500Y36480D02*
X1741500Y36480D01*
X500Y35480D02*
X7500Y35480D01*
X1734500Y35480D02*
X1741500Y35480D01*
X500Y34480D02*
X7500Y34480D01*
X1734500Y34480D02*
X1741500Y34480D01*
X500Y33480D02*
X7500Y33480D01*
X1734500Y33480D02*
X1741500Y33480D01*
X500Y32480D02*
X7500Y32480D01*
X1734500Y32480D02*
X1741500Y32480D01*
X500Y31480D02*
X7500Y31480D01*
X1734500Y31480D02*
X1741500Y31480D01*
X500Y30480D02*
X7500Y30480D01*
X1734500Y30480D02*
X1741500Y30480D01*
X500Y29480D02*
X7500Y29480D01*
X1734500Y29480D02*
X1741500Y29480D01*
X500Y28480D02*
X7500Y28480D01*
X1734500Y28480D02*
X1741500Y28480D01*
X500Y27480D02*
X7500Y27480D01*
X1734500Y27480D02*
X1741500Y27480D01*
X500Y26480D02*
X7500Y26480D01*
X1734500Y26480D02*
X1741500Y26480D01*
X500Y25480D02*
X7500Y25480D01*
X1734500Y25480D02*
X1741500Y25480D01*
X500Y24480D02*
X7500Y24480D01*
X1734500Y24480D02*
X1741500Y24480D01*
X500Y23480D02*
X7500Y23480D01*
X1734500Y23480D02*
X1741500Y23480D01*
X500Y22480D02*
X7500Y22480D01*
X1734500Y22480D02*
X1741500Y22480D01*
X500Y21480D02*
X7500Y21480D01*
X1734500Y21480D02*
X1741500Y21480D01*
X500Y20480D02*
X7500Y20480D01*
X1734500Y20480D02*
X1741500Y20480D01*
X500Y19480D02*
X7500Y19480D01*
X1734500Y19480D02*
X1741500Y19480D01*
X500Y18480D02*
X7500Y18480D01*
X1734500Y18480D02*
X1741500Y18480D01*
X500Y17480D02*
X7500Y17480D01*
X1734500Y17480D02*
X1741500Y17480D01*
X500Y16480D02*
X7500Y16480D01*
X1734500Y16480D02*
X1741500Y16480D01*
X500Y15480D02*
X7500Y15480D01*
X1734500Y15480D02*
X1741500Y15480D01*
X500Y14480D02*
X7500Y14480D01*
X1734500Y14480D02*
X1741500Y14480D01*
X500Y13480D02*
X7500Y13480D01*
X1734500Y13480D02*
X1741500Y13480D01*
X500Y12480D02*
X7500Y12480D01*
X1734500Y12480D02*
X1741500Y12480D01*
X500Y11480D02*
X7500Y11480D01*
X1734500Y11480D02*
X1741500Y11480D01*
X500Y10480D02*
X7500Y10480D01*
X1734500Y10480D02*
X1741500Y10480D01*
X500Y9480D02*
X7500Y9480D01*
X1734500Y9480D02*
X1741500Y9480D01*
X500Y8480D02*
X1741500Y8480D01*
X500Y7480D02*
X1741500Y7480D01*
X500Y6480D02*
X1741500Y6480D01*
X500Y5480D02*
X1741500Y5480D01*
X500Y4480D02*
X1741500Y4480D01*
X500Y3480D02*
X1741500Y3480D01*
X500Y2480D02*
X1741500Y2480D01*
X500Y1480D02*
X1741500Y1480D01*
D02*
G04 End of Silk0*
M02*