G04 MADE WITH FRITZING*
G04 WWW.FRITZING.ORG*
G04 DOUBLE SIDED*
G04 HOLES PLATED*
G04 CONTOUR ON CENTER OF CONTOUR VECTOR*
%FSLAX26Y26*%
%MOIN*%
%ADD10C,0.092000*%
%ADD11C,0.088000*%
%ADD12C,0.049370*%
%ADD13C,0.084000*%
%ADD14C,0.085000*%
%ADD15C,0.074000*%
%ADD16R,0.092000X0.092000*%
%ADD17R,0.191102X0.049370*%
%ADD18R,0.143858X0.072992*%
%ADD19R,0.085000X0.085000*%
%ADD20R,0.080247X0.131256*%
%ADD21R,0.080000X0.131256*%
%G04MASK1*%
%FSLAX26Y26*%
%MOIN*%
D10*
X1059030Y777606D03*
X1059030Y1075606D03*
D11*
X204380Y730520D03*
X304380Y730520D03*
D12*
X234370Y1080343D03*
X563999Y1079140D03*
D13*
X1554720Y1516210D03*
X1454720Y1506210D03*
X1354720Y1516210D03*
X1254720Y1506210D03*
X1154720Y1516210D03*
X1054720Y1506210D03*
X1554720Y1516210D03*
X1454720Y1506210D03*
X1354720Y1516210D03*
X1254720Y1506210D03*
X1154720Y1516210D03*
X1054720Y1506210D03*
D14*
X754721Y406210D03*
X1054720Y406210D03*
X754721Y306210D03*
X1054720Y306210D03*
D15*
X144345Y1299268D03*
X244637Y1299268D03*
X344637Y1299290D03*
X144637Y1199290D03*
X244637Y1199290D03*
X344637Y1199290D03*
D14*
X618882Y143890D03*
X218882Y143890D03*
X1564700Y138590D03*
X1164700Y138590D03*
D16*
X1059030Y776606D03*
D17*
X1354731Y606205D03*
X1354731Y527465D03*
D18*
X1559449Y700698D03*
X1559449Y432984D03*
D17*
X354718Y406215D03*
X354718Y484955D03*
D18*
X149994Y311724D03*
X149994Y579444D03*
D17*
X1354731Y1106210D03*
X1354731Y1027469D03*
D18*
X1559449Y1200698D03*
X1559449Y932981D03*
D19*
X754721Y406210D03*
D20*
X389947Y1076655D03*
X481252Y1076655D03*
X183429Y919105D03*
X283761Y919105D03*
X383761Y919105D03*
X483761Y919105D03*
X583761Y919105D03*
X683761Y919105D03*
X783761Y919105D03*
D21*
X783637Y1579662D03*
X683637Y1579662D03*
X583637Y1579662D03*
X483637Y1579662D03*
X383637Y1579662D03*
X283637Y1579662D03*
X183637Y1579662D03*
G04 End of Mask1*
M02*