; NON-PLATED HOLES START AT T1
; THROUGH (PLATED) HOLES START AT T100
M48
INCH
T1C0.064000
T100C0.035000
T101C0.040000
T102C0.042000
T103C0.015748
T104C0.038000
%
T1
X002446Y012992
X003446Y011992
X002446Y011992
X003446Y012992
X001443Y012992
X001446Y011992
T100
X006188Y001438
X011647Y001385
X007547Y003062
X015647Y001385
X007547Y004062
X010547Y003062
X010547Y004062
X002188Y001438
T101
X010547Y015062
X015547Y015162
X011547Y015162
X012547Y015062
X013547Y015162
X014547Y015062
T102
X010590Y007776
X010590Y010756
T103
X002343Y010803
X005639Y010791
T104
X003043Y007305
X002043Y007305
T00
M30
