G04 MADE WITH FRITZING*
G04 WWW.FRITZING.ORG*
G04 DOUBLE SIDED*
G04 HOLES PLATED*
G04 CONTOUR ON CENTER OF CONTOUR VECTOR*
%ASAXBY*%
%FSLAX23Y23*%
%MOIN*%
%OFA0B0*%
%SFA1.0B1.0*%
%ADD10C,0.010417*%
%ADD11C,0.005000*%
%ADD12R,0.001000X0.001000*%
%LNSILK0*%
G90*
G70*
G54D10*
X132Y1756D02*
X543Y1756D01*
D02*
X543Y1756D02*
X543Y1360D01*
D02*
X543Y1360D02*
X132Y1360D01*
D02*
X132Y1360D02*
X132Y1756D01*
D02*
X543Y1502D02*
X132Y1502D01*
G54D11*
D02*
X1587Y1745D02*
X1587Y1525D01*
D02*
X987Y1745D02*
X987Y1525D01*
D02*
X987Y1745D02*
X1587Y1745D01*
D02*
X987Y1525D02*
X1037Y1525D01*
D02*
X1037Y1525D02*
X1537Y1525D01*
D02*
X1537Y1525D02*
X1587Y1525D01*
D02*
X1537Y1525D02*
X1537Y1575D01*
G54D12*
X1Y1783D02*
X1751Y1783D01*
X1Y1782D02*
X1751Y1782D01*
X1Y1781D02*
X1751Y1781D01*
X1Y1780D02*
X1751Y1780D01*
X1Y1779D02*
X1751Y1779D01*
X1Y1778D02*
X1751Y1778D01*
X1Y1777D02*
X1751Y1777D01*
X1Y1776D02*
X1751Y1776D01*
X1Y1775D02*
X8Y1775D01*
X1744Y1775D02*
X1751Y1775D01*
X1Y1774D02*
X8Y1774D01*
X1744Y1774D02*
X1751Y1774D01*
X1Y1773D02*
X8Y1773D01*
X1744Y1773D02*
X1751Y1773D01*
X1Y1772D02*
X8Y1772D01*
X1744Y1772D02*
X1751Y1772D01*
X1Y1771D02*
X8Y1771D01*
X1744Y1771D02*
X1751Y1771D01*
X1Y1770D02*
X8Y1770D01*
X1744Y1770D02*
X1751Y1770D01*
X1Y1769D02*
X8Y1769D01*
X1744Y1769D02*
X1751Y1769D01*
X1Y1768D02*
X8Y1768D01*
X1744Y1768D02*
X1751Y1768D01*
X1Y1767D02*
X8Y1767D01*
X1744Y1767D02*
X1751Y1767D01*
X1Y1766D02*
X8Y1766D01*
X1744Y1766D02*
X1751Y1766D01*
X1Y1765D02*
X8Y1765D01*
X1744Y1765D02*
X1751Y1765D01*
X1Y1764D02*
X8Y1764D01*
X1744Y1764D02*
X1751Y1764D01*
X1Y1763D02*
X8Y1763D01*
X1744Y1763D02*
X1751Y1763D01*
X1Y1762D02*
X8Y1762D01*
X1744Y1762D02*
X1751Y1762D01*
X1Y1761D02*
X8Y1761D01*
X1744Y1761D02*
X1751Y1761D01*
X1Y1760D02*
X8Y1760D01*
X1744Y1760D02*
X1751Y1760D01*
X1Y1759D02*
X8Y1759D01*
X1744Y1759D02*
X1751Y1759D01*
X1Y1758D02*
X8Y1758D01*
X1744Y1758D02*
X1751Y1758D01*
X1Y1757D02*
X8Y1757D01*
X1744Y1757D02*
X1751Y1757D01*
X1Y1756D02*
X8Y1756D01*
X1744Y1756D02*
X1751Y1756D01*
X1Y1755D02*
X8Y1755D01*
X1744Y1755D02*
X1751Y1755D01*
X1Y1754D02*
X8Y1754D01*
X1744Y1754D02*
X1751Y1754D01*
X1Y1753D02*
X8Y1753D01*
X1744Y1753D02*
X1751Y1753D01*
X1Y1752D02*
X8Y1752D01*
X1744Y1752D02*
X1751Y1752D01*
X1Y1751D02*
X8Y1751D01*
X1744Y1751D02*
X1751Y1751D01*
X1Y1750D02*
X8Y1750D01*
X1744Y1750D02*
X1751Y1750D01*
X1Y1749D02*
X8Y1749D01*
X1744Y1749D02*
X1751Y1749D01*
X1Y1748D02*
X8Y1748D01*
X1744Y1748D02*
X1751Y1748D01*
X1Y1747D02*
X8Y1747D01*
X1744Y1747D02*
X1751Y1747D01*
X1Y1746D02*
X8Y1746D01*
X1744Y1746D02*
X1751Y1746D01*
X1Y1745D02*
X8Y1745D01*
X1744Y1745D02*
X1751Y1745D01*
X1Y1744D02*
X8Y1744D01*
X1744Y1744D02*
X1751Y1744D01*
X1Y1743D02*
X8Y1743D01*
X1744Y1743D02*
X1751Y1743D01*
X1Y1742D02*
X8Y1742D01*
X1744Y1742D02*
X1751Y1742D01*
X1Y1741D02*
X8Y1741D01*
X1744Y1741D02*
X1751Y1741D01*
X1Y1740D02*
X8Y1740D01*
X1744Y1740D02*
X1751Y1740D01*
X1Y1739D02*
X8Y1739D01*
X1744Y1739D02*
X1751Y1739D01*
X1Y1738D02*
X8Y1738D01*
X1744Y1738D02*
X1751Y1738D01*
X1Y1737D02*
X8Y1737D01*
X1744Y1737D02*
X1751Y1737D01*
X1Y1736D02*
X8Y1736D01*
X1744Y1736D02*
X1751Y1736D01*
X1Y1735D02*
X8Y1735D01*
X1744Y1735D02*
X1751Y1735D01*
X1Y1734D02*
X8Y1734D01*
X1744Y1734D02*
X1751Y1734D01*
X1Y1733D02*
X8Y1733D01*
X1744Y1733D02*
X1751Y1733D01*
X1Y1732D02*
X8Y1732D01*
X1744Y1732D02*
X1751Y1732D01*
X1Y1731D02*
X8Y1731D01*
X1744Y1731D02*
X1751Y1731D01*
X1Y1730D02*
X8Y1730D01*
X1744Y1730D02*
X1751Y1730D01*
X1Y1729D02*
X8Y1729D01*
X1744Y1729D02*
X1751Y1729D01*
X1Y1728D02*
X8Y1728D01*
X1744Y1728D02*
X1751Y1728D01*
X1Y1727D02*
X8Y1727D01*
X1744Y1727D02*
X1751Y1727D01*
X1Y1726D02*
X8Y1726D01*
X1744Y1726D02*
X1751Y1726D01*
X1Y1725D02*
X8Y1725D01*
X1744Y1725D02*
X1751Y1725D01*
X1Y1724D02*
X8Y1724D01*
X1744Y1724D02*
X1751Y1724D01*
X1Y1723D02*
X8Y1723D01*
X1744Y1723D02*
X1751Y1723D01*
X1Y1722D02*
X8Y1722D01*
X1744Y1722D02*
X1751Y1722D01*
X1Y1721D02*
X8Y1721D01*
X1744Y1721D02*
X1751Y1721D01*
X1Y1720D02*
X8Y1720D01*
X1744Y1720D02*
X1751Y1720D01*
X1Y1719D02*
X8Y1719D01*
X1744Y1719D02*
X1751Y1719D01*
X1Y1718D02*
X8Y1718D01*
X1744Y1718D02*
X1751Y1718D01*
X1Y1717D02*
X8Y1717D01*
X1744Y1717D02*
X1751Y1717D01*
X1Y1716D02*
X8Y1716D01*
X1744Y1716D02*
X1751Y1716D01*
X1Y1715D02*
X8Y1715D01*
X1744Y1715D02*
X1751Y1715D01*
X1Y1714D02*
X8Y1714D01*
X1744Y1714D02*
X1751Y1714D01*
X1Y1713D02*
X8Y1713D01*
X1744Y1713D02*
X1751Y1713D01*
X1Y1712D02*
X8Y1712D01*
X1744Y1712D02*
X1751Y1712D01*
X1Y1711D02*
X8Y1711D01*
X1744Y1711D02*
X1751Y1711D01*
X1Y1710D02*
X8Y1710D01*
X1744Y1710D02*
X1751Y1710D01*
X1Y1709D02*
X8Y1709D01*
X1744Y1709D02*
X1751Y1709D01*
X1Y1708D02*
X8Y1708D01*
X1744Y1708D02*
X1751Y1708D01*
X1Y1707D02*
X8Y1707D01*
X1744Y1707D02*
X1751Y1707D01*
X1Y1706D02*
X8Y1706D01*
X1744Y1706D02*
X1751Y1706D01*
X1Y1705D02*
X8Y1705D01*
X1744Y1705D02*
X1751Y1705D01*
X1Y1704D02*
X8Y1704D01*
X1744Y1704D02*
X1751Y1704D01*
X1Y1703D02*
X8Y1703D01*
X1744Y1703D02*
X1751Y1703D01*
X1Y1702D02*
X8Y1702D01*
X1744Y1702D02*
X1751Y1702D01*
X1Y1701D02*
X8Y1701D01*
X1744Y1701D02*
X1751Y1701D01*
X1Y1700D02*
X8Y1700D01*
X1744Y1700D02*
X1751Y1700D01*
X1Y1699D02*
X8Y1699D01*
X1744Y1699D02*
X1751Y1699D01*
X1Y1698D02*
X8Y1698D01*
X1744Y1698D02*
X1751Y1698D01*
X1Y1697D02*
X8Y1697D01*
X1744Y1697D02*
X1751Y1697D01*
X1Y1696D02*
X8Y1696D01*
X1744Y1696D02*
X1751Y1696D01*
X1Y1695D02*
X8Y1695D01*
X1744Y1695D02*
X1751Y1695D01*
X1Y1694D02*
X8Y1694D01*
X1744Y1694D02*
X1751Y1694D01*
X1Y1693D02*
X8Y1693D01*
X1744Y1693D02*
X1751Y1693D01*
X1Y1692D02*
X8Y1692D01*
X1744Y1692D02*
X1751Y1692D01*
X1Y1691D02*
X8Y1691D01*
X1744Y1691D02*
X1751Y1691D01*
X1Y1690D02*
X8Y1690D01*
X1744Y1690D02*
X1751Y1690D01*
X1Y1689D02*
X8Y1689D01*
X1744Y1689D02*
X1751Y1689D01*
X1Y1688D02*
X8Y1688D01*
X1744Y1688D02*
X1751Y1688D01*
X1Y1687D02*
X8Y1687D01*
X1744Y1687D02*
X1751Y1687D01*
X1Y1686D02*
X8Y1686D01*
X1744Y1686D02*
X1751Y1686D01*
X1Y1685D02*
X8Y1685D01*
X1744Y1685D02*
X1751Y1685D01*
X1Y1684D02*
X8Y1684D01*
X1744Y1684D02*
X1751Y1684D01*
X1Y1683D02*
X8Y1683D01*
X1744Y1683D02*
X1751Y1683D01*
X1Y1682D02*
X8Y1682D01*
X1744Y1682D02*
X1751Y1682D01*
X1Y1681D02*
X8Y1681D01*
X1744Y1681D02*
X1751Y1681D01*
X1Y1680D02*
X8Y1680D01*
X1744Y1680D02*
X1751Y1680D01*
X1Y1679D02*
X8Y1679D01*
X1744Y1679D02*
X1751Y1679D01*
X1Y1678D02*
X8Y1678D01*
X1744Y1678D02*
X1751Y1678D01*
X1Y1677D02*
X8Y1677D01*
X1744Y1677D02*
X1751Y1677D01*
X1Y1676D02*
X8Y1676D01*
X1744Y1676D02*
X1751Y1676D01*
X1Y1675D02*
X8Y1675D01*
X1744Y1675D02*
X1751Y1675D01*
X1Y1674D02*
X8Y1674D01*
X1744Y1674D02*
X1751Y1674D01*
X1Y1673D02*
X8Y1673D01*
X1744Y1673D02*
X1751Y1673D01*
X1Y1672D02*
X8Y1672D01*
X1744Y1672D02*
X1751Y1672D01*
X1Y1671D02*
X8Y1671D01*
X1744Y1671D02*
X1751Y1671D01*
X1Y1670D02*
X8Y1670D01*
X1744Y1670D02*
X1751Y1670D01*
X1Y1669D02*
X8Y1669D01*
X1744Y1669D02*
X1751Y1669D01*
X1Y1668D02*
X8Y1668D01*
X1744Y1668D02*
X1751Y1668D01*
X1Y1667D02*
X8Y1667D01*
X1744Y1667D02*
X1751Y1667D01*
X1Y1666D02*
X8Y1666D01*
X1744Y1666D02*
X1751Y1666D01*
X1Y1665D02*
X8Y1665D01*
X1744Y1665D02*
X1751Y1665D01*
X1Y1664D02*
X8Y1664D01*
X1744Y1664D02*
X1751Y1664D01*
X1Y1663D02*
X8Y1663D01*
X1744Y1663D02*
X1751Y1663D01*
X1Y1662D02*
X8Y1662D01*
X1744Y1662D02*
X1751Y1662D01*
X1Y1661D02*
X8Y1661D01*
X1744Y1661D02*
X1751Y1661D01*
X1Y1660D02*
X8Y1660D01*
X1744Y1660D02*
X1751Y1660D01*
X1Y1659D02*
X8Y1659D01*
X1744Y1659D02*
X1751Y1659D01*
X1Y1658D02*
X8Y1658D01*
X1744Y1658D02*
X1751Y1658D01*
X1Y1657D02*
X8Y1657D01*
X1744Y1657D02*
X1751Y1657D01*
X1Y1656D02*
X8Y1656D01*
X1744Y1656D02*
X1751Y1656D01*
X1Y1655D02*
X8Y1655D01*
X1744Y1655D02*
X1751Y1655D01*
X1Y1654D02*
X8Y1654D01*
X1744Y1654D02*
X1751Y1654D01*
X1Y1653D02*
X8Y1653D01*
X1744Y1653D02*
X1751Y1653D01*
X1Y1652D02*
X8Y1652D01*
X1744Y1652D02*
X1751Y1652D01*
X1Y1651D02*
X8Y1651D01*
X1744Y1651D02*
X1751Y1651D01*
X1Y1650D02*
X8Y1650D01*
X1744Y1650D02*
X1751Y1650D01*
X1Y1649D02*
X8Y1649D01*
X1744Y1649D02*
X1751Y1649D01*
X1Y1648D02*
X8Y1648D01*
X1744Y1648D02*
X1751Y1648D01*
X1Y1647D02*
X8Y1647D01*
X1744Y1647D02*
X1751Y1647D01*
X1Y1646D02*
X8Y1646D01*
X1744Y1646D02*
X1751Y1646D01*
X1Y1645D02*
X8Y1645D01*
X1744Y1645D02*
X1751Y1645D01*
X1Y1644D02*
X8Y1644D01*
X1744Y1644D02*
X1751Y1644D01*
X1Y1643D02*
X8Y1643D01*
X1744Y1643D02*
X1751Y1643D01*
X1Y1642D02*
X8Y1642D01*
X1744Y1642D02*
X1751Y1642D01*
X1Y1641D02*
X8Y1641D01*
X1744Y1641D02*
X1751Y1641D01*
X1Y1640D02*
X8Y1640D01*
X1744Y1640D02*
X1751Y1640D01*
X1Y1639D02*
X8Y1639D01*
X1744Y1639D02*
X1751Y1639D01*
X1Y1638D02*
X8Y1638D01*
X1744Y1638D02*
X1751Y1638D01*
X1Y1637D02*
X8Y1637D01*
X1744Y1637D02*
X1751Y1637D01*
X1Y1636D02*
X8Y1636D01*
X1744Y1636D02*
X1751Y1636D01*
X1Y1635D02*
X8Y1635D01*
X1744Y1635D02*
X1751Y1635D01*
X1Y1634D02*
X8Y1634D01*
X1744Y1634D02*
X1751Y1634D01*
X1Y1633D02*
X8Y1633D01*
X1744Y1633D02*
X1751Y1633D01*
X1Y1632D02*
X8Y1632D01*
X1744Y1632D02*
X1751Y1632D01*
X1Y1631D02*
X8Y1631D01*
X1744Y1631D02*
X1751Y1631D01*
X1Y1630D02*
X8Y1630D01*
X1744Y1630D02*
X1751Y1630D01*
X1Y1629D02*
X8Y1629D01*
X1744Y1629D02*
X1751Y1629D01*
X1Y1628D02*
X8Y1628D01*
X1744Y1628D02*
X1751Y1628D01*
X1Y1627D02*
X8Y1627D01*
X1744Y1627D02*
X1751Y1627D01*
X1Y1626D02*
X8Y1626D01*
X1744Y1626D02*
X1751Y1626D01*
X1Y1625D02*
X8Y1625D01*
X1744Y1625D02*
X1751Y1625D01*
X1Y1624D02*
X8Y1624D01*
X1744Y1624D02*
X1751Y1624D01*
X1Y1623D02*
X8Y1623D01*
X1744Y1623D02*
X1751Y1623D01*
X1Y1622D02*
X8Y1622D01*
X1744Y1622D02*
X1751Y1622D01*
X1Y1621D02*
X8Y1621D01*
X1744Y1621D02*
X1751Y1621D01*
X1Y1620D02*
X8Y1620D01*
X1744Y1620D02*
X1751Y1620D01*
X1Y1619D02*
X8Y1619D01*
X1744Y1619D02*
X1751Y1619D01*
X1Y1618D02*
X8Y1618D01*
X1744Y1618D02*
X1751Y1618D01*
X1Y1617D02*
X8Y1617D01*
X1744Y1617D02*
X1751Y1617D01*
X1Y1616D02*
X8Y1616D01*
X1744Y1616D02*
X1751Y1616D01*
X1Y1615D02*
X8Y1615D01*
X1744Y1615D02*
X1751Y1615D01*
X1Y1614D02*
X8Y1614D01*
X1744Y1614D02*
X1751Y1614D01*
X1Y1613D02*
X8Y1613D01*
X1744Y1613D02*
X1751Y1613D01*
X1Y1612D02*
X8Y1612D01*
X1744Y1612D02*
X1751Y1612D01*
X1Y1611D02*
X8Y1611D01*
X1744Y1611D02*
X1751Y1611D01*
X1Y1610D02*
X8Y1610D01*
X1744Y1610D02*
X1751Y1610D01*
X1Y1609D02*
X8Y1609D01*
X1744Y1609D02*
X1751Y1609D01*
X1Y1608D02*
X8Y1608D01*
X1744Y1608D02*
X1751Y1608D01*
X1Y1607D02*
X8Y1607D01*
X1744Y1607D02*
X1751Y1607D01*
X1Y1606D02*
X8Y1606D01*
X1744Y1606D02*
X1751Y1606D01*
X1Y1605D02*
X8Y1605D01*
X1744Y1605D02*
X1751Y1605D01*
X1Y1604D02*
X8Y1604D01*
X1744Y1604D02*
X1751Y1604D01*
X1Y1603D02*
X8Y1603D01*
X1744Y1603D02*
X1751Y1603D01*
X1Y1602D02*
X8Y1602D01*
X1744Y1602D02*
X1751Y1602D01*
X1Y1601D02*
X8Y1601D01*
X1744Y1601D02*
X1751Y1601D01*
X1Y1600D02*
X8Y1600D01*
X1744Y1600D02*
X1751Y1600D01*
X1Y1599D02*
X8Y1599D01*
X1744Y1599D02*
X1751Y1599D01*
X1Y1598D02*
X8Y1598D01*
X1744Y1598D02*
X1751Y1598D01*
X1Y1597D02*
X8Y1597D01*
X1744Y1597D02*
X1751Y1597D01*
X1Y1596D02*
X8Y1596D01*
X1744Y1596D02*
X1751Y1596D01*
X1Y1595D02*
X8Y1595D01*
X1744Y1595D02*
X1751Y1595D01*
X1Y1594D02*
X8Y1594D01*
X1744Y1594D02*
X1751Y1594D01*
X1Y1593D02*
X8Y1593D01*
X1744Y1593D02*
X1751Y1593D01*
X1Y1592D02*
X8Y1592D01*
X1744Y1592D02*
X1751Y1592D01*
X1Y1591D02*
X8Y1591D01*
X1744Y1591D02*
X1751Y1591D01*
X1Y1590D02*
X8Y1590D01*
X1744Y1590D02*
X1751Y1590D01*
X1Y1589D02*
X8Y1589D01*
X1744Y1589D02*
X1751Y1589D01*
X1Y1588D02*
X8Y1588D01*
X1744Y1588D02*
X1751Y1588D01*
X1Y1587D02*
X8Y1587D01*
X1744Y1587D02*
X1751Y1587D01*
X1Y1586D02*
X8Y1586D01*
X1744Y1586D02*
X1751Y1586D01*
X1Y1585D02*
X8Y1585D01*
X1744Y1585D02*
X1751Y1585D01*
X1Y1584D02*
X8Y1584D01*
X1744Y1584D02*
X1751Y1584D01*
X1Y1583D02*
X8Y1583D01*
X1744Y1583D02*
X1751Y1583D01*
X1Y1582D02*
X8Y1582D01*
X1744Y1582D02*
X1751Y1582D01*
X1Y1581D02*
X8Y1581D01*
X1744Y1581D02*
X1751Y1581D01*
X1Y1580D02*
X8Y1580D01*
X1744Y1580D02*
X1751Y1580D01*
X1Y1579D02*
X8Y1579D01*
X1744Y1579D02*
X1751Y1579D01*
X1Y1578D02*
X8Y1578D01*
X1744Y1578D02*
X1751Y1578D01*
X1Y1577D02*
X8Y1577D01*
X1055Y1577D02*
X1219Y1577D01*
X1255Y1577D02*
X1419Y1577D01*
X1455Y1577D02*
X1538Y1577D01*
X1744Y1577D02*
X1751Y1577D01*
X1Y1576D02*
X8Y1576D01*
X1053Y1576D02*
X1221Y1576D01*
X1252Y1576D02*
X1421Y1576D01*
X1452Y1576D02*
X1538Y1576D01*
X1744Y1576D02*
X1751Y1576D01*
X1Y1575D02*
X8Y1575D01*
X1050Y1575D02*
X1224Y1575D01*
X1250Y1575D02*
X1424Y1575D01*
X1449Y1575D02*
X1539Y1575D01*
X1744Y1575D02*
X1751Y1575D01*
X1Y1574D02*
X8Y1574D01*
X1046Y1574D02*
X1228Y1574D01*
X1245Y1574D02*
X1428Y1574D01*
X1445Y1574D02*
X1538Y1574D01*
X1744Y1574D02*
X1751Y1574D01*
X1Y1573D02*
X8Y1573D01*
X1035Y1573D02*
X1537Y1573D01*
X1744Y1573D02*
X1751Y1573D01*
X1Y1572D02*
X8Y1572D01*
X1035Y1572D02*
X1039Y1572D01*
X1744Y1572D02*
X1751Y1572D01*
X1Y1571D02*
X8Y1571D01*
X1035Y1571D02*
X1039Y1571D01*
X1744Y1571D02*
X1751Y1571D01*
X1Y1570D02*
X8Y1570D01*
X1035Y1570D02*
X1039Y1570D01*
X1744Y1570D02*
X1751Y1570D01*
X1Y1569D02*
X8Y1569D01*
X1035Y1569D02*
X1039Y1569D01*
X1744Y1569D02*
X1751Y1569D01*
X1Y1568D02*
X8Y1568D01*
X1035Y1568D02*
X1039Y1568D01*
X1744Y1568D02*
X1751Y1568D01*
X1Y1567D02*
X8Y1567D01*
X1035Y1567D02*
X1039Y1567D01*
X1744Y1567D02*
X1751Y1567D01*
X1Y1566D02*
X8Y1566D01*
X1035Y1566D02*
X1039Y1566D01*
X1744Y1566D02*
X1751Y1566D01*
X1Y1565D02*
X8Y1565D01*
X1035Y1565D02*
X1039Y1565D01*
X1744Y1565D02*
X1751Y1565D01*
X1Y1564D02*
X8Y1564D01*
X1035Y1564D02*
X1039Y1564D01*
X1744Y1564D02*
X1751Y1564D01*
X1Y1563D02*
X8Y1563D01*
X1035Y1563D02*
X1039Y1563D01*
X1744Y1563D02*
X1751Y1563D01*
X1Y1562D02*
X8Y1562D01*
X1035Y1562D02*
X1039Y1562D01*
X1744Y1562D02*
X1751Y1562D01*
X1Y1561D02*
X8Y1561D01*
X1035Y1561D02*
X1039Y1561D01*
X1744Y1561D02*
X1751Y1561D01*
X1Y1560D02*
X8Y1560D01*
X1035Y1560D02*
X1039Y1560D01*
X1744Y1560D02*
X1751Y1560D01*
X1Y1559D02*
X8Y1559D01*
X1035Y1559D02*
X1039Y1559D01*
X1744Y1559D02*
X1751Y1559D01*
X1Y1558D02*
X8Y1558D01*
X1035Y1558D02*
X1039Y1558D01*
X1744Y1558D02*
X1751Y1558D01*
X1Y1557D02*
X8Y1557D01*
X1035Y1557D02*
X1039Y1557D01*
X1744Y1557D02*
X1751Y1557D01*
X1Y1556D02*
X8Y1556D01*
X1035Y1556D02*
X1039Y1556D01*
X1744Y1556D02*
X1751Y1556D01*
X1Y1555D02*
X8Y1555D01*
X1035Y1555D02*
X1039Y1555D01*
X1744Y1555D02*
X1751Y1555D01*
X1Y1554D02*
X8Y1554D01*
X1035Y1554D02*
X1039Y1554D01*
X1744Y1554D02*
X1751Y1554D01*
X1Y1553D02*
X8Y1553D01*
X1035Y1553D02*
X1039Y1553D01*
X1744Y1553D02*
X1751Y1553D01*
X1Y1552D02*
X8Y1552D01*
X1035Y1552D02*
X1039Y1552D01*
X1744Y1552D02*
X1751Y1552D01*
X1Y1551D02*
X8Y1551D01*
X1035Y1551D02*
X1039Y1551D01*
X1744Y1551D02*
X1751Y1551D01*
X1Y1550D02*
X8Y1550D01*
X1035Y1550D02*
X1039Y1550D01*
X1744Y1550D02*
X1751Y1550D01*
X1Y1549D02*
X8Y1549D01*
X1035Y1549D02*
X1039Y1549D01*
X1744Y1549D02*
X1751Y1549D01*
X1Y1548D02*
X8Y1548D01*
X1035Y1548D02*
X1039Y1548D01*
X1744Y1548D02*
X1751Y1548D01*
X1Y1547D02*
X8Y1547D01*
X1035Y1547D02*
X1039Y1547D01*
X1744Y1547D02*
X1751Y1547D01*
X1Y1546D02*
X8Y1546D01*
X1035Y1546D02*
X1039Y1546D01*
X1744Y1546D02*
X1751Y1546D01*
X1Y1545D02*
X8Y1545D01*
X1035Y1545D02*
X1039Y1545D01*
X1744Y1545D02*
X1751Y1545D01*
X1Y1544D02*
X8Y1544D01*
X1035Y1544D02*
X1039Y1544D01*
X1744Y1544D02*
X1751Y1544D01*
X1Y1543D02*
X8Y1543D01*
X1035Y1543D02*
X1039Y1543D01*
X1744Y1543D02*
X1751Y1543D01*
X1Y1542D02*
X8Y1542D01*
X1035Y1542D02*
X1039Y1542D01*
X1744Y1542D02*
X1751Y1542D01*
X1Y1541D02*
X8Y1541D01*
X1035Y1541D02*
X1039Y1541D01*
X1744Y1541D02*
X1751Y1541D01*
X1Y1540D02*
X8Y1540D01*
X1035Y1540D02*
X1039Y1540D01*
X1744Y1540D02*
X1751Y1540D01*
X1Y1539D02*
X8Y1539D01*
X1035Y1539D02*
X1039Y1539D01*
X1744Y1539D02*
X1751Y1539D01*
X1Y1538D02*
X8Y1538D01*
X1035Y1538D02*
X1039Y1538D01*
X1744Y1538D02*
X1751Y1538D01*
X1Y1537D02*
X8Y1537D01*
X1035Y1537D02*
X1039Y1537D01*
X1744Y1537D02*
X1751Y1537D01*
X1Y1536D02*
X8Y1536D01*
X1035Y1536D02*
X1039Y1536D01*
X1744Y1536D02*
X1751Y1536D01*
X1Y1535D02*
X8Y1535D01*
X1035Y1535D02*
X1039Y1535D01*
X1744Y1535D02*
X1751Y1535D01*
X1Y1534D02*
X8Y1534D01*
X1035Y1534D02*
X1039Y1534D01*
X1744Y1534D02*
X1751Y1534D01*
X1Y1533D02*
X8Y1533D01*
X1035Y1533D02*
X1039Y1533D01*
X1744Y1533D02*
X1751Y1533D01*
X1Y1532D02*
X8Y1532D01*
X1035Y1532D02*
X1039Y1532D01*
X1744Y1532D02*
X1751Y1532D01*
X1Y1531D02*
X8Y1531D01*
X1035Y1531D02*
X1039Y1531D01*
X1744Y1531D02*
X1751Y1531D01*
X1Y1530D02*
X8Y1530D01*
X1035Y1530D02*
X1039Y1530D01*
X1744Y1530D02*
X1751Y1530D01*
X1Y1529D02*
X8Y1529D01*
X1035Y1529D02*
X1039Y1529D01*
X1744Y1529D02*
X1751Y1529D01*
X1Y1528D02*
X8Y1528D01*
X1035Y1528D02*
X1039Y1528D01*
X1744Y1528D02*
X1751Y1528D01*
X1Y1527D02*
X8Y1527D01*
X1035Y1527D02*
X1039Y1527D01*
X1744Y1527D02*
X1751Y1527D01*
X1Y1526D02*
X8Y1526D01*
X1035Y1526D02*
X1039Y1526D01*
X1744Y1526D02*
X1751Y1526D01*
X1Y1525D02*
X8Y1525D01*
X1035Y1525D02*
X1039Y1525D01*
X1744Y1525D02*
X1751Y1525D01*
X1Y1524D02*
X8Y1524D01*
X1035Y1524D02*
X1039Y1524D01*
X1744Y1524D02*
X1751Y1524D01*
X1Y1523D02*
X8Y1523D01*
X1036Y1523D02*
X1038Y1523D01*
X1744Y1523D02*
X1751Y1523D01*
X1Y1522D02*
X8Y1522D01*
X1744Y1522D02*
X1751Y1522D01*
X1Y1521D02*
X8Y1521D01*
X1744Y1521D02*
X1751Y1521D01*
X1Y1520D02*
X8Y1520D01*
X1744Y1520D02*
X1751Y1520D01*
X1Y1519D02*
X8Y1519D01*
X1744Y1519D02*
X1751Y1519D01*
X1Y1518D02*
X8Y1518D01*
X1744Y1518D02*
X1751Y1518D01*
X1Y1517D02*
X8Y1517D01*
X1744Y1517D02*
X1751Y1517D01*
X1Y1516D02*
X8Y1516D01*
X1744Y1516D02*
X1751Y1516D01*
X1Y1515D02*
X8Y1515D01*
X1744Y1515D02*
X1751Y1515D01*
X1Y1514D02*
X8Y1514D01*
X1744Y1514D02*
X1751Y1514D01*
X1Y1513D02*
X8Y1513D01*
X1744Y1513D02*
X1751Y1513D01*
X1Y1512D02*
X8Y1512D01*
X1744Y1512D02*
X1751Y1512D01*
X1Y1511D02*
X8Y1511D01*
X1744Y1511D02*
X1751Y1511D01*
X1Y1510D02*
X8Y1510D01*
X1744Y1510D02*
X1751Y1510D01*
X1Y1509D02*
X8Y1509D01*
X1744Y1509D02*
X1751Y1509D01*
X1Y1508D02*
X8Y1508D01*
X1744Y1508D02*
X1751Y1508D01*
X1Y1507D02*
X8Y1507D01*
X1744Y1507D02*
X1751Y1507D01*
X1Y1506D02*
X8Y1506D01*
X1744Y1506D02*
X1751Y1506D01*
X1Y1505D02*
X8Y1505D01*
X1744Y1505D02*
X1751Y1505D01*
X1Y1504D02*
X8Y1504D01*
X1744Y1504D02*
X1751Y1504D01*
X1Y1503D02*
X8Y1503D01*
X1744Y1503D02*
X1751Y1503D01*
X1Y1502D02*
X8Y1502D01*
X1744Y1502D02*
X1751Y1502D01*
X1Y1501D02*
X8Y1501D01*
X1744Y1501D02*
X1751Y1501D01*
X1Y1500D02*
X8Y1500D01*
X1744Y1500D02*
X1751Y1500D01*
X1Y1499D02*
X8Y1499D01*
X1744Y1499D02*
X1751Y1499D01*
X1Y1498D02*
X8Y1498D01*
X1744Y1498D02*
X1751Y1498D01*
X1Y1497D02*
X8Y1497D01*
X1744Y1497D02*
X1751Y1497D01*
X1Y1496D02*
X8Y1496D01*
X1744Y1496D02*
X1751Y1496D01*
X1Y1495D02*
X8Y1495D01*
X1744Y1495D02*
X1751Y1495D01*
X1Y1494D02*
X8Y1494D01*
X1744Y1494D02*
X1751Y1494D01*
X1Y1493D02*
X8Y1493D01*
X1744Y1493D02*
X1751Y1493D01*
X1Y1492D02*
X8Y1492D01*
X1744Y1492D02*
X1751Y1492D01*
X1Y1491D02*
X8Y1491D01*
X1744Y1491D02*
X1751Y1491D01*
X1Y1490D02*
X8Y1490D01*
X1744Y1490D02*
X1751Y1490D01*
X1Y1489D02*
X8Y1489D01*
X1744Y1489D02*
X1751Y1489D01*
X1Y1488D02*
X8Y1488D01*
X1744Y1488D02*
X1751Y1488D01*
X1Y1487D02*
X8Y1487D01*
X1744Y1487D02*
X1751Y1487D01*
X1Y1486D02*
X8Y1486D01*
X1744Y1486D02*
X1751Y1486D01*
X1Y1485D02*
X8Y1485D01*
X1744Y1485D02*
X1751Y1485D01*
X1Y1484D02*
X8Y1484D01*
X1744Y1484D02*
X1751Y1484D01*
X1Y1483D02*
X8Y1483D01*
X1744Y1483D02*
X1751Y1483D01*
X1Y1482D02*
X8Y1482D01*
X1744Y1482D02*
X1751Y1482D01*
X1Y1481D02*
X8Y1481D01*
X1744Y1481D02*
X1751Y1481D01*
X1Y1480D02*
X8Y1480D01*
X1744Y1480D02*
X1751Y1480D01*
X1Y1479D02*
X8Y1479D01*
X1744Y1479D02*
X1751Y1479D01*
X1Y1478D02*
X8Y1478D01*
X1744Y1478D02*
X1751Y1478D01*
X1Y1477D02*
X8Y1477D01*
X1744Y1477D02*
X1751Y1477D01*
X1Y1476D02*
X8Y1476D01*
X1744Y1476D02*
X1751Y1476D01*
X1Y1475D02*
X8Y1475D01*
X1744Y1475D02*
X1751Y1475D01*
X1Y1474D02*
X8Y1474D01*
X1744Y1474D02*
X1751Y1474D01*
X1Y1473D02*
X8Y1473D01*
X1744Y1473D02*
X1751Y1473D01*
X1Y1472D02*
X8Y1472D01*
X1744Y1472D02*
X1751Y1472D01*
X1Y1471D02*
X8Y1471D01*
X1744Y1471D02*
X1751Y1471D01*
X1Y1470D02*
X8Y1470D01*
X1744Y1470D02*
X1751Y1470D01*
X1Y1469D02*
X8Y1469D01*
X1744Y1469D02*
X1751Y1469D01*
X1Y1468D02*
X8Y1468D01*
X1744Y1468D02*
X1751Y1468D01*
X1Y1467D02*
X8Y1467D01*
X1744Y1467D02*
X1751Y1467D01*
X1Y1466D02*
X8Y1466D01*
X1744Y1466D02*
X1751Y1466D01*
X1Y1465D02*
X8Y1465D01*
X1744Y1465D02*
X1751Y1465D01*
X1Y1464D02*
X8Y1464D01*
X1744Y1464D02*
X1751Y1464D01*
X1Y1463D02*
X8Y1463D01*
X1744Y1463D02*
X1751Y1463D01*
X1Y1462D02*
X8Y1462D01*
X1744Y1462D02*
X1751Y1462D01*
X1Y1461D02*
X8Y1461D01*
X1744Y1461D02*
X1751Y1461D01*
X1Y1460D02*
X8Y1460D01*
X1744Y1460D02*
X1751Y1460D01*
X1Y1459D02*
X8Y1459D01*
X1744Y1459D02*
X1751Y1459D01*
X1Y1458D02*
X8Y1458D01*
X1744Y1458D02*
X1751Y1458D01*
X1Y1457D02*
X8Y1457D01*
X1744Y1457D02*
X1751Y1457D01*
X1Y1456D02*
X8Y1456D01*
X1744Y1456D02*
X1751Y1456D01*
X1Y1455D02*
X8Y1455D01*
X1744Y1455D02*
X1751Y1455D01*
X1Y1454D02*
X8Y1454D01*
X1744Y1454D02*
X1751Y1454D01*
X1Y1453D02*
X8Y1453D01*
X1744Y1453D02*
X1751Y1453D01*
X1Y1452D02*
X8Y1452D01*
X1744Y1452D02*
X1751Y1452D01*
X1Y1451D02*
X8Y1451D01*
X1744Y1451D02*
X1751Y1451D01*
X1Y1450D02*
X8Y1450D01*
X1744Y1450D02*
X1751Y1450D01*
X1Y1449D02*
X8Y1449D01*
X1744Y1449D02*
X1751Y1449D01*
X1Y1448D02*
X8Y1448D01*
X1744Y1448D02*
X1751Y1448D01*
X1Y1447D02*
X8Y1447D01*
X1744Y1447D02*
X1751Y1447D01*
X1Y1446D02*
X8Y1446D01*
X1744Y1446D02*
X1751Y1446D01*
X1Y1445D02*
X8Y1445D01*
X1744Y1445D02*
X1751Y1445D01*
X1Y1444D02*
X8Y1444D01*
X1744Y1444D02*
X1751Y1444D01*
X1Y1443D02*
X8Y1443D01*
X1744Y1443D02*
X1751Y1443D01*
X1Y1442D02*
X8Y1442D01*
X1744Y1442D02*
X1751Y1442D01*
X1Y1441D02*
X8Y1441D01*
X1744Y1441D02*
X1751Y1441D01*
X1Y1440D02*
X8Y1440D01*
X1744Y1440D02*
X1751Y1440D01*
X1Y1439D02*
X8Y1439D01*
X1744Y1439D02*
X1751Y1439D01*
X1Y1438D02*
X8Y1438D01*
X1744Y1438D02*
X1751Y1438D01*
X1Y1437D02*
X8Y1437D01*
X1744Y1437D02*
X1751Y1437D01*
X1Y1436D02*
X8Y1436D01*
X1744Y1436D02*
X1751Y1436D01*
X1Y1435D02*
X8Y1435D01*
X1744Y1435D02*
X1751Y1435D01*
X1Y1434D02*
X8Y1434D01*
X1744Y1434D02*
X1751Y1434D01*
X1Y1433D02*
X8Y1433D01*
X1744Y1433D02*
X1751Y1433D01*
X1Y1432D02*
X8Y1432D01*
X1744Y1432D02*
X1751Y1432D01*
X1Y1431D02*
X8Y1431D01*
X1744Y1431D02*
X1751Y1431D01*
X1Y1430D02*
X8Y1430D01*
X1744Y1430D02*
X1751Y1430D01*
X1Y1429D02*
X8Y1429D01*
X1744Y1429D02*
X1751Y1429D01*
X1Y1428D02*
X8Y1428D01*
X1744Y1428D02*
X1751Y1428D01*
X1Y1427D02*
X8Y1427D01*
X1744Y1427D02*
X1751Y1427D01*
X1Y1426D02*
X8Y1426D01*
X1744Y1426D02*
X1751Y1426D01*
X1Y1425D02*
X8Y1425D01*
X1744Y1425D02*
X1751Y1425D01*
X1Y1424D02*
X8Y1424D01*
X1744Y1424D02*
X1751Y1424D01*
X1Y1423D02*
X8Y1423D01*
X1744Y1423D02*
X1751Y1423D01*
X1Y1422D02*
X8Y1422D01*
X1744Y1422D02*
X1751Y1422D01*
X1Y1421D02*
X8Y1421D01*
X1744Y1421D02*
X1751Y1421D01*
X1Y1420D02*
X8Y1420D01*
X1744Y1420D02*
X1751Y1420D01*
X1Y1419D02*
X8Y1419D01*
X1744Y1419D02*
X1751Y1419D01*
X1Y1418D02*
X8Y1418D01*
X1744Y1418D02*
X1751Y1418D01*
X1Y1417D02*
X8Y1417D01*
X1744Y1417D02*
X1751Y1417D01*
X1Y1416D02*
X8Y1416D01*
X1744Y1416D02*
X1751Y1416D01*
X1Y1415D02*
X8Y1415D01*
X1744Y1415D02*
X1751Y1415D01*
X1Y1414D02*
X8Y1414D01*
X1744Y1414D02*
X1751Y1414D01*
X1Y1413D02*
X8Y1413D01*
X1744Y1413D02*
X1751Y1413D01*
X1Y1412D02*
X8Y1412D01*
X1744Y1412D02*
X1751Y1412D01*
X1Y1411D02*
X8Y1411D01*
X1744Y1411D02*
X1751Y1411D01*
X1Y1410D02*
X8Y1410D01*
X1744Y1410D02*
X1751Y1410D01*
X1Y1409D02*
X8Y1409D01*
X1744Y1409D02*
X1751Y1409D01*
X1Y1408D02*
X8Y1408D01*
X1744Y1408D02*
X1751Y1408D01*
X1Y1407D02*
X8Y1407D01*
X1744Y1407D02*
X1751Y1407D01*
X1Y1406D02*
X8Y1406D01*
X1744Y1406D02*
X1751Y1406D01*
X1Y1405D02*
X8Y1405D01*
X1744Y1405D02*
X1751Y1405D01*
X1Y1404D02*
X8Y1404D01*
X1744Y1404D02*
X1751Y1404D01*
X1Y1403D02*
X8Y1403D01*
X1744Y1403D02*
X1751Y1403D01*
X1Y1402D02*
X8Y1402D01*
X1744Y1402D02*
X1751Y1402D01*
X1Y1401D02*
X8Y1401D01*
X1744Y1401D02*
X1751Y1401D01*
X1Y1400D02*
X8Y1400D01*
X1744Y1400D02*
X1751Y1400D01*
X1Y1399D02*
X8Y1399D01*
X1744Y1399D02*
X1751Y1399D01*
X1Y1398D02*
X8Y1398D01*
X1744Y1398D02*
X1751Y1398D01*
X1Y1397D02*
X8Y1397D01*
X1744Y1397D02*
X1751Y1397D01*
X1Y1396D02*
X8Y1396D01*
X1744Y1396D02*
X1751Y1396D01*
X1Y1395D02*
X8Y1395D01*
X1744Y1395D02*
X1751Y1395D01*
X1Y1394D02*
X8Y1394D01*
X1744Y1394D02*
X1751Y1394D01*
X1Y1393D02*
X8Y1393D01*
X1744Y1393D02*
X1751Y1393D01*
X1Y1392D02*
X8Y1392D01*
X1744Y1392D02*
X1751Y1392D01*
X1Y1391D02*
X8Y1391D01*
X1744Y1391D02*
X1751Y1391D01*
X1Y1390D02*
X8Y1390D01*
X1744Y1390D02*
X1751Y1390D01*
X1Y1389D02*
X8Y1389D01*
X1744Y1389D02*
X1751Y1389D01*
X1Y1388D02*
X8Y1388D01*
X1744Y1388D02*
X1751Y1388D01*
X1Y1387D02*
X8Y1387D01*
X1744Y1387D02*
X1751Y1387D01*
X1Y1386D02*
X8Y1386D01*
X1744Y1386D02*
X1751Y1386D01*
X1Y1385D02*
X8Y1385D01*
X1744Y1385D02*
X1751Y1385D01*
X1Y1384D02*
X8Y1384D01*
X1744Y1384D02*
X1751Y1384D01*
X1Y1383D02*
X8Y1383D01*
X1744Y1383D02*
X1751Y1383D01*
X1Y1382D02*
X8Y1382D01*
X1744Y1382D02*
X1751Y1382D01*
X1Y1381D02*
X8Y1381D01*
X1744Y1381D02*
X1751Y1381D01*
X1Y1380D02*
X8Y1380D01*
X1744Y1380D02*
X1751Y1380D01*
X1Y1379D02*
X8Y1379D01*
X1744Y1379D02*
X1751Y1379D01*
X1Y1378D02*
X8Y1378D01*
X1744Y1378D02*
X1751Y1378D01*
X1Y1377D02*
X8Y1377D01*
X1744Y1377D02*
X1751Y1377D01*
X1Y1376D02*
X8Y1376D01*
X1744Y1376D02*
X1751Y1376D01*
X1Y1375D02*
X8Y1375D01*
X1744Y1375D02*
X1751Y1375D01*
X1Y1374D02*
X8Y1374D01*
X1744Y1374D02*
X1751Y1374D01*
X1Y1373D02*
X8Y1373D01*
X1744Y1373D02*
X1751Y1373D01*
X1Y1372D02*
X8Y1372D01*
X1744Y1372D02*
X1751Y1372D01*
X1Y1371D02*
X8Y1371D01*
X1744Y1371D02*
X1751Y1371D01*
X1Y1370D02*
X8Y1370D01*
X1744Y1370D02*
X1751Y1370D01*
X1Y1369D02*
X8Y1369D01*
X1744Y1369D02*
X1751Y1369D01*
X1Y1368D02*
X8Y1368D01*
X1744Y1368D02*
X1751Y1368D01*
X1Y1367D02*
X8Y1367D01*
X1744Y1367D02*
X1751Y1367D01*
X1Y1366D02*
X8Y1366D01*
X1744Y1366D02*
X1751Y1366D01*
X1Y1365D02*
X8Y1365D01*
X1744Y1365D02*
X1751Y1365D01*
X1Y1364D02*
X8Y1364D01*
X1744Y1364D02*
X1751Y1364D01*
X1Y1363D02*
X8Y1363D01*
X1744Y1363D02*
X1751Y1363D01*
X1Y1362D02*
X8Y1362D01*
X1744Y1362D02*
X1751Y1362D01*
X1Y1361D02*
X8Y1361D01*
X1744Y1361D02*
X1751Y1361D01*
X1Y1360D02*
X8Y1360D01*
X1744Y1360D02*
X1751Y1360D01*
X1Y1359D02*
X8Y1359D01*
X1744Y1359D02*
X1751Y1359D01*
X1Y1358D02*
X8Y1358D01*
X1744Y1358D02*
X1751Y1358D01*
X1Y1357D02*
X8Y1357D01*
X1744Y1357D02*
X1751Y1357D01*
X1Y1356D02*
X8Y1356D01*
X1744Y1356D02*
X1751Y1356D01*
X1Y1355D02*
X8Y1355D01*
X1744Y1355D02*
X1751Y1355D01*
X1Y1354D02*
X8Y1354D01*
X1744Y1354D02*
X1751Y1354D01*
X1Y1353D02*
X8Y1353D01*
X1744Y1353D02*
X1751Y1353D01*
X1Y1352D02*
X8Y1352D01*
X1744Y1352D02*
X1751Y1352D01*
X1Y1351D02*
X8Y1351D01*
X1744Y1351D02*
X1751Y1351D01*
X1Y1350D02*
X8Y1350D01*
X1744Y1350D02*
X1751Y1350D01*
X1Y1349D02*
X8Y1349D01*
X1744Y1349D02*
X1751Y1349D01*
X1Y1348D02*
X8Y1348D01*
X1744Y1348D02*
X1751Y1348D01*
X1Y1347D02*
X8Y1347D01*
X1744Y1347D02*
X1751Y1347D01*
X1Y1346D02*
X8Y1346D01*
X1744Y1346D02*
X1751Y1346D01*
X1Y1345D02*
X8Y1345D01*
X1744Y1345D02*
X1751Y1345D01*
X1Y1344D02*
X8Y1344D01*
X1744Y1344D02*
X1751Y1344D01*
X1Y1343D02*
X8Y1343D01*
X1744Y1343D02*
X1751Y1343D01*
X1Y1342D02*
X8Y1342D01*
X1744Y1342D02*
X1751Y1342D01*
X1Y1341D02*
X8Y1341D01*
X1744Y1341D02*
X1751Y1341D01*
X1Y1340D02*
X8Y1340D01*
X1744Y1340D02*
X1751Y1340D01*
X1Y1339D02*
X8Y1339D01*
X1744Y1339D02*
X1751Y1339D01*
X1Y1338D02*
X8Y1338D01*
X1744Y1338D02*
X1751Y1338D01*
X1Y1337D02*
X8Y1337D01*
X1744Y1337D02*
X1751Y1337D01*
X1Y1336D02*
X8Y1336D01*
X1744Y1336D02*
X1751Y1336D01*
X1Y1335D02*
X8Y1335D01*
X1744Y1335D02*
X1751Y1335D01*
X1Y1334D02*
X8Y1334D01*
X1744Y1334D02*
X1751Y1334D01*
X1Y1333D02*
X8Y1333D01*
X1744Y1333D02*
X1751Y1333D01*
X1Y1332D02*
X8Y1332D01*
X1744Y1332D02*
X1751Y1332D01*
X1Y1331D02*
X8Y1331D01*
X1744Y1331D02*
X1751Y1331D01*
X1Y1330D02*
X8Y1330D01*
X1744Y1330D02*
X1751Y1330D01*
X1Y1329D02*
X8Y1329D01*
X1744Y1329D02*
X1751Y1329D01*
X1Y1328D02*
X8Y1328D01*
X1744Y1328D02*
X1751Y1328D01*
X1Y1327D02*
X8Y1327D01*
X1744Y1327D02*
X1751Y1327D01*
X1Y1326D02*
X8Y1326D01*
X1744Y1326D02*
X1751Y1326D01*
X1Y1325D02*
X8Y1325D01*
X1744Y1325D02*
X1751Y1325D01*
X1Y1324D02*
X8Y1324D01*
X1744Y1324D02*
X1751Y1324D01*
X1Y1323D02*
X8Y1323D01*
X1744Y1323D02*
X1751Y1323D01*
X1Y1322D02*
X8Y1322D01*
X1744Y1322D02*
X1751Y1322D01*
X1Y1321D02*
X8Y1321D01*
X1744Y1321D02*
X1751Y1321D01*
X1Y1320D02*
X8Y1320D01*
X1744Y1320D02*
X1751Y1320D01*
X1Y1319D02*
X8Y1319D01*
X1744Y1319D02*
X1751Y1319D01*
X1Y1318D02*
X8Y1318D01*
X1744Y1318D02*
X1751Y1318D01*
X1Y1317D02*
X8Y1317D01*
X1744Y1317D02*
X1751Y1317D01*
X1Y1316D02*
X8Y1316D01*
X1744Y1316D02*
X1751Y1316D01*
X1Y1315D02*
X8Y1315D01*
X1744Y1315D02*
X1751Y1315D01*
X1Y1314D02*
X8Y1314D01*
X1744Y1314D02*
X1751Y1314D01*
X1Y1313D02*
X8Y1313D01*
X1744Y1313D02*
X1751Y1313D01*
X1Y1312D02*
X8Y1312D01*
X1744Y1312D02*
X1751Y1312D01*
X1Y1311D02*
X8Y1311D01*
X1744Y1311D02*
X1751Y1311D01*
X1Y1310D02*
X8Y1310D01*
X1744Y1310D02*
X1751Y1310D01*
X1Y1309D02*
X8Y1309D01*
X1744Y1309D02*
X1751Y1309D01*
X1Y1308D02*
X8Y1308D01*
X1744Y1308D02*
X1751Y1308D01*
X1Y1307D02*
X8Y1307D01*
X1744Y1307D02*
X1751Y1307D01*
X1Y1306D02*
X8Y1306D01*
X1744Y1306D02*
X1751Y1306D01*
X1Y1305D02*
X8Y1305D01*
X1744Y1305D02*
X1751Y1305D01*
X1Y1304D02*
X8Y1304D01*
X1744Y1304D02*
X1751Y1304D01*
X1Y1303D02*
X8Y1303D01*
X1744Y1303D02*
X1751Y1303D01*
X1Y1302D02*
X8Y1302D01*
X1744Y1302D02*
X1751Y1302D01*
X1Y1301D02*
X8Y1301D01*
X1744Y1301D02*
X1751Y1301D01*
X1Y1300D02*
X8Y1300D01*
X1744Y1300D02*
X1751Y1300D01*
X1Y1299D02*
X8Y1299D01*
X1744Y1299D02*
X1751Y1299D01*
X1Y1298D02*
X8Y1298D01*
X1744Y1298D02*
X1751Y1298D01*
X1Y1297D02*
X8Y1297D01*
X1744Y1297D02*
X1751Y1297D01*
X1Y1296D02*
X8Y1296D01*
X1744Y1296D02*
X1751Y1296D01*
X1Y1295D02*
X8Y1295D01*
X1744Y1295D02*
X1751Y1295D01*
X1Y1294D02*
X8Y1294D01*
X1744Y1294D02*
X1751Y1294D01*
X1Y1293D02*
X8Y1293D01*
X1744Y1293D02*
X1751Y1293D01*
X1Y1292D02*
X8Y1292D01*
X1744Y1292D02*
X1751Y1292D01*
X1Y1291D02*
X8Y1291D01*
X1744Y1291D02*
X1751Y1291D01*
X1Y1290D02*
X8Y1290D01*
X1744Y1290D02*
X1751Y1290D01*
X1Y1289D02*
X8Y1289D01*
X1744Y1289D02*
X1751Y1289D01*
X1Y1288D02*
X8Y1288D01*
X1744Y1288D02*
X1751Y1288D01*
X1Y1287D02*
X8Y1287D01*
X1744Y1287D02*
X1751Y1287D01*
X1Y1286D02*
X8Y1286D01*
X1744Y1286D02*
X1751Y1286D01*
X1Y1285D02*
X8Y1285D01*
X1744Y1285D02*
X1751Y1285D01*
X1Y1284D02*
X8Y1284D01*
X1744Y1284D02*
X1751Y1284D01*
X1Y1283D02*
X8Y1283D01*
X1744Y1283D02*
X1751Y1283D01*
X1Y1282D02*
X8Y1282D01*
X1744Y1282D02*
X1751Y1282D01*
X1Y1281D02*
X8Y1281D01*
X1744Y1281D02*
X1751Y1281D01*
X1Y1280D02*
X8Y1280D01*
X1744Y1280D02*
X1751Y1280D01*
X1Y1279D02*
X8Y1279D01*
X1744Y1279D02*
X1751Y1279D01*
X1Y1278D02*
X8Y1278D01*
X1744Y1278D02*
X1751Y1278D01*
X1Y1277D02*
X8Y1277D01*
X1744Y1277D02*
X1751Y1277D01*
X1Y1276D02*
X8Y1276D01*
X1744Y1276D02*
X1751Y1276D01*
X1Y1275D02*
X8Y1275D01*
X1744Y1275D02*
X1751Y1275D01*
X1Y1274D02*
X8Y1274D01*
X1744Y1274D02*
X1751Y1274D01*
X1Y1273D02*
X8Y1273D01*
X1744Y1273D02*
X1751Y1273D01*
X1Y1272D02*
X8Y1272D01*
X1744Y1272D02*
X1751Y1272D01*
X1Y1271D02*
X8Y1271D01*
X1744Y1271D02*
X1751Y1271D01*
X1Y1270D02*
X8Y1270D01*
X1744Y1270D02*
X1751Y1270D01*
X1Y1269D02*
X8Y1269D01*
X1744Y1269D02*
X1751Y1269D01*
X1Y1268D02*
X8Y1268D01*
X1744Y1268D02*
X1751Y1268D01*
X1Y1267D02*
X8Y1267D01*
X1744Y1267D02*
X1751Y1267D01*
X1Y1266D02*
X8Y1266D01*
X1744Y1266D02*
X1751Y1266D01*
X1Y1265D02*
X8Y1265D01*
X1744Y1265D02*
X1751Y1265D01*
X1Y1264D02*
X8Y1264D01*
X1744Y1264D02*
X1751Y1264D01*
X1Y1263D02*
X8Y1263D01*
X1744Y1263D02*
X1751Y1263D01*
X1Y1262D02*
X8Y1262D01*
X1744Y1262D02*
X1751Y1262D01*
X1Y1261D02*
X8Y1261D01*
X1744Y1261D02*
X1751Y1261D01*
X1Y1260D02*
X8Y1260D01*
X1744Y1260D02*
X1751Y1260D01*
X1Y1259D02*
X8Y1259D01*
X1744Y1259D02*
X1751Y1259D01*
X1Y1258D02*
X8Y1258D01*
X1744Y1258D02*
X1751Y1258D01*
X1Y1257D02*
X8Y1257D01*
X1744Y1257D02*
X1751Y1257D01*
X1Y1256D02*
X8Y1256D01*
X1744Y1256D02*
X1751Y1256D01*
X1Y1255D02*
X8Y1255D01*
X1744Y1255D02*
X1751Y1255D01*
X1Y1254D02*
X8Y1254D01*
X1744Y1254D02*
X1751Y1254D01*
X1Y1253D02*
X8Y1253D01*
X1744Y1253D02*
X1751Y1253D01*
X1Y1252D02*
X8Y1252D01*
X1744Y1252D02*
X1751Y1252D01*
X1Y1251D02*
X8Y1251D01*
X1744Y1251D02*
X1751Y1251D01*
X1Y1250D02*
X8Y1250D01*
X1744Y1250D02*
X1751Y1250D01*
X1Y1249D02*
X8Y1249D01*
X1744Y1249D02*
X1751Y1249D01*
X1Y1248D02*
X8Y1248D01*
X1744Y1248D02*
X1751Y1248D01*
X1Y1247D02*
X8Y1247D01*
X1744Y1247D02*
X1751Y1247D01*
X1Y1246D02*
X8Y1246D01*
X1744Y1246D02*
X1751Y1246D01*
X1Y1245D02*
X8Y1245D01*
X1744Y1245D02*
X1751Y1245D01*
X1Y1244D02*
X8Y1244D01*
X1744Y1244D02*
X1751Y1244D01*
X1Y1243D02*
X8Y1243D01*
X1744Y1243D02*
X1751Y1243D01*
X1Y1242D02*
X8Y1242D01*
X1744Y1242D02*
X1751Y1242D01*
X1Y1241D02*
X8Y1241D01*
X1744Y1241D02*
X1751Y1241D01*
X1Y1240D02*
X8Y1240D01*
X1744Y1240D02*
X1751Y1240D01*
X1Y1239D02*
X8Y1239D01*
X1744Y1239D02*
X1751Y1239D01*
X1Y1238D02*
X8Y1238D01*
X1744Y1238D02*
X1751Y1238D01*
X1Y1237D02*
X8Y1237D01*
X1744Y1237D02*
X1751Y1237D01*
X1Y1236D02*
X8Y1236D01*
X1744Y1236D02*
X1751Y1236D01*
X1Y1235D02*
X8Y1235D01*
X1744Y1235D02*
X1751Y1235D01*
X1Y1234D02*
X8Y1234D01*
X1744Y1234D02*
X1751Y1234D01*
X1Y1233D02*
X8Y1233D01*
X1744Y1233D02*
X1751Y1233D01*
X1Y1232D02*
X8Y1232D01*
X1744Y1232D02*
X1751Y1232D01*
X1Y1231D02*
X8Y1231D01*
X1744Y1231D02*
X1751Y1231D01*
X1Y1230D02*
X8Y1230D01*
X1744Y1230D02*
X1751Y1230D01*
X1Y1229D02*
X8Y1229D01*
X1744Y1229D02*
X1751Y1229D01*
X1Y1228D02*
X8Y1228D01*
X1744Y1228D02*
X1751Y1228D01*
X1Y1227D02*
X8Y1227D01*
X1744Y1227D02*
X1751Y1227D01*
X1Y1226D02*
X8Y1226D01*
X1744Y1226D02*
X1751Y1226D01*
X1Y1225D02*
X8Y1225D01*
X1744Y1225D02*
X1751Y1225D01*
X1Y1224D02*
X8Y1224D01*
X1744Y1224D02*
X1751Y1224D01*
X1Y1223D02*
X8Y1223D01*
X1744Y1223D02*
X1751Y1223D01*
X1Y1222D02*
X8Y1222D01*
X1744Y1222D02*
X1751Y1222D01*
X1Y1221D02*
X8Y1221D01*
X1744Y1221D02*
X1751Y1221D01*
X1Y1220D02*
X8Y1220D01*
X1744Y1220D02*
X1751Y1220D01*
X1Y1219D02*
X8Y1219D01*
X1744Y1219D02*
X1751Y1219D01*
X1Y1218D02*
X8Y1218D01*
X1744Y1218D02*
X1751Y1218D01*
X1Y1217D02*
X8Y1217D01*
X1744Y1217D02*
X1751Y1217D01*
X1Y1216D02*
X8Y1216D01*
X1744Y1216D02*
X1751Y1216D01*
X1Y1215D02*
X8Y1215D01*
X1744Y1215D02*
X1751Y1215D01*
X1Y1214D02*
X8Y1214D01*
X1744Y1214D02*
X1751Y1214D01*
X1Y1213D02*
X8Y1213D01*
X1744Y1213D02*
X1751Y1213D01*
X1Y1212D02*
X8Y1212D01*
X1744Y1212D02*
X1751Y1212D01*
X1Y1211D02*
X8Y1211D01*
X1744Y1211D02*
X1751Y1211D01*
X1Y1210D02*
X8Y1210D01*
X1744Y1210D02*
X1751Y1210D01*
X1Y1209D02*
X8Y1209D01*
X1744Y1209D02*
X1751Y1209D01*
X1Y1208D02*
X8Y1208D01*
X1744Y1208D02*
X1751Y1208D01*
X1Y1207D02*
X8Y1207D01*
X1744Y1207D02*
X1751Y1207D01*
X1Y1206D02*
X8Y1206D01*
X1744Y1206D02*
X1751Y1206D01*
X1Y1205D02*
X8Y1205D01*
X1744Y1205D02*
X1751Y1205D01*
X1Y1204D02*
X8Y1204D01*
X1744Y1204D02*
X1751Y1204D01*
X1Y1203D02*
X8Y1203D01*
X1744Y1203D02*
X1751Y1203D01*
X1Y1202D02*
X8Y1202D01*
X1744Y1202D02*
X1751Y1202D01*
X1Y1201D02*
X8Y1201D01*
X1744Y1201D02*
X1751Y1201D01*
X1Y1200D02*
X8Y1200D01*
X1744Y1200D02*
X1751Y1200D01*
X1Y1199D02*
X8Y1199D01*
X1744Y1199D02*
X1751Y1199D01*
X1Y1198D02*
X8Y1198D01*
X1744Y1198D02*
X1751Y1198D01*
X1Y1197D02*
X8Y1197D01*
X1744Y1197D02*
X1751Y1197D01*
X1Y1196D02*
X8Y1196D01*
X1744Y1196D02*
X1751Y1196D01*
X1Y1195D02*
X8Y1195D01*
X1744Y1195D02*
X1751Y1195D01*
X1Y1194D02*
X8Y1194D01*
X1744Y1194D02*
X1751Y1194D01*
X1Y1193D02*
X8Y1193D01*
X1744Y1193D02*
X1751Y1193D01*
X1Y1192D02*
X8Y1192D01*
X1744Y1192D02*
X1751Y1192D01*
X1Y1191D02*
X8Y1191D01*
X1744Y1191D02*
X1751Y1191D01*
X1Y1190D02*
X8Y1190D01*
X1744Y1190D02*
X1751Y1190D01*
X1Y1189D02*
X8Y1189D01*
X1744Y1189D02*
X1751Y1189D01*
X1Y1188D02*
X8Y1188D01*
X1744Y1188D02*
X1751Y1188D01*
X1Y1187D02*
X8Y1187D01*
X1744Y1187D02*
X1751Y1187D01*
X1Y1186D02*
X8Y1186D01*
X1744Y1186D02*
X1751Y1186D01*
X1Y1185D02*
X8Y1185D01*
X1744Y1185D02*
X1751Y1185D01*
X1Y1184D02*
X8Y1184D01*
X1744Y1184D02*
X1751Y1184D01*
X1Y1183D02*
X8Y1183D01*
X1744Y1183D02*
X1751Y1183D01*
X1Y1182D02*
X8Y1182D01*
X1744Y1182D02*
X1751Y1182D01*
X1Y1181D02*
X8Y1181D01*
X1744Y1181D02*
X1751Y1181D01*
X1Y1180D02*
X8Y1180D01*
X1744Y1180D02*
X1751Y1180D01*
X1Y1179D02*
X8Y1179D01*
X1744Y1179D02*
X1751Y1179D01*
X1Y1178D02*
X8Y1178D01*
X1744Y1178D02*
X1751Y1178D01*
X1Y1177D02*
X8Y1177D01*
X1744Y1177D02*
X1751Y1177D01*
X1Y1176D02*
X8Y1176D01*
X1744Y1176D02*
X1751Y1176D01*
X1Y1175D02*
X8Y1175D01*
X1744Y1175D02*
X1751Y1175D01*
X1Y1174D02*
X8Y1174D01*
X1744Y1174D02*
X1751Y1174D01*
X1Y1173D02*
X8Y1173D01*
X1744Y1173D02*
X1751Y1173D01*
X1Y1172D02*
X8Y1172D01*
X1744Y1172D02*
X1751Y1172D01*
X1Y1171D02*
X8Y1171D01*
X1744Y1171D02*
X1751Y1171D01*
X1Y1170D02*
X8Y1170D01*
X1744Y1170D02*
X1751Y1170D01*
X1Y1169D02*
X8Y1169D01*
X1744Y1169D02*
X1751Y1169D01*
X1Y1168D02*
X8Y1168D01*
X1744Y1168D02*
X1751Y1168D01*
X1Y1167D02*
X8Y1167D01*
X1744Y1167D02*
X1751Y1167D01*
X1Y1166D02*
X8Y1166D01*
X1744Y1166D02*
X1751Y1166D01*
X1Y1165D02*
X8Y1165D01*
X1744Y1165D02*
X1751Y1165D01*
X1Y1164D02*
X8Y1164D01*
X1744Y1164D02*
X1751Y1164D01*
X1Y1163D02*
X8Y1163D01*
X1744Y1163D02*
X1751Y1163D01*
X1Y1162D02*
X8Y1162D01*
X1744Y1162D02*
X1751Y1162D01*
X1Y1161D02*
X8Y1161D01*
X1744Y1161D02*
X1751Y1161D01*
X1Y1160D02*
X8Y1160D01*
X1744Y1160D02*
X1751Y1160D01*
X1Y1159D02*
X8Y1159D01*
X1744Y1159D02*
X1751Y1159D01*
X1Y1158D02*
X8Y1158D01*
X1744Y1158D02*
X1751Y1158D01*
X1Y1157D02*
X8Y1157D01*
X1744Y1157D02*
X1751Y1157D01*
X1Y1156D02*
X8Y1156D01*
X1744Y1156D02*
X1751Y1156D01*
X1Y1155D02*
X8Y1155D01*
X1744Y1155D02*
X1751Y1155D01*
X1Y1154D02*
X8Y1154D01*
X1744Y1154D02*
X1751Y1154D01*
X1Y1153D02*
X8Y1153D01*
X1744Y1153D02*
X1751Y1153D01*
X1Y1152D02*
X8Y1152D01*
X1744Y1152D02*
X1751Y1152D01*
X1Y1151D02*
X8Y1151D01*
X1744Y1151D02*
X1751Y1151D01*
X1Y1150D02*
X8Y1150D01*
X1744Y1150D02*
X1751Y1150D01*
X1Y1149D02*
X8Y1149D01*
X1744Y1149D02*
X1751Y1149D01*
X1Y1148D02*
X8Y1148D01*
X1744Y1148D02*
X1751Y1148D01*
X1Y1147D02*
X8Y1147D01*
X1744Y1147D02*
X1751Y1147D01*
X1Y1146D02*
X8Y1146D01*
X1744Y1146D02*
X1751Y1146D01*
X1Y1145D02*
X8Y1145D01*
X1744Y1145D02*
X1751Y1145D01*
X1Y1144D02*
X8Y1144D01*
X1744Y1144D02*
X1751Y1144D01*
X1Y1143D02*
X8Y1143D01*
X1744Y1143D02*
X1751Y1143D01*
X1Y1142D02*
X8Y1142D01*
X1744Y1142D02*
X1751Y1142D01*
X1Y1141D02*
X8Y1141D01*
X1744Y1141D02*
X1751Y1141D01*
X1Y1140D02*
X8Y1140D01*
X1744Y1140D02*
X1751Y1140D01*
X1Y1139D02*
X8Y1139D01*
X1744Y1139D02*
X1751Y1139D01*
X1Y1138D02*
X8Y1138D01*
X1744Y1138D02*
X1751Y1138D01*
X1Y1137D02*
X8Y1137D01*
X1744Y1137D02*
X1751Y1137D01*
X1Y1136D02*
X8Y1136D01*
X1744Y1136D02*
X1751Y1136D01*
X1Y1135D02*
X8Y1135D01*
X1744Y1135D02*
X1751Y1135D01*
X1Y1134D02*
X8Y1134D01*
X1744Y1134D02*
X1751Y1134D01*
X1Y1133D02*
X8Y1133D01*
X1744Y1133D02*
X1751Y1133D01*
X1Y1132D02*
X8Y1132D01*
X1744Y1132D02*
X1751Y1132D01*
X1Y1131D02*
X8Y1131D01*
X1744Y1131D02*
X1751Y1131D01*
X1Y1130D02*
X8Y1130D01*
X1744Y1130D02*
X1751Y1130D01*
X1Y1129D02*
X8Y1129D01*
X1744Y1129D02*
X1751Y1129D01*
X1Y1128D02*
X8Y1128D01*
X1744Y1128D02*
X1751Y1128D01*
X1Y1127D02*
X8Y1127D01*
X1744Y1127D02*
X1751Y1127D01*
X1Y1126D02*
X8Y1126D01*
X1744Y1126D02*
X1751Y1126D01*
X1Y1125D02*
X8Y1125D01*
X1744Y1125D02*
X1751Y1125D01*
X1Y1124D02*
X8Y1124D01*
X1744Y1124D02*
X1751Y1124D01*
X1Y1123D02*
X8Y1123D01*
X1744Y1123D02*
X1751Y1123D01*
X1Y1122D02*
X8Y1122D01*
X1744Y1122D02*
X1751Y1122D01*
X1Y1121D02*
X8Y1121D01*
X1744Y1121D02*
X1751Y1121D01*
X1Y1120D02*
X8Y1120D01*
X1744Y1120D02*
X1751Y1120D01*
X1Y1119D02*
X8Y1119D01*
X1744Y1119D02*
X1751Y1119D01*
X1Y1118D02*
X8Y1118D01*
X1744Y1118D02*
X1751Y1118D01*
X1Y1117D02*
X8Y1117D01*
X1744Y1117D02*
X1751Y1117D01*
X1Y1116D02*
X8Y1116D01*
X1744Y1116D02*
X1751Y1116D01*
X1Y1115D02*
X8Y1115D01*
X1744Y1115D02*
X1751Y1115D01*
X1Y1114D02*
X8Y1114D01*
X1744Y1114D02*
X1751Y1114D01*
X1Y1113D02*
X8Y1113D01*
X1744Y1113D02*
X1751Y1113D01*
X1Y1112D02*
X8Y1112D01*
X1744Y1112D02*
X1751Y1112D01*
X1Y1111D02*
X8Y1111D01*
X1744Y1111D02*
X1751Y1111D01*
X1Y1110D02*
X8Y1110D01*
X1744Y1110D02*
X1751Y1110D01*
X1Y1109D02*
X8Y1109D01*
X1744Y1109D02*
X1751Y1109D01*
X1Y1108D02*
X8Y1108D01*
X1744Y1108D02*
X1751Y1108D01*
X1Y1107D02*
X8Y1107D01*
X1744Y1107D02*
X1751Y1107D01*
X1Y1106D02*
X8Y1106D01*
X1744Y1106D02*
X1751Y1106D01*
X1Y1105D02*
X8Y1105D01*
X1744Y1105D02*
X1751Y1105D01*
X1Y1104D02*
X8Y1104D01*
X1744Y1104D02*
X1751Y1104D01*
X1Y1103D02*
X8Y1103D01*
X1744Y1103D02*
X1751Y1103D01*
X1Y1102D02*
X8Y1102D01*
X1744Y1102D02*
X1751Y1102D01*
X1Y1101D02*
X8Y1101D01*
X1744Y1101D02*
X1751Y1101D01*
X1Y1100D02*
X8Y1100D01*
X1744Y1100D02*
X1751Y1100D01*
X1Y1099D02*
X8Y1099D01*
X1744Y1099D02*
X1751Y1099D01*
X1Y1098D02*
X8Y1098D01*
X1744Y1098D02*
X1751Y1098D01*
X1Y1097D02*
X8Y1097D01*
X1744Y1097D02*
X1751Y1097D01*
X1Y1096D02*
X8Y1096D01*
X1744Y1096D02*
X1751Y1096D01*
X1Y1095D02*
X8Y1095D01*
X1744Y1095D02*
X1751Y1095D01*
X1Y1094D02*
X8Y1094D01*
X1744Y1094D02*
X1751Y1094D01*
X1Y1093D02*
X8Y1093D01*
X1744Y1093D02*
X1751Y1093D01*
X1Y1092D02*
X8Y1092D01*
X1744Y1092D02*
X1751Y1092D01*
X1Y1091D02*
X8Y1091D01*
X1744Y1091D02*
X1751Y1091D01*
X1Y1090D02*
X8Y1090D01*
X1744Y1090D02*
X1751Y1090D01*
X1Y1089D02*
X8Y1089D01*
X1744Y1089D02*
X1751Y1089D01*
X1Y1088D02*
X8Y1088D01*
X1744Y1088D02*
X1751Y1088D01*
X1Y1087D02*
X8Y1087D01*
X1744Y1087D02*
X1751Y1087D01*
X1Y1086D02*
X8Y1086D01*
X1744Y1086D02*
X1751Y1086D01*
X1Y1085D02*
X8Y1085D01*
X1744Y1085D02*
X1751Y1085D01*
X1Y1084D02*
X8Y1084D01*
X1744Y1084D02*
X1751Y1084D01*
X1Y1083D02*
X8Y1083D01*
X1744Y1083D02*
X1751Y1083D01*
X1Y1082D02*
X8Y1082D01*
X1744Y1082D02*
X1751Y1082D01*
X1Y1081D02*
X8Y1081D01*
X1744Y1081D02*
X1751Y1081D01*
X1Y1080D02*
X8Y1080D01*
X1744Y1080D02*
X1751Y1080D01*
X1Y1079D02*
X8Y1079D01*
X1744Y1079D02*
X1751Y1079D01*
X1Y1078D02*
X8Y1078D01*
X1744Y1078D02*
X1751Y1078D01*
X1Y1077D02*
X8Y1077D01*
X1744Y1077D02*
X1751Y1077D01*
X1Y1076D02*
X8Y1076D01*
X1744Y1076D02*
X1751Y1076D01*
X1Y1075D02*
X8Y1075D01*
X1744Y1075D02*
X1751Y1075D01*
X1Y1074D02*
X8Y1074D01*
X1744Y1074D02*
X1751Y1074D01*
X1Y1073D02*
X8Y1073D01*
X1744Y1073D02*
X1751Y1073D01*
X1Y1072D02*
X8Y1072D01*
X1744Y1072D02*
X1751Y1072D01*
X1Y1071D02*
X8Y1071D01*
X1744Y1071D02*
X1751Y1071D01*
X1Y1070D02*
X8Y1070D01*
X1744Y1070D02*
X1751Y1070D01*
X1Y1069D02*
X8Y1069D01*
X1744Y1069D02*
X1751Y1069D01*
X1Y1068D02*
X8Y1068D01*
X1744Y1068D02*
X1751Y1068D01*
X1Y1067D02*
X8Y1067D01*
X1744Y1067D02*
X1751Y1067D01*
X1Y1066D02*
X8Y1066D01*
X1744Y1066D02*
X1751Y1066D01*
X1Y1065D02*
X8Y1065D01*
X1744Y1065D02*
X1751Y1065D01*
X1Y1064D02*
X8Y1064D01*
X1744Y1064D02*
X1751Y1064D01*
X1Y1063D02*
X8Y1063D01*
X1744Y1063D02*
X1751Y1063D01*
X1Y1062D02*
X8Y1062D01*
X1744Y1062D02*
X1751Y1062D01*
X1Y1061D02*
X8Y1061D01*
X1744Y1061D02*
X1751Y1061D01*
X1Y1060D02*
X8Y1060D01*
X1744Y1060D02*
X1751Y1060D01*
X1Y1059D02*
X8Y1059D01*
X1744Y1059D02*
X1751Y1059D01*
X1Y1058D02*
X8Y1058D01*
X1744Y1058D02*
X1751Y1058D01*
X1Y1057D02*
X8Y1057D01*
X1744Y1057D02*
X1751Y1057D01*
X1Y1056D02*
X8Y1056D01*
X1744Y1056D02*
X1751Y1056D01*
X1Y1055D02*
X8Y1055D01*
X1744Y1055D02*
X1751Y1055D01*
X1Y1054D02*
X8Y1054D01*
X1744Y1054D02*
X1751Y1054D01*
X1Y1053D02*
X8Y1053D01*
X1744Y1053D02*
X1751Y1053D01*
X1Y1052D02*
X8Y1052D01*
X1744Y1052D02*
X1751Y1052D01*
X1Y1051D02*
X8Y1051D01*
X1744Y1051D02*
X1751Y1051D01*
X1Y1050D02*
X8Y1050D01*
X1744Y1050D02*
X1751Y1050D01*
X1Y1049D02*
X8Y1049D01*
X1744Y1049D02*
X1751Y1049D01*
X1Y1048D02*
X8Y1048D01*
X1744Y1048D02*
X1751Y1048D01*
X1Y1047D02*
X8Y1047D01*
X1744Y1047D02*
X1751Y1047D01*
X1Y1046D02*
X8Y1046D01*
X1744Y1046D02*
X1751Y1046D01*
X1Y1045D02*
X8Y1045D01*
X1744Y1045D02*
X1751Y1045D01*
X1Y1044D02*
X8Y1044D01*
X1744Y1044D02*
X1751Y1044D01*
X1Y1043D02*
X8Y1043D01*
X1744Y1043D02*
X1751Y1043D01*
X1Y1042D02*
X8Y1042D01*
X1744Y1042D02*
X1751Y1042D01*
X1Y1041D02*
X8Y1041D01*
X1744Y1041D02*
X1751Y1041D01*
X1Y1040D02*
X8Y1040D01*
X1744Y1040D02*
X1751Y1040D01*
X1Y1039D02*
X8Y1039D01*
X1744Y1039D02*
X1751Y1039D01*
X1Y1038D02*
X8Y1038D01*
X1744Y1038D02*
X1751Y1038D01*
X1Y1037D02*
X8Y1037D01*
X1744Y1037D02*
X1751Y1037D01*
X1Y1036D02*
X8Y1036D01*
X1744Y1036D02*
X1751Y1036D01*
X1Y1035D02*
X8Y1035D01*
X1744Y1035D02*
X1751Y1035D01*
X1Y1034D02*
X8Y1034D01*
X1744Y1034D02*
X1751Y1034D01*
X1Y1033D02*
X8Y1033D01*
X1744Y1033D02*
X1751Y1033D01*
X1Y1032D02*
X8Y1032D01*
X1744Y1032D02*
X1751Y1032D01*
X1Y1031D02*
X8Y1031D01*
X1744Y1031D02*
X1751Y1031D01*
X1Y1030D02*
X8Y1030D01*
X1744Y1030D02*
X1751Y1030D01*
X1Y1029D02*
X8Y1029D01*
X1744Y1029D02*
X1751Y1029D01*
X1Y1028D02*
X8Y1028D01*
X1744Y1028D02*
X1751Y1028D01*
X1Y1027D02*
X8Y1027D01*
X1744Y1027D02*
X1751Y1027D01*
X1Y1026D02*
X8Y1026D01*
X1744Y1026D02*
X1751Y1026D01*
X1Y1025D02*
X8Y1025D01*
X1744Y1025D02*
X1751Y1025D01*
X1Y1024D02*
X8Y1024D01*
X1744Y1024D02*
X1751Y1024D01*
X1Y1023D02*
X8Y1023D01*
X1744Y1023D02*
X1751Y1023D01*
X1Y1022D02*
X8Y1022D01*
X1744Y1022D02*
X1751Y1022D01*
X1Y1021D02*
X8Y1021D01*
X1744Y1021D02*
X1751Y1021D01*
X1Y1020D02*
X8Y1020D01*
X1744Y1020D02*
X1751Y1020D01*
X1Y1019D02*
X8Y1019D01*
X1744Y1019D02*
X1751Y1019D01*
X1Y1018D02*
X8Y1018D01*
X1744Y1018D02*
X1751Y1018D01*
X1Y1017D02*
X8Y1017D01*
X1744Y1017D02*
X1751Y1017D01*
X1Y1016D02*
X8Y1016D01*
X1744Y1016D02*
X1751Y1016D01*
X1Y1015D02*
X8Y1015D01*
X1744Y1015D02*
X1751Y1015D01*
X1Y1014D02*
X8Y1014D01*
X1744Y1014D02*
X1751Y1014D01*
X1Y1013D02*
X8Y1013D01*
X1744Y1013D02*
X1751Y1013D01*
X1Y1012D02*
X8Y1012D01*
X1744Y1012D02*
X1751Y1012D01*
X1Y1011D02*
X8Y1011D01*
X1744Y1011D02*
X1751Y1011D01*
X1Y1010D02*
X8Y1010D01*
X1744Y1010D02*
X1751Y1010D01*
X1Y1009D02*
X8Y1009D01*
X1744Y1009D02*
X1751Y1009D01*
X1Y1008D02*
X8Y1008D01*
X1744Y1008D02*
X1751Y1008D01*
X1Y1007D02*
X8Y1007D01*
X1744Y1007D02*
X1751Y1007D01*
X1Y1006D02*
X8Y1006D01*
X1744Y1006D02*
X1751Y1006D01*
X1Y1005D02*
X8Y1005D01*
X1744Y1005D02*
X1751Y1005D01*
X1Y1004D02*
X8Y1004D01*
X1744Y1004D02*
X1751Y1004D01*
X1Y1003D02*
X8Y1003D01*
X1744Y1003D02*
X1751Y1003D01*
X1Y1002D02*
X8Y1002D01*
X1744Y1002D02*
X1751Y1002D01*
X1Y1001D02*
X8Y1001D01*
X1744Y1001D02*
X1751Y1001D01*
X1Y1000D02*
X8Y1000D01*
X1744Y1000D02*
X1751Y1000D01*
X1Y999D02*
X8Y999D01*
X1744Y999D02*
X1751Y999D01*
X1Y998D02*
X8Y998D01*
X1744Y998D02*
X1751Y998D01*
X1Y997D02*
X8Y997D01*
X1744Y997D02*
X1751Y997D01*
X1Y996D02*
X8Y996D01*
X1744Y996D02*
X1751Y996D01*
X1Y995D02*
X8Y995D01*
X1744Y995D02*
X1751Y995D01*
X1Y994D02*
X8Y994D01*
X1744Y994D02*
X1751Y994D01*
X1Y993D02*
X8Y993D01*
X1744Y993D02*
X1751Y993D01*
X1Y992D02*
X8Y992D01*
X1744Y992D02*
X1751Y992D01*
X1Y991D02*
X8Y991D01*
X1744Y991D02*
X1751Y991D01*
X1Y990D02*
X8Y990D01*
X1744Y990D02*
X1751Y990D01*
X1Y989D02*
X8Y989D01*
X1744Y989D02*
X1751Y989D01*
X1Y988D02*
X8Y988D01*
X1744Y988D02*
X1751Y988D01*
X1Y987D02*
X8Y987D01*
X1744Y987D02*
X1751Y987D01*
X1Y986D02*
X8Y986D01*
X1744Y986D02*
X1751Y986D01*
X1Y985D02*
X8Y985D01*
X1744Y985D02*
X1751Y985D01*
X1Y984D02*
X8Y984D01*
X1744Y984D02*
X1751Y984D01*
X1Y983D02*
X8Y983D01*
X1744Y983D02*
X1751Y983D01*
X1Y982D02*
X8Y982D01*
X1744Y982D02*
X1751Y982D01*
X1Y981D02*
X8Y981D01*
X1744Y981D02*
X1751Y981D01*
X1Y980D02*
X8Y980D01*
X1744Y980D02*
X1751Y980D01*
X1Y979D02*
X8Y979D01*
X1744Y979D02*
X1751Y979D01*
X1Y978D02*
X8Y978D01*
X1744Y978D02*
X1751Y978D01*
X1Y977D02*
X8Y977D01*
X1744Y977D02*
X1751Y977D01*
X1Y976D02*
X8Y976D01*
X1744Y976D02*
X1751Y976D01*
X1Y975D02*
X8Y975D01*
X1744Y975D02*
X1751Y975D01*
X1Y974D02*
X8Y974D01*
X1744Y974D02*
X1751Y974D01*
X1Y973D02*
X8Y973D01*
X1744Y973D02*
X1751Y973D01*
X1Y972D02*
X8Y972D01*
X1744Y972D02*
X1751Y972D01*
X1Y971D02*
X8Y971D01*
X1744Y971D02*
X1751Y971D01*
X1Y970D02*
X8Y970D01*
X1744Y970D02*
X1751Y970D01*
X1Y969D02*
X8Y969D01*
X1744Y969D02*
X1751Y969D01*
X1Y968D02*
X8Y968D01*
X1744Y968D02*
X1751Y968D01*
X1Y967D02*
X8Y967D01*
X1744Y967D02*
X1751Y967D01*
X1Y966D02*
X8Y966D01*
X1744Y966D02*
X1751Y966D01*
X1Y965D02*
X8Y965D01*
X1744Y965D02*
X1751Y965D01*
X1Y964D02*
X8Y964D01*
X1744Y964D02*
X1751Y964D01*
X1Y963D02*
X8Y963D01*
X1744Y963D02*
X1751Y963D01*
X1Y962D02*
X8Y962D01*
X1744Y962D02*
X1751Y962D01*
X1Y961D02*
X8Y961D01*
X1744Y961D02*
X1751Y961D01*
X1Y960D02*
X8Y960D01*
X1744Y960D02*
X1751Y960D01*
X1Y959D02*
X8Y959D01*
X1744Y959D02*
X1751Y959D01*
X1Y958D02*
X8Y958D01*
X1744Y958D02*
X1751Y958D01*
X1Y957D02*
X8Y957D01*
X1744Y957D02*
X1751Y957D01*
X1Y956D02*
X8Y956D01*
X1744Y956D02*
X1751Y956D01*
X1Y955D02*
X8Y955D01*
X1744Y955D02*
X1751Y955D01*
X1Y954D02*
X8Y954D01*
X1744Y954D02*
X1751Y954D01*
X1Y953D02*
X8Y953D01*
X1744Y953D02*
X1751Y953D01*
X1Y952D02*
X8Y952D01*
X1744Y952D02*
X1751Y952D01*
X1Y951D02*
X8Y951D01*
X1744Y951D02*
X1751Y951D01*
X1Y950D02*
X8Y950D01*
X1744Y950D02*
X1751Y950D01*
X1Y949D02*
X8Y949D01*
X1744Y949D02*
X1751Y949D01*
X1Y948D02*
X8Y948D01*
X1744Y948D02*
X1751Y948D01*
X1Y947D02*
X8Y947D01*
X1744Y947D02*
X1751Y947D01*
X1Y946D02*
X8Y946D01*
X1744Y946D02*
X1751Y946D01*
X1Y945D02*
X8Y945D01*
X1744Y945D02*
X1751Y945D01*
X1Y944D02*
X8Y944D01*
X1744Y944D02*
X1751Y944D01*
X1Y943D02*
X8Y943D01*
X1744Y943D02*
X1751Y943D01*
X1Y942D02*
X8Y942D01*
X1744Y942D02*
X1751Y942D01*
X1Y941D02*
X8Y941D01*
X1744Y941D02*
X1751Y941D01*
X1Y940D02*
X8Y940D01*
X1744Y940D02*
X1751Y940D01*
X1Y939D02*
X8Y939D01*
X1744Y939D02*
X1751Y939D01*
X1Y938D02*
X8Y938D01*
X1744Y938D02*
X1751Y938D01*
X1Y937D02*
X8Y937D01*
X1744Y937D02*
X1751Y937D01*
X1Y936D02*
X8Y936D01*
X1744Y936D02*
X1751Y936D01*
X1Y935D02*
X8Y935D01*
X1744Y935D02*
X1751Y935D01*
X1Y934D02*
X8Y934D01*
X1744Y934D02*
X1751Y934D01*
X1Y933D02*
X8Y933D01*
X1744Y933D02*
X1751Y933D01*
X1Y932D02*
X8Y932D01*
X1744Y932D02*
X1751Y932D01*
X1Y931D02*
X8Y931D01*
X1744Y931D02*
X1751Y931D01*
X1Y930D02*
X8Y930D01*
X1744Y930D02*
X1751Y930D01*
X1Y929D02*
X8Y929D01*
X1744Y929D02*
X1751Y929D01*
X1Y928D02*
X8Y928D01*
X1744Y928D02*
X1751Y928D01*
X1Y927D02*
X8Y927D01*
X1744Y927D02*
X1751Y927D01*
X1Y926D02*
X8Y926D01*
X1744Y926D02*
X1751Y926D01*
X1Y925D02*
X8Y925D01*
X1744Y925D02*
X1751Y925D01*
X1Y924D02*
X8Y924D01*
X1744Y924D02*
X1751Y924D01*
X1Y923D02*
X8Y923D01*
X1744Y923D02*
X1751Y923D01*
X1Y922D02*
X8Y922D01*
X1744Y922D02*
X1751Y922D01*
X1Y921D02*
X8Y921D01*
X1744Y921D02*
X1751Y921D01*
X1Y920D02*
X8Y920D01*
X1744Y920D02*
X1751Y920D01*
X1Y919D02*
X8Y919D01*
X1744Y919D02*
X1751Y919D01*
X1Y918D02*
X8Y918D01*
X1744Y918D02*
X1751Y918D01*
X1Y917D02*
X8Y917D01*
X1744Y917D02*
X1751Y917D01*
X1Y916D02*
X8Y916D01*
X1744Y916D02*
X1751Y916D01*
X1Y915D02*
X8Y915D01*
X1744Y915D02*
X1751Y915D01*
X1Y914D02*
X8Y914D01*
X1744Y914D02*
X1751Y914D01*
X1Y913D02*
X8Y913D01*
X1744Y913D02*
X1751Y913D01*
X1Y912D02*
X8Y912D01*
X1744Y912D02*
X1751Y912D01*
X1Y911D02*
X8Y911D01*
X1744Y911D02*
X1751Y911D01*
X1Y910D02*
X8Y910D01*
X1744Y910D02*
X1751Y910D01*
X1Y909D02*
X8Y909D01*
X1744Y909D02*
X1751Y909D01*
X1Y908D02*
X8Y908D01*
X1744Y908D02*
X1751Y908D01*
X1Y907D02*
X8Y907D01*
X1744Y907D02*
X1751Y907D01*
X1Y906D02*
X8Y906D01*
X1744Y906D02*
X1751Y906D01*
X1Y905D02*
X8Y905D01*
X1744Y905D02*
X1751Y905D01*
X1Y904D02*
X8Y904D01*
X1744Y904D02*
X1751Y904D01*
X1Y903D02*
X8Y903D01*
X1744Y903D02*
X1751Y903D01*
X1Y902D02*
X8Y902D01*
X1744Y902D02*
X1751Y902D01*
X1Y901D02*
X8Y901D01*
X1744Y901D02*
X1751Y901D01*
X1Y900D02*
X8Y900D01*
X1744Y900D02*
X1751Y900D01*
X1Y899D02*
X8Y899D01*
X1744Y899D02*
X1751Y899D01*
X1Y898D02*
X8Y898D01*
X1744Y898D02*
X1751Y898D01*
X1Y897D02*
X8Y897D01*
X1744Y897D02*
X1751Y897D01*
X1Y896D02*
X8Y896D01*
X1744Y896D02*
X1751Y896D01*
X1Y895D02*
X8Y895D01*
X1744Y895D02*
X1751Y895D01*
X1Y894D02*
X8Y894D01*
X1744Y894D02*
X1751Y894D01*
X1Y893D02*
X8Y893D01*
X1744Y893D02*
X1751Y893D01*
X1Y892D02*
X8Y892D01*
X1744Y892D02*
X1751Y892D01*
X1Y891D02*
X8Y891D01*
X1744Y891D02*
X1751Y891D01*
X1Y890D02*
X8Y890D01*
X1744Y890D02*
X1751Y890D01*
X1Y889D02*
X8Y889D01*
X1744Y889D02*
X1751Y889D01*
X1Y888D02*
X8Y888D01*
X1744Y888D02*
X1751Y888D01*
X1Y887D02*
X8Y887D01*
X1744Y887D02*
X1751Y887D01*
X1Y886D02*
X8Y886D01*
X1744Y886D02*
X1751Y886D01*
X1Y885D02*
X8Y885D01*
X1744Y885D02*
X1751Y885D01*
X1Y884D02*
X8Y884D01*
X1744Y884D02*
X1751Y884D01*
X1Y883D02*
X8Y883D01*
X1744Y883D02*
X1751Y883D01*
X1Y882D02*
X8Y882D01*
X1744Y882D02*
X1751Y882D01*
X1Y881D02*
X8Y881D01*
X1744Y881D02*
X1751Y881D01*
X1Y880D02*
X8Y880D01*
X1744Y880D02*
X1751Y880D01*
X1Y879D02*
X8Y879D01*
X1744Y879D02*
X1751Y879D01*
X1Y878D02*
X8Y878D01*
X1744Y878D02*
X1751Y878D01*
X1Y877D02*
X8Y877D01*
X1744Y877D02*
X1751Y877D01*
X1Y876D02*
X8Y876D01*
X1744Y876D02*
X1751Y876D01*
X1Y875D02*
X8Y875D01*
X1744Y875D02*
X1751Y875D01*
X1Y874D02*
X8Y874D01*
X1744Y874D02*
X1751Y874D01*
X1Y873D02*
X8Y873D01*
X1744Y873D02*
X1751Y873D01*
X1Y872D02*
X8Y872D01*
X1744Y872D02*
X1751Y872D01*
X1Y871D02*
X8Y871D01*
X1744Y871D02*
X1751Y871D01*
X1Y870D02*
X8Y870D01*
X1744Y870D02*
X1751Y870D01*
X1Y869D02*
X8Y869D01*
X1744Y869D02*
X1751Y869D01*
X1Y868D02*
X8Y868D01*
X1744Y868D02*
X1751Y868D01*
X1Y867D02*
X8Y867D01*
X1744Y867D02*
X1751Y867D01*
X1Y866D02*
X8Y866D01*
X1744Y866D02*
X1751Y866D01*
X1Y865D02*
X8Y865D01*
X1744Y865D02*
X1751Y865D01*
X1Y864D02*
X8Y864D01*
X1744Y864D02*
X1751Y864D01*
X1Y863D02*
X8Y863D01*
X1744Y863D02*
X1751Y863D01*
X1Y862D02*
X8Y862D01*
X1744Y862D02*
X1751Y862D01*
X1Y861D02*
X8Y861D01*
X1744Y861D02*
X1751Y861D01*
X1Y860D02*
X8Y860D01*
X1744Y860D02*
X1751Y860D01*
X1Y859D02*
X8Y859D01*
X1744Y859D02*
X1751Y859D01*
X1Y858D02*
X8Y858D01*
X1744Y858D02*
X1751Y858D01*
X1Y857D02*
X8Y857D01*
X1744Y857D02*
X1751Y857D01*
X1Y856D02*
X8Y856D01*
X1744Y856D02*
X1751Y856D01*
X1Y855D02*
X8Y855D01*
X1744Y855D02*
X1751Y855D01*
X1Y854D02*
X8Y854D01*
X1744Y854D02*
X1751Y854D01*
X1Y853D02*
X8Y853D01*
X1744Y853D02*
X1751Y853D01*
X1Y852D02*
X8Y852D01*
X1744Y852D02*
X1751Y852D01*
X1Y851D02*
X8Y851D01*
X1744Y851D02*
X1751Y851D01*
X1Y850D02*
X8Y850D01*
X1744Y850D02*
X1751Y850D01*
X1Y849D02*
X8Y849D01*
X1744Y849D02*
X1751Y849D01*
X1Y848D02*
X8Y848D01*
X1744Y848D02*
X1751Y848D01*
X1Y847D02*
X8Y847D01*
X1744Y847D02*
X1751Y847D01*
X1Y846D02*
X8Y846D01*
X1744Y846D02*
X1751Y846D01*
X1Y845D02*
X8Y845D01*
X1744Y845D02*
X1751Y845D01*
X1Y844D02*
X8Y844D01*
X1744Y844D02*
X1751Y844D01*
X1Y843D02*
X8Y843D01*
X1744Y843D02*
X1751Y843D01*
X1Y842D02*
X8Y842D01*
X1744Y842D02*
X1751Y842D01*
X1Y841D02*
X8Y841D01*
X1744Y841D02*
X1751Y841D01*
X1Y840D02*
X8Y840D01*
X1744Y840D02*
X1751Y840D01*
X1Y839D02*
X8Y839D01*
X1744Y839D02*
X1751Y839D01*
X1Y838D02*
X8Y838D01*
X1744Y838D02*
X1751Y838D01*
X1Y837D02*
X8Y837D01*
X1744Y837D02*
X1751Y837D01*
X1Y836D02*
X8Y836D01*
X1744Y836D02*
X1751Y836D01*
X1Y835D02*
X8Y835D01*
X1744Y835D02*
X1751Y835D01*
X1Y834D02*
X8Y834D01*
X1744Y834D02*
X1751Y834D01*
X1Y833D02*
X8Y833D01*
X1744Y833D02*
X1751Y833D01*
X1Y832D02*
X8Y832D01*
X1744Y832D02*
X1751Y832D01*
X1Y831D02*
X8Y831D01*
X1744Y831D02*
X1751Y831D01*
X1Y830D02*
X8Y830D01*
X1744Y830D02*
X1751Y830D01*
X1Y829D02*
X8Y829D01*
X1744Y829D02*
X1751Y829D01*
X1Y828D02*
X8Y828D01*
X1744Y828D02*
X1751Y828D01*
X1Y827D02*
X8Y827D01*
X1744Y827D02*
X1751Y827D01*
X1Y826D02*
X8Y826D01*
X1744Y826D02*
X1751Y826D01*
X1Y825D02*
X8Y825D01*
X1744Y825D02*
X1751Y825D01*
X1Y824D02*
X8Y824D01*
X1744Y824D02*
X1751Y824D01*
X1Y823D02*
X8Y823D01*
X1744Y823D02*
X1751Y823D01*
X1Y822D02*
X8Y822D01*
X1744Y822D02*
X1751Y822D01*
X1Y821D02*
X8Y821D01*
X1744Y821D02*
X1751Y821D01*
X1Y820D02*
X8Y820D01*
X1744Y820D02*
X1751Y820D01*
X1Y819D02*
X8Y819D01*
X1744Y819D02*
X1751Y819D01*
X1Y818D02*
X8Y818D01*
X1744Y818D02*
X1751Y818D01*
X1Y817D02*
X8Y817D01*
X1744Y817D02*
X1751Y817D01*
X1Y816D02*
X8Y816D01*
X1744Y816D02*
X1751Y816D01*
X1Y815D02*
X8Y815D01*
X1744Y815D02*
X1751Y815D01*
X1Y814D02*
X8Y814D01*
X1744Y814D02*
X1751Y814D01*
X1Y813D02*
X8Y813D01*
X1744Y813D02*
X1751Y813D01*
X1Y812D02*
X8Y812D01*
X1744Y812D02*
X1751Y812D01*
X1Y811D02*
X8Y811D01*
X1744Y811D02*
X1751Y811D01*
X1Y810D02*
X8Y810D01*
X1744Y810D02*
X1751Y810D01*
X1Y809D02*
X8Y809D01*
X1744Y809D02*
X1751Y809D01*
X1Y808D02*
X8Y808D01*
X1744Y808D02*
X1751Y808D01*
X1Y807D02*
X8Y807D01*
X1744Y807D02*
X1751Y807D01*
X1Y806D02*
X8Y806D01*
X1744Y806D02*
X1751Y806D01*
X1Y805D02*
X8Y805D01*
X1744Y805D02*
X1751Y805D01*
X1Y804D02*
X8Y804D01*
X1744Y804D02*
X1751Y804D01*
X1Y803D02*
X8Y803D01*
X1744Y803D02*
X1751Y803D01*
X1Y802D02*
X8Y802D01*
X1744Y802D02*
X1751Y802D01*
X1Y801D02*
X8Y801D01*
X1744Y801D02*
X1751Y801D01*
X1Y800D02*
X8Y800D01*
X1744Y800D02*
X1751Y800D01*
X1Y799D02*
X8Y799D01*
X1744Y799D02*
X1751Y799D01*
X1Y798D02*
X8Y798D01*
X1744Y798D02*
X1751Y798D01*
X1Y797D02*
X8Y797D01*
X1744Y797D02*
X1751Y797D01*
X1Y796D02*
X8Y796D01*
X1744Y796D02*
X1751Y796D01*
X1Y795D02*
X8Y795D01*
X1744Y795D02*
X1751Y795D01*
X1Y794D02*
X8Y794D01*
X1744Y794D02*
X1751Y794D01*
X1Y793D02*
X8Y793D01*
X1744Y793D02*
X1751Y793D01*
X1Y792D02*
X8Y792D01*
X1744Y792D02*
X1751Y792D01*
X1Y791D02*
X8Y791D01*
X1744Y791D02*
X1751Y791D01*
X1Y790D02*
X8Y790D01*
X1744Y790D02*
X1751Y790D01*
X1Y789D02*
X8Y789D01*
X1744Y789D02*
X1751Y789D01*
X1Y788D02*
X8Y788D01*
X1744Y788D02*
X1751Y788D01*
X1Y787D02*
X8Y787D01*
X1744Y787D02*
X1751Y787D01*
X1Y786D02*
X8Y786D01*
X1744Y786D02*
X1751Y786D01*
X1Y785D02*
X8Y785D01*
X1744Y785D02*
X1751Y785D01*
X1Y784D02*
X8Y784D01*
X1744Y784D02*
X1751Y784D01*
X1Y783D02*
X8Y783D01*
X1744Y783D02*
X1751Y783D01*
X1Y782D02*
X8Y782D01*
X1744Y782D02*
X1751Y782D01*
X1Y781D02*
X8Y781D01*
X1744Y781D02*
X1751Y781D01*
X1Y780D02*
X8Y780D01*
X1744Y780D02*
X1751Y780D01*
X1Y779D02*
X8Y779D01*
X1744Y779D02*
X1751Y779D01*
X1Y778D02*
X8Y778D01*
X1744Y778D02*
X1751Y778D01*
X1Y777D02*
X8Y777D01*
X1744Y777D02*
X1751Y777D01*
X1Y776D02*
X8Y776D01*
X1744Y776D02*
X1751Y776D01*
X1Y775D02*
X8Y775D01*
X1744Y775D02*
X1751Y775D01*
X1Y774D02*
X8Y774D01*
X1744Y774D02*
X1751Y774D01*
X1Y773D02*
X8Y773D01*
X1744Y773D02*
X1751Y773D01*
X1Y772D02*
X8Y772D01*
X1744Y772D02*
X1751Y772D01*
X1Y771D02*
X8Y771D01*
X1744Y771D02*
X1751Y771D01*
X1Y770D02*
X8Y770D01*
X1744Y770D02*
X1751Y770D01*
X1Y769D02*
X8Y769D01*
X1744Y769D02*
X1751Y769D01*
X1Y768D02*
X8Y768D01*
X1744Y768D02*
X1751Y768D01*
X1Y767D02*
X8Y767D01*
X1744Y767D02*
X1751Y767D01*
X1Y766D02*
X8Y766D01*
X1744Y766D02*
X1751Y766D01*
X1Y765D02*
X8Y765D01*
X1744Y765D02*
X1751Y765D01*
X1Y764D02*
X8Y764D01*
X1744Y764D02*
X1751Y764D01*
X1Y763D02*
X8Y763D01*
X1744Y763D02*
X1751Y763D01*
X1Y762D02*
X8Y762D01*
X1744Y762D02*
X1751Y762D01*
X1Y761D02*
X8Y761D01*
X1744Y761D02*
X1751Y761D01*
X1Y760D02*
X8Y760D01*
X1744Y760D02*
X1751Y760D01*
X1Y759D02*
X8Y759D01*
X1744Y759D02*
X1751Y759D01*
X1Y758D02*
X8Y758D01*
X1744Y758D02*
X1751Y758D01*
X1Y757D02*
X8Y757D01*
X1744Y757D02*
X1751Y757D01*
X1Y756D02*
X8Y756D01*
X1744Y756D02*
X1751Y756D01*
X1Y755D02*
X8Y755D01*
X1744Y755D02*
X1751Y755D01*
X1Y754D02*
X8Y754D01*
X1744Y754D02*
X1751Y754D01*
X1Y753D02*
X8Y753D01*
X1744Y753D02*
X1751Y753D01*
X1Y752D02*
X8Y752D01*
X1744Y752D02*
X1751Y752D01*
X1Y751D02*
X8Y751D01*
X1744Y751D02*
X1751Y751D01*
X1Y750D02*
X8Y750D01*
X1744Y750D02*
X1751Y750D01*
X1Y749D02*
X8Y749D01*
X1744Y749D02*
X1751Y749D01*
X1Y748D02*
X8Y748D01*
X1744Y748D02*
X1751Y748D01*
X1Y747D02*
X8Y747D01*
X1744Y747D02*
X1751Y747D01*
X1Y746D02*
X8Y746D01*
X1744Y746D02*
X1751Y746D01*
X1Y745D02*
X8Y745D01*
X1744Y745D02*
X1751Y745D01*
X1Y744D02*
X8Y744D01*
X1744Y744D02*
X1751Y744D01*
X1Y743D02*
X8Y743D01*
X1744Y743D02*
X1751Y743D01*
X1Y742D02*
X8Y742D01*
X1744Y742D02*
X1751Y742D01*
X1Y741D02*
X8Y741D01*
X1744Y741D02*
X1751Y741D01*
X1Y740D02*
X8Y740D01*
X1744Y740D02*
X1751Y740D01*
X1Y739D02*
X8Y739D01*
X1744Y739D02*
X1751Y739D01*
X1Y738D02*
X8Y738D01*
X1744Y738D02*
X1751Y738D01*
X1Y737D02*
X8Y737D01*
X1744Y737D02*
X1751Y737D01*
X1Y736D02*
X8Y736D01*
X1744Y736D02*
X1751Y736D01*
X1Y735D02*
X8Y735D01*
X1744Y735D02*
X1751Y735D01*
X1Y734D02*
X8Y734D01*
X1744Y734D02*
X1751Y734D01*
X1Y733D02*
X8Y733D01*
X1744Y733D02*
X1751Y733D01*
X1Y732D02*
X8Y732D01*
X1744Y732D02*
X1751Y732D01*
X1Y731D02*
X8Y731D01*
X1744Y731D02*
X1751Y731D01*
X1Y730D02*
X8Y730D01*
X1744Y730D02*
X1751Y730D01*
X1Y729D02*
X8Y729D01*
X1744Y729D02*
X1751Y729D01*
X1Y728D02*
X8Y728D01*
X1744Y728D02*
X1751Y728D01*
X1Y727D02*
X8Y727D01*
X1744Y727D02*
X1751Y727D01*
X1Y726D02*
X8Y726D01*
X1744Y726D02*
X1751Y726D01*
X1Y725D02*
X8Y725D01*
X1744Y725D02*
X1751Y725D01*
X1Y724D02*
X8Y724D01*
X1744Y724D02*
X1751Y724D01*
X1Y723D02*
X8Y723D01*
X1744Y723D02*
X1751Y723D01*
X1Y722D02*
X8Y722D01*
X1744Y722D02*
X1751Y722D01*
X1Y721D02*
X8Y721D01*
X1744Y721D02*
X1751Y721D01*
X1Y720D02*
X8Y720D01*
X1744Y720D02*
X1751Y720D01*
X1Y719D02*
X8Y719D01*
X1744Y719D02*
X1751Y719D01*
X1Y718D02*
X8Y718D01*
X1744Y718D02*
X1751Y718D01*
X1Y717D02*
X8Y717D01*
X1744Y717D02*
X1751Y717D01*
X1Y716D02*
X8Y716D01*
X1744Y716D02*
X1751Y716D01*
X1Y715D02*
X8Y715D01*
X1744Y715D02*
X1751Y715D01*
X1Y714D02*
X8Y714D01*
X1744Y714D02*
X1751Y714D01*
X1Y713D02*
X8Y713D01*
X1744Y713D02*
X1751Y713D01*
X1Y712D02*
X8Y712D01*
X1744Y712D02*
X1751Y712D01*
X1Y711D02*
X8Y711D01*
X1744Y711D02*
X1751Y711D01*
X1Y710D02*
X8Y710D01*
X1744Y710D02*
X1751Y710D01*
X1Y709D02*
X8Y709D01*
X1744Y709D02*
X1751Y709D01*
X1Y708D02*
X8Y708D01*
X1744Y708D02*
X1751Y708D01*
X1Y707D02*
X8Y707D01*
X1744Y707D02*
X1751Y707D01*
X1Y706D02*
X8Y706D01*
X1744Y706D02*
X1751Y706D01*
X1Y705D02*
X8Y705D01*
X1744Y705D02*
X1751Y705D01*
X1Y704D02*
X8Y704D01*
X1744Y704D02*
X1751Y704D01*
X1Y703D02*
X8Y703D01*
X1744Y703D02*
X1751Y703D01*
X1Y702D02*
X8Y702D01*
X1744Y702D02*
X1751Y702D01*
X1Y701D02*
X8Y701D01*
X1744Y701D02*
X1751Y701D01*
X1Y700D02*
X8Y700D01*
X1744Y700D02*
X1751Y700D01*
X1Y699D02*
X8Y699D01*
X1744Y699D02*
X1751Y699D01*
X1Y698D02*
X8Y698D01*
X1744Y698D02*
X1751Y698D01*
X1Y697D02*
X8Y697D01*
X1744Y697D02*
X1751Y697D01*
X1Y696D02*
X8Y696D01*
X1744Y696D02*
X1751Y696D01*
X1Y695D02*
X8Y695D01*
X1744Y695D02*
X1751Y695D01*
X1Y694D02*
X8Y694D01*
X1744Y694D02*
X1751Y694D01*
X1Y693D02*
X8Y693D01*
X1744Y693D02*
X1751Y693D01*
X1Y692D02*
X8Y692D01*
X1744Y692D02*
X1751Y692D01*
X1Y691D02*
X8Y691D01*
X1744Y691D02*
X1751Y691D01*
X1Y690D02*
X8Y690D01*
X1744Y690D02*
X1751Y690D01*
X1Y689D02*
X8Y689D01*
X1744Y689D02*
X1751Y689D01*
X1Y688D02*
X8Y688D01*
X1744Y688D02*
X1751Y688D01*
X1Y687D02*
X8Y687D01*
X1744Y687D02*
X1751Y687D01*
X1Y686D02*
X8Y686D01*
X1744Y686D02*
X1751Y686D01*
X1Y685D02*
X8Y685D01*
X1744Y685D02*
X1751Y685D01*
X1Y684D02*
X8Y684D01*
X1744Y684D02*
X1751Y684D01*
X1Y683D02*
X8Y683D01*
X1744Y683D02*
X1751Y683D01*
X1Y682D02*
X8Y682D01*
X1744Y682D02*
X1751Y682D01*
X1Y681D02*
X8Y681D01*
X1744Y681D02*
X1751Y681D01*
X1Y680D02*
X8Y680D01*
X1744Y680D02*
X1751Y680D01*
X1Y679D02*
X8Y679D01*
X1744Y679D02*
X1751Y679D01*
X1Y678D02*
X8Y678D01*
X1744Y678D02*
X1751Y678D01*
X1Y677D02*
X8Y677D01*
X1744Y677D02*
X1751Y677D01*
X1Y676D02*
X8Y676D01*
X1744Y676D02*
X1751Y676D01*
X1Y675D02*
X8Y675D01*
X1744Y675D02*
X1751Y675D01*
X1Y674D02*
X8Y674D01*
X1744Y674D02*
X1751Y674D01*
X1Y673D02*
X8Y673D01*
X1744Y673D02*
X1751Y673D01*
X1Y672D02*
X8Y672D01*
X1744Y672D02*
X1751Y672D01*
X1Y671D02*
X8Y671D01*
X1744Y671D02*
X1751Y671D01*
X1Y670D02*
X8Y670D01*
X1744Y670D02*
X1751Y670D01*
X1Y669D02*
X8Y669D01*
X1744Y669D02*
X1751Y669D01*
X1Y668D02*
X8Y668D01*
X1744Y668D02*
X1751Y668D01*
X1Y667D02*
X8Y667D01*
X1744Y667D02*
X1751Y667D01*
X1Y666D02*
X8Y666D01*
X1744Y666D02*
X1751Y666D01*
X1Y665D02*
X8Y665D01*
X1744Y665D02*
X1751Y665D01*
X1Y664D02*
X8Y664D01*
X1744Y664D02*
X1751Y664D01*
X1Y663D02*
X8Y663D01*
X1744Y663D02*
X1751Y663D01*
X1Y662D02*
X8Y662D01*
X1744Y662D02*
X1751Y662D01*
X1Y661D02*
X8Y661D01*
X1744Y661D02*
X1751Y661D01*
X1Y660D02*
X8Y660D01*
X1744Y660D02*
X1751Y660D01*
X1Y659D02*
X8Y659D01*
X1744Y659D02*
X1751Y659D01*
X1Y658D02*
X8Y658D01*
X1744Y658D02*
X1751Y658D01*
X1Y657D02*
X8Y657D01*
X1744Y657D02*
X1751Y657D01*
X1Y656D02*
X8Y656D01*
X1744Y656D02*
X1751Y656D01*
X1Y655D02*
X8Y655D01*
X1744Y655D02*
X1751Y655D01*
X1Y654D02*
X8Y654D01*
X1744Y654D02*
X1751Y654D01*
X1Y653D02*
X8Y653D01*
X1744Y653D02*
X1751Y653D01*
X1Y652D02*
X8Y652D01*
X1744Y652D02*
X1751Y652D01*
X1Y651D02*
X8Y651D01*
X1744Y651D02*
X1751Y651D01*
X1Y650D02*
X8Y650D01*
X1744Y650D02*
X1751Y650D01*
X1Y649D02*
X8Y649D01*
X1744Y649D02*
X1751Y649D01*
X1Y648D02*
X8Y648D01*
X1744Y648D02*
X1751Y648D01*
X1Y647D02*
X8Y647D01*
X1744Y647D02*
X1751Y647D01*
X1Y646D02*
X8Y646D01*
X1744Y646D02*
X1751Y646D01*
X1Y645D02*
X8Y645D01*
X1744Y645D02*
X1751Y645D01*
X1Y644D02*
X8Y644D01*
X1744Y644D02*
X1751Y644D01*
X1Y643D02*
X8Y643D01*
X1744Y643D02*
X1751Y643D01*
X1Y642D02*
X8Y642D01*
X1744Y642D02*
X1751Y642D01*
X1Y641D02*
X8Y641D01*
X1744Y641D02*
X1751Y641D01*
X1Y640D02*
X8Y640D01*
X1744Y640D02*
X1751Y640D01*
X1Y639D02*
X8Y639D01*
X1744Y639D02*
X1751Y639D01*
X1Y638D02*
X8Y638D01*
X1744Y638D02*
X1751Y638D01*
X1Y637D02*
X8Y637D01*
X1744Y637D02*
X1751Y637D01*
X1Y636D02*
X8Y636D01*
X1744Y636D02*
X1751Y636D01*
X1Y635D02*
X8Y635D01*
X1744Y635D02*
X1751Y635D01*
X1Y634D02*
X8Y634D01*
X1744Y634D02*
X1751Y634D01*
X1Y633D02*
X8Y633D01*
X1744Y633D02*
X1751Y633D01*
X1Y632D02*
X8Y632D01*
X1744Y632D02*
X1751Y632D01*
X1Y631D02*
X8Y631D01*
X1744Y631D02*
X1751Y631D01*
X1Y630D02*
X8Y630D01*
X1744Y630D02*
X1751Y630D01*
X1Y629D02*
X8Y629D01*
X1744Y629D02*
X1751Y629D01*
X1Y628D02*
X8Y628D01*
X1744Y628D02*
X1751Y628D01*
X1Y627D02*
X8Y627D01*
X1744Y627D02*
X1751Y627D01*
X1Y626D02*
X8Y626D01*
X1744Y626D02*
X1751Y626D01*
X1Y625D02*
X8Y625D01*
X1744Y625D02*
X1751Y625D01*
X1Y624D02*
X8Y624D01*
X1744Y624D02*
X1751Y624D01*
X1Y623D02*
X8Y623D01*
X1744Y623D02*
X1751Y623D01*
X1Y622D02*
X8Y622D01*
X1744Y622D02*
X1751Y622D01*
X1Y621D02*
X8Y621D01*
X1744Y621D02*
X1751Y621D01*
X1Y620D02*
X8Y620D01*
X1744Y620D02*
X1751Y620D01*
X1Y619D02*
X8Y619D01*
X1744Y619D02*
X1751Y619D01*
X1Y618D02*
X8Y618D01*
X1744Y618D02*
X1751Y618D01*
X1Y617D02*
X8Y617D01*
X1744Y617D02*
X1751Y617D01*
X1Y616D02*
X8Y616D01*
X1744Y616D02*
X1751Y616D01*
X1Y615D02*
X8Y615D01*
X1744Y615D02*
X1751Y615D01*
X1Y614D02*
X8Y614D01*
X1744Y614D02*
X1751Y614D01*
X1Y613D02*
X8Y613D01*
X1744Y613D02*
X1751Y613D01*
X1Y612D02*
X8Y612D01*
X1744Y612D02*
X1751Y612D01*
X1Y611D02*
X8Y611D01*
X1744Y611D02*
X1751Y611D01*
X1Y610D02*
X8Y610D01*
X1744Y610D02*
X1751Y610D01*
X1Y609D02*
X8Y609D01*
X1744Y609D02*
X1751Y609D01*
X1Y608D02*
X8Y608D01*
X1744Y608D02*
X1751Y608D01*
X1Y607D02*
X8Y607D01*
X1744Y607D02*
X1751Y607D01*
X1Y606D02*
X8Y606D01*
X1744Y606D02*
X1751Y606D01*
X1Y605D02*
X8Y605D01*
X1744Y605D02*
X1751Y605D01*
X1Y604D02*
X8Y604D01*
X1744Y604D02*
X1751Y604D01*
X1Y603D02*
X8Y603D01*
X1744Y603D02*
X1751Y603D01*
X1Y602D02*
X8Y602D01*
X1744Y602D02*
X1751Y602D01*
X1Y601D02*
X8Y601D01*
X1744Y601D02*
X1751Y601D01*
X1Y600D02*
X8Y600D01*
X1744Y600D02*
X1751Y600D01*
X1Y599D02*
X8Y599D01*
X1744Y599D02*
X1751Y599D01*
X1Y598D02*
X8Y598D01*
X1744Y598D02*
X1751Y598D01*
X1Y597D02*
X8Y597D01*
X1744Y597D02*
X1751Y597D01*
X1Y596D02*
X8Y596D01*
X1744Y596D02*
X1751Y596D01*
X1Y595D02*
X8Y595D01*
X1744Y595D02*
X1751Y595D01*
X1Y594D02*
X8Y594D01*
X1744Y594D02*
X1751Y594D01*
X1Y593D02*
X8Y593D01*
X1744Y593D02*
X1751Y593D01*
X1Y592D02*
X8Y592D01*
X1744Y592D02*
X1751Y592D01*
X1Y591D02*
X8Y591D01*
X1744Y591D02*
X1751Y591D01*
X1Y590D02*
X8Y590D01*
X1744Y590D02*
X1751Y590D01*
X1Y589D02*
X8Y589D01*
X1744Y589D02*
X1751Y589D01*
X1Y588D02*
X8Y588D01*
X1744Y588D02*
X1751Y588D01*
X1Y587D02*
X8Y587D01*
X1744Y587D02*
X1751Y587D01*
X1Y586D02*
X8Y586D01*
X1744Y586D02*
X1751Y586D01*
X1Y585D02*
X8Y585D01*
X1744Y585D02*
X1751Y585D01*
X1Y584D02*
X8Y584D01*
X1744Y584D02*
X1751Y584D01*
X1Y583D02*
X8Y583D01*
X1744Y583D02*
X1751Y583D01*
X1Y582D02*
X8Y582D01*
X1744Y582D02*
X1751Y582D01*
X1Y581D02*
X8Y581D01*
X1744Y581D02*
X1751Y581D01*
X1Y580D02*
X8Y580D01*
X1744Y580D02*
X1751Y580D01*
X1Y579D02*
X8Y579D01*
X1744Y579D02*
X1751Y579D01*
X1Y578D02*
X8Y578D01*
X1744Y578D02*
X1751Y578D01*
X1Y577D02*
X8Y577D01*
X1744Y577D02*
X1751Y577D01*
X1Y576D02*
X8Y576D01*
X1744Y576D02*
X1751Y576D01*
X1Y575D02*
X8Y575D01*
X1744Y575D02*
X1751Y575D01*
X1Y574D02*
X8Y574D01*
X1744Y574D02*
X1751Y574D01*
X1Y573D02*
X8Y573D01*
X1744Y573D02*
X1751Y573D01*
X1Y572D02*
X8Y572D01*
X1744Y572D02*
X1751Y572D01*
X1Y571D02*
X8Y571D01*
X1744Y571D02*
X1751Y571D01*
X1Y570D02*
X8Y570D01*
X1744Y570D02*
X1751Y570D01*
X1Y569D02*
X8Y569D01*
X1744Y569D02*
X1751Y569D01*
X1Y568D02*
X8Y568D01*
X1744Y568D02*
X1751Y568D01*
X1Y567D02*
X8Y567D01*
X1744Y567D02*
X1751Y567D01*
X1Y566D02*
X8Y566D01*
X1744Y566D02*
X1751Y566D01*
X1Y565D02*
X8Y565D01*
X1744Y565D02*
X1751Y565D01*
X1Y564D02*
X8Y564D01*
X1744Y564D02*
X1751Y564D01*
X1Y563D02*
X8Y563D01*
X1744Y563D02*
X1751Y563D01*
X1Y562D02*
X8Y562D01*
X1744Y562D02*
X1751Y562D01*
X1Y561D02*
X8Y561D01*
X1744Y561D02*
X1751Y561D01*
X1Y560D02*
X8Y560D01*
X1744Y560D02*
X1751Y560D01*
X1Y559D02*
X8Y559D01*
X1744Y559D02*
X1751Y559D01*
X1Y558D02*
X8Y558D01*
X1744Y558D02*
X1751Y558D01*
X1Y557D02*
X8Y557D01*
X1744Y557D02*
X1751Y557D01*
X1Y556D02*
X8Y556D01*
X1744Y556D02*
X1751Y556D01*
X1Y555D02*
X8Y555D01*
X1744Y555D02*
X1751Y555D01*
X1Y554D02*
X8Y554D01*
X1744Y554D02*
X1751Y554D01*
X1Y553D02*
X8Y553D01*
X1744Y553D02*
X1751Y553D01*
X1Y552D02*
X8Y552D01*
X1744Y552D02*
X1751Y552D01*
X1Y551D02*
X8Y551D01*
X1744Y551D02*
X1751Y551D01*
X1Y550D02*
X8Y550D01*
X1744Y550D02*
X1751Y550D01*
X1Y549D02*
X8Y549D01*
X1744Y549D02*
X1751Y549D01*
X1Y548D02*
X8Y548D01*
X1744Y548D02*
X1751Y548D01*
X1Y547D02*
X8Y547D01*
X1744Y547D02*
X1751Y547D01*
X1Y546D02*
X8Y546D01*
X1744Y546D02*
X1751Y546D01*
X1Y545D02*
X8Y545D01*
X1744Y545D02*
X1751Y545D01*
X1Y544D02*
X8Y544D01*
X1744Y544D02*
X1751Y544D01*
X1Y543D02*
X8Y543D01*
X1744Y543D02*
X1751Y543D01*
X1Y542D02*
X8Y542D01*
X1744Y542D02*
X1751Y542D01*
X1Y541D02*
X8Y541D01*
X1744Y541D02*
X1751Y541D01*
X1Y540D02*
X8Y540D01*
X1744Y540D02*
X1751Y540D01*
X1Y539D02*
X8Y539D01*
X1744Y539D02*
X1751Y539D01*
X1Y538D02*
X8Y538D01*
X1744Y538D02*
X1751Y538D01*
X1Y537D02*
X8Y537D01*
X1744Y537D02*
X1751Y537D01*
X1Y536D02*
X8Y536D01*
X1744Y536D02*
X1751Y536D01*
X1Y535D02*
X8Y535D01*
X1744Y535D02*
X1751Y535D01*
X1Y534D02*
X8Y534D01*
X1744Y534D02*
X1751Y534D01*
X1Y533D02*
X8Y533D01*
X1744Y533D02*
X1751Y533D01*
X1Y532D02*
X8Y532D01*
X1744Y532D02*
X1751Y532D01*
X1Y531D02*
X8Y531D01*
X1744Y531D02*
X1751Y531D01*
X1Y530D02*
X8Y530D01*
X1744Y530D02*
X1751Y530D01*
X1Y529D02*
X8Y529D01*
X1744Y529D02*
X1751Y529D01*
X1Y528D02*
X8Y528D01*
X1744Y528D02*
X1751Y528D01*
X1Y527D02*
X8Y527D01*
X1744Y527D02*
X1751Y527D01*
X1Y526D02*
X8Y526D01*
X1744Y526D02*
X1751Y526D01*
X1Y525D02*
X8Y525D01*
X1744Y525D02*
X1751Y525D01*
X1Y524D02*
X8Y524D01*
X1744Y524D02*
X1751Y524D01*
X1Y523D02*
X8Y523D01*
X1744Y523D02*
X1751Y523D01*
X1Y522D02*
X8Y522D01*
X1744Y522D02*
X1751Y522D01*
X1Y521D02*
X8Y521D01*
X1744Y521D02*
X1751Y521D01*
X1Y520D02*
X8Y520D01*
X1744Y520D02*
X1751Y520D01*
X1Y519D02*
X8Y519D01*
X1744Y519D02*
X1751Y519D01*
X1Y518D02*
X8Y518D01*
X1744Y518D02*
X1751Y518D01*
X1Y517D02*
X8Y517D01*
X1744Y517D02*
X1751Y517D01*
X1Y516D02*
X8Y516D01*
X1744Y516D02*
X1751Y516D01*
X1Y515D02*
X8Y515D01*
X1744Y515D02*
X1751Y515D01*
X1Y514D02*
X8Y514D01*
X1744Y514D02*
X1751Y514D01*
X1Y513D02*
X8Y513D01*
X1744Y513D02*
X1751Y513D01*
X1Y512D02*
X8Y512D01*
X1744Y512D02*
X1751Y512D01*
X1Y511D02*
X8Y511D01*
X1744Y511D02*
X1751Y511D01*
X1Y510D02*
X8Y510D01*
X1744Y510D02*
X1751Y510D01*
X1Y509D02*
X8Y509D01*
X1744Y509D02*
X1751Y509D01*
X1Y508D02*
X8Y508D01*
X1744Y508D02*
X1751Y508D01*
X1Y507D02*
X8Y507D01*
X1744Y507D02*
X1751Y507D01*
X1Y506D02*
X8Y506D01*
X1744Y506D02*
X1751Y506D01*
X1Y505D02*
X8Y505D01*
X1744Y505D02*
X1751Y505D01*
X1Y504D02*
X8Y504D01*
X1744Y504D02*
X1751Y504D01*
X1Y503D02*
X8Y503D01*
X1744Y503D02*
X1751Y503D01*
X1Y502D02*
X8Y502D01*
X1744Y502D02*
X1751Y502D01*
X1Y501D02*
X8Y501D01*
X1744Y501D02*
X1751Y501D01*
X1Y500D02*
X8Y500D01*
X1744Y500D02*
X1751Y500D01*
X1Y499D02*
X8Y499D01*
X1744Y499D02*
X1751Y499D01*
X1Y498D02*
X8Y498D01*
X1744Y498D02*
X1751Y498D01*
X1Y497D02*
X8Y497D01*
X1744Y497D02*
X1751Y497D01*
X1Y496D02*
X8Y496D01*
X1744Y496D02*
X1751Y496D01*
X1Y495D02*
X8Y495D01*
X1744Y495D02*
X1751Y495D01*
X1Y494D02*
X8Y494D01*
X1744Y494D02*
X1751Y494D01*
X1Y493D02*
X8Y493D01*
X1744Y493D02*
X1751Y493D01*
X1Y492D02*
X8Y492D01*
X1744Y492D02*
X1751Y492D01*
X1Y491D02*
X8Y491D01*
X1744Y491D02*
X1751Y491D01*
X1Y490D02*
X8Y490D01*
X1744Y490D02*
X1751Y490D01*
X1Y489D02*
X8Y489D01*
X1744Y489D02*
X1751Y489D01*
X1Y488D02*
X8Y488D01*
X1744Y488D02*
X1751Y488D01*
X1Y487D02*
X8Y487D01*
X1744Y487D02*
X1751Y487D01*
X1Y486D02*
X8Y486D01*
X1744Y486D02*
X1751Y486D01*
X1Y485D02*
X8Y485D01*
X1744Y485D02*
X1751Y485D01*
X1Y484D02*
X8Y484D01*
X1744Y484D02*
X1751Y484D01*
X1Y483D02*
X8Y483D01*
X1744Y483D02*
X1751Y483D01*
X1Y482D02*
X8Y482D01*
X1744Y482D02*
X1751Y482D01*
X1Y481D02*
X8Y481D01*
X1744Y481D02*
X1751Y481D01*
X1Y480D02*
X8Y480D01*
X1744Y480D02*
X1751Y480D01*
X1Y479D02*
X8Y479D01*
X1744Y479D02*
X1751Y479D01*
X1Y478D02*
X8Y478D01*
X1744Y478D02*
X1751Y478D01*
X1Y477D02*
X8Y477D01*
X1744Y477D02*
X1751Y477D01*
X1Y476D02*
X8Y476D01*
X1744Y476D02*
X1751Y476D01*
X1Y475D02*
X8Y475D01*
X1744Y475D02*
X1751Y475D01*
X1Y474D02*
X8Y474D01*
X1744Y474D02*
X1751Y474D01*
X1Y473D02*
X8Y473D01*
X1744Y473D02*
X1751Y473D01*
X1Y472D02*
X8Y472D01*
X1744Y472D02*
X1751Y472D01*
X1Y471D02*
X8Y471D01*
X1744Y471D02*
X1751Y471D01*
X1Y470D02*
X8Y470D01*
X1744Y470D02*
X1751Y470D01*
X1Y469D02*
X8Y469D01*
X1744Y469D02*
X1751Y469D01*
X1Y468D02*
X8Y468D01*
X1744Y468D02*
X1751Y468D01*
X1Y467D02*
X8Y467D01*
X1744Y467D02*
X1751Y467D01*
X1Y466D02*
X8Y466D01*
X1744Y466D02*
X1751Y466D01*
X1Y465D02*
X8Y465D01*
X1744Y465D02*
X1751Y465D01*
X1Y464D02*
X8Y464D01*
X1744Y464D02*
X1751Y464D01*
X1Y463D02*
X8Y463D01*
X1744Y463D02*
X1751Y463D01*
X1Y462D02*
X8Y462D01*
X1744Y462D02*
X1751Y462D01*
X1Y461D02*
X8Y461D01*
X1744Y461D02*
X1751Y461D01*
X1Y460D02*
X8Y460D01*
X1744Y460D02*
X1751Y460D01*
X1Y459D02*
X8Y459D01*
X1744Y459D02*
X1751Y459D01*
X1Y458D02*
X8Y458D01*
X1744Y458D02*
X1751Y458D01*
X1Y457D02*
X8Y457D01*
X1744Y457D02*
X1751Y457D01*
X1Y456D02*
X8Y456D01*
X1744Y456D02*
X1751Y456D01*
X1Y455D02*
X8Y455D01*
X1744Y455D02*
X1751Y455D01*
X1Y454D02*
X8Y454D01*
X1744Y454D02*
X1751Y454D01*
X1Y453D02*
X8Y453D01*
X1744Y453D02*
X1751Y453D01*
X1Y452D02*
X8Y452D01*
X1744Y452D02*
X1751Y452D01*
X1Y451D02*
X8Y451D01*
X1744Y451D02*
X1751Y451D01*
X1Y450D02*
X8Y450D01*
X1744Y450D02*
X1751Y450D01*
X1Y449D02*
X8Y449D01*
X1744Y449D02*
X1751Y449D01*
X1Y448D02*
X8Y448D01*
X1744Y448D02*
X1751Y448D01*
X1Y447D02*
X8Y447D01*
X1744Y447D02*
X1751Y447D01*
X1Y446D02*
X8Y446D01*
X1744Y446D02*
X1751Y446D01*
X1Y445D02*
X8Y445D01*
X1744Y445D02*
X1751Y445D01*
X1Y444D02*
X8Y444D01*
X1744Y444D02*
X1751Y444D01*
X1Y443D02*
X8Y443D01*
X1744Y443D02*
X1751Y443D01*
X1Y442D02*
X8Y442D01*
X1744Y442D02*
X1751Y442D01*
X1Y441D02*
X8Y441D01*
X1744Y441D02*
X1751Y441D01*
X1Y440D02*
X8Y440D01*
X1744Y440D02*
X1751Y440D01*
X1Y439D02*
X8Y439D01*
X1744Y439D02*
X1751Y439D01*
X1Y438D02*
X8Y438D01*
X1744Y438D02*
X1751Y438D01*
X1Y437D02*
X8Y437D01*
X1744Y437D02*
X1751Y437D01*
X1Y436D02*
X8Y436D01*
X1744Y436D02*
X1751Y436D01*
X1Y435D02*
X8Y435D01*
X1744Y435D02*
X1751Y435D01*
X1Y434D02*
X8Y434D01*
X1744Y434D02*
X1751Y434D01*
X1Y433D02*
X8Y433D01*
X1744Y433D02*
X1751Y433D01*
X1Y432D02*
X8Y432D01*
X1744Y432D02*
X1751Y432D01*
X1Y431D02*
X8Y431D01*
X1744Y431D02*
X1751Y431D01*
X1Y430D02*
X8Y430D01*
X1744Y430D02*
X1751Y430D01*
X1Y429D02*
X8Y429D01*
X1744Y429D02*
X1751Y429D01*
X1Y428D02*
X8Y428D01*
X1744Y428D02*
X1751Y428D01*
X1Y427D02*
X8Y427D01*
X1744Y427D02*
X1751Y427D01*
X1Y426D02*
X8Y426D01*
X1744Y426D02*
X1751Y426D01*
X1Y425D02*
X8Y425D01*
X1744Y425D02*
X1751Y425D01*
X1Y424D02*
X8Y424D01*
X1744Y424D02*
X1751Y424D01*
X1Y423D02*
X8Y423D01*
X1744Y423D02*
X1751Y423D01*
X1Y422D02*
X8Y422D01*
X1744Y422D02*
X1751Y422D01*
X1Y421D02*
X8Y421D01*
X1744Y421D02*
X1751Y421D01*
X1Y420D02*
X8Y420D01*
X1744Y420D02*
X1751Y420D01*
X1Y419D02*
X8Y419D01*
X1744Y419D02*
X1751Y419D01*
X1Y418D02*
X8Y418D01*
X1744Y418D02*
X1751Y418D01*
X1Y417D02*
X8Y417D01*
X1744Y417D02*
X1751Y417D01*
X1Y416D02*
X8Y416D01*
X1744Y416D02*
X1751Y416D01*
X1Y415D02*
X8Y415D01*
X1744Y415D02*
X1751Y415D01*
X1Y414D02*
X8Y414D01*
X1744Y414D02*
X1751Y414D01*
X1Y413D02*
X8Y413D01*
X1744Y413D02*
X1751Y413D01*
X1Y412D02*
X8Y412D01*
X1744Y412D02*
X1751Y412D01*
X1Y411D02*
X8Y411D01*
X1744Y411D02*
X1751Y411D01*
X1Y410D02*
X8Y410D01*
X1744Y410D02*
X1751Y410D01*
X1Y409D02*
X8Y409D01*
X1744Y409D02*
X1751Y409D01*
X1Y408D02*
X8Y408D01*
X1744Y408D02*
X1751Y408D01*
X1Y407D02*
X8Y407D01*
X1744Y407D02*
X1751Y407D01*
X1Y406D02*
X8Y406D01*
X1744Y406D02*
X1751Y406D01*
X1Y405D02*
X8Y405D01*
X1744Y405D02*
X1751Y405D01*
X1Y404D02*
X8Y404D01*
X1744Y404D02*
X1751Y404D01*
X1Y403D02*
X8Y403D01*
X1744Y403D02*
X1751Y403D01*
X1Y402D02*
X8Y402D01*
X1744Y402D02*
X1751Y402D01*
X1Y401D02*
X8Y401D01*
X1744Y401D02*
X1751Y401D01*
X1Y400D02*
X8Y400D01*
X1744Y400D02*
X1751Y400D01*
X1Y399D02*
X8Y399D01*
X1744Y399D02*
X1751Y399D01*
X1Y398D02*
X8Y398D01*
X1744Y398D02*
X1751Y398D01*
X1Y397D02*
X8Y397D01*
X1744Y397D02*
X1751Y397D01*
X1Y396D02*
X8Y396D01*
X1744Y396D02*
X1751Y396D01*
X1Y395D02*
X8Y395D01*
X1744Y395D02*
X1751Y395D01*
X1Y394D02*
X8Y394D01*
X1744Y394D02*
X1751Y394D01*
X1Y393D02*
X8Y393D01*
X1744Y393D02*
X1751Y393D01*
X1Y392D02*
X8Y392D01*
X1744Y392D02*
X1751Y392D01*
X1Y391D02*
X8Y391D01*
X1744Y391D02*
X1751Y391D01*
X1Y390D02*
X8Y390D01*
X1744Y390D02*
X1751Y390D01*
X1Y389D02*
X8Y389D01*
X1744Y389D02*
X1751Y389D01*
X1Y388D02*
X8Y388D01*
X1744Y388D02*
X1751Y388D01*
X1Y387D02*
X8Y387D01*
X1744Y387D02*
X1751Y387D01*
X1Y386D02*
X8Y386D01*
X1744Y386D02*
X1751Y386D01*
X1Y385D02*
X8Y385D01*
X1744Y385D02*
X1751Y385D01*
X1Y384D02*
X8Y384D01*
X1744Y384D02*
X1751Y384D01*
X1Y383D02*
X8Y383D01*
X1744Y383D02*
X1751Y383D01*
X1Y382D02*
X8Y382D01*
X1744Y382D02*
X1751Y382D01*
X1Y381D02*
X8Y381D01*
X1744Y381D02*
X1751Y381D01*
X1Y380D02*
X8Y380D01*
X1744Y380D02*
X1751Y380D01*
X1Y379D02*
X8Y379D01*
X1744Y379D02*
X1751Y379D01*
X1Y378D02*
X8Y378D01*
X1744Y378D02*
X1751Y378D01*
X1Y377D02*
X8Y377D01*
X1744Y377D02*
X1751Y377D01*
X1Y376D02*
X8Y376D01*
X1744Y376D02*
X1751Y376D01*
X1Y375D02*
X8Y375D01*
X1744Y375D02*
X1751Y375D01*
X1Y374D02*
X8Y374D01*
X1744Y374D02*
X1751Y374D01*
X1Y373D02*
X8Y373D01*
X1744Y373D02*
X1751Y373D01*
X1Y372D02*
X8Y372D01*
X1744Y372D02*
X1751Y372D01*
X1Y371D02*
X8Y371D01*
X1744Y371D02*
X1751Y371D01*
X1Y370D02*
X8Y370D01*
X1744Y370D02*
X1751Y370D01*
X1Y369D02*
X8Y369D01*
X1744Y369D02*
X1751Y369D01*
X1Y368D02*
X8Y368D01*
X1744Y368D02*
X1751Y368D01*
X1Y367D02*
X8Y367D01*
X1744Y367D02*
X1751Y367D01*
X1Y366D02*
X8Y366D01*
X1744Y366D02*
X1751Y366D01*
X1Y365D02*
X8Y365D01*
X1744Y365D02*
X1751Y365D01*
X1Y364D02*
X8Y364D01*
X1744Y364D02*
X1751Y364D01*
X1Y363D02*
X8Y363D01*
X1744Y363D02*
X1751Y363D01*
X1Y362D02*
X8Y362D01*
X1744Y362D02*
X1751Y362D01*
X1Y361D02*
X8Y361D01*
X1744Y361D02*
X1751Y361D01*
X1Y360D02*
X8Y360D01*
X1744Y360D02*
X1751Y360D01*
X1Y359D02*
X8Y359D01*
X1744Y359D02*
X1751Y359D01*
X1Y358D02*
X8Y358D01*
X1744Y358D02*
X1751Y358D01*
X1Y357D02*
X8Y357D01*
X1744Y357D02*
X1751Y357D01*
X1Y356D02*
X8Y356D01*
X1744Y356D02*
X1751Y356D01*
X1Y355D02*
X8Y355D01*
X1744Y355D02*
X1751Y355D01*
X1Y354D02*
X8Y354D01*
X1744Y354D02*
X1751Y354D01*
X1Y353D02*
X8Y353D01*
X1744Y353D02*
X1751Y353D01*
X1Y352D02*
X8Y352D01*
X1744Y352D02*
X1751Y352D01*
X1Y351D02*
X8Y351D01*
X1744Y351D02*
X1751Y351D01*
X1Y350D02*
X8Y350D01*
X1744Y350D02*
X1751Y350D01*
X1Y349D02*
X8Y349D01*
X1744Y349D02*
X1751Y349D01*
X1Y348D02*
X8Y348D01*
X1744Y348D02*
X1751Y348D01*
X1Y347D02*
X8Y347D01*
X1744Y347D02*
X1751Y347D01*
X1Y346D02*
X8Y346D01*
X1744Y346D02*
X1751Y346D01*
X1Y345D02*
X8Y345D01*
X1744Y345D02*
X1751Y345D01*
X1Y344D02*
X8Y344D01*
X1744Y344D02*
X1751Y344D01*
X1Y343D02*
X8Y343D01*
X1744Y343D02*
X1751Y343D01*
X1Y342D02*
X8Y342D01*
X1744Y342D02*
X1751Y342D01*
X1Y341D02*
X8Y341D01*
X1744Y341D02*
X1751Y341D01*
X1Y340D02*
X8Y340D01*
X1744Y340D02*
X1751Y340D01*
X1Y339D02*
X8Y339D01*
X1744Y339D02*
X1751Y339D01*
X1Y338D02*
X8Y338D01*
X1744Y338D02*
X1751Y338D01*
X1Y337D02*
X8Y337D01*
X1744Y337D02*
X1751Y337D01*
X1Y336D02*
X8Y336D01*
X1744Y336D02*
X1751Y336D01*
X1Y335D02*
X8Y335D01*
X1744Y335D02*
X1751Y335D01*
X1Y334D02*
X8Y334D01*
X1744Y334D02*
X1751Y334D01*
X1Y333D02*
X8Y333D01*
X1744Y333D02*
X1751Y333D01*
X1Y332D02*
X8Y332D01*
X1744Y332D02*
X1751Y332D01*
X1Y331D02*
X8Y331D01*
X1744Y331D02*
X1751Y331D01*
X1Y330D02*
X8Y330D01*
X1744Y330D02*
X1751Y330D01*
X1Y329D02*
X8Y329D01*
X1744Y329D02*
X1751Y329D01*
X1Y328D02*
X8Y328D01*
X1744Y328D02*
X1751Y328D01*
X1Y327D02*
X8Y327D01*
X1744Y327D02*
X1751Y327D01*
X1Y326D02*
X8Y326D01*
X1744Y326D02*
X1751Y326D01*
X1Y325D02*
X8Y325D01*
X1744Y325D02*
X1751Y325D01*
X1Y324D02*
X8Y324D01*
X1744Y324D02*
X1751Y324D01*
X1Y323D02*
X8Y323D01*
X1744Y323D02*
X1751Y323D01*
X1Y322D02*
X8Y322D01*
X1744Y322D02*
X1751Y322D01*
X1Y321D02*
X8Y321D01*
X1744Y321D02*
X1751Y321D01*
X1Y320D02*
X8Y320D01*
X1744Y320D02*
X1751Y320D01*
X1Y319D02*
X8Y319D01*
X1744Y319D02*
X1751Y319D01*
X1Y318D02*
X8Y318D01*
X1744Y318D02*
X1751Y318D01*
X1Y317D02*
X8Y317D01*
X1744Y317D02*
X1751Y317D01*
X1Y316D02*
X8Y316D01*
X1744Y316D02*
X1751Y316D01*
X1Y315D02*
X8Y315D01*
X1744Y315D02*
X1751Y315D01*
X1Y314D02*
X8Y314D01*
X1744Y314D02*
X1751Y314D01*
X1Y313D02*
X8Y313D01*
X1744Y313D02*
X1751Y313D01*
X1Y312D02*
X8Y312D01*
X1744Y312D02*
X1751Y312D01*
X1Y311D02*
X8Y311D01*
X1744Y311D02*
X1751Y311D01*
X1Y310D02*
X8Y310D01*
X1744Y310D02*
X1751Y310D01*
X1Y309D02*
X8Y309D01*
X1744Y309D02*
X1751Y309D01*
X1Y308D02*
X8Y308D01*
X1744Y308D02*
X1751Y308D01*
X1Y307D02*
X8Y307D01*
X1744Y307D02*
X1751Y307D01*
X1Y306D02*
X8Y306D01*
X1744Y306D02*
X1751Y306D01*
X1Y305D02*
X8Y305D01*
X1744Y305D02*
X1751Y305D01*
X1Y304D02*
X8Y304D01*
X1744Y304D02*
X1751Y304D01*
X1Y303D02*
X8Y303D01*
X1744Y303D02*
X1751Y303D01*
X1Y302D02*
X8Y302D01*
X1744Y302D02*
X1751Y302D01*
X1Y301D02*
X8Y301D01*
X1744Y301D02*
X1751Y301D01*
X1Y300D02*
X8Y300D01*
X1744Y300D02*
X1751Y300D01*
X1Y299D02*
X8Y299D01*
X1744Y299D02*
X1751Y299D01*
X1Y298D02*
X8Y298D01*
X1744Y298D02*
X1751Y298D01*
X1Y297D02*
X8Y297D01*
X1744Y297D02*
X1751Y297D01*
X1Y296D02*
X8Y296D01*
X1744Y296D02*
X1751Y296D01*
X1Y295D02*
X8Y295D01*
X1744Y295D02*
X1751Y295D01*
X1Y294D02*
X8Y294D01*
X1744Y294D02*
X1751Y294D01*
X1Y293D02*
X8Y293D01*
X1744Y293D02*
X1751Y293D01*
X1Y292D02*
X8Y292D01*
X1744Y292D02*
X1751Y292D01*
X1Y291D02*
X8Y291D01*
X1744Y291D02*
X1751Y291D01*
X1Y290D02*
X8Y290D01*
X1744Y290D02*
X1751Y290D01*
X1Y289D02*
X8Y289D01*
X1744Y289D02*
X1751Y289D01*
X1Y288D02*
X8Y288D01*
X1744Y288D02*
X1751Y288D01*
X1Y287D02*
X8Y287D01*
X1744Y287D02*
X1751Y287D01*
X1Y286D02*
X8Y286D01*
X1744Y286D02*
X1751Y286D01*
X1Y285D02*
X8Y285D01*
X1744Y285D02*
X1751Y285D01*
X1Y284D02*
X8Y284D01*
X1744Y284D02*
X1751Y284D01*
X1Y283D02*
X8Y283D01*
X1744Y283D02*
X1751Y283D01*
X1Y282D02*
X8Y282D01*
X1744Y282D02*
X1751Y282D01*
X1Y281D02*
X8Y281D01*
X1744Y281D02*
X1751Y281D01*
X1Y280D02*
X8Y280D01*
X1744Y280D02*
X1751Y280D01*
X1Y279D02*
X8Y279D01*
X1744Y279D02*
X1751Y279D01*
X1Y278D02*
X8Y278D01*
X1744Y278D02*
X1751Y278D01*
X1Y277D02*
X8Y277D01*
X1744Y277D02*
X1751Y277D01*
X1Y276D02*
X8Y276D01*
X1744Y276D02*
X1751Y276D01*
X1Y275D02*
X8Y275D01*
X1744Y275D02*
X1751Y275D01*
X1Y274D02*
X8Y274D01*
X1744Y274D02*
X1751Y274D01*
X1Y273D02*
X8Y273D01*
X1744Y273D02*
X1751Y273D01*
X1Y272D02*
X8Y272D01*
X1744Y272D02*
X1751Y272D01*
X1Y271D02*
X8Y271D01*
X1744Y271D02*
X1751Y271D01*
X1Y270D02*
X8Y270D01*
X1744Y270D02*
X1751Y270D01*
X1Y269D02*
X8Y269D01*
X1744Y269D02*
X1751Y269D01*
X1Y268D02*
X8Y268D01*
X1744Y268D02*
X1751Y268D01*
X1Y267D02*
X8Y267D01*
X1744Y267D02*
X1751Y267D01*
X1Y266D02*
X8Y266D01*
X1744Y266D02*
X1751Y266D01*
X1Y265D02*
X8Y265D01*
X1744Y265D02*
X1751Y265D01*
X1Y264D02*
X8Y264D01*
X1744Y264D02*
X1751Y264D01*
X1Y263D02*
X8Y263D01*
X1744Y263D02*
X1751Y263D01*
X1Y262D02*
X8Y262D01*
X1744Y262D02*
X1751Y262D01*
X1Y261D02*
X8Y261D01*
X1744Y261D02*
X1751Y261D01*
X1Y260D02*
X8Y260D01*
X1744Y260D02*
X1751Y260D01*
X1Y259D02*
X8Y259D01*
X1744Y259D02*
X1751Y259D01*
X1Y258D02*
X8Y258D01*
X1744Y258D02*
X1751Y258D01*
X1Y257D02*
X8Y257D01*
X1744Y257D02*
X1751Y257D01*
X1Y256D02*
X8Y256D01*
X1744Y256D02*
X1751Y256D01*
X1Y255D02*
X8Y255D01*
X1744Y255D02*
X1751Y255D01*
X1Y254D02*
X8Y254D01*
X1744Y254D02*
X1751Y254D01*
X1Y253D02*
X8Y253D01*
X1744Y253D02*
X1751Y253D01*
X1Y252D02*
X8Y252D01*
X1744Y252D02*
X1751Y252D01*
X1Y251D02*
X8Y251D01*
X1744Y251D02*
X1751Y251D01*
X1Y250D02*
X8Y250D01*
X1744Y250D02*
X1751Y250D01*
X1Y249D02*
X8Y249D01*
X1744Y249D02*
X1751Y249D01*
X1Y248D02*
X8Y248D01*
X1744Y248D02*
X1751Y248D01*
X1Y247D02*
X8Y247D01*
X1744Y247D02*
X1751Y247D01*
X1Y246D02*
X8Y246D01*
X1744Y246D02*
X1751Y246D01*
X1Y245D02*
X8Y245D01*
X1744Y245D02*
X1751Y245D01*
X1Y244D02*
X8Y244D01*
X1744Y244D02*
X1751Y244D01*
X1Y243D02*
X8Y243D01*
X1744Y243D02*
X1751Y243D01*
X1Y242D02*
X8Y242D01*
X1744Y242D02*
X1751Y242D01*
X1Y241D02*
X8Y241D01*
X1744Y241D02*
X1751Y241D01*
X1Y240D02*
X8Y240D01*
X1744Y240D02*
X1751Y240D01*
X1Y239D02*
X8Y239D01*
X1744Y239D02*
X1751Y239D01*
X1Y238D02*
X8Y238D01*
X1744Y238D02*
X1751Y238D01*
X1Y237D02*
X8Y237D01*
X1744Y237D02*
X1751Y237D01*
X1Y236D02*
X8Y236D01*
X1744Y236D02*
X1751Y236D01*
X1Y235D02*
X8Y235D01*
X1744Y235D02*
X1751Y235D01*
X1Y234D02*
X8Y234D01*
X1744Y234D02*
X1751Y234D01*
X1Y233D02*
X8Y233D01*
X1744Y233D02*
X1751Y233D01*
X1Y232D02*
X8Y232D01*
X1744Y232D02*
X1751Y232D01*
X1Y231D02*
X8Y231D01*
X1744Y231D02*
X1751Y231D01*
X1Y230D02*
X8Y230D01*
X1744Y230D02*
X1751Y230D01*
X1Y229D02*
X8Y229D01*
X1744Y229D02*
X1751Y229D01*
X1Y228D02*
X8Y228D01*
X1744Y228D02*
X1751Y228D01*
X1Y227D02*
X8Y227D01*
X1744Y227D02*
X1751Y227D01*
X1Y226D02*
X8Y226D01*
X1744Y226D02*
X1751Y226D01*
X1Y225D02*
X8Y225D01*
X1744Y225D02*
X1751Y225D01*
X1Y224D02*
X8Y224D01*
X1744Y224D02*
X1751Y224D01*
X1Y223D02*
X8Y223D01*
X1744Y223D02*
X1751Y223D01*
X1Y222D02*
X8Y222D01*
X1744Y222D02*
X1751Y222D01*
X1Y221D02*
X8Y221D01*
X1744Y221D02*
X1751Y221D01*
X1Y220D02*
X8Y220D01*
X1744Y220D02*
X1751Y220D01*
X1Y219D02*
X8Y219D01*
X1744Y219D02*
X1751Y219D01*
X1Y218D02*
X8Y218D01*
X1744Y218D02*
X1751Y218D01*
X1Y217D02*
X8Y217D01*
X1744Y217D02*
X1751Y217D01*
X1Y216D02*
X8Y216D01*
X1744Y216D02*
X1751Y216D01*
X1Y215D02*
X8Y215D01*
X1744Y215D02*
X1751Y215D01*
X1Y214D02*
X8Y214D01*
X1744Y214D02*
X1751Y214D01*
X1Y213D02*
X8Y213D01*
X1744Y213D02*
X1751Y213D01*
X1Y212D02*
X8Y212D01*
X1744Y212D02*
X1751Y212D01*
X1Y211D02*
X8Y211D01*
X1744Y211D02*
X1751Y211D01*
X1Y210D02*
X8Y210D01*
X1744Y210D02*
X1751Y210D01*
X1Y209D02*
X8Y209D01*
X1744Y209D02*
X1751Y209D01*
X1Y208D02*
X8Y208D01*
X1744Y208D02*
X1751Y208D01*
X1Y207D02*
X8Y207D01*
X1744Y207D02*
X1751Y207D01*
X1Y206D02*
X8Y206D01*
X1744Y206D02*
X1751Y206D01*
X1Y205D02*
X8Y205D01*
X1744Y205D02*
X1751Y205D01*
X1Y204D02*
X8Y204D01*
X1744Y204D02*
X1751Y204D01*
X1Y203D02*
X8Y203D01*
X1744Y203D02*
X1751Y203D01*
X1Y202D02*
X8Y202D01*
X1744Y202D02*
X1751Y202D01*
X1Y201D02*
X8Y201D01*
X1744Y201D02*
X1751Y201D01*
X1Y200D02*
X8Y200D01*
X1744Y200D02*
X1751Y200D01*
X1Y199D02*
X8Y199D01*
X1744Y199D02*
X1751Y199D01*
X1Y198D02*
X8Y198D01*
X1744Y198D02*
X1751Y198D01*
X1Y197D02*
X8Y197D01*
X1744Y197D02*
X1751Y197D01*
X1Y196D02*
X8Y196D01*
X1744Y196D02*
X1751Y196D01*
X1Y195D02*
X8Y195D01*
X1744Y195D02*
X1751Y195D01*
X1Y194D02*
X8Y194D01*
X1744Y194D02*
X1751Y194D01*
X1Y193D02*
X8Y193D01*
X1744Y193D02*
X1751Y193D01*
X1Y192D02*
X8Y192D01*
X1744Y192D02*
X1751Y192D01*
X1Y191D02*
X8Y191D01*
X1744Y191D02*
X1751Y191D01*
X1Y190D02*
X8Y190D01*
X1744Y190D02*
X1751Y190D01*
X1Y189D02*
X8Y189D01*
X1744Y189D02*
X1751Y189D01*
X1Y188D02*
X8Y188D01*
X1744Y188D02*
X1751Y188D01*
X1Y187D02*
X8Y187D01*
X1744Y187D02*
X1751Y187D01*
X1Y186D02*
X8Y186D01*
X1744Y186D02*
X1751Y186D01*
X1Y185D02*
X8Y185D01*
X1744Y185D02*
X1751Y185D01*
X1Y184D02*
X8Y184D01*
X1744Y184D02*
X1751Y184D01*
X1Y183D02*
X8Y183D01*
X1744Y183D02*
X1751Y183D01*
X1Y182D02*
X8Y182D01*
X1744Y182D02*
X1751Y182D01*
X1Y181D02*
X8Y181D01*
X1744Y181D02*
X1751Y181D01*
X1Y180D02*
X8Y180D01*
X1744Y180D02*
X1751Y180D01*
X1Y179D02*
X8Y179D01*
X1744Y179D02*
X1751Y179D01*
X1Y178D02*
X8Y178D01*
X1744Y178D02*
X1751Y178D01*
X1Y177D02*
X8Y177D01*
X1744Y177D02*
X1751Y177D01*
X1Y176D02*
X8Y176D01*
X1744Y176D02*
X1751Y176D01*
X1Y175D02*
X8Y175D01*
X1744Y175D02*
X1751Y175D01*
X1Y174D02*
X8Y174D01*
X1744Y174D02*
X1751Y174D01*
X1Y173D02*
X8Y173D01*
X1744Y173D02*
X1751Y173D01*
X1Y172D02*
X8Y172D01*
X1744Y172D02*
X1751Y172D01*
X1Y171D02*
X8Y171D01*
X1744Y171D02*
X1751Y171D01*
X1Y170D02*
X8Y170D01*
X1744Y170D02*
X1751Y170D01*
X1Y169D02*
X8Y169D01*
X1744Y169D02*
X1751Y169D01*
X1Y168D02*
X8Y168D01*
X1744Y168D02*
X1751Y168D01*
X1Y167D02*
X8Y167D01*
X1744Y167D02*
X1751Y167D01*
X1Y166D02*
X8Y166D01*
X1744Y166D02*
X1751Y166D01*
X1Y165D02*
X8Y165D01*
X1744Y165D02*
X1751Y165D01*
X1Y164D02*
X8Y164D01*
X1744Y164D02*
X1751Y164D01*
X1Y163D02*
X8Y163D01*
X1744Y163D02*
X1751Y163D01*
X1Y162D02*
X8Y162D01*
X1744Y162D02*
X1751Y162D01*
X1Y161D02*
X8Y161D01*
X1744Y161D02*
X1751Y161D01*
X1Y160D02*
X8Y160D01*
X1744Y160D02*
X1751Y160D01*
X1Y159D02*
X8Y159D01*
X1744Y159D02*
X1751Y159D01*
X1Y158D02*
X8Y158D01*
X1744Y158D02*
X1751Y158D01*
X1Y157D02*
X8Y157D01*
X1744Y157D02*
X1751Y157D01*
X1Y156D02*
X8Y156D01*
X1744Y156D02*
X1751Y156D01*
X1Y155D02*
X8Y155D01*
X1744Y155D02*
X1751Y155D01*
X1Y154D02*
X8Y154D01*
X1744Y154D02*
X1751Y154D01*
X1Y153D02*
X8Y153D01*
X1744Y153D02*
X1751Y153D01*
X1Y152D02*
X8Y152D01*
X1744Y152D02*
X1751Y152D01*
X1Y151D02*
X8Y151D01*
X1744Y151D02*
X1751Y151D01*
X1Y150D02*
X8Y150D01*
X1744Y150D02*
X1751Y150D01*
X1Y149D02*
X8Y149D01*
X1744Y149D02*
X1751Y149D01*
X1Y148D02*
X8Y148D01*
X1744Y148D02*
X1751Y148D01*
X1Y147D02*
X8Y147D01*
X1744Y147D02*
X1751Y147D01*
X1Y146D02*
X8Y146D01*
X1744Y146D02*
X1751Y146D01*
X1Y145D02*
X8Y145D01*
X1744Y145D02*
X1751Y145D01*
X1Y144D02*
X8Y144D01*
X1744Y144D02*
X1751Y144D01*
X1Y143D02*
X8Y143D01*
X1744Y143D02*
X1751Y143D01*
X1Y142D02*
X8Y142D01*
X1744Y142D02*
X1751Y142D01*
X1Y141D02*
X8Y141D01*
X1744Y141D02*
X1751Y141D01*
X1Y140D02*
X8Y140D01*
X1744Y140D02*
X1751Y140D01*
X1Y139D02*
X8Y139D01*
X1744Y139D02*
X1751Y139D01*
X1Y138D02*
X8Y138D01*
X1744Y138D02*
X1751Y138D01*
X1Y137D02*
X8Y137D01*
X1744Y137D02*
X1751Y137D01*
X1Y136D02*
X8Y136D01*
X1744Y136D02*
X1751Y136D01*
X1Y135D02*
X8Y135D01*
X1744Y135D02*
X1751Y135D01*
X1Y134D02*
X8Y134D01*
X1744Y134D02*
X1751Y134D01*
X1Y133D02*
X8Y133D01*
X1744Y133D02*
X1751Y133D01*
X1Y132D02*
X8Y132D01*
X1744Y132D02*
X1751Y132D01*
X1Y131D02*
X8Y131D01*
X1744Y131D02*
X1751Y131D01*
X1Y130D02*
X8Y130D01*
X1744Y130D02*
X1751Y130D01*
X1Y129D02*
X8Y129D01*
X1744Y129D02*
X1751Y129D01*
X1Y128D02*
X8Y128D01*
X1744Y128D02*
X1751Y128D01*
X1Y127D02*
X8Y127D01*
X1744Y127D02*
X1751Y127D01*
X1Y126D02*
X8Y126D01*
X1744Y126D02*
X1751Y126D01*
X1Y125D02*
X8Y125D01*
X1744Y125D02*
X1751Y125D01*
X1Y124D02*
X8Y124D01*
X1744Y124D02*
X1751Y124D01*
X1Y123D02*
X8Y123D01*
X1744Y123D02*
X1751Y123D01*
X1Y122D02*
X8Y122D01*
X1744Y122D02*
X1751Y122D01*
X1Y121D02*
X8Y121D01*
X1744Y121D02*
X1751Y121D01*
X1Y120D02*
X8Y120D01*
X1744Y120D02*
X1751Y120D01*
X1Y119D02*
X8Y119D01*
X1744Y119D02*
X1751Y119D01*
X1Y118D02*
X8Y118D01*
X1744Y118D02*
X1751Y118D01*
X1Y117D02*
X8Y117D01*
X1744Y117D02*
X1751Y117D01*
X1Y116D02*
X8Y116D01*
X1744Y116D02*
X1751Y116D01*
X1Y115D02*
X8Y115D01*
X1744Y115D02*
X1751Y115D01*
X1Y114D02*
X8Y114D01*
X1744Y114D02*
X1751Y114D01*
X1Y113D02*
X8Y113D01*
X1744Y113D02*
X1751Y113D01*
X1Y112D02*
X8Y112D01*
X1744Y112D02*
X1751Y112D01*
X1Y111D02*
X8Y111D01*
X1744Y111D02*
X1751Y111D01*
X1Y110D02*
X8Y110D01*
X1744Y110D02*
X1751Y110D01*
X1Y109D02*
X8Y109D01*
X1744Y109D02*
X1751Y109D01*
X1Y108D02*
X8Y108D01*
X1744Y108D02*
X1751Y108D01*
X1Y107D02*
X8Y107D01*
X1744Y107D02*
X1751Y107D01*
X1Y106D02*
X8Y106D01*
X1744Y106D02*
X1751Y106D01*
X1Y105D02*
X8Y105D01*
X1744Y105D02*
X1751Y105D01*
X1Y104D02*
X8Y104D01*
X1744Y104D02*
X1751Y104D01*
X1Y103D02*
X8Y103D01*
X1744Y103D02*
X1751Y103D01*
X1Y102D02*
X8Y102D01*
X1744Y102D02*
X1751Y102D01*
X1Y101D02*
X8Y101D01*
X1744Y101D02*
X1751Y101D01*
X1Y100D02*
X8Y100D01*
X1744Y100D02*
X1751Y100D01*
X1Y99D02*
X8Y99D01*
X1744Y99D02*
X1751Y99D01*
X1Y98D02*
X8Y98D01*
X1744Y98D02*
X1751Y98D01*
X1Y97D02*
X8Y97D01*
X1744Y97D02*
X1751Y97D01*
X1Y96D02*
X8Y96D01*
X1744Y96D02*
X1751Y96D01*
X1Y95D02*
X8Y95D01*
X1744Y95D02*
X1751Y95D01*
X1Y94D02*
X8Y94D01*
X1744Y94D02*
X1751Y94D01*
X1Y93D02*
X8Y93D01*
X1744Y93D02*
X1751Y93D01*
X1Y92D02*
X8Y92D01*
X1744Y92D02*
X1751Y92D01*
X1Y91D02*
X8Y91D01*
X1744Y91D02*
X1751Y91D01*
X1Y90D02*
X8Y90D01*
X1744Y90D02*
X1751Y90D01*
X1Y89D02*
X8Y89D01*
X1744Y89D02*
X1751Y89D01*
X1Y88D02*
X8Y88D01*
X1744Y88D02*
X1751Y88D01*
X1Y87D02*
X8Y87D01*
X1744Y87D02*
X1751Y87D01*
X1Y86D02*
X8Y86D01*
X1744Y86D02*
X1751Y86D01*
X1Y85D02*
X8Y85D01*
X1744Y85D02*
X1751Y85D01*
X1Y84D02*
X8Y84D01*
X1744Y84D02*
X1751Y84D01*
X1Y83D02*
X8Y83D01*
X1744Y83D02*
X1751Y83D01*
X1Y82D02*
X8Y82D01*
X1744Y82D02*
X1751Y82D01*
X1Y81D02*
X8Y81D01*
X1744Y81D02*
X1751Y81D01*
X1Y80D02*
X8Y80D01*
X1744Y80D02*
X1751Y80D01*
X1Y79D02*
X8Y79D01*
X1744Y79D02*
X1751Y79D01*
X1Y78D02*
X8Y78D01*
X1744Y78D02*
X1751Y78D01*
X1Y77D02*
X8Y77D01*
X1744Y77D02*
X1751Y77D01*
X1Y76D02*
X8Y76D01*
X1744Y76D02*
X1751Y76D01*
X1Y75D02*
X8Y75D01*
X1744Y75D02*
X1751Y75D01*
X1Y74D02*
X8Y74D01*
X1744Y74D02*
X1751Y74D01*
X1Y73D02*
X8Y73D01*
X1744Y73D02*
X1751Y73D01*
X1Y72D02*
X8Y72D01*
X1744Y72D02*
X1751Y72D01*
X1Y71D02*
X8Y71D01*
X1744Y71D02*
X1751Y71D01*
X1Y70D02*
X8Y70D01*
X1744Y70D02*
X1751Y70D01*
X1Y69D02*
X8Y69D01*
X1744Y69D02*
X1751Y69D01*
X1Y68D02*
X8Y68D01*
X1744Y68D02*
X1751Y68D01*
X1Y67D02*
X8Y67D01*
X1744Y67D02*
X1751Y67D01*
X1Y66D02*
X8Y66D01*
X1744Y66D02*
X1751Y66D01*
X1Y65D02*
X8Y65D01*
X1744Y65D02*
X1751Y65D01*
X1Y64D02*
X8Y64D01*
X1744Y64D02*
X1751Y64D01*
X1Y63D02*
X8Y63D01*
X1744Y63D02*
X1751Y63D01*
X1Y62D02*
X8Y62D01*
X1744Y62D02*
X1751Y62D01*
X1Y61D02*
X8Y61D01*
X1744Y61D02*
X1751Y61D01*
X1Y60D02*
X8Y60D01*
X1744Y60D02*
X1751Y60D01*
X1Y59D02*
X8Y59D01*
X1744Y59D02*
X1751Y59D01*
X1Y58D02*
X8Y58D01*
X1744Y58D02*
X1751Y58D01*
X1Y57D02*
X8Y57D01*
X1744Y57D02*
X1751Y57D01*
X1Y56D02*
X8Y56D01*
X1744Y56D02*
X1751Y56D01*
X1Y55D02*
X8Y55D01*
X1744Y55D02*
X1751Y55D01*
X1Y54D02*
X8Y54D01*
X1744Y54D02*
X1751Y54D01*
X1Y53D02*
X8Y53D01*
X1744Y53D02*
X1751Y53D01*
X1Y52D02*
X8Y52D01*
X1744Y52D02*
X1751Y52D01*
X1Y51D02*
X8Y51D01*
X1744Y51D02*
X1751Y51D01*
X1Y50D02*
X8Y50D01*
X1744Y50D02*
X1751Y50D01*
X1Y49D02*
X8Y49D01*
X1744Y49D02*
X1751Y49D01*
X1Y48D02*
X8Y48D01*
X1744Y48D02*
X1751Y48D01*
X1Y47D02*
X8Y47D01*
X1744Y47D02*
X1751Y47D01*
X1Y46D02*
X8Y46D01*
X1744Y46D02*
X1751Y46D01*
X1Y45D02*
X8Y45D01*
X1744Y45D02*
X1751Y45D01*
X1Y44D02*
X8Y44D01*
X1744Y44D02*
X1751Y44D01*
X1Y43D02*
X8Y43D01*
X1744Y43D02*
X1751Y43D01*
X1Y42D02*
X8Y42D01*
X1744Y42D02*
X1751Y42D01*
X1Y41D02*
X8Y41D01*
X1744Y41D02*
X1751Y41D01*
X1Y40D02*
X8Y40D01*
X1744Y40D02*
X1751Y40D01*
X1Y39D02*
X8Y39D01*
X1744Y39D02*
X1751Y39D01*
X1Y38D02*
X8Y38D01*
X1744Y38D02*
X1751Y38D01*
X1Y37D02*
X8Y37D01*
X1744Y37D02*
X1751Y37D01*
X1Y36D02*
X8Y36D01*
X1744Y36D02*
X1751Y36D01*
X1Y35D02*
X8Y35D01*
X1744Y35D02*
X1751Y35D01*
X1Y34D02*
X8Y34D01*
X1744Y34D02*
X1751Y34D01*
X1Y33D02*
X8Y33D01*
X1744Y33D02*
X1751Y33D01*
X1Y32D02*
X8Y32D01*
X1744Y32D02*
X1751Y32D01*
X1Y31D02*
X8Y31D01*
X1744Y31D02*
X1751Y31D01*
X1Y30D02*
X8Y30D01*
X1744Y30D02*
X1751Y30D01*
X1Y29D02*
X8Y29D01*
X1744Y29D02*
X1751Y29D01*
X1Y28D02*
X8Y28D01*
X1744Y28D02*
X1751Y28D01*
X1Y27D02*
X8Y27D01*
X1744Y27D02*
X1751Y27D01*
X1Y26D02*
X8Y26D01*
X1744Y26D02*
X1751Y26D01*
X1Y25D02*
X8Y25D01*
X1744Y25D02*
X1751Y25D01*
X1Y24D02*
X8Y24D01*
X1744Y24D02*
X1751Y24D01*
X1Y23D02*
X8Y23D01*
X1744Y23D02*
X1751Y23D01*
X1Y22D02*
X8Y22D01*
X1744Y22D02*
X1751Y22D01*
X1Y21D02*
X8Y21D01*
X1744Y21D02*
X1751Y21D01*
X1Y20D02*
X8Y20D01*
X1744Y20D02*
X1751Y20D01*
X1Y19D02*
X8Y19D01*
X1744Y19D02*
X1751Y19D01*
X1Y18D02*
X8Y18D01*
X1744Y18D02*
X1751Y18D01*
X1Y17D02*
X8Y17D01*
X1744Y17D02*
X1751Y17D01*
X1Y16D02*
X8Y16D01*
X1744Y16D02*
X1751Y16D01*
X1Y15D02*
X8Y15D01*
X1744Y15D02*
X1751Y15D01*
X1Y14D02*
X8Y14D01*
X1744Y14D02*
X1751Y14D01*
X1Y13D02*
X8Y13D01*
X1744Y13D02*
X1751Y13D01*
X1Y12D02*
X8Y12D01*
X1744Y12D02*
X1751Y12D01*
X1Y11D02*
X8Y11D01*
X1744Y11D02*
X1751Y11D01*
X1Y10D02*
X8Y10D01*
X1744Y10D02*
X1751Y10D01*
X1Y9D02*
X8Y9D01*
X1744Y9D02*
X1751Y9D01*
X1Y8D02*
X1751Y8D01*
X1Y7D02*
X1751Y7D01*
X1Y6D02*
X1751Y6D01*
X1Y5D02*
X1751Y5D01*
X1Y4D02*
X1751Y4D01*
X1Y3D02*
X1751Y3D01*
X1Y2D02*
X1751Y2D01*
X1Y1D02*
X1751Y1D01*
D02*
G04 End of Silk0*
M02*