G04 MADE WITH FRITZING*
G04 WWW.FRITZING.ORG*
G04 DOUBLE SIDED*
G04 HOLES PLATED*
G04 CONTOUR ON CENTER OF CONTOUR VECTOR*
%FSLAX26Y26*%
%MOIN*%
%ADD10C,0.074000*%
%ADD11C,0.075000*%
%ADD12C,0.080000*%
%ADD13C,0.039370*%
%ADD14R,0.075000X0.075000*%
%ADD15R,0.080000X0.079986*%
%ADD16C,0.024000*%
%G04COPPER0*%
%FSLAX26Y26*%
%MOIN*%
D10*
X1554720Y1585050D03*
X1454720Y1575050D03*
X1354720Y1585050D03*
X1254720Y1575050D03*
X1154720Y1585050D03*
X1054720Y1575050D03*
X1554720Y1585050D03*
X1454720Y1575050D03*
X1354720Y1585050D03*
X1254720Y1575050D03*
X1154720Y1585050D03*
X1054720Y1575050D03*
D11*
X754721Y475050D03*
X1054720Y475050D03*
X754721Y375050D03*
X1054720Y375050D03*
D12*
X255841Y1705737D03*
X455841Y1705737D03*
X255841Y1705737D03*
X455841Y1705737D03*
D11*
X481207Y75050D03*
X81207Y75050D03*
X1654720Y75050D03*
X1254720Y75050D03*
D13*
X75044Y1553988D03*
X354719Y1445101D03*
D14*
X754721Y475050D03*
D15*
X255841Y1705744D03*
X255841Y1705744D03*
D16*
X1172720Y108040D02*
X756152Y110760D01*
D02*
X756152Y110760D02*
X754815Y357550D01*
D02*
X1238480Y81580D02*
X1172720Y108040D01*
D02*
X81134Y92550D02*
X75077Y1546114D01*
D02*
X475841Y1705630D02*
X1254830Y1701475D01*
D02*
X1254830Y1701475D02*
X1254740Y1595050D01*
D02*
X273033Y1695516D02*
X381103Y1631265D01*
D02*
X944734Y1629315D02*
X1036780Y1583899D01*
D02*
X381103Y1631265D02*
X944734Y1629315D01*
D02*
X362594Y1445097D02*
X875948Y1444870D01*
D02*
X1158680Y906189D02*
X1161760Y435600D01*
D02*
X1161760Y435600D02*
X1069950Y383660D01*
D02*
X1155610Y1333718D02*
X1158680Y906189D01*
D02*
X875948Y1444870D02*
X1155610Y1333718D01*
G04 End of Copper0*
M02*