G04 MADE WITH FRITZING*
G04 WWW.FRITZING.ORG*
G04 DOUBLE SIDED*
G04 HOLES PLATED*
G04 CONTOUR ON CENTER OF CONTOUR VECTOR*
%FSLAX26Y26*%
%MOIN*%
%ADD10C,0.082000*%
%ADD11C,0.078000*%
%ADD12C,0.039370*%
%ADD13C,0.074000*%
%ADD14C,0.075000*%
%ADD15R,0.082000X0.082000*%
%ADD16R,0.075000X0.075000*%
%ADD17C,0.024000*%
%G04COPPER0*%
%FSLAX26Y26*%
%MOIN*%
D10*
X1059030Y777606D03*
X1059030Y1075606D03*
D11*
X204380Y730520D03*
X304380Y730520D03*
D12*
X234370Y1080343D03*
X563999Y1079140D03*
D13*
X1554720Y1516210D03*
X1454720Y1506210D03*
X1354720Y1516210D03*
X1254720Y1506210D03*
X1154720Y1516210D03*
X1054720Y1506210D03*
X1554720Y1516210D03*
X1454720Y1506210D03*
X1354720Y1516210D03*
X1254720Y1506210D03*
X1154720Y1516210D03*
X1054720Y1506210D03*
D14*
X754721Y406210D03*
X1054720Y406210D03*
X754721Y306210D03*
X1054720Y306210D03*
X618882Y143890D03*
X218882Y143890D03*
X1564700Y138590D03*
X1164700Y138590D03*
D15*
X1059030Y776606D03*
D16*
X754721Y406210D03*
D17*
X1052430Y1342876D02*
X993847Y1268316D01*
D02*
X1054440Y1486212D02*
X1052430Y1342876D01*
D02*
X993841Y1268316D02*
X995998Y1007140D01*
D02*
X996508Y868889D02*
X1047170Y794931D01*
D02*
X995997Y1007140D02*
X996503Y868889D01*
D02*
X851241Y136400D02*
X1147200Y138470D01*
D02*
X763366Y291000D02*
X851237Y136400D01*
D02*
X241272Y1076554D02*
X323999Y1031140D01*
D02*
X324000Y1031140D02*
X324000Y791140D01*
X324000Y791140D02*
X310231Y748593D01*
D02*
X689997Y65340D02*
X1304900Y62610D01*
D02*
X630631Y130920D02*
X690000Y65350D01*
D02*
X1304910Y62610D02*
X1299440Y245720D01*
D02*
X1299440Y245710D02*
X1069360Y396610D01*
D02*
X565676Y1188125D02*
X43500Y1190789D01*
D02*
X564121Y1087013D02*
X565675Y1188124D01*
D02*
X50494Y734907D02*
X185388Y731057D01*
D02*
X47761Y1087454D02*
X50494Y734908D01*
D02*
X43499Y1190788D02*
X47761Y1087453D01*
D02*
X645008Y637220D02*
X1020000Y743140D01*
D02*
X218956Y634550D02*
X645011Y637220D01*
D02*
X218885Y161390D02*
X218955Y634560D01*
D02*
X1020000Y743140D02*
X1043290Y763707D01*
G04 End of Copper0*
M02*