G04 MADE WITH FRITZING*
G04 WWW.FRITZING.ORG*
G04 DOUBLE SIDED*
G04 HOLES PLATED*
G04 CONTOUR ON CENTER OF CONTOUR VECTOR*
%ASAXBY*%
%FSLAX23Y23*%
%MOIN*%
%OFA0B0*%
%SFA1.0B1.0*%
%ADD10C,0.090000*%
%ADD11C,0.085000*%
%ADD12C,0.049370*%
%ADD13C,0.084000*%
%ADD14C,0.074000*%
%ADD15R,0.090000X0.089986*%
%ADD16R,0.080247X0.131256*%
%ADD17R,0.080000X0.131256*%
%ADD18R,0.085000X0.085000*%
%ADD19R,0.191102X0.049370*%
%ADD20R,0.143858X0.072992*%
%LNMASK1*%
G90*
G70*
G54D10*
X237Y1701D03*
X437Y1701D03*
X237Y1701D03*
X437Y1701D03*
G54D11*
X537Y115D03*
X137Y115D03*
X1637Y115D03*
X1237Y115D03*
G54D12*
X60Y1411D03*
X324Y1459D03*
G54D13*
X1537Y1625D03*
X1437Y1615D03*
X1337Y1625D03*
X1237Y1615D03*
X1137Y1625D03*
X1037Y1615D03*
X1537Y1625D03*
X1437Y1615D03*
X1337Y1625D03*
X1237Y1615D03*
X1137Y1625D03*
X1037Y1615D03*
G54D14*
X198Y1335D03*
X298Y1335D03*
X398Y1335D03*
X198Y1235D03*
X298Y1235D03*
X398Y1235D03*
G54D11*
X737Y515D03*
X1037Y515D03*
X737Y415D03*
X1037Y415D03*
G54D15*
X237Y1701D03*
X237Y1701D03*
G54D16*
X443Y1112D03*
X535Y1112D03*
X237Y954D03*
X337Y954D03*
X437Y954D03*
X537Y954D03*
X637Y954D03*
X737Y954D03*
X837Y954D03*
G54D17*
X837Y1615D03*
X737Y1615D03*
X637Y1615D03*
X537Y1615D03*
X437Y1615D03*
X337Y1615D03*
X237Y1615D03*
G54D18*
X737Y515D03*
G54D19*
X1337Y1215D03*
X1337Y1136D03*
G54D20*
X1542Y1310D03*
X1542Y1042D03*
G54D19*
X337Y515D03*
X337Y594D03*
G54D20*
X132Y421D03*
X132Y688D03*
G54D19*
X1337Y715D03*
X1337Y636D03*
G54D20*
X1542Y810D03*
X1542Y542D03*
G04 End of Mask1*
M02*