G04 MADE WITH FRITZING*
G04 WWW.FRITZING.ORG*
G04 DOUBLE SIDED*
G04 HOLES PLATED*
G04 CONTOUR ON CENTER OF CONTOUR VECTOR*
%FSLAX26Y26*%
%MOIN*%
%ADD10C,0.005000*%
%ADD11R,0.001000X0.001000*%
%G04SILK0*%
%FSLAX26Y26*%
%MOIN*%
D10*
X1604720Y1636210D02*
X1604720Y1416210D01*
D02*
X1004720Y1636210D02*
X1004720Y1416210D01*
D02*
X1004720Y1636210D02*
X1604720Y1636210D01*
D02*
X1004720Y1416210D02*
X1054720Y1416210D01*
D02*
X1054720Y1416210D02*
X1554720Y1416210D01*
D02*
X1554720Y1416210D02*
X1604720Y1416210D01*
D02*
X1554720Y1416210D02*
X1554720Y1466210D01*
D11*
X500Y1714640D02*
X1736500Y1714640D01*
X500Y1713640D02*
X1736500Y1713640D01*
X500Y1712640D02*
X1736500Y1712640D01*
X500Y1711640D02*
X1736500Y1711640D01*
X500Y1710640D02*
X1736500Y1710640D01*
X500Y1709640D02*
X1736500Y1709640D01*
X500Y1708640D02*
X1736500Y1708640D01*
X500Y1707640D02*
X1736500Y1707640D01*
X500Y1706640D02*
X7500Y1706640D01*
X1729500Y1706640D02*
X1736500Y1706640D01*
X500Y1705640D02*
X7500Y1705640D01*
X1729500Y1705640D02*
X1736500Y1705640D01*
X500Y1704640D02*
X7500Y1704640D01*
X1729500Y1704640D02*
X1736500Y1704640D01*
X500Y1703640D02*
X7500Y1703640D01*
X1729500Y1703640D02*
X1736500Y1703640D01*
X500Y1702640D02*
X7500Y1702640D01*
X1729500Y1702640D02*
X1736500Y1702640D01*
X500Y1701640D02*
X7500Y1701640D01*
X1729500Y1701640D02*
X1736500Y1701640D01*
X500Y1700640D02*
X7500Y1700640D01*
X1729500Y1700640D02*
X1736500Y1700640D01*
X500Y1699640D02*
X7500Y1699640D01*
X1729500Y1699640D02*
X1736500Y1699640D01*
X500Y1698640D02*
X7500Y1698640D01*
X1729500Y1698640D02*
X1736500Y1698640D01*
X500Y1697640D02*
X7500Y1697640D01*
X1729500Y1697640D02*
X1736500Y1697640D01*
X500Y1696640D02*
X7500Y1696640D01*
X1729500Y1696640D02*
X1736500Y1696640D01*
X500Y1695640D02*
X7500Y1695640D01*
X1729500Y1695640D02*
X1736500Y1695640D01*
X500Y1694640D02*
X7500Y1694640D01*
X1729500Y1694640D02*
X1736500Y1694640D01*
X500Y1693640D02*
X7500Y1693640D01*
X1729500Y1693640D02*
X1736500Y1693640D01*
X500Y1692640D02*
X7500Y1692640D01*
X1729500Y1692640D02*
X1736500Y1692640D01*
X500Y1691640D02*
X7500Y1691640D01*
X1729500Y1691640D02*
X1736500Y1691640D01*
X500Y1690640D02*
X7500Y1690640D01*
X1729500Y1690640D02*
X1736500Y1690640D01*
X500Y1689640D02*
X7500Y1689640D01*
X1729500Y1689640D02*
X1736500Y1689640D01*
X500Y1688640D02*
X7500Y1688640D01*
X1729500Y1688640D02*
X1736500Y1688640D01*
X500Y1687640D02*
X7500Y1687640D01*
X1729500Y1687640D02*
X1736500Y1687640D01*
X500Y1686640D02*
X7500Y1686640D01*
X1729500Y1686640D02*
X1736500Y1686640D01*
X500Y1685640D02*
X7500Y1685640D01*
X1729500Y1685640D02*
X1736500Y1685640D01*
X500Y1684640D02*
X7500Y1684640D01*
X1729500Y1684640D02*
X1736500Y1684640D01*
X500Y1683640D02*
X7500Y1683640D01*
X1729500Y1683640D02*
X1736500Y1683640D01*
X500Y1682640D02*
X7500Y1682640D01*
X1729500Y1682640D02*
X1736500Y1682640D01*
X500Y1681640D02*
X7500Y1681640D01*
X1729500Y1681640D02*
X1736500Y1681640D01*
X500Y1680640D02*
X7500Y1680640D01*
X1729500Y1680640D02*
X1736500Y1680640D01*
X500Y1679640D02*
X7500Y1679640D01*
X1729500Y1679640D02*
X1736500Y1679640D01*
X500Y1678640D02*
X7500Y1678640D01*
X1729500Y1678640D02*
X1736500Y1678640D01*
X500Y1677640D02*
X7500Y1677640D01*
X1729500Y1677640D02*
X1736500Y1677640D01*
X500Y1676640D02*
X7500Y1676640D01*
X1729500Y1676640D02*
X1736500Y1676640D01*
X500Y1675640D02*
X7500Y1675640D01*
X1729500Y1675640D02*
X1736500Y1675640D01*
X500Y1674640D02*
X7500Y1674640D01*
X1729500Y1674640D02*
X1736500Y1674640D01*
X500Y1673640D02*
X7500Y1673640D01*
X1729500Y1673640D02*
X1736500Y1673640D01*
X500Y1672640D02*
X7500Y1672640D01*
X1729500Y1672640D02*
X1736500Y1672640D01*
X500Y1671640D02*
X7500Y1671640D01*
X1729500Y1671640D02*
X1736500Y1671640D01*
X500Y1670640D02*
X7500Y1670640D01*
X1729500Y1670640D02*
X1736500Y1670640D01*
X500Y1669640D02*
X7500Y1669640D01*
X1729500Y1669640D02*
X1736500Y1669640D01*
X500Y1668640D02*
X7500Y1668640D01*
X1729500Y1668640D02*
X1736500Y1668640D01*
X500Y1667640D02*
X7500Y1667640D01*
X1729500Y1667640D02*
X1736500Y1667640D01*
X500Y1666640D02*
X7500Y1666640D01*
X1729500Y1666640D02*
X1736500Y1666640D01*
X500Y1665640D02*
X7500Y1665640D01*
X1729500Y1665640D02*
X1736500Y1665640D01*
X500Y1664640D02*
X7500Y1664640D01*
X1729500Y1664640D02*
X1736500Y1664640D01*
X500Y1663640D02*
X7500Y1663640D01*
X1729500Y1663640D02*
X1736500Y1663640D01*
X500Y1662640D02*
X7500Y1662640D01*
X1729500Y1662640D02*
X1736500Y1662640D01*
X500Y1661640D02*
X7500Y1661640D01*
X1729500Y1661640D02*
X1736500Y1661640D01*
X500Y1660640D02*
X7500Y1660640D01*
X1729500Y1660640D02*
X1736500Y1660640D01*
X500Y1659640D02*
X7500Y1659640D01*
X1729500Y1659640D02*
X1736500Y1659640D01*
X500Y1658640D02*
X7500Y1658640D01*
X1729500Y1658640D02*
X1736500Y1658640D01*
X500Y1657640D02*
X7500Y1657640D01*
X1729500Y1657640D02*
X1736500Y1657640D01*
X500Y1656640D02*
X7500Y1656640D01*
X1729500Y1656640D02*
X1736500Y1656640D01*
X500Y1655640D02*
X7500Y1655640D01*
X1729500Y1655640D02*
X1736500Y1655640D01*
X500Y1654640D02*
X7500Y1654640D01*
X1729500Y1654640D02*
X1736500Y1654640D01*
X500Y1653640D02*
X7500Y1653640D01*
X1729500Y1653640D02*
X1736500Y1653640D01*
X500Y1652640D02*
X7500Y1652640D01*
X1729500Y1652640D02*
X1736500Y1652640D01*
X500Y1651640D02*
X7500Y1651640D01*
X1729500Y1651640D02*
X1736500Y1651640D01*
X500Y1650640D02*
X7500Y1650640D01*
X1729500Y1650640D02*
X1736500Y1650640D01*
X500Y1649640D02*
X7500Y1649640D01*
X1729500Y1649640D02*
X1736500Y1649640D01*
X500Y1648640D02*
X7500Y1648640D01*
X1729500Y1648640D02*
X1736500Y1648640D01*
X500Y1647640D02*
X7500Y1647640D01*
X1729500Y1647640D02*
X1736500Y1647640D01*
X500Y1646640D02*
X7500Y1646640D01*
X1729500Y1646640D02*
X1736500Y1646640D01*
X500Y1645640D02*
X7500Y1645640D01*
X1729500Y1645640D02*
X1736500Y1645640D01*
X500Y1644640D02*
X7500Y1644640D01*
X1729500Y1644640D02*
X1736500Y1644640D01*
X500Y1643640D02*
X7500Y1643640D01*
X1729500Y1643640D02*
X1736500Y1643640D01*
X500Y1642640D02*
X7500Y1642640D01*
X1729500Y1642640D02*
X1736500Y1642640D01*
X500Y1641640D02*
X7500Y1641640D01*
X1729500Y1641640D02*
X1736500Y1641640D01*
X500Y1640640D02*
X7500Y1640640D01*
X1729500Y1640640D02*
X1736500Y1640640D01*
X500Y1639640D02*
X7500Y1639640D01*
X1729500Y1639640D02*
X1736500Y1639640D01*
X500Y1638640D02*
X7500Y1638640D01*
X1729500Y1638640D02*
X1736500Y1638640D01*
X500Y1637640D02*
X7500Y1637640D01*
X1729500Y1637640D02*
X1736500Y1637640D01*
X500Y1636640D02*
X7500Y1636640D01*
X1729500Y1636640D02*
X1736500Y1636640D01*
X500Y1635640D02*
X7500Y1635640D01*
X1729500Y1635640D02*
X1736500Y1635640D01*
X500Y1634640D02*
X7500Y1634640D01*
X1729500Y1634640D02*
X1736500Y1634640D01*
X500Y1633640D02*
X7500Y1633640D01*
X1729500Y1633640D02*
X1736500Y1633640D01*
X500Y1632640D02*
X7500Y1632640D01*
X1729500Y1632640D02*
X1736500Y1632640D01*
X500Y1631640D02*
X7500Y1631640D01*
X1729500Y1631640D02*
X1736500Y1631640D01*
X500Y1630640D02*
X7500Y1630640D01*
X1729500Y1630640D02*
X1736500Y1630640D01*
X500Y1629640D02*
X7500Y1629640D01*
X1729500Y1629640D02*
X1736500Y1629640D01*
X500Y1628640D02*
X7500Y1628640D01*
X1729500Y1628640D02*
X1736500Y1628640D01*
X500Y1627640D02*
X7500Y1627640D01*
X1729500Y1627640D02*
X1736500Y1627640D01*
X500Y1626640D02*
X7500Y1626640D01*
X1729500Y1626640D02*
X1736500Y1626640D01*
X500Y1625640D02*
X7500Y1625640D01*
X1729500Y1625640D02*
X1736500Y1625640D01*
X500Y1624640D02*
X7500Y1624640D01*
X1729500Y1624640D02*
X1736500Y1624640D01*
X500Y1623640D02*
X7500Y1623640D01*
X1729500Y1623640D02*
X1736500Y1623640D01*
X500Y1622640D02*
X7500Y1622640D01*
X1729500Y1622640D02*
X1736500Y1622640D01*
X500Y1621640D02*
X7500Y1621640D01*
X1729500Y1621640D02*
X1736500Y1621640D01*
X500Y1620640D02*
X7500Y1620640D01*
X1729500Y1620640D02*
X1736500Y1620640D01*
X500Y1619640D02*
X7500Y1619640D01*
X1729500Y1619640D02*
X1736500Y1619640D01*
X500Y1618640D02*
X7500Y1618640D01*
X1729500Y1618640D02*
X1736500Y1618640D01*
X500Y1617640D02*
X7500Y1617640D01*
X1729500Y1617640D02*
X1736500Y1617640D01*
X500Y1616640D02*
X7500Y1616640D01*
X1729500Y1616640D02*
X1736500Y1616640D01*
X500Y1615640D02*
X7500Y1615640D01*
X1729500Y1615640D02*
X1736500Y1615640D01*
X500Y1614640D02*
X7500Y1614640D01*
X1729500Y1614640D02*
X1736500Y1614640D01*
X500Y1613640D02*
X7500Y1613640D01*
X1729500Y1613640D02*
X1736500Y1613640D01*
X500Y1612640D02*
X7500Y1612640D01*
X1729500Y1612640D02*
X1736500Y1612640D01*
X500Y1611640D02*
X7500Y1611640D01*
X1729500Y1611640D02*
X1736500Y1611640D01*
X500Y1610640D02*
X7500Y1610640D01*
X1729500Y1610640D02*
X1736500Y1610640D01*
X500Y1609640D02*
X7500Y1609640D01*
X1729500Y1609640D02*
X1736500Y1609640D01*
X500Y1608640D02*
X7500Y1608640D01*
X1729500Y1608640D02*
X1736500Y1608640D01*
X500Y1607640D02*
X7500Y1607640D01*
X1729500Y1607640D02*
X1736500Y1607640D01*
X500Y1606640D02*
X7500Y1606640D01*
X1729500Y1606640D02*
X1736500Y1606640D01*
X500Y1605640D02*
X7500Y1605640D01*
X1729500Y1605640D02*
X1736500Y1605640D01*
X500Y1604640D02*
X7500Y1604640D01*
X1729500Y1604640D02*
X1736500Y1604640D01*
X500Y1603640D02*
X7500Y1603640D01*
X1729500Y1603640D02*
X1736500Y1603640D01*
X500Y1602640D02*
X7500Y1602640D01*
X1729500Y1602640D02*
X1736500Y1602640D01*
X500Y1601640D02*
X7500Y1601640D01*
X1729500Y1601640D02*
X1736500Y1601640D01*
X500Y1600640D02*
X7500Y1600640D01*
X1729500Y1600640D02*
X1736500Y1600640D01*
X500Y1599640D02*
X7500Y1599640D01*
X1729500Y1599640D02*
X1736500Y1599640D01*
X500Y1598640D02*
X7500Y1598640D01*
X1729500Y1598640D02*
X1736500Y1598640D01*
X500Y1597640D02*
X7500Y1597640D01*
X1729500Y1597640D02*
X1736500Y1597640D01*
X500Y1596640D02*
X7500Y1596640D01*
X1729500Y1596640D02*
X1736500Y1596640D01*
X500Y1595640D02*
X7500Y1595640D01*
X1729500Y1595640D02*
X1736500Y1595640D01*
X500Y1594640D02*
X7500Y1594640D01*
X1729500Y1594640D02*
X1736500Y1594640D01*
X500Y1593640D02*
X7500Y1593640D01*
X1729500Y1593640D02*
X1736500Y1593640D01*
X500Y1592640D02*
X7500Y1592640D01*
X1729500Y1592640D02*
X1736500Y1592640D01*
X500Y1591640D02*
X7500Y1591640D01*
X1729500Y1591640D02*
X1736500Y1591640D01*
X500Y1590640D02*
X7500Y1590640D01*
X1729500Y1590640D02*
X1736500Y1590640D01*
X500Y1589640D02*
X7500Y1589640D01*
X1729500Y1589640D02*
X1736500Y1589640D01*
X500Y1588640D02*
X7500Y1588640D01*
X1729500Y1588640D02*
X1736500Y1588640D01*
X500Y1587640D02*
X7500Y1587640D01*
X1729500Y1587640D02*
X1736500Y1587640D01*
X500Y1586640D02*
X7500Y1586640D01*
X1729500Y1586640D02*
X1736500Y1586640D01*
X500Y1585640D02*
X7500Y1585640D01*
X1729500Y1585640D02*
X1736500Y1585640D01*
X500Y1584640D02*
X7500Y1584640D01*
X1729500Y1584640D02*
X1736500Y1584640D01*
X500Y1583640D02*
X7500Y1583640D01*
X1729500Y1583640D02*
X1736500Y1583640D01*
X500Y1582640D02*
X7500Y1582640D01*
X1729500Y1582640D02*
X1736500Y1582640D01*
X500Y1581640D02*
X7500Y1581640D01*
X1729500Y1581640D02*
X1736500Y1581640D01*
X500Y1580640D02*
X7500Y1580640D01*
X1729500Y1580640D02*
X1736500Y1580640D01*
X500Y1579640D02*
X7500Y1579640D01*
X1729500Y1579640D02*
X1736500Y1579640D01*
X500Y1578640D02*
X7500Y1578640D01*
X1729500Y1578640D02*
X1736500Y1578640D01*
X500Y1577640D02*
X7500Y1577640D01*
X1729500Y1577640D02*
X1736500Y1577640D01*
X500Y1576640D02*
X7500Y1576640D01*
X1729500Y1576640D02*
X1736500Y1576640D01*
X500Y1575640D02*
X7500Y1575640D01*
X1729500Y1575640D02*
X1736500Y1575640D01*
X500Y1574640D02*
X7500Y1574640D01*
X1729500Y1574640D02*
X1736500Y1574640D01*
X500Y1573640D02*
X7500Y1573640D01*
X1729500Y1573640D02*
X1736500Y1573640D01*
X500Y1572640D02*
X7500Y1572640D01*
X1729500Y1572640D02*
X1736500Y1572640D01*
X500Y1571640D02*
X7500Y1571640D01*
X1729500Y1571640D02*
X1736500Y1571640D01*
X500Y1570640D02*
X7500Y1570640D01*
X1729500Y1570640D02*
X1736500Y1570640D01*
X500Y1569640D02*
X7500Y1569640D01*
X1729500Y1569640D02*
X1736500Y1569640D01*
X500Y1568640D02*
X7500Y1568640D01*
X1729500Y1568640D02*
X1736500Y1568640D01*
X500Y1567640D02*
X7500Y1567640D01*
X1729500Y1567640D02*
X1736500Y1567640D01*
X500Y1566640D02*
X7500Y1566640D01*
X1729500Y1566640D02*
X1736500Y1566640D01*
X500Y1565640D02*
X7500Y1565640D01*
X1729500Y1565640D02*
X1736500Y1565640D01*
X500Y1564640D02*
X7500Y1564640D01*
X1729500Y1564640D02*
X1736500Y1564640D01*
X500Y1563640D02*
X7500Y1563640D01*
X1729500Y1563640D02*
X1736500Y1563640D01*
X500Y1562640D02*
X7500Y1562640D01*
X1729500Y1562640D02*
X1736500Y1562640D01*
X500Y1561640D02*
X7500Y1561640D01*
X1729500Y1561640D02*
X1736500Y1561640D01*
X500Y1560640D02*
X7500Y1560640D01*
X1729500Y1560640D02*
X1736500Y1560640D01*
X500Y1559640D02*
X7500Y1559640D01*
X1729500Y1559640D02*
X1736500Y1559640D01*
X500Y1558640D02*
X7500Y1558640D01*
X1729500Y1558640D02*
X1736500Y1558640D01*
X500Y1557640D02*
X7500Y1557640D01*
X1729500Y1557640D02*
X1736500Y1557640D01*
X500Y1556640D02*
X7500Y1556640D01*
X1729500Y1556640D02*
X1736500Y1556640D01*
X500Y1555640D02*
X7500Y1555640D01*
X1729500Y1555640D02*
X1736500Y1555640D01*
X500Y1554640D02*
X7500Y1554640D01*
X1729500Y1554640D02*
X1736500Y1554640D01*
X500Y1553640D02*
X7500Y1553640D01*
X1729500Y1553640D02*
X1736500Y1553640D01*
X500Y1552640D02*
X7500Y1552640D01*
X1729500Y1552640D02*
X1736500Y1552640D01*
X500Y1551640D02*
X7500Y1551640D01*
X1729500Y1551640D02*
X1736500Y1551640D01*
X500Y1550640D02*
X7500Y1550640D01*
X1729500Y1550640D02*
X1736500Y1550640D01*
X500Y1549640D02*
X7500Y1549640D01*
X1729500Y1549640D02*
X1736500Y1549640D01*
X500Y1548640D02*
X7500Y1548640D01*
X1729500Y1548640D02*
X1736500Y1548640D01*
X500Y1547640D02*
X7500Y1547640D01*
X1729500Y1547640D02*
X1736500Y1547640D01*
X500Y1546640D02*
X7500Y1546640D01*
X1729500Y1546640D02*
X1736500Y1546640D01*
X500Y1545640D02*
X7500Y1545640D01*
X1729500Y1545640D02*
X1736500Y1545640D01*
X500Y1544640D02*
X7500Y1544640D01*
X1729500Y1544640D02*
X1736500Y1544640D01*
X500Y1543640D02*
X7500Y1543640D01*
X1729500Y1543640D02*
X1736500Y1543640D01*
X500Y1542640D02*
X7500Y1542640D01*
X1729500Y1542640D02*
X1736500Y1542640D01*
X500Y1541640D02*
X7500Y1541640D01*
X1729500Y1541640D02*
X1736500Y1541640D01*
X500Y1540640D02*
X7500Y1540640D01*
X1729500Y1540640D02*
X1736500Y1540640D01*
X500Y1539640D02*
X7500Y1539640D01*
X1729500Y1539640D02*
X1736500Y1539640D01*
X500Y1538640D02*
X7500Y1538640D01*
X1729500Y1538640D02*
X1736500Y1538640D01*
X500Y1537640D02*
X7500Y1537640D01*
X1729500Y1537640D02*
X1736500Y1537640D01*
X500Y1536640D02*
X7500Y1536640D01*
X1729500Y1536640D02*
X1736500Y1536640D01*
X500Y1535640D02*
X7500Y1535640D01*
X1729500Y1535640D02*
X1736500Y1535640D01*
X500Y1534640D02*
X7500Y1534640D01*
X1729500Y1534640D02*
X1736500Y1534640D01*
X500Y1533640D02*
X7500Y1533640D01*
X1729500Y1533640D02*
X1736500Y1533640D01*
X500Y1532640D02*
X7500Y1532640D01*
X1729500Y1532640D02*
X1736500Y1532640D01*
X500Y1531640D02*
X7500Y1531640D01*
X1729500Y1531640D02*
X1736500Y1531640D01*
X500Y1530640D02*
X7500Y1530640D01*
X1729500Y1530640D02*
X1736500Y1530640D01*
X500Y1529640D02*
X7500Y1529640D01*
X1729500Y1529640D02*
X1736500Y1529640D01*
X500Y1528640D02*
X7500Y1528640D01*
X1729500Y1528640D02*
X1736500Y1528640D01*
X500Y1527640D02*
X7500Y1527640D01*
X1729500Y1527640D02*
X1736500Y1527640D01*
X500Y1526640D02*
X7500Y1526640D01*
X1729500Y1526640D02*
X1736500Y1526640D01*
X500Y1525640D02*
X7500Y1525640D01*
X1729500Y1525640D02*
X1736500Y1525640D01*
X500Y1524640D02*
X7500Y1524640D01*
X1729500Y1524640D02*
X1736500Y1524640D01*
X500Y1523640D02*
X7500Y1523640D01*
X1729500Y1523640D02*
X1736500Y1523640D01*
X500Y1522640D02*
X7500Y1522640D01*
X1729500Y1522640D02*
X1736500Y1522640D01*
X500Y1521640D02*
X7500Y1521640D01*
X1729500Y1521640D02*
X1736500Y1521640D01*
X500Y1520640D02*
X7500Y1520640D01*
X1729500Y1520640D02*
X1736500Y1520640D01*
X500Y1519640D02*
X7500Y1519640D01*
X1729500Y1519640D02*
X1736500Y1519640D01*
X500Y1518640D02*
X7500Y1518640D01*
X1729500Y1518640D02*
X1736500Y1518640D01*
X500Y1517640D02*
X7500Y1517640D01*
X1729500Y1517640D02*
X1736500Y1517640D01*
X500Y1516640D02*
X7500Y1516640D01*
X1729500Y1516640D02*
X1736500Y1516640D01*
X500Y1515640D02*
X7500Y1515640D01*
X1729500Y1515640D02*
X1736500Y1515640D01*
X500Y1514640D02*
X7500Y1514640D01*
X1729500Y1514640D02*
X1736500Y1514640D01*
X500Y1513640D02*
X7500Y1513640D01*
X1729500Y1513640D02*
X1736500Y1513640D01*
X500Y1512640D02*
X7500Y1512640D01*
X1729500Y1512640D02*
X1736500Y1512640D01*
X500Y1511640D02*
X7500Y1511640D01*
X1729500Y1511640D02*
X1736500Y1511640D01*
X500Y1510640D02*
X7500Y1510640D01*
X1729500Y1510640D02*
X1736500Y1510640D01*
X500Y1509640D02*
X7500Y1509640D01*
X1729500Y1509640D02*
X1736500Y1509640D01*
X500Y1508640D02*
X7500Y1508640D01*
X1729500Y1508640D02*
X1736500Y1508640D01*
X500Y1507640D02*
X7500Y1507640D01*
X1729500Y1507640D02*
X1736500Y1507640D01*
X500Y1506640D02*
X7500Y1506640D01*
X1729500Y1506640D02*
X1736500Y1506640D01*
X500Y1505640D02*
X7500Y1505640D01*
X1729500Y1505640D02*
X1736500Y1505640D01*
X500Y1504640D02*
X7500Y1504640D01*
X1729500Y1504640D02*
X1736500Y1504640D01*
X500Y1503640D02*
X7500Y1503640D01*
X1729500Y1503640D02*
X1736500Y1503640D01*
X500Y1502640D02*
X7500Y1502640D01*
X1729500Y1502640D02*
X1736500Y1502640D01*
X500Y1501640D02*
X7500Y1501640D01*
X1729500Y1501640D02*
X1736500Y1501640D01*
X500Y1500640D02*
X7500Y1500640D01*
X1729500Y1500640D02*
X1736500Y1500640D01*
X500Y1499640D02*
X7500Y1499640D01*
X1729500Y1499640D02*
X1736500Y1499640D01*
X500Y1498640D02*
X7500Y1498640D01*
X1729500Y1498640D02*
X1736500Y1498640D01*
X500Y1497640D02*
X7500Y1497640D01*
X1729500Y1497640D02*
X1736500Y1497640D01*
X500Y1496640D02*
X7500Y1496640D01*
X1729500Y1496640D02*
X1736500Y1496640D01*
X500Y1495640D02*
X7500Y1495640D01*
X1729500Y1495640D02*
X1736500Y1495640D01*
X500Y1494640D02*
X7500Y1494640D01*
X1729500Y1494640D02*
X1736500Y1494640D01*
X500Y1493640D02*
X7500Y1493640D01*
X1729500Y1493640D02*
X1736500Y1493640D01*
X500Y1492640D02*
X7500Y1492640D01*
X1729500Y1492640D02*
X1736500Y1492640D01*
X500Y1491640D02*
X7500Y1491640D01*
X1729500Y1491640D02*
X1736500Y1491640D01*
X500Y1490640D02*
X7500Y1490640D01*
X1729500Y1490640D02*
X1736500Y1490640D01*
X500Y1489640D02*
X7500Y1489640D01*
X1729500Y1489640D02*
X1736500Y1489640D01*
X500Y1488640D02*
X7500Y1488640D01*
X1729500Y1488640D02*
X1736500Y1488640D01*
X500Y1487640D02*
X7500Y1487640D01*
X1729500Y1487640D02*
X1736500Y1487640D01*
X500Y1486640D02*
X7500Y1486640D01*
X1729500Y1486640D02*
X1736500Y1486640D01*
X500Y1485640D02*
X7500Y1485640D01*
X1729500Y1485640D02*
X1736500Y1485640D01*
X500Y1484640D02*
X7500Y1484640D01*
X1729500Y1484640D02*
X1736500Y1484640D01*
X500Y1483640D02*
X7500Y1483640D01*
X1729500Y1483640D02*
X1736500Y1483640D01*
X500Y1482640D02*
X7500Y1482640D01*
X1729500Y1482640D02*
X1736500Y1482640D01*
X500Y1481640D02*
X7500Y1481640D01*
X1729500Y1481640D02*
X1736500Y1481640D01*
X500Y1480640D02*
X7500Y1480640D01*
X1729500Y1480640D02*
X1736500Y1480640D01*
X500Y1479640D02*
X7500Y1479640D01*
X1729500Y1479640D02*
X1736500Y1479640D01*
X500Y1478640D02*
X7500Y1478640D01*
X1729500Y1478640D02*
X1736500Y1478640D01*
X500Y1477640D02*
X7500Y1477640D01*
X1729500Y1477640D02*
X1736500Y1477640D01*
X500Y1476640D02*
X7500Y1476640D01*
X1729500Y1476640D02*
X1736500Y1476640D01*
X500Y1475640D02*
X7500Y1475640D01*
X1729500Y1475640D02*
X1736500Y1475640D01*
X500Y1474640D02*
X7500Y1474640D01*
X1729500Y1474640D02*
X1736500Y1474640D01*
X500Y1473640D02*
X7500Y1473640D01*
X1729500Y1473640D02*
X1736500Y1473640D01*
X500Y1472640D02*
X7500Y1472640D01*
X1729500Y1472640D02*
X1736500Y1472640D01*
X500Y1471640D02*
X7500Y1471640D01*
X1729500Y1471640D02*
X1736500Y1471640D01*
X500Y1470640D02*
X7500Y1470640D01*
X1729500Y1470640D02*
X1736500Y1470640D01*
X500Y1469640D02*
X7500Y1469640D01*
X1729500Y1469640D02*
X1736500Y1469640D01*
X500Y1468640D02*
X7500Y1468640D01*
X1073500Y1468640D02*
X1235500Y1468640D01*
X1273500Y1468640D02*
X1435500Y1468640D01*
X1473500Y1468640D02*
X1554500Y1468640D01*
X1729500Y1468640D02*
X1736500Y1468640D01*
X500Y1467640D02*
X7500Y1467640D01*
X1071500Y1467640D02*
X1237500Y1467640D01*
X1271500Y1467640D02*
X1437500Y1467640D01*
X1471500Y1467640D02*
X1555500Y1467640D01*
X1729500Y1467640D02*
X1736500Y1467640D01*
X500Y1466640D02*
X7500Y1466640D01*
X1068500Y1466640D02*
X1239500Y1466640D01*
X1268500Y1466640D02*
X1439500Y1466640D01*
X1468500Y1466640D02*
X1556500Y1466640D01*
X1729500Y1466640D02*
X1736500Y1466640D01*
X500Y1465640D02*
X7500Y1465640D01*
X1065500Y1465640D02*
X1243500Y1465640D01*
X1265500Y1465640D02*
X1443500Y1465640D01*
X1465500Y1465640D02*
X1556500Y1465640D01*
X1729500Y1465640D02*
X1736500Y1465640D01*
X500Y1464640D02*
X7500Y1464640D01*
X1060500Y1464640D02*
X1248500Y1464640D01*
X1260500Y1464640D02*
X1448500Y1464640D01*
X1459500Y1464640D02*
X1555500Y1464640D01*
X1729500Y1464640D02*
X1736500Y1464640D01*
X500Y1463640D02*
X7500Y1463640D01*
X1052500Y1463640D02*
X1056500Y1463640D01*
X1729500Y1463640D02*
X1736500Y1463640D01*
X500Y1462640D02*
X7500Y1462640D01*
X1052500Y1462640D02*
X1056500Y1462640D01*
X1729500Y1462640D02*
X1736500Y1462640D01*
X500Y1461640D02*
X7500Y1461640D01*
X1052500Y1461640D02*
X1056500Y1461640D01*
X1729500Y1461640D02*
X1736500Y1461640D01*
X500Y1460640D02*
X7500Y1460640D01*
X1052500Y1460640D02*
X1056500Y1460640D01*
X1729500Y1460640D02*
X1736500Y1460640D01*
X500Y1459640D02*
X7500Y1459640D01*
X1052500Y1459640D02*
X1056500Y1459640D01*
X1729500Y1459640D02*
X1736500Y1459640D01*
X500Y1458640D02*
X7500Y1458640D01*
X1052500Y1458640D02*
X1056500Y1458640D01*
X1729500Y1458640D02*
X1736500Y1458640D01*
X500Y1457640D02*
X7500Y1457640D01*
X1052500Y1457640D02*
X1056500Y1457640D01*
X1729500Y1457640D02*
X1736500Y1457640D01*
X500Y1456640D02*
X7500Y1456640D01*
X1052500Y1456640D02*
X1056500Y1456640D01*
X1729500Y1456640D02*
X1736500Y1456640D01*
X500Y1455640D02*
X7500Y1455640D01*
X1052500Y1455640D02*
X1056500Y1455640D01*
X1729500Y1455640D02*
X1736500Y1455640D01*
X500Y1454640D02*
X7500Y1454640D01*
X1052500Y1454640D02*
X1056500Y1454640D01*
X1729500Y1454640D02*
X1736500Y1454640D01*
X500Y1453640D02*
X7500Y1453640D01*
X1052500Y1453640D02*
X1056500Y1453640D01*
X1729500Y1453640D02*
X1736500Y1453640D01*
X500Y1452640D02*
X7500Y1452640D01*
X1052500Y1452640D02*
X1056500Y1452640D01*
X1729500Y1452640D02*
X1736500Y1452640D01*
X500Y1451640D02*
X7500Y1451640D01*
X1052500Y1451640D02*
X1056500Y1451640D01*
X1729500Y1451640D02*
X1736500Y1451640D01*
X500Y1450640D02*
X7500Y1450640D01*
X1052500Y1450640D02*
X1056500Y1450640D01*
X1729500Y1450640D02*
X1736500Y1450640D01*
X500Y1449640D02*
X7500Y1449640D01*
X1052500Y1449640D02*
X1056500Y1449640D01*
X1729500Y1449640D02*
X1736500Y1449640D01*
X500Y1448640D02*
X7500Y1448640D01*
X1052500Y1448640D02*
X1056500Y1448640D01*
X1729500Y1448640D02*
X1736500Y1448640D01*
X500Y1447640D02*
X7500Y1447640D01*
X1052500Y1447640D02*
X1056500Y1447640D01*
X1729500Y1447640D02*
X1736500Y1447640D01*
X500Y1446640D02*
X7500Y1446640D01*
X1052500Y1446640D02*
X1056500Y1446640D01*
X1729500Y1446640D02*
X1736500Y1446640D01*
X500Y1445640D02*
X7500Y1445640D01*
X1052500Y1445640D02*
X1056500Y1445640D01*
X1729500Y1445640D02*
X1736500Y1445640D01*
X500Y1444640D02*
X7500Y1444640D01*
X1052500Y1444640D02*
X1056500Y1444640D01*
X1729500Y1444640D02*
X1736500Y1444640D01*
X500Y1443640D02*
X7500Y1443640D01*
X1052500Y1443640D02*
X1056500Y1443640D01*
X1729500Y1443640D02*
X1736500Y1443640D01*
X500Y1442640D02*
X7500Y1442640D01*
X1052500Y1442640D02*
X1056500Y1442640D01*
X1729500Y1442640D02*
X1736500Y1442640D01*
X500Y1441640D02*
X7500Y1441640D01*
X1052500Y1441640D02*
X1056500Y1441640D01*
X1729500Y1441640D02*
X1736500Y1441640D01*
X500Y1440640D02*
X7500Y1440640D01*
X1052500Y1440640D02*
X1056500Y1440640D01*
X1729500Y1440640D02*
X1736500Y1440640D01*
X500Y1439640D02*
X7500Y1439640D01*
X1052500Y1439640D02*
X1056500Y1439640D01*
X1729500Y1439640D02*
X1736500Y1439640D01*
X500Y1438640D02*
X7500Y1438640D01*
X1052500Y1438640D02*
X1056500Y1438640D01*
X1729500Y1438640D02*
X1736500Y1438640D01*
X500Y1437640D02*
X7500Y1437640D01*
X1052500Y1437640D02*
X1056500Y1437640D01*
X1729500Y1437640D02*
X1736500Y1437640D01*
X500Y1436640D02*
X7500Y1436640D01*
X1052500Y1436640D02*
X1056500Y1436640D01*
X1729500Y1436640D02*
X1736500Y1436640D01*
X500Y1435640D02*
X7500Y1435640D01*
X1052500Y1435640D02*
X1056500Y1435640D01*
X1729500Y1435640D02*
X1736500Y1435640D01*
X500Y1434640D02*
X7500Y1434640D01*
X1052500Y1434640D02*
X1056500Y1434640D01*
X1729500Y1434640D02*
X1736500Y1434640D01*
X500Y1433640D02*
X7500Y1433640D01*
X1052500Y1433640D02*
X1056500Y1433640D01*
X1729500Y1433640D02*
X1736500Y1433640D01*
X500Y1432640D02*
X7500Y1432640D01*
X1052500Y1432640D02*
X1056500Y1432640D01*
X1729500Y1432640D02*
X1736500Y1432640D01*
X500Y1431640D02*
X7500Y1431640D01*
X1052500Y1431640D02*
X1056500Y1431640D01*
X1729500Y1431640D02*
X1736500Y1431640D01*
X500Y1430640D02*
X7500Y1430640D01*
X1052500Y1430640D02*
X1056500Y1430640D01*
X1729500Y1430640D02*
X1736500Y1430640D01*
X500Y1429640D02*
X7500Y1429640D01*
X1052500Y1429640D02*
X1056500Y1429640D01*
X1729500Y1429640D02*
X1736500Y1429640D01*
X500Y1428640D02*
X7500Y1428640D01*
X1052500Y1428640D02*
X1056500Y1428640D01*
X1729500Y1428640D02*
X1736500Y1428640D01*
X500Y1427640D02*
X7500Y1427640D01*
X1052500Y1427640D02*
X1056500Y1427640D01*
X1729500Y1427640D02*
X1736500Y1427640D01*
X500Y1426640D02*
X7500Y1426640D01*
X1052500Y1426640D02*
X1056500Y1426640D01*
X1729500Y1426640D02*
X1736500Y1426640D01*
X500Y1425640D02*
X7500Y1425640D01*
X1052500Y1425640D02*
X1056500Y1425640D01*
X1729500Y1425640D02*
X1736500Y1425640D01*
X500Y1424640D02*
X7500Y1424640D01*
X1052500Y1424640D02*
X1056500Y1424640D01*
X1729500Y1424640D02*
X1736500Y1424640D01*
X500Y1423640D02*
X7500Y1423640D01*
X1052500Y1423640D02*
X1056500Y1423640D01*
X1729500Y1423640D02*
X1736500Y1423640D01*
X500Y1422640D02*
X7500Y1422640D01*
X1052500Y1422640D02*
X1056500Y1422640D01*
X1729500Y1422640D02*
X1736500Y1422640D01*
X500Y1421640D02*
X7500Y1421640D01*
X1052500Y1421640D02*
X1056500Y1421640D01*
X1729500Y1421640D02*
X1736500Y1421640D01*
X500Y1420640D02*
X7500Y1420640D01*
X1052500Y1420640D02*
X1056500Y1420640D01*
X1729500Y1420640D02*
X1736500Y1420640D01*
X500Y1419640D02*
X7500Y1419640D01*
X1052500Y1419640D02*
X1056500Y1419640D01*
X1729500Y1419640D02*
X1736500Y1419640D01*
X500Y1418640D02*
X7500Y1418640D01*
X1052500Y1418640D02*
X1056500Y1418640D01*
X1729500Y1418640D02*
X1736500Y1418640D01*
X500Y1417640D02*
X7500Y1417640D01*
X1052500Y1417640D02*
X1056500Y1417640D01*
X1729500Y1417640D02*
X1736500Y1417640D01*
X500Y1416640D02*
X7500Y1416640D01*
X1052500Y1416640D02*
X1056500Y1416640D01*
X1729500Y1416640D02*
X1736500Y1416640D01*
X500Y1415640D02*
X7500Y1415640D01*
X1052500Y1415640D02*
X1056500Y1415640D01*
X1729500Y1415640D02*
X1736500Y1415640D01*
X500Y1414640D02*
X7500Y1414640D01*
X1053500Y1414640D02*
X1055500Y1414640D01*
X1729500Y1414640D02*
X1736500Y1414640D01*
X500Y1413640D02*
X7500Y1413640D01*
X1729500Y1413640D02*
X1736500Y1413640D01*
X500Y1412640D02*
X7500Y1412640D01*
X1729500Y1412640D02*
X1736500Y1412640D01*
X500Y1411640D02*
X7500Y1411640D01*
X1729500Y1411640D02*
X1736500Y1411640D01*
X500Y1410640D02*
X7500Y1410640D01*
X1729500Y1410640D02*
X1736500Y1410640D01*
X500Y1409640D02*
X7500Y1409640D01*
X1729500Y1409640D02*
X1736500Y1409640D01*
X500Y1408640D02*
X7500Y1408640D01*
X1729500Y1408640D02*
X1736500Y1408640D01*
X500Y1407640D02*
X7500Y1407640D01*
X1729500Y1407640D02*
X1736500Y1407640D01*
X500Y1406640D02*
X7500Y1406640D01*
X1729500Y1406640D02*
X1736500Y1406640D01*
X500Y1405640D02*
X7500Y1405640D01*
X1729500Y1405640D02*
X1736500Y1405640D01*
X500Y1404640D02*
X7500Y1404640D01*
X1729500Y1404640D02*
X1736500Y1404640D01*
X500Y1403640D02*
X7500Y1403640D01*
X1729500Y1403640D02*
X1736500Y1403640D01*
X500Y1402640D02*
X7500Y1402640D01*
X1729500Y1402640D02*
X1736500Y1402640D01*
X500Y1401640D02*
X7500Y1401640D01*
X1729500Y1401640D02*
X1736500Y1401640D01*
X500Y1400640D02*
X7500Y1400640D01*
X1729500Y1400640D02*
X1736500Y1400640D01*
X500Y1399640D02*
X7500Y1399640D01*
X1729500Y1399640D02*
X1736500Y1399640D01*
X500Y1398640D02*
X7500Y1398640D01*
X1729500Y1398640D02*
X1736500Y1398640D01*
X500Y1397640D02*
X7500Y1397640D01*
X1729500Y1397640D02*
X1736500Y1397640D01*
X500Y1396640D02*
X7500Y1396640D01*
X1729500Y1396640D02*
X1736500Y1396640D01*
X500Y1395640D02*
X7500Y1395640D01*
X1729500Y1395640D02*
X1736500Y1395640D01*
X500Y1394640D02*
X7500Y1394640D01*
X1729500Y1394640D02*
X1736500Y1394640D01*
X500Y1393640D02*
X7500Y1393640D01*
X1729500Y1393640D02*
X1736500Y1393640D01*
X500Y1392640D02*
X7500Y1392640D01*
X1729500Y1392640D02*
X1736500Y1392640D01*
X500Y1391640D02*
X7500Y1391640D01*
X1729500Y1391640D02*
X1736500Y1391640D01*
X500Y1390640D02*
X7500Y1390640D01*
X1729500Y1390640D02*
X1736500Y1390640D01*
X500Y1389640D02*
X7500Y1389640D01*
X1729500Y1389640D02*
X1736500Y1389640D01*
X500Y1388640D02*
X7500Y1388640D01*
X1729500Y1388640D02*
X1736500Y1388640D01*
X500Y1387640D02*
X7500Y1387640D01*
X1729500Y1387640D02*
X1736500Y1387640D01*
X500Y1386640D02*
X7500Y1386640D01*
X1729500Y1386640D02*
X1736500Y1386640D01*
X500Y1385640D02*
X7500Y1385640D01*
X1729500Y1385640D02*
X1736500Y1385640D01*
X500Y1384640D02*
X7500Y1384640D01*
X1729500Y1384640D02*
X1736500Y1384640D01*
X500Y1383640D02*
X7500Y1383640D01*
X1729500Y1383640D02*
X1736500Y1383640D01*
X500Y1382640D02*
X7500Y1382640D01*
X1729500Y1382640D02*
X1736500Y1382640D01*
X500Y1381640D02*
X7500Y1381640D01*
X1729500Y1381640D02*
X1736500Y1381640D01*
X500Y1380640D02*
X7500Y1380640D01*
X1729500Y1380640D02*
X1736500Y1380640D01*
X500Y1379640D02*
X7500Y1379640D01*
X1729500Y1379640D02*
X1736500Y1379640D01*
X500Y1378640D02*
X7500Y1378640D01*
X1729500Y1378640D02*
X1736500Y1378640D01*
X500Y1377640D02*
X7500Y1377640D01*
X1729500Y1377640D02*
X1736500Y1377640D01*
X500Y1376640D02*
X7500Y1376640D01*
X1729500Y1376640D02*
X1736500Y1376640D01*
X500Y1375640D02*
X7500Y1375640D01*
X1729500Y1375640D02*
X1736500Y1375640D01*
X500Y1374640D02*
X7500Y1374640D01*
X1729500Y1374640D02*
X1736500Y1374640D01*
X500Y1373640D02*
X7500Y1373640D01*
X1729500Y1373640D02*
X1736500Y1373640D01*
X500Y1372640D02*
X7500Y1372640D01*
X1729500Y1372640D02*
X1736500Y1372640D01*
X500Y1371640D02*
X7500Y1371640D01*
X1729500Y1371640D02*
X1736500Y1371640D01*
X500Y1370640D02*
X7500Y1370640D01*
X1729500Y1370640D02*
X1736500Y1370640D01*
X500Y1369640D02*
X7500Y1369640D01*
X1729500Y1369640D02*
X1736500Y1369640D01*
X500Y1368640D02*
X7500Y1368640D01*
X1729500Y1368640D02*
X1736500Y1368640D01*
X500Y1367640D02*
X7500Y1367640D01*
X1729500Y1367640D02*
X1736500Y1367640D01*
X500Y1366640D02*
X7500Y1366640D01*
X1729500Y1366640D02*
X1736500Y1366640D01*
X500Y1365640D02*
X7500Y1365640D01*
X1729500Y1365640D02*
X1736500Y1365640D01*
X500Y1364640D02*
X7500Y1364640D01*
X1729500Y1364640D02*
X1736500Y1364640D01*
X500Y1363640D02*
X7500Y1363640D01*
X1729500Y1363640D02*
X1736500Y1363640D01*
X500Y1362640D02*
X7500Y1362640D01*
X1729500Y1362640D02*
X1736500Y1362640D01*
X500Y1361640D02*
X7500Y1361640D01*
X1729500Y1361640D02*
X1736500Y1361640D01*
X500Y1360640D02*
X7500Y1360640D01*
X1729500Y1360640D02*
X1736500Y1360640D01*
X500Y1359640D02*
X7500Y1359640D01*
X1729500Y1359640D02*
X1736500Y1359640D01*
X500Y1358640D02*
X7500Y1358640D01*
X1729500Y1358640D02*
X1736500Y1358640D01*
X500Y1357640D02*
X7500Y1357640D01*
X1729500Y1357640D02*
X1736500Y1357640D01*
X500Y1356640D02*
X7500Y1356640D01*
X1729500Y1356640D02*
X1736500Y1356640D01*
X500Y1355640D02*
X7500Y1355640D01*
X1729500Y1355640D02*
X1736500Y1355640D01*
X500Y1354640D02*
X7500Y1354640D01*
X1729500Y1354640D02*
X1736500Y1354640D01*
X500Y1353640D02*
X7500Y1353640D01*
X1729500Y1353640D02*
X1736500Y1353640D01*
X500Y1352640D02*
X7500Y1352640D01*
X1729500Y1352640D02*
X1736500Y1352640D01*
X500Y1351640D02*
X7500Y1351640D01*
X1729500Y1351640D02*
X1736500Y1351640D01*
X500Y1350640D02*
X7500Y1350640D01*
X1729500Y1350640D02*
X1736500Y1350640D01*
X500Y1349640D02*
X7500Y1349640D01*
X1729500Y1349640D02*
X1736500Y1349640D01*
X500Y1348640D02*
X7500Y1348640D01*
X1729500Y1348640D02*
X1736500Y1348640D01*
X500Y1347640D02*
X7500Y1347640D01*
X1729500Y1347640D02*
X1736500Y1347640D01*
X500Y1346640D02*
X7500Y1346640D01*
X1729500Y1346640D02*
X1736500Y1346640D01*
X500Y1345640D02*
X7500Y1345640D01*
X1729500Y1345640D02*
X1736500Y1345640D01*
X500Y1344640D02*
X7500Y1344640D01*
X1729500Y1344640D02*
X1736500Y1344640D01*
X500Y1343640D02*
X7500Y1343640D01*
X1729500Y1343640D02*
X1736500Y1343640D01*
X500Y1342640D02*
X7500Y1342640D01*
X1729500Y1342640D02*
X1736500Y1342640D01*
X500Y1341640D02*
X7500Y1341640D01*
X1729500Y1341640D02*
X1736500Y1341640D01*
X500Y1340640D02*
X7500Y1340640D01*
X1729500Y1340640D02*
X1736500Y1340640D01*
X500Y1339640D02*
X7500Y1339640D01*
X1729500Y1339640D02*
X1736500Y1339640D01*
X500Y1338640D02*
X7500Y1338640D01*
X1729500Y1338640D02*
X1736500Y1338640D01*
X500Y1337640D02*
X7500Y1337640D01*
X1729500Y1337640D02*
X1736500Y1337640D01*
X500Y1336640D02*
X7500Y1336640D01*
X1729500Y1336640D02*
X1736500Y1336640D01*
X500Y1335640D02*
X7500Y1335640D01*
X1729500Y1335640D02*
X1736500Y1335640D01*
X500Y1334640D02*
X7500Y1334640D01*
X1729500Y1334640D02*
X1736500Y1334640D01*
X500Y1333640D02*
X7500Y1333640D01*
X1729500Y1333640D02*
X1736500Y1333640D01*
X500Y1332640D02*
X7500Y1332640D01*
X1729500Y1332640D02*
X1736500Y1332640D01*
X500Y1331640D02*
X7500Y1331640D01*
X1729500Y1331640D02*
X1736500Y1331640D01*
X500Y1330640D02*
X7500Y1330640D01*
X1729500Y1330640D02*
X1736500Y1330640D01*
X500Y1329640D02*
X7500Y1329640D01*
X1729500Y1329640D02*
X1736500Y1329640D01*
X500Y1328640D02*
X7500Y1328640D01*
X1729500Y1328640D02*
X1736500Y1328640D01*
X500Y1327640D02*
X7500Y1327640D01*
X1729500Y1327640D02*
X1736500Y1327640D01*
X500Y1326640D02*
X7500Y1326640D01*
X1729500Y1326640D02*
X1736500Y1326640D01*
X500Y1325640D02*
X7500Y1325640D01*
X1729500Y1325640D02*
X1736500Y1325640D01*
X500Y1324640D02*
X7500Y1324640D01*
X1729500Y1324640D02*
X1736500Y1324640D01*
X500Y1323640D02*
X7500Y1323640D01*
X1729500Y1323640D02*
X1736500Y1323640D01*
X500Y1322640D02*
X7500Y1322640D01*
X1729500Y1322640D02*
X1736500Y1322640D01*
X500Y1321640D02*
X7500Y1321640D01*
X1729500Y1321640D02*
X1736500Y1321640D01*
X500Y1320640D02*
X7500Y1320640D01*
X1729500Y1320640D02*
X1736500Y1320640D01*
X500Y1319640D02*
X7500Y1319640D01*
X1729500Y1319640D02*
X1736500Y1319640D01*
X500Y1318640D02*
X7500Y1318640D01*
X1729500Y1318640D02*
X1736500Y1318640D01*
X500Y1317640D02*
X7500Y1317640D01*
X1729500Y1317640D02*
X1736500Y1317640D01*
X500Y1316640D02*
X7500Y1316640D01*
X1729500Y1316640D02*
X1736500Y1316640D01*
X500Y1315640D02*
X7500Y1315640D01*
X1729500Y1315640D02*
X1736500Y1315640D01*
X500Y1314640D02*
X7500Y1314640D01*
X1729500Y1314640D02*
X1736500Y1314640D01*
X500Y1313640D02*
X7500Y1313640D01*
X1729500Y1313640D02*
X1736500Y1313640D01*
X500Y1312640D02*
X7500Y1312640D01*
X1729500Y1312640D02*
X1736500Y1312640D01*
X500Y1311640D02*
X7500Y1311640D01*
X1729500Y1311640D02*
X1736500Y1311640D01*
X500Y1310640D02*
X7500Y1310640D01*
X1729500Y1310640D02*
X1736500Y1310640D01*
X500Y1309640D02*
X7500Y1309640D01*
X1729500Y1309640D02*
X1736500Y1309640D01*
X500Y1308640D02*
X7500Y1308640D01*
X1729500Y1308640D02*
X1736500Y1308640D01*
X500Y1307640D02*
X7500Y1307640D01*
X1729500Y1307640D02*
X1736500Y1307640D01*
X500Y1306640D02*
X7500Y1306640D01*
X1729500Y1306640D02*
X1736500Y1306640D01*
X500Y1305640D02*
X7500Y1305640D01*
X1729500Y1305640D02*
X1736500Y1305640D01*
X500Y1304640D02*
X7500Y1304640D01*
X1729500Y1304640D02*
X1736500Y1304640D01*
X500Y1303640D02*
X7500Y1303640D01*
X1729500Y1303640D02*
X1736500Y1303640D01*
X500Y1302640D02*
X7500Y1302640D01*
X1729500Y1302640D02*
X1736500Y1302640D01*
X500Y1301640D02*
X7500Y1301640D01*
X1729500Y1301640D02*
X1736500Y1301640D01*
X500Y1300640D02*
X7500Y1300640D01*
X1729500Y1300640D02*
X1736500Y1300640D01*
X500Y1299640D02*
X7500Y1299640D01*
X1729500Y1299640D02*
X1736500Y1299640D01*
X500Y1298640D02*
X7500Y1298640D01*
X1729500Y1298640D02*
X1736500Y1298640D01*
X500Y1297640D02*
X7500Y1297640D01*
X1729500Y1297640D02*
X1736500Y1297640D01*
X500Y1296640D02*
X7500Y1296640D01*
X1729500Y1296640D02*
X1736500Y1296640D01*
X500Y1295640D02*
X7500Y1295640D01*
X1729500Y1295640D02*
X1736500Y1295640D01*
X500Y1294640D02*
X7500Y1294640D01*
X1729500Y1294640D02*
X1736500Y1294640D01*
X500Y1293640D02*
X7500Y1293640D01*
X1729500Y1293640D02*
X1736500Y1293640D01*
X500Y1292640D02*
X7500Y1292640D01*
X1729500Y1292640D02*
X1736500Y1292640D01*
X500Y1291640D02*
X7500Y1291640D01*
X1729500Y1291640D02*
X1736500Y1291640D01*
X500Y1290640D02*
X7500Y1290640D01*
X1729500Y1290640D02*
X1736500Y1290640D01*
X500Y1289640D02*
X7500Y1289640D01*
X1729500Y1289640D02*
X1736500Y1289640D01*
X500Y1288640D02*
X7500Y1288640D01*
X1729500Y1288640D02*
X1736500Y1288640D01*
X500Y1287640D02*
X7500Y1287640D01*
X1729500Y1287640D02*
X1736500Y1287640D01*
X500Y1286640D02*
X7500Y1286640D01*
X1729500Y1286640D02*
X1736500Y1286640D01*
X500Y1285640D02*
X7500Y1285640D01*
X1729500Y1285640D02*
X1736500Y1285640D01*
X500Y1284640D02*
X7500Y1284640D01*
X1729500Y1284640D02*
X1736500Y1284640D01*
X500Y1283640D02*
X7500Y1283640D01*
X1729500Y1283640D02*
X1736500Y1283640D01*
X500Y1282640D02*
X7500Y1282640D01*
X1729500Y1282640D02*
X1736500Y1282640D01*
X500Y1281640D02*
X7500Y1281640D01*
X1729500Y1281640D02*
X1736500Y1281640D01*
X500Y1280640D02*
X7500Y1280640D01*
X1729500Y1280640D02*
X1736500Y1280640D01*
X500Y1279640D02*
X7500Y1279640D01*
X1729500Y1279640D02*
X1736500Y1279640D01*
X500Y1278640D02*
X7500Y1278640D01*
X1729500Y1278640D02*
X1736500Y1278640D01*
X500Y1277640D02*
X7500Y1277640D01*
X1729500Y1277640D02*
X1736500Y1277640D01*
X500Y1276640D02*
X7500Y1276640D01*
X1729500Y1276640D02*
X1736500Y1276640D01*
X500Y1275640D02*
X7500Y1275640D01*
X1729500Y1275640D02*
X1736500Y1275640D01*
X500Y1274640D02*
X7500Y1274640D01*
X1729500Y1274640D02*
X1736500Y1274640D01*
X500Y1273640D02*
X7500Y1273640D01*
X1729500Y1273640D02*
X1736500Y1273640D01*
X500Y1272640D02*
X7500Y1272640D01*
X1729500Y1272640D02*
X1736500Y1272640D01*
X500Y1271640D02*
X7500Y1271640D01*
X1729500Y1271640D02*
X1736500Y1271640D01*
X500Y1270640D02*
X7500Y1270640D01*
X1729500Y1270640D02*
X1736500Y1270640D01*
X500Y1269640D02*
X7500Y1269640D01*
X1729500Y1269640D02*
X1736500Y1269640D01*
X500Y1268640D02*
X7500Y1268640D01*
X1729500Y1268640D02*
X1736500Y1268640D01*
X500Y1267640D02*
X7500Y1267640D01*
X1729500Y1267640D02*
X1736500Y1267640D01*
X500Y1266640D02*
X7500Y1266640D01*
X1729500Y1266640D02*
X1736500Y1266640D01*
X500Y1265640D02*
X7500Y1265640D01*
X1729500Y1265640D02*
X1736500Y1265640D01*
X500Y1264640D02*
X7500Y1264640D01*
X1729500Y1264640D02*
X1736500Y1264640D01*
X500Y1263640D02*
X7500Y1263640D01*
X1729500Y1263640D02*
X1736500Y1263640D01*
X500Y1262640D02*
X7500Y1262640D01*
X1729500Y1262640D02*
X1736500Y1262640D01*
X500Y1261640D02*
X7500Y1261640D01*
X1729500Y1261640D02*
X1736500Y1261640D01*
X500Y1260640D02*
X7500Y1260640D01*
X1729500Y1260640D02*
X1736500Y1260640D01*
X500Y1259640D02*
X7500Y1259640D01*
X1729500Y1259640D02*
X1736500Y1259640D01*
X500Y1258640D02*
X7500Y1258640D01*
X1729500Y1258640D02*
X1736500Y1258640D01*
X500Y1257640D02*
X7500Y1257640D01*
X1729500Y1257640D02*
X1736500Y1257640D01*
X500Y1256640D02*
X7500Y1256640D01*
X1729500Y1256640D02*
X1736500Y1256640D01*
X500Y1255640D02*
X7500Y1255640D01*
X1729500Y1255640D02*
X1736500Y1255640D01*
X500Y1254640D02*
X7500Y1254640D01*
X1729500Y1254640D02*
X1736500Y1254640D01*
X500Y1253640D02*
X7500Y1253640D01*
X1729500Y1253640D02*
X1736500Y1253640D01*
X500Y1252640D02*
X7500Y1252640D01*
X1729500Y1252640D02*
X1736500Y1252640D01*
X500Y1251640D02*
X7500Y1251640D01*
X1729500Y1251640D02*
X1736500Y1251640D01*
X500Y1250640D02*
X7500Y1250640D01*
X1729500Y1250640D02*
X1736500Y1250640D01*
X500Y1249640D02*
X7500Y1249640D01*
X1729500Y1249640D02*
X1736500Y1249640D01*
X500Y1248640D02*
X7500Y1248640D01*
X1729500Y1248640D02*
X1736500Y1248640D01*
X500Y1247640D02*
X7500Y1247640D01*
X1729500Y1247640D02*
X1736500Y1247640D01*
X500Y1246640D02*
X7500Y1246640D01*
X1729500Y1246640D02*
X1736500Y1246640D01*
X500Y1245640D02*
X7500Y1245640D01*
X1729500Y1245640D02*
X1736500Y1245640D01*
X500Y1244640D02*
X7500Y1244640D01*
X1729500Y1244640D02*
X1736500Y1244640D01*
X500Y1243640D02*
X7500Y1243640D01*
X1729500Y1243640D02*
X1736500Y1243640D01*
X500Y1242640D02*
X7500Y1242640D01*
X1729500Y1242640D02*
X1736500Y1242640D01*
X500Y1241640D02*
X7500Y1241640D01*
X1729500Y1241640D02*
X1736500Y1241640D01*
X500Y1240640D02*
X7500Y1240640D01*
X1729500Y1240640D02*
X1736500Y1240640D01*
X500Y1239640D02*
X7500Y1239640D01*
X1729500Y1239640D02*
X1736500Y1239640D01*
X500Y1238640D02*
X7500Y1238640D01*
X1729500Y1238640D02*
X1736500Y1238640D01*
X500Y1237640D02*
X7500Y1237640D01*
X1729500Y1237640D02*
X1736500Y1237640D01*
X500Y1236640D02*
X7500Y1236640D01*
X1729500Y1236640D02*
X1736500Y1236640D01*
X500Y1235640D02*
X7500Y1235640D01*
X1729500Y1235640D02*
X1736500Y1235640D01*
X500Y1234640D02*
X7500Y1234640D01*
X1729500Y1234640D02*
X1736500Y1234640D01*
X500Y1233640D02*
X7500Y1233640D01*
X1729500Y1233640D02*
X1736500Y1233640D01*
X500Y1232640D02*
X7500Y1232640D01*
X1729500Y1232640D02*
X1736500Y1232640D01*
X500Y1231640D02*
X7500Y1231640D01*
X1729500Y1231640D02*
X1736500Y1231640D01*
X500Y1230640D02*
X7500Y1230640D01*
X1729500Y1230640D02*
X1736500Y1230640D01*
X500Y1229640D02*
X7500Y1229640D01*
X1729500Y1229640D02*
X1736500Y1229640D01*
X500Y1228640D02*
X7500Y1228640D01*
X1729500Y1228640D02*
X1736500Y1228640D01*
X500Y1227640D02*
X7500Y1227640D01*
X1729500Y1227640D02*
X1736500Y1227640D01*
X500Y1226640D02*
X7500Y1226640D01*
X1729500Y1226640D02*
X1736500Y1226640D01*
X500Y1225640D02*
X7500Y1225640D01*
X1729500Y1225640D02*
X1736500Y1225640D01*
X500Y1224640D02*
X7500Y1224640D01*
X1729500Y1224640D02*
X1736500Y1224640D01*
X500Y1223640D02*
X7500Y1223640D01*
X1729500Y1223640D02*
X1736500Y1223640D01*
X500Y1222640D02*
X7500Y1222640D01*
X1729500Y1222640D02*
X1736500Y1222640D01*
X500Y1221640D02*
X7500Y1221640D01*
X1729500Y1221640D02*
X1736500Y1221640D01*
X500Y1220640D02*
X7500Y1220640D01*
X1729500Y1220640D02*
X1736500Y1220640D01*
X500Y1219640D02*
X7500Y1219640D01*
X1729500Y1219640D02*
X1736500Y1219640D01*
X500Y1218640D02*
X7500Y1218640D01*
X1729500Y1218640D02*
X1736500Y1218640D01*
X500Y1217640D02*
X7500Y1217640D01*
X1729500Y1217640D02*
X1736500Y1217640D01*
X500Y1216640D02*
X7500Y1216640D01*
X1729500Y1216640D02*
X1736500Y1216640D01*
X500Y1215640D02*
X7500Y1215640D01*
X1729500Y1215640D02*
X1736500Y1215640D01*
X500Y1214640D02*
X7500Y1214640D01*
X1729500Y1214640D02*
X1736500Y1214640D01*
X500Y1213640D02*
X7500Y1213640D01*
X1729500Y1213640D02*
X1736500Y1213640D01*
X500Y1212640D02*
X7500Y1212640D01*
X1729500Y1212640D02*
X1736500Y1212640D01*
X500Y1211640D02*
X7500Y1211640D01*
X1729500Y1211640D02*
X1736500Y1211640D01*
X500Y1210640D02*
X7500Y1210640D01*
X1729500Y1210640D02*
X1736500Y1210640D01*
X500Y1209640D02*
X7500Y1209640D01*
X1729500Y1209640D02*
X1736500Y1209640D01*
X500Y1208640D02*
X7500Y1208640D01*
X1729500Y1208640D02*
X1736500Y1208640D01*
X500Y1207640D02*
X7500Y1207640D01*
X1729500Y1207640D02*
X1736500Y1207640D01*
X500Y1206640D02*
X7500Y1206640D01*
X1729500Y1206640D02*
X1736500Y1206640D01*
X500Y1205640D02*
X7500Y1205640D01*
X1729500Y1205640D02*
X1736500Y1205640D01*
X500Y1204640D02*
X7500Y1204640D01*
X1729500Y1204640D02*
X1736500Y1204640D01*
X500Y1203640D02*
X7500Y1203640D01*
X1729500Y1203640D02*
X1736500Y1203640D01*
X500Y1202640D02*
X7500Y1202640D01*
X1729500Y1202640D02*
X1736500Y1202640D01*
X500Y1201640D02*
X7500Y1201640D01*
X1729500Y1201640D02*
X1736500Y1201640D01*
X500Y1200640D02*
X7500Y1200640D01*
X1729500Y1200640D02*
X1736500Y1200640D01*
X500Y1199640D02*
X7500Y1199640D01*
X1729500Y1199640D02*
X1736500Y1199640D01*
X500Y1198640D02*
X7500Y1198640D01*
X1729500Y1198640D02*
X1736500Y1198640D01*
X500Y1197640D02*
X7500Y1197640D01*
X1729500Y1197640D02*
X1736500Y1197640D01*
X500Y1196640D02*
X7500Y1196640D01*
X1729500Y1196640D02*
X1736500Y1196640D01*
X500Y1195640D02*
X7500Y1195640D01*
X1729500Y1195640D02*
X1736500Y1195640D01*
X500Y1194640D02*
X7500Y1194640D01*
X1729500Y1194640D02*
X1736500Y1194640D01*
X500Y1193640D02*
X7500Y1193640D01*
X1729500Y1193640D02*
X1736500Y1193640D01*
X500Y1192640D02*
X7500Y1192640D01*
X1729500Y1192640D02*
X1736500Y1192640D01*
X500Y1191640D02*
X7500Y1191640D01*
X1729500Y1191640D02*
X1736500Y1191640D01*
X500Y1190640D02*
X7500Y1190640D01*
X1729500Y1190640D02*
X1736500Y1190640D01*
X500Y1189640D02*
X7500Y1189640D01*
X1729500Y1189640D02*
X1736500Y1189640D01*
X500Y1188640D02*
X7500Y1188640D01*
X1729500Y1188640D02*
X1736500Y1188640D01*
X500Y1187640D02*
X7500Y1187640D01*
X1729500Y1187640D02*
X1736500Y1187640D01*
X500Y1186640D02*
X7500Y1186640D01*
X1729500Y1186640D02*
X1736500Y1186640D01*
X500Y1185640D02*
X7500Y1185640D01*
X1729500Y1185640D02*
X1736500Y1185640D01*
X500Y1184640D02*
X7500Y1184640D01*
X1729500Y1184640D02*
X1736500Y1184640D01*
X500Y1183640D02*
X7500Y1183640D01*
X1729500Y1183640D02*
X1736500Y1183640D01*
X500Y1182640D02*
X7500Y1182640D01*
X1729500Y1182640D02*
X1736500Y1182640D01*
X500Y1181640D02*
X7500Y1181640D01*
X1729500Y1181640D02*
X1736500Y1181640D01*
X500Y1180640D02*
X7500Y1180640D01*
X1729500Y1180640D02*
X1736500Y1180640D01*
X500Y1179640D02*
X7500Y1179640D01*
X1729500Y1179640D02*
X1736500Y1179640D01*
X500Y1178640D02*
X7500Y1178640D01*
X1729500Y1178640D02*
X1736500Y1178640D01*
X500Y1177640D02*
X7500Y1177640D01*
X1729500Y1177640D02*
X1736500Y1177640D01*
X500Y1176640D02*
X7500Y1176640D01*
X1729500Y1176640D02*
X1736500Y1176640D01*
X500Y1175640D02*
X7500Y1175640D01*
X1729500Y1175640D02*
X1736500Y1175640D01*
X500Y1174640D02*
X7500Y1174640D01*
X1729500Y1174640D02*
X1736500Y1174640D01*
X500Y1173640D02*
X7500Y1173640D01*
X1729500Y1173640D02*
X1736500Y1173640D01*
X500Y1172640D02*
X7500Y1172640D01*
X1729500Y1172640D02*
X1736500Y1172640D01*
X500Y1171640D02*
X7500Y1171640D01*
X1729500Y1171640D02*
X1736500Y1171640D01*
X500Y1170640D02*
X7500Y1170640D01*
X1729500Y1170640D02*
X1736500Y1170640D01*
X500Y1169640D02*
X7500Y1169640D01*
X1729500Y1169640D02*
X1736500Y1169640D01*
X500Y1168640D02*
X7500Y1168640D01*
X1729500Y1168640D02*
X1736500Y1168640D01*
X500Y1167640D02*
X7500Y1167640D01*
X1729500Y1167640D02*
X1736500Y1167640D01*
X500Y1166640D02*
X7500Y1166640D01*
X1729500Y1166640D02*
X1736500Y1166640D01*
X500Y1165640D02*
X7500Y1165640D01*
X1729500Y1165640D02*
X1736500Y1165640D01*
X500Y1164640D02*
X7500Y1164640D01*
X1729500Y1164640D02*
X1736500Y1164640D01*
X500Y1163640D02*
X7500Y1163640D01*
X1729500Y1163640D02*
X1736500Y1163640D01*
X500Y1162640D02*
X7500Y1162640D01*
X1729500Y1162640D02*
X1736500Y1162640D01*
X500Y1161640D02*
X7500Y1161640D01*
X1729500Y1161640D02*
X1736500Y1161640D01*
X500Y1160640D02*
X7500Y1160640D01*
X1729500Y1160640D02*
X1736500Y1160640D01*
X500Y1159640D02*
X7500Y1159640D01*
X1729500Y1159640D02*
X1736500Y1159640D01*
X500Y1158640D02*
X7500Y1158640D01*
X1729500Y1158640D02*
X1736500Y1158640D01*
X500Y1157640D02*
X7500Y1157640D01*
X1729500Y1157640D02*
X1736500Y1157640D01*
X500Y1156640D02*
X7500Y1156640D01*
X1729500Y1156640D02*
X1736500Y1156640D01*
X500Y1155640D02*
X7500Y1155640D01*
X1729500Y1155640D02*
X1736500Y1155640D01*
X500Y1154640D02*
X7500Y1154640D01*
X1729500Y1154640D02*
X1736500Y1154640D01*
X500Y1153640D02*
X7500Y1153640D01*
X1729500Y1153640D02*
X1736500Y1153640D01*
X500Y1152640D02*
X7500Y1152640D01*
X1729500Y1152640D02*
X1736500Y1152640D01*
X500Y1151640D02*
X7500Y1151640D01*
X1729500Y1151640D02*
X1736500Y1151640D01*
X500Y1150640D02*
X7500Y1150640D01*
X1729500Y1150640D02*
X1736500Y1150640D01*
X500Y1149640D02*
X7500Y1149640D01*
X1729500Y1149640D02*
X1736500Y1149640D01*
X500Y1148640D02*
X7500Y1148640D01*
X1729500Y1148640D02*
X1736500Y1148640D01*
X500Y1147640D02*
X7500Y1147640D01*
X1729500Y1147640D02*
X1736500Y1147640D01*
X500Y1146640D02*
X7500Y1146640D01*
X1729500Y1146640D02*
X1736500Y1146640D01*
X500Y1145640D02*
X7500Y1145640D01*
X1729500Y1145640D02*
X1736500Y1145640D01*
X500Y1144640D02*
X7500Y1144640D01*
X1729500Y1144640D02*
X1736500Y1144640D01*
X500Y1143640D02*
X7500Y1143640D01*
X1729500Y1143640D02*
X1736500Y1143640D01*
X500Y1142640D02*
X7500Y1142640D01*
X1729500Y1142640D02*
X1736500Y1142640D01*
X500Y1141640D02*
X7500Y1141640D01*
X1729500Y1141640D02*
X1736500Y1141640D01*
X500Y1140640D02*
X7500Y1140640D01*
X1729500Y1140640D02*
X1736500Y1140640D01*
X500Y1139640D02*
X7500Y1139640D01*
X1729500Y1139640D02*
X1736500Y1139640D01*
X500Y1138640D02*
X7500Y1138640D01*
X1729500Y1138640D02*
X1736500Y1138640D01*
X500Y1137640D02*
X7500Y1137640D01*
X1729500Y1137640D02*
X1736500Y1137640D01*
X500Y1136640D02*
X7500Y1136640D01*
X1729500Y1136640D02*
X1736500Y1136640D01*
X500Y1135640D02*
X7500Y1135640D01*
X1729500Y1135640D02*
X1736500Y1135640D01*
X500Y1134640D02*
X7500Y1134640D01*
X1729500Y1134640D02*
X1736500Y1134640D01*
X500Y1133640D02*
X7500Y1133640D01*
X1729500Y1133640D02*
X1736500Y1133640D01*
X500Y1132640D02*
X7500Y1132640D01*
X1729500Y1132640D02*
X1736500Y1132640D01*
X500Y1131640D02*
X7500Y1131640D01*
X1729500Y1131640D02*
X1736500Y1131640D01*
X500Y1130640D02*
X7500Y1130640D01*
X1729500Y1130640D02*
X1736500Y1130640D01*
X500Y1129640D02*
X7500Y1129640D01*
X1729500Y1129640D02*
X1736500Y1129640D01*
X500Y1128640D02*
X7500Y1128640D01*
X1729500Y1128640D02*
X1736500Y1128640D01*
X500Y1127640D02*
X7500Y1127640D01*
X1729500Y1127640D02*
X1736500Y1127640D01*
X500Y1126640D02*
X7500Y1126640D01*
X1729500Y1126640D02*
X1736500Y1126640D01*
X500Y1125640D02*
X7500Y1125640D01*
X1729500Y1125640D02*
X1736500Y1125640D01*
X500Y1124640D02*
X7500Y1124640D01*
X1729500Y1124640D02*
X1736500Y1124640D01*
X500Y1123640D02*
X7500Y1123640D01*
X1729500Y1123640D02*
X1736500Y1123640D01*
X500Y1122640D02*
X7500Y1122640D01*
X1729500Y1122640D02*
X1736500Y1122640D01*
X500Y1121640D02*
X7500Y1121640D01*
X1729500Y1121640D02*
X1736500Y1121640D01*
X500Y1120640D02*
X7500Y1120640D01*
X1729500Y1120640D02*
X1736500Y1120640D01*
X500Y1119640D02*
X7500Y1119640D01*
X1729500Y1119640D02*
X1736500Y1119640D01*
X500Y1118640D02*
X7500Y1118640D01*
X1729500Y1118640D02*
X1736500Y1118640D01*
X500Y1117640D02*
X7500Y1117640D01*
X1729500Y1117640D02*
X1736500Y1117640D01*
X500Y1116640D02*
X7500Y1116640D01*
X1729500Y1116640D02*
X1736500Y1116640D01*
X500Y1115640D02*
X7500Y1115640D01*
X1729500Y1115640D02*
X1736500Y1115640D01*
X500Y1114640D02*
X7500Y1114640D01*
X1729500Y1114640D02*
X1736500Y1114640D01*
X500Y1113640D02*
X7500Y1113640D01*
X1729500Y1113640D02*
X1736500Y1113640D01*
X500Y1112640D02*
X7500Y1112640D01*
X1729500Y1112640D02*
X1736500Y1112640D01*
X500Y1111640D02*
X7500Y1111640D01*
X1729500Y1111640D02*
X1736500Y1111640D01*
X500Y1110640D02*
X7500Y1110640D01*
X1729500Y1110640D02*
X1736500Y1110640D01*
X500Y1109640D02*
X7500Y1109640D01*
X1729500Y1109640D02*
X1736500Y1109640D01*
X500Y1108640D02*
X7500Y1108640D01*
X1729500Y1108640D02*
X1736500Y1108640D01*
X500Y1107640D02*
X7500Y1107640D01*
X1729500Y1107640D02*
X1736500Y1107640D01*
X500Y1106640D02*
X7500Y1106640D01*
X1729500Y1106640D02*
X1736500Y1106640D01*
X500Y1105640D02*
X7500Y1105640D01*
X1729500Y1105640D02*
X1736500Y1105640D01*
X500Y1104640D02*
X7500Y1104640D01*
X1729500Y1104640D02*
X1736500Y1104640D01*
X500Y1103640D02*
X7500Y1103640D01*
X1729500Y1103640D02*
X1736500Y1103640D01*
X500Y1102640D02*
X7500Y1102640D01*
X1729500Y1102640D02*
X1736500Y1102640D01*
X500Y1101640D02*
X7500Y1101640D01*
X1729500Y1101640D02*
X1736500Y1101640D01*
X500Y1100640D02*
X7500Y1100640D01*
X1729500Y1100640D02*
X1736500Y1100640D01*
X500Y1099640D02*
X7500Y1099640D01*
X1729500Y1099640D02*
X1736500Y1099640D01*
X500Y1098640D02*
X7500Y1098640D01*
X1729500Y1098640D02*
X1736500Y1098640D01*
X500Y1097640D02*
X7500Y1097640D01*
X1729500Y1097640D02*
X1736500Y1097640D01*
X500Y1096640D02*
X7500Y1096640D01*
X1729500Y1096640D02*
X1736500Y1096640D01*
X500Y1095640D02*
X7500Y1095640D01*
X1729500Y1095640D02*
X1736500Y1095640D01*
X500Y1094640D02*
X7500Y1094640D01*
X1729500Y1094640D02*
X1736500Y1094640D01*
X500Y1093640D02*
X7500Y1093640D01*
X1729500Y1093640D02*
X1736500Y1093640D01*
X500Y1092640D02*
X7500Y1092640D01*
X1729500Y1092640D02*
X1736500Y1092640D01*
X500Y1091640D02*
X7500Y1091640D01*
X1729500Y1091640D02*
X1736500Y1091640D01*
X500Y1090640D02*
X7500Y1090640D01*
X1729500Y1090640D02*
X1736500Y1090640D01*
X500Y1089640D02*
X7500Y1089640D01*
X1729500Y1089640D02*
X1736500Y1089640D01*
X500Y1088640D02*
X7500Y1088640D01*
X1729500Y1088640D02*
X1736500Y1088640D01*
X500Y1087640D02*
X7500Y1087640D01*
X1729500Y1087640D02*
X1736500Y1087640D01*
X500Y1086640D02*
X7500Y1086640D01*
X1729500Y1086640D02*
X1736500Y1086640D01*
X500Y1085640D02*
X7500Y1085640D01*
X1729500Y1085640D02*
X1736500Y1085640D01*
X500Y1084640D02*
X7500Y1084640D01*
X1729500Y1084640D02*
X1736500Y1084640D01*
X500Y1083640D02*
X7500Y1083640D01*
X1729500Y1083640D02*
X1736500Y1083640D01*
X500Y1082640D02*
X7500Y1082640D01*
X1729500Y1082640D02*
X1736500Y1082640D01*
X500Y1081640D02*
X7500Y1081640D01*
X1729500Y1081640D02*
X1736500Y1081640D01*
X500Y1080640D02*
X7500Y1080640D01*
X1729500Y1080640D02*
X1736500Y1080640D01*
X500Y1079640D02*
X7500Y1079640D01*
X1729500Y1079640D02*
X1736500Y1079640D01*
X500Y1078640D02*
X7500Y1078640D01*
X1729500Y1078640D02*
X1736500Y1078640D01*
X500Y1077640D02*
X7500Y1077640D01*
X1729500Y1077640D02*
X1736500Y1077640D01*
X500Y1076640D02*
X7500Y1076640D01*
X1729500Y1076640D02*
X1736500Y1076640D01*
X500Y1075640D02*
X7500Y1075640D01*
X1729500Y1075640D02*
X1736500Y1075640D01*
X500Y1074640D02*
X7500Y1074640D01*
X1729500Y1074640D02*
X1736500Y1074640D01*
X500Y1073640D02*
X7500Y1073640D01*
X1729500Y1073640D02*
X1736500Y1073640D01*
X500Y1072640D02*
X7500Y1072640D01*
X1729500Y1072640D02*
X1736500Y1072640D01*
X500Y1071640D02*
X7500Y1071640D01*
X1729500Y1071640D02*
X1736500Y1071640D01*
X500Y1070640D02*
X7500Y1070640D01*
X1729500Y1070640D02*
X1736500Y1070640D01*
X500Y1069640D02*
X7500Y1069640D01*
X1729500Y1069640D02*
X1736500Y1069640D01*
X500Y1068640D02*
X7500Y1068640D01*
X1729500Y1068640D02*
X1736500Y1068640D01*
X500Y1067640D02*
X7500Y1067640D01*
X1729500Y1067640D02*
X1736500Y1067640D01*
X500Y1066640D02*
X7500Y1066640D01*
X1729500Y1066640D02*
X1736500Y1066640D01*
X500Y1065640D02*
X7500Y1065640D01*
X1729500Y1065640D02*
X1736500Y1065640D01*
X500Y1064640D02*
X7500Y1064640D01*
X1729500Y1064640D02*
X1736500Y1064640D01*
X500Y1063640D02*
X7500Y1063640D01*
X1729500Y1063640D02*
X1736500Y1063640D01*
X500Y1062640D02*
X7500Y1062640D01*
X1729500Y1062640D02*
X1736500Y1062640D01*
X500Y1061640D02*
X7500Y1061640D01*
X1729500Y1061640D02*
X1736500Y1061640D01*
X500Y1060640D02*
X7500Y1060640D01*
X1729500Y1060640D02*
X1736500Y1060640D01*
X500Y1059640D02*
X7500Y1059640D01*
X1729500Y1059640D02*
X1736500Y1059640D01*
X500Y1058640D02*
X7500Y1058640D01*
X1729500Y1058640D02*
X1736500Y1058640D01*
X500Y1057640D02*
X7500Y1057640D01*
X1729500Y1057640D02*
X1736500Y1057640D01*
X500Y1056640D02*
X7500Y1056640D01*
X1729500Y1056640D02*
X1736500Y1056640D01*
X500Y1055640D02*
X7500Y1055640D01*
X1729500Y1055640D02*
X1736500Y1055640D01*
X500Y1054640D02*
X7500Y1054640D01*
X1729500Y1054640D02*
X1736500Y1054640D01*
X500Y1053640D02*
X7500Y1053640D01*
X1729500Y1053640D02*
X1736500Y1053640D01*
X500Y1052640D02*
X7500Y1052640D01*
X1729500Y1052640D02*
X1736500Y1052640D01*
X500Y1051640D02*
X7500Y1051640D01*
X1729500Y1051640D02*
X1736500Y1051640D01*
X500Y1050640D02*
X7500Y1050640D01*
X1729500Y1050640D02*
X1736500Y1050640D01*
X500Y1049640D02*
X7500Y1049640D01*
X1729500Y1049640D02*
X1736500Y1049640D01*
X500Y1048640D02*
X7500Y1048640D01*
X1729500Y1048640D02*
X1736500Y1048640D01*
X500Y1047640D02*
X7500Y1047640D01*
X1729500Y1047640D02*
X1736500Y1047640D01*
X500Y1046640D02*
X7500Y1046640D01*
X1729500Y1046640D02*
X1736500Y1046640D01*
X500Y1045640D02*
X7500Y1045640D01*
X1729500Y1045640D02*
X1736500Y1045640D01*
X500Y1044640D02*
X7500Y1044640D01*
X1729500Y1044640D02*
X1736500Y1044640D01*
X500Y1043640D02*
X7500Y1043640D01*
X1729500Y1043640D02*
X1736500Y1043640D01*
X500Y1042640D02*
X7500Y1042640D01*
X1729500Y1042640D02*
X1736500Y1042640D01*
X500Y1041640D02*
X7500Y1041640D01*
X1729500Y1041640D02*
X1736500Y1041640D01*
X500Y1040640D02*
X7500Y1040640D01*
X1729500Y1040640D02*
X1736500Y1040640D01*
X500Y1039640D02*
X7500Y1039640D01*
X1729500Y1039640D02*
X1736500Y1039640D01*
X500Y1038640D02*
X7500Y1038640D01*
X1729500Y1038640D02*
X1736500Y1038640D01*
X500Y1037640D02*
X7500Y1037640D01*
X1729500Y1037640D02*
X1736500Y1037640D01*
X500Y1036640D02*
X7500Y1036640D01*
X1729500Y1036640D02*
X1736500Y1036640D01*
X500Y1035640D02*
X7500Y1035640D01*
X1729500Y1035640D02*
X1736500Y1035640D01*
X500Y1034640D02*
X7500Y1034640D01*
X1729500Y1034640D02*
X1736500Y1034640D01*
X500Y1033640D02*
X7500Y1033640D01*
X1729500Y1033640D02*
X1736500Y1033640D01*
X500Y1032640D02*
X7500Y1032640D01*
X1729500Y1032640D02*
X1736500Y1032640D01*
X500Y1031640D02*
X7500Y1031640D01*
X1729500Y1031640D02*
X1736500Y1031640D01*
X500Y1030640D02*
X7500Y1030640D01*
X1729500Y1030640D02*
X1736500Y1030640D01*
X500Y1029640D02*
X7500Y1029640D01*
X1729500Y1029640D02*
X1736500Y1029640D01*
X500Y1028640D02*
X7500Y1028640D01*
X1729500Y1028640D02*
X1736500Y1028640D01*
X500Y1027640D02*
X7500Y1027640D01*
X1729500Y1027640D02*
X1736500Y1027640D01*
X500Y1026640D02*
X7500Y1026640D01*
X1729500Y1026640D02*
X1736500Y1026640D01*
X500Y1025640D02*
X7500Y1025640D01*
X1729500Y1025640D02*
X1736500Y1025640D01*
X500Y1024640D02*
X7500Y1024640D01*
X1729500Y1024640D02*
X1736500Y1024640D01*
X500Y1023640D02*
X7500Y1023640D01*
X1729500Y1023640D02*
X1736500Y1023640D01*
X500Y1022640D02*
X7500Y1022640D01*
X1729500Y1022640D02*
X1736500Y1022640D01*
X500Y1021640D02*
X7500Y1021640D01*
X1729500Y1021640D02*
X1736500Y1021640D01*
X500Y1020640D02*
X7500Y1020640D01*
X1729500Y1020640D02*
X1736500Y1020640D01*
X500Y1019640D02*
X7500Y1019640D01*
X1729500Y1019640D02*
X1736500Y1019640D01*
X500Y1018640D02*
X7500Y1018640D01*
X1729500Y1018640D02*
X1736500Y1018640D01*
X500Y1017640D02*
X7500Y1017640D01*
X1729500Y1017640D02*
X1736500Y1017640D01*
X500Y1016640D02*
X7500Y1016640D01*
X1729500Y1016640D02*
X1736500Y1016640D01*
X500Y1015640D02*
X7500Y1015640D01*
X1729500Y1015640D02*
X1736500Y1015640D01*
X500Y1014640D02*
X7500Y1014640D01*
X1729500Y1014640D02*
X1736500Y1014640D01*
X500Y1013640D02*
X7500Y1013640D01*
X1729500Y1013640D02*
X1736500Y1013640D01*
X500Y1012640D02*
X7500Y1012640D01*
X1729500Y1012640D02*
X1736500Y1012640D01*
X500Y1011640D02*
X7500Y1011640D01*
X1729500Y1011640D02*
X1736500Y1011640D01*
X500Y1010640D02*
X7500Y1010640D01*
X1729500Y1010640D02*
X1736500Y1010640D01*
X500Y1009640D02*
X7500Y1009640D01*
X1729500Y1009640D02*
X1736500Y1009640D01*
X500Y1008640D02*
X7500Y1008640D01*
X1729500Y1008640D02*
X1736500Y1008640D01*
X500Y1007640D02*
X7500Y1007640D01*
X1729500Y1007640D02*
X1736500Y1007640D01*
X500Y1006640D02*
X7500Y1006640D01*
X1729500Y1006640D02*
X1736500Y1006640D01*
X500Y1005640D02*
X7500Y1005640D01*
X1729500Y1005640D02*
X1736500Y1005640D01*
X500Y1004640D02*
X7500Y1004640D01*
X1729500Y1004640D02*
X1736500Y1004640D01*
X500Y1003640D02*
X7500Y1003640D01*
X1729500Y1003640D02*
X1736500Y1003640D01*
X500Y1002640D02*
X7500Y1002640D01*
X1729500Y1002640D02*
X1736500Y1002640D01*
X500Y1001640D02*
X7500Y1001640D01*
X1729500Y1001640D02*
X1736500Y1001640D01*
X500Y1000640D02*
X7500Y1000640D01*
X1729500Y1000640D02*
X1736500Y1000640D01*
X500Y999640D02*
X7500Y999640D01*
X1729500Y999640D02*
X1736500Y999640D01*
X500Y998640D02*
X7500Y998640D01*
X1729500Y998640D02*
X1736500Y998640D01*
X500Y997640D02*
X7500Y997640D01*
X1729500Y997640D02*
X1736500Y997640D01*
X500Y996640D02*
X7500Y996640D01*
X1729500Y996640D02*
X1736500Y996640D01*
X500Y995640D02*
X7500Y995640D01*
X1729500Y995640D02*
X1736500Y995640D01*
X500Y994640D02*
X7500Y994640D01*
X1729500Y994640D02*
X1736500Y994640D01*
X500Y993640D02*
X7500Y993640D01*
X1729500Y993640D02*
X1736500Y993640D01*
X500Y992640D02*
X7500Y992640D01*
X1729500Y992640D02*
X1736500Y992640D01*
X500Y991640D02*
X7500Y991640D01*
X1729500Y991640D02*
X1736500Y991640D01*
X500Y990640D02*
X7500Y990640D01*
X1729500Y990640D02*
X1736500Y990640D01*
X500Y989640D02*
X7500Y989640D01*
X1729500Y989640D02*
X1736500Y989640D01*
X500Y988640D02*
X7500Y988640D01*
X1729500Y988640D02*
X1736500Y988640D01*
X500Y987640D02*
X7500Y987640D01*
X1729500Y987640D02*
X1736500Y987640D01*
X500Y986640D02*
X7500Y986640D01*
X1729500Y986640D02*
X1736500Y986640D01*
X500Y985640D02*
X7500Y985640D01*
X1729500Y985640D02*
X1736500Y985640D01*
X500Y984640D02*
X7500Y984640D01*
X1729500Y984640D02*
X1736500Y984640D01*
X500Y983640D02*
X7500Y983640D01*
X1729500Y983640D02*
X1736500Y983640D01*
X500Y982640D02*
X7500Y982640D01*
X1729500Y982640D02*
X1736500Y982640D01*
X500Y981640D02*
X7500Y981640D01*
X1729500Y981640D02*
X1736500Y981640D01*
X500Y980640D02*
X7500Y980640D01*
X1729500Y980640D02*
X1736500Y980640D01*
X500Y979640D02*
X7500Y979640D01*
X1729500Y979640D02*
X1736500Y979640D01*
X500Y978640D02*
X7500Y978640D01*
X1729500Y978640D02*
X1736500Y978640D01*
X500Y977640D02*
X7500Y977640D01*
X1729500Y977640D02*
X1736500Y977640D01*
X500Y976640D02*
X7500Y976640D01*
X1729500Y976640D02*
X1736500Y976640D01*
X500Y975640D02*
X7500Y975640D01*
X1729500Y975640D02*
X1736500Y975640D01*
X500Y974640D02*
X7500Y974640D01*
X1729500Y974640D02*
X1736500Y974640D01*
X500Y973640D02*
X7500Y973640D01*
X1729500Y973640D02*
X1736500Y973640D01*
X500Y972640D02*
X7500Y972640D01*
X1729500Y972640D02*
X1736500Y972640D01*
X500Y971640D02*
X7500Y971640D01*
X1729500Y971640D02*
X1736500Y971640D01*
X500Y970640D02*
X7500Y970640D01*
X1729500Y970640D02*
X1736500Y970640D01*
X500Y969640D02*
X7500Y969640D01*
X1729500Y969640D02*
X1736500Y969640D01*
X500Y968640D02*
X7500Y968640D01*
X1729500Y968640D02*
X1736500Y968640D01*
X500Y967640D02*
X7500Y967640D01*
X1729500Y967640D02*
X1736500Y967640D01*
X500Y966640D02*
X7500Y966640D01*
X1729500Y966640D02*
X1736500Y966640D01*
X500Y965640D02*
X7500Y965640D01*
X1729500Y965640D02*
X1736500Y965640D01*
X500Y964640D02*
X7500Y964640D01*
X1729500Y964640D02*
X1736500Y964640D01*
X500Y963640D02*
X7500Y963640D01*
X1729500Y963640D02*
X1736500Y963640D01*
X500Y962640D02*
X7500Y962640D01*
X1729500Y962640D02*
X1736500Y962640D01*
X500Y961640D02*
X7500Y961640D01*
X1729500Y961640D02*
X1736500Y961640D01*
X500Y960640D02*
X7500Y960640D01*
X1729500Y960640D02*
X1736500Y960640D01*
X500Y959640D02*
X7500Y959640D01*
X1729500Y959640D02*
X1736500Y959640D01*
X500Y958640D02*
X7500Y958640D01*
X1729500Y958640D02*
X1736500Y958640D01*
X500Y957640D02*
X7500Y957640D01*
X1729500Y957640D02*
X1736500Y957640D01*
X500Y956640D02*
X7500Y956640D01*
X1729500Y956640D02*
X1736500Y956640D01*
X500Y955640D02*
X7500Y955640D01*
X1729500Y955640D02*
X1736500Y955640D01*
X500Y954640D02*
X7500Y954640D01*
X1729500Y954640D02*
X1736500Y954640D01*
X500Y953640D02*
X7500Y953640D01*
X1729500Y953640D02*
X1736500Y953640D01*
X500Y952640D02*
X7500Y952640D01*
X1729500Y952640D02*
X1736500Y952640D01*
X500Y951640D02*
X7500Y951640D01*
X1729500Y951640D02*
X1736500Y951640D01*
X500Y950640D02*
X7500Y950640D01*
X1729500Y950640D02*
X1736500Y950640D01*
X500Y949640D02*
X7500Y949640D01*
X1729500Y949640D02*
X1736500Y949640D01*
X500Y948640D02*
X7500Y948640D01*
X1729500Y948640D02*
X1736500Y948640D01*
X500Y947640D02*
X7500Y947640D01*
X1729500Y947640D02*
X1736500Y947640D01*
X500Y946640D02*
X7500Y946640D01*
X1729500Y946640D02*
X1736500Y946640D01*
X500Y945640D02*
X7500Y945640D01*
X1729500Y945640D02*
X1736500Y945640D01*
X500Y944640D02*
X7500Y944640D01*
X1729500Y944640D02*
X1736500Y944640D01*
X500Y943640D02*
X7500Y943640D01*
X1729500Y943640D02*
X1736500Y943640D01*
X500Y942640D02*
X7500Y942640D01*
X1729500Y942640D02*
X1736500Y942640D01*
X500Y941640D02*
X7500Y941640D01*
X1729500Y941640D02*
X1736500Y941640D01*
X500Y940640D02*
X7500Y940640D01*
X1729500Y940640D02*
X1736500Y940640D01*
X500Y939640D02*
X7500Y939640D01*
X1729500Y939640D02*
X1736500Y939640D01*
X500Y938640D02*
X7500Y938640D01*
X1729500Y938640D02*
X1736500Y938640D01*
X500Y937640D02*
X7500Y937640D01*
X1729500Y937640D02*
X1736500Y937640D01*
X500Y936640D02*
X7500Y936640D01*
X1729500Y936640D02*
X1736500Y936640D01*
X500Y935640D02*
X7500Y935640D01*
X1729500Y935640D02*
X1736500Y935640D01*
X500Y934640D02*
X7500Y934640D01*
X1729500Y934640D02*
X1736500Y934640D01*
X500Y933640D02*
X7500Y933640D01*
X1729500Y933640D02*
X1736500Y933640D01*
X500Y932640D02*
X7500Y932640D01*
X1729500Y932640D02*
X1736500Y932640D01*
X500Y931640D02*
X7500Y931640D01*
X1729500Y931640D02*
X1736500Y931640D01*
X500Y930640D02*
X7500Y930640D01*
X1729500Y930640D02*
X1736500Y930640D01*
X500Y929640D02*
X7500Y929640D01*
X1729500Y929640D02*
X1736500Y929640D01*
X500Y928640D02*
X7500Y928640D01*
X1729500Y928640D02*
X1736500Y928640D01*
X500Y927640D02*
X7500Y927640D01*
X1729500Y927640D02*
X1736500Y927640D01*
X500Y926640D02*
X7500Y926640D01*
X1729500Y926640D02*
X1736500Y926640D01*
X500Y925640D02*
X7500Y925640D01*
X1729500Y925640D02*
X1736500Y925640D01*
X500Y924640D02*
X7500Y924640D01*
X1729500Y924640D02*
X1736500Y924640D01*
X500Y923640D02*
X7500Y923640D01*
X1729500Y923640D02*
X1736500Y923640D01*
X500Y922640D02*
X7500Y922640D01*
X1729500Y922640D02*
X1736500Y922640D01*
X500Y921640D02*
X7500Y921640D01*
X1729500Y921640D02*
X1736500Y921640D01*
X500Y920640D02*
X7500Y920640D01*
X1729500Y920640D02*
X1736500Y920640D01*
X500Y919640D02*
X7500Y919640D01*
X1729500Y919640D02*
X1736500Y919640D01*
X500Y918640D02*
X7500Y918640D01*
X1729500Y918640D02*
X1736500Y918640D01*
X500Y917640D02*
X7500Y917640D01*
X1729500Y917640D02*
X1736500Y917640D01*
X500Y916640D02*
X7500Y916640D01*
X1729500Y916640D02*
X1736500Y916640D01*
X500Y915640D02*
X7500Y915640D01*
X1729500Y915640D02*
X1736500Y915640D01*
X500Y914640D02*
X7500Y914640D01*
X1729500Y914640D02*
X1736500Y914640D01*
X500Y913640D02*
X7500Y913640D01*
X1729500Y913640D02*
X1736500Y913640D01*
X500Y912640D02*
X7500Y912640D01*
X1729500Y912640D02*
X1736500Y912640D01*
X500Y911640D02*
X7500Y911640D01*
X1729500Y911640D02*
X1736500Y911640D01*
X500Y910640D02*
X7500Y910640D01*
X1729500Y910640D02*
X1736500Y910640D01*
X500Y909640D02*
X7500Y909640D01*
X1729500Y909640D02*
X1736500Y909640D01*
X500Y908640D02*
X7500Y908640D01*
X1729500Y908640D02*
X1736500Y908640D01*
X500Y907640D02*
X7500Y907640D01*
X1729500Y907640D02*
X1736500Y907640D01*
X500Y906640D02*
X7500Y906640D01*
X1729500Y906640D02*
X1736500Y906640D01*
X500Y905640D02*
X7500Y905640D01*
X1729500Y905640D02*
X1736500Y905640D01*
X500Y904640D02*
X7500Y904640D01*
X1729500Y904640D02*
X1736500Y904640D01*
X500Y903640D02*
X7500Y903640D01*
X1729500Y903640D02*
X1736500Y903640D01*
X500Y902640D02*
X7500Y902640D01*
X1729500Y902640D02*
X1736500Y902640D01*
X500Y901640D02*
X7500Y901640D01*
X1729500Y901640D02*
X1736500Y901640D01*
X500Y900640D02*
X7500Y900640D01*
X1729500Y900640D02*
X1736500Y900640D01*
X500Y899640D02*
X7500Y899640D01*
X1729500Y899640D02*
X1736500Y899640D01*
X500Y898640D02*
X7500Y898640D01*
X1729500Y898640D02*
X1736500Y898640D01*
X500Y897640D02*
X7500Y897640D01*
X1729500Y897640D02*
X1736500Y897640D01*
X500Y896640D02*
X7500Y896640D01*
X1729500Y896640D02*
X1736500Y896640D01*
X500Y895640D02*
X7500Y895640D01*
X1729500Y895640D02*
X1736500Y895640D01*
X500Y894640D02*
X7500Y894640D01*
X1729500Y894640D02*
X1736500Y894640D01*
X500Y893640D02*
X7500Y893640D01*
X1729500Y893640D02*
X1736500Y893640D01*
X500Y892640D02*
X7500Y892640D01*
X1729500Y892640D02*
X1736500Y892640D01*
X500Y891640D02*
X7500Y891640D01*
X1729500Y891640D02*
X1736500Y891640D01*
X500Y890640D02*
X7500Y890640D01*
X1729500Y890640D02*
X1736500Y890640D01*
X500Y889640D02*
X7500Y889640D01*
X1729500Y889640D02*
X1736500Y889640D01*
X500Y888640D02*
X7500Y888640D01*
X1729500Y888640D02*
X1736500Y888640D01*
X500Y887640D02*
X7500Y887640D01*
X1729500Y887640D02*
X1736500Y887640D01*
X500Y886640D02*
X7500Y886640D01*
X1729500Y886640D02*
X1736500Y886640D01*
X500Y885640D02*
X7500Y885640D01*
X1729500Y885640D02*
X1736500Y885640D01*
X500Y884640D02*
X7500Y884640D01*
X1729500Y884640D02*
X1736500Y884640D01*
X500Y883640D02*
X7500Y883640D01*
X1729500Y883640D02*
X1736500Y883640D01*
X500Y882640D02*
X7500Y882640D01*
X1729500Y882640D02*
X1736500Y882640D01*
X500Y881640D02*
X7500Y881640D01*
X1729500Y881640D02*
X1736500Y881640D01*
X500Y880640D02*
X7500Y880640D01*
X1729500Y880640D02*
X1736500Y880640D01*
X500Y879640D02*
X7500Y879640D01*
X1729500Y879640D02*
X1736500Y879640D01*
X500Y878640D02*
X7500Y878640D01*
X1729500Y878640D02*
X1736500Y878640D01*
X500Y877640D02*
X7500Y877640D01*
X1729500Y877640D02*
X1736500Y877640D01*
X500Y876640D02*
X7500Y876640D01*
X1729500Y876640D02*
X1736500Y876640D01*
X500Y875640D02*
X7500Y875640D01*
X1729500Y875640D02*
X1736500Y875640D01*
X500Y874640D02*
X7500Y874640D01*
X1729500Y874640D02*
X1736500Y874640D01*
X500Y873640D02*
X7500Y873640D01*
X1729500Y873640D02*
X1736500Y873640D01*
X500Y872640D02*
X7500Y872640D01*
X1729500Y872640D02*
X1736500Y872640D01*
X500Y871640D02*
X7500Y871640D01*
X1729500Y871640D02*
X1736500Y871640D01*
X500Y870640D02*
X7500Y870640D01*
X1729500Y870640D02*
X1736500Y870640D01*
X500Y869640D02*
X7500Y869640D01*
X1729500Y869640D02*
X1736500Y869640D01*
X500Y868640D02*
X7500Y868640D01*
X1729500Y868640D02*
X1736500Y868640D01*
X500Y867640D02*
X7500Y867640D01*
X1729500Y867640D02*
X1736500Y867640D01*
X500Y866640D02*
X7500Y866640D01*
X1729500Y866640D02*
X1736500Y866640D01*
X500Y865640D02*
X7500Y865640D01*
X1729500Y865640D02*
X1736500Y865640D01*
X500Y864640D02*
X7500Y864640D01*
X1729500Y864640D02*
X1736500Y864640D01*
X500Y863640D02*
X7500Y863640D01*
X1729500Y863640D02*
X1736500Y863640D01*
X500Y862640D02*
X7500Y862640D01*
X1729500Y862640D02*
X1736500Y862640D01*
X500Y861640D02*
X7500Y861640D01*
X1729500Y861640D02*
X1736500Y861640D01*
X500Y860640D02*
X7500Y860640D01*
X1729500Y860640D02*
X1736500Y860640D01*
X500Y859640D02*
X7500Y859640D01*
X1729500Y859640D02*
X1736500Y859640D01*
X500Y858640D02*
X7500Y858640D01*
X1729500Y858640D02*
X1736500Y858640D01*
X500Y857640D02*
X7500Y857640D01*
X1729500Y857640D02*
X1736500Y857640D01*
X500Y856640D02*
X7500Y856640D01*
X1729500Y856640D02*
X1736500Y856640D01*
X500Y855640D02*
X7500Y855640D01*
X1729500Y855640D02*
X1736500Y855640D01*
X500Y854640D02*
X7500Y854640D01*
X1729500Y854640D02*
X1736500Y854640D01*
X500Y853640D02*
X7500Y853640D01*
X1729500Y853640D02*
X1736500Y853640D01*
X500Y852640D02*
X7500Y852640D01*
X1729500Y852640D02*
X1736500Y852640D01*
X500Y851640D02*
X7500Y851640D01*
X1729500Y851640D02*
X1736500Y851640D01*
X500Y850640D02*
X7500Y850640D01*
X1729500Y850640D02*
X1736500Y850640D01*
X500Y849640D02*
X7500Y849640D01*
X1729500Y849640D02*
X1736500Y849640D01*
X500Y848640D02*
X7500Y848640D01*
X1729500Y848640D02*
X1736500Y848640D01*
X500Y847640D02*
X7500Y847640D01*
X1729500Y847640D02*
X1736500Y847640D01*
X500Y846640D02*
X7500Y846640D01*
X1729500Y846640D02*
X1736500Y846640D01*
X500Y845640D02*
X7500Y845640D01*
X1729500Y845640D02*
X1736500Y845640D01*
X500Y844640D02*
X7500Y844640D01*
X1729500Y844640D02*
X1736500Y844640D01*
X500Y843640D02*
X7500Y843640D01*
X1729500Y843640D02*
X1736500Y843640D01*
X500Y842640D02*
X7500Y842640D01*
X1729500Y842640D02*
X1736500Y842640D01*
X500Y841640D02*
X7500Y841640D01*
X1729500Y841640D02*
X1736500Y841640D01*
X500Y840640D02*
X7500Y840640D01*
X1729500Y840640D02*
X1736500Y840640D01*
X500Y839640D02*
X7500Y839640D01*
X1729500Y839640D02*
X1736500Y839640D01*
X500Y838640D02*
X7500Y838640D01*
X1729500Y838640D02*
X1736500Y838640D01*
X500Y837640D02*
X7500Y837640D01*
X1729500Y837640D02*
X1736500Y837640D01*
X500Y836640D02*
X7500Y836640D01*
X1729500Y836640D02*
X1736500Y836640D01*
X500Y835640D02*
X7500Y835640D01*
X1729500Y835640D02*
X1736500Y835640D01*
X500Y834640D02*
X7500Y834640D01*
X1729500Y834640D02*
X1736500Y834640D01*
X500Y833640D02*
X7500Y833640D01*
X1729500Y833640D02*
X1736500Y833640D01*
X500Y832640D02*
X7500Y832640D01*
X1729500Y832640D02*
X1736500Y832640D01*
X500Y831640D02*
X7500Y831640D01*
X1729500Y831640D02*
X1736500Y831640D01*
X500Y830640D02*
X7500Y830640D01*
X1729500Y830640D02*
X1736500Y830640D01*
X500Y829640D02*
X7500Y829640D01*
X1729500Y829640D02*
X1736500Y829640D01*
X500Y828640D02*
X7500Y828640D01*
X1729500Y828640D02*
X1736500Y828640D01*
X500Y827640D02*
X7500Y827640D01*
X1729500Y827640D02*
X1736500Y827640D01*
X500Y826640D02*
X7500Y826640D01*
X1729500Y826640D02*
X1736500Y826640D01*
X500Y825640D02*
X7500Y825640D01*
X1729500Y825640D02*
X1736500Y825640D01*
X500Y824640D02*
X7500Y824640D01*
X1729500Y824640D02*
X1736500Y824640D01*
X500Y823640D02*
X7500Y823640D01*
X1729500Y823640D02*
X1736500Y823640D01*
X500Y822640D02*
X7500Y822640D01*
X1729500Y822640D02*
X1736500Y822640D01*
X500Y821640D02*
X7500Y821640D01*
X1729500Y821640D02*
X1736500Y821640D01*
X500Y820640D02*
X7500Y820640D01*
X1729500Y820640D02*
X1736500Y820640D01*
X500Y819640D02*
X7500Y819640D01*
X1729500Y819640D02*
X1736500Y819640D01*
X500Y818640D02*
X7500Y818640D01*
X1729500Y818640D02*
X1736500Y818640D01*
X500Y817640D02*
X7500Y817640D01*
X1729500Y817640D02*
X1736500Y817640D01*
X500Y816640D02*
X7500Y816640D01*
X1729500Y816640D02*
X1736500Y816640D01*
X500Y815640D02*
X7500Y815640D01*
X1729500Y815640D02*
X1736500Y815640D01*
X500Y814640D02*
X7500Y814640D01*
X1729500Y814640D02*
X1736500Y814640D01*
X500Y813640D02*
X7500Y813640D01*
X1729500Y813640D02*
X1736500Y813640D01*
X500Y812640D02*
X7500Y812640D01*
X1729500Y812640D02*
X1736500Y812640D01*
X500Y811640D02*
X7500Y811640D01*
X1729500Y811640D02*
X1736500Y811640D01*
X500Y810640D02*
X7500Y810640D01*
X1729500Y810640D02*
X1736500Y810640D01*
X500Y809640D02*
X7500Y809640D01*
X1729500Y809640D02*
X1736500Y809640D01*
X500Y808640D02*
X7500Y808640D01*
X1729500Y808640D02*
X1736500Y808640D01*
X500Y807640D02*
X7500Y807640D01*
X1729500Y807640D02*
X1736500Y807640D01*
X500Y806640D02*
X7500Y806640D01*
X1729500Y806640D02*
X1736500Y806640D01*
X500Y805640D02*
X7500Y805640D01*
X1729500Y805640D02*
X1736500Y805640D01*
X500Y804640D02*
X7500Y804640D01*
X1729500Y804640D02*
X1736500Y804640D01*
X500Y803640D02*
X7500Y803640D01*
X1729500Y803640D02*
X1736500Y803640D01*
X500Y802640D02*
X7500Y802640D01*
X1729500Y802640D02*
X1736500Y802640D01*
X500Y801640D02*
X7500Y801640D01*
X1729500Y801640D02*
X1736500Y801640D01*
X500Y800640D02*
X7500Y800640D01*
X1729500Y800640D02*
X1736500Y800640D01*
X500Y799640D02*
X7500Y799640D01*
X1729500Y799640D02*
X1736500Y799640D01*
X500Y798640D02*
X7500Y798640D01*
X1729500Y798640D02*
X1736500Y798640D01*
X500Y797640D02*
X7500Y797640D01*
X1729500Y797640D02*
X1736500Y797640D01*
X500Y796640D02*
X7500Y796640D01*
X1729500Y796640D02*
X1736500Y796640D01*
X500Y795640D02*
X7500Y795640D01*
X1729500Y795640D02*
X1736500Y795640D01*
X500Y794640D02*
X7500Y794640D01*
X1729500Y794640D02*
X1736500Y794640D01*
X500Y793640D02*
X7500Y793640D01*
X1729500Y793640D02*
X1736500Y793640D01*
X500Y792640D02*
X7500Y792640D01*
X1729500Y792640D02*
X1736500Y792640D01*
X500Y791640D02*
X7500Y791640D01*
X1729500Y791640D02*
X1736500Y791640D01*
X500Y790640D02*
X7500Y790640D01*
X1729500Y790640D02*
X1736500Y790640D01*
X500Y789640D02*
X7500Y789640D01*
X1729500Y789640D02*
X1736500Y789640D01*
X500Y788640D02*
X7500Y788640D01*
X1729500Y788640D02*
X1736500Y788640D01*
X500Y787640D02*
X7500Y787640D01*
X1729500Y787640D02*
X1736500Y787640D01*
X500Y786640D02*
X7500Y786640D01*
X1729500Y786640D02*
X1736500Y786640D01*
X500Y785640D02*
X7500Y785640D01*
X1729500Y785640D02*
X1736500Y785640D01*
X500Y784640D02*
X7500Y784640D01*
X1729500Y784640D02*
X1736500Y784640D01*
X500Y783640D02*
X7500Y783640D01*
X1729500Y783640D02*
X1736500Y783640D01*
X500Y782640D02*
X7500Y782640D01*
X1729500Y782640D02*
X1736500Y782640D01*
X500Y781640D02*
X7500Y781640D01*
X1729500Y781640D02*
X1736500Y781640D01*
X500Y780640D02*
X7500Y780640D01*
X1729500Y780640D02*
X1736500Y780640D01*
X500Y779640D02*
X7500Y779640D01*
X1729500Y779640D02*
X1736500Y779640D01*
X500Y778640D02*
X7500Y778640D01*
X1729500Y778640D02*
X1736500Y778640D01*
X500Y777640D02*
X7500Y777640D01*
X1729500Y777640D02*
X1736500Y777640D01*
X500Y776640D02*
X7500Y776640D01*
X1729500Y776640D02*
X1736500Y776640D01*
X500Y775640D02*
X7500Y775640D01*
X1729500Y775640D02*
X1736500Y775640D01*
X500Y774640D02*
X7500Y774640D01*
X1729500Y774640D02*
X1736500Y774640D01*
X500Y773640D02*
X7500Y773640D01*
X1729500Y773640D02*
X1736500Y773640D01*
X500Y772640D02*
X7500Y772640D01*
X1729500Y772640D02*
X1736500Y772640D01*
X500Y771640D02*
X7500Y771640D01*
X1729500Y771640D02*
X1736500Y771640D01*
X500Y770640D02*
X7500Y770640D01*
X1729500Y770640D02*
X1736500Y770640D01*
X500Y769640D02*
X7500Y769640D01*
X1729500Y769640D02*
X1736500Y769640D01*
X500Y768640D02*
X7500Y768640D01*
X1729500Y768640D02*
X1736500Y768640D01*
X500Y767640D02*
X7500Y767640D01*
X1729500Y767640D02*
X1736500Y767640D01*
X500Y766640D02*
X7500Y766640D01*
X1729500Y766640D02*
X1736500Y766640D01*
X500Y765640D02*
X7500Y765640D01*
X1729500Y765640D02*
X1736500Y765640D01*
X500Y764640D02*
X7500Y764640D01*
X1729500Y764640D02*
X1736500Y764640D01*
X500Y763640D02*
X7500Y763640D01*
X1729500Y763640D02*
X1736500Y763640D01*
X500Y762640D02*
X7500Y762640D01*
X1729500Y762640D02*
X1736500Y762640D01*
X500Y761640D02*
X7500Y761640D01*
X1729500Y761640D02*
X1736500Y761640D01*
X500Y760640D02*
X7500Y760640D01*
X1729500Y760640D02*
X1736500Y760640D01*
X500Y759640D02*
X7500Y759640D01*
X1729500Y759640D02*
X1736500Y759640D01*
X500Y758640D02*
X7500Y758640D01*
X1729500Y758640D02*
X1736500Y758640D01*
X500Y757640D02*
X7500Y757640D01*
X1729500Y757640D02*
X1736500Y757640D01*
X500Y756640D02*
X7500Y756640D01*
X1729500Y756640D02*
X1736500Y756640D01*
X500Y755640D02*
X7500Y755640D01*
X1729500Y755640D02*
X1736500Y755640D01*
X500Y754640D02*
X7500Y754640D01*
X1729500Y754640D02*
X1736500Y754640D01*
X500Y753640D02*
X7500Y753640D01*
X1729500Y753640D02*
X1736500Y753640D01*
X500Y752640D02*
X7500Y752640D01*
X1729500Y752640D02*
X1736500Y752640D01*
X500Y751640D02*
X7500Y751640D01*
X1729500Y751640D02*
X1736500Y751640D01*
X500Y750640D02*
X7500Y750640D01*
X1729500Y750640D02*
X1736500Y750640D01*
X500Y749640D02*
X7500Y749640D01*
X1729500Y749640D02*
X1736500Y749640D01*
X500Y748640D02*
X7500Y748640D01*
X1729500Y748640D02*
X1736500Y748640D01*
X500Y747640D02*
X7500Y747640D01*
X1729500Y747640D02*
X1736500Y747640D01*
X500Y746640D02*
X7500Y746640D01*
X1729500Y746640D02*
X1736500Y746640D01*
X500Y745640D02*
X7500Y745640D01*
X1729500Y745640D02*
X1736500Y745640D01*
X500Y744640D02*
X7500Y744640D01*
X1729500Y744640D02*
X1736500Y744640D01*
X500Y743640D02*
X7500Y743640D01*
X1729500Y743640D02*
X1736500Y743640D01*
X500Y742640D02*
X7500Y742640D01*
X1729500Y742640D02*
X1736500Y742640D01*
X500Y741640D02*
X7500Y741640D01*
X1729500Y741640D02*
X1736500Y741640D01*
X500Y740640D02*
X7500Y740640D01*
X1729500Y740640D02*
X1736500Y740640D01*
X500Y739640D02*
X7500Y739640D01*
X1729500Y739640D02*
X1736500Y739640D01*
X500Y738640D02*
X7500Y738640D01*
X1729500Y738640D02*
X1736500Y738640D01*
X500Y737640D02*
X7500Y737640D01*
X1729500Y737640D02*
X1736500Y737640D01*
X500Y736640D02*
X7500Y736640D01*
X1729500Y736640D02*
X1736500Y736640D01*
X500Y735640D02*
X7500Y735640D01*
X1729500Y735640D02*
X1736500Y735640D01*
X500Y734640D02*
X7500Y734640D01*
X1729500Y734640D02*
X1736500Y734640D01*
X500Y733640D02*
X7500Y733640D01*
X1729500Y733640D02*
X1736500Y733640D01*
X500Y732640D02*
X7500Y732640D01*
X1729500Y732640D02*
X1736500Y732640D01*
X500Y731640D02*
X7500Y731640D01*
X1729500Y731640D02*
X1736500Y731640D01*
X500Y730640D02*
X7500Y730640D01*
X1729500Y730640D02*
X1736500Y730640D01*
X500Y729640D02*
X7500Y729640D01*
X1729500Y729640D02*
X1736500Y729640D01*
X500Y728640D02*
X7500Y728640D01*
X1729500Y728640D02*
X1736500Y728640D01*
X500Y727640D02*
X7500Y727640D01*
X1729500Y727640D02*
X1736500Y727640D01*
X500Y726640D02*
X7500Y726640D01*
X1729500Y726640D02*
X1736500Y726640D01*
X500Y725640D02*
X7500Y725640D01*
X1729500Y725640D02*
X1736500Y725640D01*
X500Y724640D02*
X7500Y724640D01*
X1729500Y724640D02*
X1736500Y724640D01*
X500Y723640D02*
X7500Y723640D01*
X1729500Y723640D02*
X1736500Y723640D01*
X500Y722640D02*
X7500Y722640D01*
X1729500Y722640D02*
X1736500Y722640D01*
X500Y721640D02*
X7500Y721640D01*
X1729500Y721640D02*
X1736500Y721640D01*
X500Y720640D02*
X7500Y720640D01*
X1729500Y720640D02*
X1736500Y720640D01*
X500Y719640D02*
X7500Y719640D01*
X1729500Y719640D02*
X1736500Y719640D01*
X500Y718640D02*
X7500Y718640D01*
X1729500Y718640D02*
X1736500Y718640D01*
X500Y717640D02*
X7500Y717640D01*
X1729500Y717640D02*
X1736500Y717640D01*
X500Y716640D02*
X7500Y716640D01*
X1729500Y716640D02*
X1736500Y716640D01*
X500Y715640D02*
X7500Y715640D01*
X1729500Y715640D02*
X1736500Y715640D01*
X500Y714640D02*
X7500Y714640D01*
X1729500Y714640D02*
X1736500Y714640D01*
X500Y713640D02*
X7500Y713640D01*
X1729500Y713640D02*
X1736500Y713640D01*
X500Y712640D02*
X7500Y712640D01*
X1729500Y712640D02*
X1736500Y712640D01*
X500Y711640D02*
X7500Y711640D01*
X1729500Y711640D02*
X1736500Y711640D01*
X500Y710640D02*
X7500Y710640D01*
X1729500Y710640D02*
X1736500Y710640D01*
X500Y709640D02*
X7500Y709640D01*
X1729500Y709640D02*
X1736500Y709640D01*
X500Y708640D02*
X7500Y708640D01*
X1729500Y708640D02*
X1736500Y708640D01*
X500Y707640D02*
X7500Y707640D01*
X1729500Y707640D02*
X1736500Y707640D01*
X500Y706640D02*
X7500Y706640D01*
X1729500Y706640D02*
X1736500Y706640D01*
X500Y705640D02*
X7500Y705640D01*
X1729500Y705640D02*
X1736500Y705640D01*
X500Y704640D02*
X7500Y704640D01*
X1729500Y704640D02*
X1736500Y704640D01*
X500Y703640D02*
X7500Y703640D01*
X1729500Y703640D02*
X1736500Y703640D01*
X500Y702640D02*
X7500Y702640D01*
X1729500Y702640D02*
X1736500Y702640D01*
X500Y701640D02*
X7500Y701640D01*
X1729500Y701640D02*
X1736500Y701640D01*
X500Y700640D02*
X7500Y700640D01*
X1729500Y700640D02*
X1736500Y700640D01*
X500Y699640D02*
X7500Y699640D01*
X1729500Y699640D02*
X1736500Y699640D01*
X500Y698640D02*
X7500Y698640D01*
X1729500Y698640D02*
X1736500Y698640D01*
X500Y697640D02*
X7500Y697640D01*
X1729500Y697640D02*
X1736500Y697640D01*
X500Y696640D02*
X7500Y696640D01*
X1729500Y696640D02*
X1736500Y696640D01*
X500Y695640D02*
X7500Y695640D01*
X1729500Y695640D02*
X1736500Y695640D01*
X500Y694640D02*
X7500Y694640D01*
X1729500Y694640D02*
X1736500Y694640D01*
X500Y693640D02*
X7500Y693640D01*
X1729500Y693640D02*
X1736500Y693640D01*
X500Y692640D02*
X7500Y692640D01*
X1729500Y692640D02*
X1736500Y692640D01*
X500Y691640D02*
X7500Y691640D01*
X1729500Y691640D02*
X1736500Y691640D01*
X500Y690640D02*
X7500Y690640D01*
X1729500Y690640D02*
X1736500Y690640D01*
X500Y689640D02*
X7500Y689640D01*
X1729500Y689640D02*
X1736500Y689640D01*
X500Y688640D02*
X7500Y688640D01*
X1729500Y688640D02*
X1736500Y688640D01*
X500Y687640D02*
X7500Y687640D01*
X1729500Y687640D02*
X1736500Y687640D01*
X500Y686640D02*
X7500Y686640D01*
X1729500Y686640D02*
X1736500Y686640D01*
X500Y685640D02*
X7500Y685640D01*
X1729500Y685640D02*
X1736500Y685640D01*
X500Y684640D02*
X7500Y684640D01*
X1729500Y684640D02*
X1736500Y684640D01*
X500Y683640D02*
X7500Y683640D01*
X1729500Y683640D02*
X1736500Y683640D01*
X500Y682640D02*
X7500Y682640D01*
X1729500Y682640D02*
X1736500Y682640D01*
X500Y681640D02*
X7500Y681640D01*
X1729500Y681640D02*
X1736500Y681640D01*
X500Y680640D02*
X7500Y680640D01*
X1729500Y680640D02*
X1736500Y680640D01*
X500Y679640D02*
X7500Y679640D01*
X1729500Y679640D02*
X1736500Y679640D01*
X500Y678640D02*
X7500Y678640D01*
X1729500Y678640D02*
X1736500Y678640D01*
X500Y677640D02*
X7500Y677640D01*
X1729500Y677640D02*
X1736500Y677640D01*
X500Y676640D02*
X7500Y676640D01*
X1729500Y676640D02*
X1736500Y676640D01*
X500Y675640D02*
X7500Y675640D01*
X1729500Y675640D02*
X1736500Y675640D01*
X500Y674640D02*
X7500Y674640D01*
X1729500Y674640D02*
X1736500Y674640D01*
X500Y673640D02*
X7500Y673640D01*
X1729500Y673640D02*
X1736500Y673640D01*
X500Y672640D02*
X7500Y672640D01*
X1729500Y672640D02*
X1736500Y672640D01*
X500Y671640D02*
X7500Y671640D01*
X1729500Y671640D02*
X1736500Y671640D01*
X500Y670640D02*
X7500Y670640D01*
X1729500Y670640D02*
X1736500Y670640D01*
X500Y669640D02*
X7500Y669640D01*
X1729500Y669640D02*
X1736500Y669640D01*
X500Y668640D02*
X7500Y668640D01*
X1729500Y668640D02*
X1736500Y668640D01*
X500Y667640D02*
X7500Y667640D01*
X1729500Y667640D02*
X1736500Y667640D01*
X500Y666640D02*
X7500Y666640D01*
X1729500Y666640D02*
X1736500Y666640D01*
X500Y665640D02*
X7500Y665640D01*
X1729500Y665640D02*
X1736500Y665640D01*
X500Y664640D02*
X7500Y664640D01*
X1729500Y664640D02*
X1736500Y664640D01*
X500Y663640D02*
X7500Y663640D01*
X1729500Y663640D02*
X1736500Y663640D01*
X500Y662640D02*
X7500Y662640D01*
X1729500Y662640D02*
X1736500Y662640D01*
X500Y661640D02*
X7500Y661640D01*
X1729500Y661640D02*
X1736500Y661640D01*
X500Y660640D02*
X7500Y660640D01*
X1729500Y660640D02*
X1736500Y660640D01*
X500Y659640D02*
X7500Y659640D01*
X1729500Y659640D02*
X1736500Y659640D01*
X500Y658640D02*
X7500Y658640D01*
X1729500Y658640D02*
X1736500Y658640D01*
X500Y657640D02*
X7500Y657640D01*
X1729500Y657640D02*
X1736500Y657640D01*
X500Y656640D02*
X7500Y656640D01*
X1729500Y656640D02*
X1736500Y656640D01*
X500Y655640D02*
X7500Y655640D01*
X1729500Y655640D02*
X1736500Y655640D01*
X500Y654640D02*
X7500Y654640D01*
X1729500Y654640D02*
X1736500Y654640D01*
X500Y653640D02*
X7500Y653640D01*
X1729500Y653640D02*
X1736500Y653640D01*
X500Y652640D02*
X7500Y652640D01*
X1729500Y652640D02*
X1736500Y652640D01*
X500Y651640D02*
X7500Y651640D01*
X1729500Y651640D02*
X1736500Y651640D01*
X500Y650640D02*
X7500Y650640D01*
X1729500Y650640D02*
X1736500Y650640D01*
X500Y649640D02*
X7500Y649640D01*
X1729500Y649640D02*
X1736500Y649640D01*
X500Y648640D02*
X7500Y648640D01*
X1729500Y648640D02*
X1736500Y648640D01*
X500Y647640D02*
X7500Y647640D01*
X1729500Y647640D02*
X1736500Y647640D01*
X500Y646640D02*
X7500Y646640D01*
X1729500Y646640D02*
X1736500Y646640D01*
X500Y645640D02*
X7500Y645640D01*
X1729500Y645640D02*
X1736500Y645640D01*
X500Y644640D02*
X7500Y644640D01*
X1729500Y644640D02*
X1736500Y644640D01*
X500Y643640D02*
X7500Y643640D01*
X1729500Y643640D02*
X1736500Y643640D01*
X500Y642640D02*
X7500Y642640D01*
X1729500Y642640D02*
X1736500Y642640D01*
X500Y641640D02*
X7500Y641640D01*
X1729500Y641640D02*
X1736500Y641640D01*
X500Y640640D02*
X7500Y640640D01*
X1729500Y640640D02*
X1736500Y640640D01*
X500Y639640D02*
X7500Y639640D01*
X1729500Y639640D02*
X1736500Y639640D01*
X500Y638640D02*
X7500Y638640D01*
X1729500Y638640D02*
X1736500Y638640D01*
X500Y637640D02*
X7500Y637640D01*
X1729500Y637640D02*
X1736500Y637640D01*
X500Y636640D02*
X7500Y636640D01*
X1729500Y636640D02*
X1736500Y636640D01*
X500Y635640D02*
X7500Y635640D01*
X1729500Y635640D02*
X1736500Y635640D01*
X500Y634640D02*
X7500Y634640D01*
X1729500Y634640D02*
X1736500Y634640D01*
X500Y633640D02*
X7500Y633640D01*
X1729500Y633640D02*
X1736500Y633640D01*
X500Y632640D02*
X7500Y632640D01*
X1729500Y632640D02*
X1736500Y632640D01*
X500Y631640D02*
X7500Y631640D01*
X1729500Y631640D02*
X1736500Y631640D01*
X500Y630640D02*
X7500Y630640D01*
X1729500Y630640D02*
X1736500Y630640D01*
X500Y629640D02*
X7500Y629640D01*
X1729500Y629640D02*
X1736500Y629640D01*
X500Y628640D02*
X7500Y628640D01*
X1729500Y628640D02*
X1736500Y628640D01*
X500Y627640D02*
X7500Y627640D01*
X1729500Y627640D02*
X1736500Y627640D01*
X500Y626640D02*
X7500Y626640D01*
X1729500Y626640D02*
X1736500Y626640D01*
X500Y625640D02*
X7500Y625640D01*
X1729500Y625640D02*
X1736500Y625640D01*
X500Y624640D02*
X7500Y624640D01*
X1729500Y624640D02*
X1736500Y624640D01*
X500Y623640D02*
X7500Y623640D01*
X1729500Y623640D02*
X1736500Y623640D01*
X500Y622640D02*
X7500Y622640D01*
X1729500Y622640D02*
X1736500Y622640D01*
X500Y621640D02*
X7500Y621640D01*
X1729500Y621640D02*
X1736500Y621640D01*
X500Y620640D02*
X7500Y620640D01*
X1729500Y620640D02*
X1736500Y620640D01*
X500Y619640D02*
X7500Y619640D01*
X1729500Y619640D02*
X1736500Y619640D01*
X500Y618640D02*
X7500Y618640D01*
X1729500Y618640D02*
X1736500Y618640D01*
X500Y617640D02*
X7500Y617640D01*
X1729500Y617640D02*
X1736500Y617640D01*
X500Y616640D02*
X7500Y616640D01*
X1729500Y616640D02*
X1736500Y616640D01*
X500Y615640D02*
X7500Y615640D01*
X1729500Y615640D02*
X1736500Y615640D01*
X500Y614640D02*
X7500Y614640D01*
X1729500Y614640D02*
X1736500Y614640D01*
X500Y613640D02*
X7500Y613640D01*
X1729500Y613640D02*
X1736500Y613640D01*
X500Y612640D02*
X7500Y612640D01*
X1729500Y612640D02*
X1736500Y612640D01*
X500Y611640D02*
X7500Y611640D01*
X1729500Y611640D02*
X1736500Y611640D01*
X500Y610640D02*
X7500Y610640D01*
X1729500Y610640D02*
X1736500Y610640D01*
X500Y609640D02*
X7500Y609640D01*
X1729500Y609640D02*
X1736500Y609640D01*
X500Y608640D02*
X7500Y608640D01*
X1729500Y608640D02*
X1736500Y608640D01*
X500Y607640D02*
X7500Y607640D01*
X1729500Y607640D02*
X1736500Y607640D01*
X500Y606640D02*
X7500Y606640D01*
X1729500Y606640D02*
X1736500Y606640D01*
X500Y605640D02*
X7500Y605640D01*
X1729500Y605640D02*
X1736500Y605640D01*
X500Y604640D02*
X7500Y604640D01*
X1729500Y604640D02*
X1736500Y604640D01*
X500Y603640D02*
X7500Y603640D01*
X1729500Y603640D02*
X1736500Y603640D01*
X500Y602640D02*
X7500Y602640D01*
X1729500Y602640D02*
X1736500Y602640D01*
X500Y601640D02*
X7500Y601640D01*
X1729500Y601640D02*
X1736500Y601640D01*
X500Y600640D02*
X7500Y600640D01*
X1729500Y600640D02*
X1736500Y600640D01*
X500Y599640D02*
X7500Y599640D01*
X1729500Y599640D02*
X1736500Y599640D01*
X500Y598640D02*
X7500Y598640D01*
X1729500Y598640D02*
X1736500Y598640D01*
X500Y597640D02*
X7500Y597640D01*
X1729500Y597640D02*
X1736500Y597640D01*
X500Y596640D02*
X7500Y596640D01*
X1729500Y596640D02*
X1736500Y596640D01*
X500Y595640D02*
X7500Y595640D01*
X1729500Y595640D02*
X1736500Y595640D01*
X500Y594640D02*
X7500Y594640D01*
X1729500Y594640D02*
X1736500Y594640D01*
X500Y593640D02*
X7500Y593640D01*
X1729500Y593640D02*
X1736500Y593640D01*
X500Y592640D02*
X7500Y592640D01*
X1729500Y592640D02*
X1736500Y592640D01*
X500Y591640D02*
X7500Y591640D01*
X1729500Y591640D02*
X1736500Y591640D01*
X500Y590640D02*
X7500Y590640D01*
X1729500Y590640D02*
X1736500Y590640D01*
X500Y589640D02*
X7500Y589640D01*
X1729500Y589640D02*
X1736500Y589640D01*
X500Y588640D02*
X7500Y588640D01*
X1729500Y588640D02*
X1736500Y588640D01*
X500Y587640D02*
X7500Y587640D01*
X1729500Y587640D02*
X1736500Y587640D01*
X500Y586640D02*
X7500Y586640D01*
X1729500Y586640D02*
X1736500Y586640D01*
X500Y585640D02*
X7500Y585640D01*
X1729500Y585640D02*
X1736500Y585640D01*
X500Y584640D02*
X7500Y584640D01*
X1729500Y584640D02*
X1736500Y584640D01*
X500Y583640D02*
X7500Y583640D01*
X1729500Y583640D02*
X1736500Y583640D01*
X500Y582640D02*
X7500Y582640D01*
X1729500Y582640D02*
X1736500Y582640D01*
X500Y581640D02*
X7500Y581640D01*
X1729500Y581640D02*
X1736500Y581640D01*
X500Y580640D02*
X7500Y580640D01*
X1729500Y580640D02*
X1736500Y580640D01*
X500Y579640D02*
X7500Y579640D01*
X1729500Y579640D02*
X1736500Y579640D01*
X500Y578640D02*
X7500Y578640D01*
X1729500Y578640D02*
X1736500Y578640D01*
X500Y577640D02*
X7500Y577640D01*
X1729500Y577640D02*
X1736500Y577640D01*
X500Y576640D02*
X7500Y576640D01*
X1729500Y576640D02*
X1736500Y576640D01*
X500Y575640D02*
X7500Y575640D01*
X1729500Y575640D02*
X1736500Y575640D01*
X500Y574640D02*
X7500Y574640D01*
X1729500Y574640D02*
X1736500Y574640D01*
X500Y573640D02*
X7500Y573640D01*
X1729500Y573640D02*
X1736500Y573640D01*
X500Y572640D02*
X7500Y572640D01*
X1729500Y572640D02*
X1736500Y572640D01*
X500Y571640D02*
X7500Y571640D01*
X1729500Y571640D02*
X1736500Y571640D01*
X500Y570640D02*
X7500Y570640D01*
X1729500Y570640D02*
X1736500Y570640D01*
X500Y569640D02*
X7500Y569640D01*
X1729500Y569640D02*
X1736500Y569640D01*
X500Y568640D02*
X7500Y568640D01*
X1729500Y568640D02*
X1736500Y568640D01*
X500Y567640D02*
X7500Y567640D01*
X1729500Y567640D02*
X1736500Y567640D01*
X500Y566640D02*
X7500Y566640D01*
X1729500Y566640D02*
X1736500Y566640D01*
X500Y565640D02*
X7500Y565640D01*
X1729500Y565640D02*
X1736500Y565640D01*
X500Y564640D02*
X7500Y564640D01*
X1729500Y564640D02*
X1736500Y564640D01*
X500Y563640D02*
X7500Y563640D01*
X1729500Y563640D02*
X1736500Y563640D01*
X500Y562640D02*
X7500Y562640D01*
X1729500Y562640D02*
X1736500Y562640D01*
X500Y561640D02*
X7500Y561640D01*
X1729500Y561640D02*
X1736500Y561640D01*
X500Y560640D02*
X7500Y560640D01*
X1729500Y560640D02*
X1736500Y560640D01*
X500Y559640D02*
X7500Y559640D01*
X1729500Y559640D02*
X1736500Y559640D01*
X500Y558640D02*
X7500Y558640D01*
X1729500Y558640D02*
X1736500Y558640D01*
X500Y557640D02*
X7500Y557640D01*
X1729500Y557640D02*
X1736500Y557640D01*
X500Y556640D02*
X7500Y556640D01*
X1729500Y556640D02*
X1736500Y556640D01*
X500Y555640D02*
X7500Y555640D01*
X1729500Y555640D02*
X1736500Y555640D01*
X500Y554640D02*
X7500Y554640D01*
X1729500Y554640D02*
X1736500Y554640D01*
X500Y553640D02*
X7500Y553640D01*
X1729500Y553640D02*
X1736500Y553640D01*
X500Y552640D02*
X7500Y552640D01*
X1729500Y552640D02*
X1736500Y552640D01*
X500Y551640D02*
X7500Y551640D01*
X1729500Y551640D02*
X1736500Y551640D01*
X500Y550640D02*
X7500Y550640D01*
X1729500Y550640D02*
X1736500Y550640D01*
X500Y549640D02*
X7500Y549640D01*
X1729500Y549640D02*
X1736500Y549640D01*
X500Y548640D02*
X7500Y548640D01*
X1729500Y548640D02*
X1736500Y548640D01*
X500Y547640D02*
X7500Y547640D01*
X1729500Y547640D02*
X1736500Y547640D01*
X500Y546640D02*
X7500Y546640D01*
X1729500Y546640D02*
X1736500Y546640D01*
X500Y545640D02*
X7500Y545640D01*
X1729500Y545640D02*
X1736500Y545640D01*
X500Y544640D02*
X7500Y544640D01*
X1729500Y544640D02*
X1736500Y544640D01*
X500Y543640D02*
X7500Y543640D01*
X1729500Y543640D02*
X1736500Y543640D01*
X500Y542640D02*
X7500Y542640D01*
X1729500Y542640D02*
X1736500Y542640D01*
X500Y541640D02*
X7500Y541640D01*
X1729500Y541640D02*
X1736500Y541640D01*
X500Y540640D02*
X7500Y540640D01*
X1729500Y540640D02*
X1736500Y540640D01*
X500Y539640D02*
X7500Y539640D01*
X1729500Y539640D02*
X1736500Y539640D01*
X500Y538640D02*
X7500Y538640D01*
X1729500Y538640D02*
X1736500Y538640D01*
X500Y537640D02*
X7500Y537640D01*
X1729500Y537640D02*
X1736500Y537640D01*
X500Y536640D02*
X7500Y536640D01*
X1729500Y536640D02*
X1736500Y536640D01*
X500Y535640D02*
X7500Y535640D01*
X1729500Y535640D02*
X1736500Y535640D01*
X500Y534640D02*
X7500Y534640D01*
X1729500Y534640D02*
X1736500Y534640D01*
X500Y533640D02*
X7500Y533640D01*
X1729500Y533640D02*
X1736500Y533640D01*
X500Y532640D02*
X7500Y532640D01*
X1729500Y532640D02*
X1736500Y532640D01*
X500Y531640D02*
X7500Y531640D01*
X1729500Y531640D02*
X1736500Y531640D01*
X500Y530640D02*
X7500Y530640D01*
X1729500Y530640D02*
X1736500Y530640D01*
X500Y529640D02*
X7500Y529640D01*
X1729500Y529640D02*
X1736500Y529640D01*
X500Y528640D02*
X7500Y528640D01*
X1729500Y528640D02*
X1736500Y528640D01*
X500Y527640D02*
X7500Y527640D01*
X1729500Y527640D02*
X1736500Y527640D01*
X500Y526640D02*
X7500Y526640D01*
X1729500Y526640D02*
X1736500Y526640D01*
X500Y525640D02*
X7500Y525640D01*
X1729500Y525640D02*
X1736500Y525640D01*
X500Y524640D02*
X7500Y524640D01*
X1729500Y524640D02*
X1736500Y524640D01*
X500Y523640D02*
X7500Y523640D01*
X1729500Y523640D02*
X1736500Y523640D01*
X500Y522640D02*
X7500Y522640D01*
X1729500Y522640D02*
X1736500Y522640D01*
X500Y521640D02*
X7500Y521640D01*
X1729500Y521640D02*
X1736500Y521640D01*
X500Y520640D02*
X7500Y520640D01*
X1729500Y520640D02*
X1736500Y520640D01*
X500Y519640D02*
X7500Y519640D01*
X1729500Y519640D02*
X1736500Y519640D01*
X500Y518640D02*
X7500Y518640D01*
X1729500Y518640D02*
X1736500Y518640D01*
X500Y517640D02*
X7500Y517640D01*
X1729500Y517640D02*
X1736500Y517640D01*
X500Y516640D02*
X7500Y516640D01*
X1729500Y516640D02*
X1736500Y516640D01*
X500Y515640D02*
X7500Y515640D01*
X1729500Y515640D02*
X1736500Y515640D01*
X500Y514640D02*
X7500Y514640D01*
X1729500Y514640D02*
X1736500Y514640D01*
X500Y513640D02*
X7500Y513640D01*
X1729500Y513640D02*
X1736500Y513640D01*
X500Y512640D02*
X7500Y512640D01*
X1729500Y512640D02*
X1736500Y512640D01*
X500Y511640D02*
X7500Y511640D01*
X1729500Y511640D02*
X1736500Y511640D01*
X500Y510640D02*
X7500Y510640D01*
X1729500Y510640D02*
X1736500Y510640D01*
X500Y509640D02*
X7500Y509640D01*
X1729500Y509640D02*
X1736500Y509640D01*
X500Y508640D02*
X7500Y508640D01*
X1729500Y508640D02*
X1736500Y508640D01*
X500Y507640D02*
X7500Y507640D01*
X1729500Y507640D02*
X1736500Y507640D01*
X500Y506640D02*
X7500Y506640D01*
X1729500Y506640D02*
X1736500Y506640D01*
X500Y505640D02*
X7500Y505640D01*
X1729500Y505640D02*
X1736500Y505640D01*
X500Y504640D02*
X7500Y504640D01*
X1729500Y504640D02*
X1736500Y504640D01*
X500Y503640D02*
X7500Y503640D01*
X1729500Y503640D02*
X1736500Y503640D01*
X500Y502640D02*
X7500Y502640D01*
X1729500Y502640D02*
X1736500Y502640D01*
X500Y501640D02*
X7500Y501640D01*
X1729500Y501640D02*
X1736500Y501640D01*
X500Y500640D02*
X7500Y500640D01*
X1729500Y500640D02*
X1736500Y500640D01*
X500Y499640D02*
X7500Y499640D01*
X1729500Y499640D02*
X1736500Y499640D01*
X500Y498640D02*
X7500Y498640D01*
X1729500Y498640D02*
X1736500Y498640D01*
X500Y497640D02*
X7500Y497640D01*
X1729500Y497640D02*
X1736500Y497640D01*
X500Y496640D02*
X7500Y496640D01*
X1729500Y496640D02*
X1736500Y496640D01*
X500Y495640D02*
X7500Y495640D01*
X1729500Y495640D02*
X1736500Y495640D01*
X500Y494640D02*
X7500Y494640D01*
X1729500Y494640D02*
X1736500Y494640D01*
X500Y493640D02*
X7500Y493640D01*
X1729500Y493640D02*
X1736500Y493640D01*
X500Y492640D02*
X7500Y492640D01*
X1729500Y492640D02*
X1736500Y492640D01*
X500Y491640D02*
X7500Y491640D01*
X1729500Y491640D02*
X1736500Y491640D01*
X500Y490640D02*
X7500Y490640D01*
X1729500Y490640D02*
X1736500Y490640D01*
X500Y489640D02*
X7500Y489640D01*
X1729500Y489640D02*
X1736500Y489640D01*
X500Y488640D02*
X7500Y488640D01*
X1729500Y488640D02*
X1736500Y488640D01*
X500Y487640D02*
X7500Y487640D01*
X1729500Y487640D02*
X1736500Y487640D01*
X500Y486640D02*
X7500Y486640D01*
X1729500Y486640D02*
X1736500Y486640D01*
X500Y485640D02*
X7500Y485640D01*
X1729500Y485640D02*
X1736500Y485640D01*
X500Y484640D02*
X7500Y484640D01*
X1729500Y484640D02*
X1736500Y484640D01*
X500Y483640D02*
X7500Y483640D01*
X1729500Y483640D02*
X1736500Y483640D01*
X500Y482640D02*
X7500Y482640D01*
X1729500Y482640D02*
X1736500Y482640D01*
X500Y481640D02*
X7500Y481640D01*
X1729500Y481640D02*
X1736500Y481640D01*
X500Y480640D02*
X7500Y480640D01*
X1729500Y480640D02*
X1736500Y480640D01*
X500Y479640D02*
X7500Y479640D01*
X1729500Y479640D02*
X1736500Y479640D01*
X500Y478640D02*
X7500Y478640D01*
X1729500Y478640D02*
X1736500Y478640D01*
X500Y477640D02*
X7500Y477640D01*
X1729500Y477640D02*
X1736500Y477640D01*
X500Y476640D02*
X7500Y476640D01*
X1729500Y476640D02*
X1736500Y476640D01*
X500Y475640D02*
X7500Y475640D01*
X1729500Y475640D02*
X1736500Y475640D01*
X500Y474640D02*
X7500Y474640D01*
X1729500Y474640D02*
X1736500Y474640D01*
X500Y473640D02*
X7500Y473640D01*
X1729500Y473640D02*
X1736500Y473640D01*
X500Y472640D02*
X7500Y472640D01*
X1729500Y472640D02*
X1736500Y472640D01*
X500Y471640D02*
X7500Y471640D01*
X1729500Y471640D02*
X1736500Y471640D01*
X500Y470640D02*
X7500Y470640D01*
X1729500Y470640D02*
X1736500Y470640D01*
X500Y469640D02*
X7500Y469640D01*
X1729500Y469640D02*
X1736500Y469640D01*
X500Y468640D02*
X7500Y468640D01*
X1729500Y468640D02*
X1736500Y468640D01*
X500Y467640D02*
X7500Y467640D01*
X1729500Y467640D02*
X1736500Y467640D01*
X500Y466640D02*
X7500Y466640D01*
X1729500Y466640D02*
X1736500Y466640D01*
X500Y465640D02*
X7500Y465640D01*
X1729500Y465640D02*
X1736500Y465640D01*
X500Y464640D02*
X7500Y464640D01*
X1729500Y464640D02*
X1736500Y464640D01*
X500Y463640D02*
X7500Y463640D01*
X1729500Y463640D02*
X1736500Y463640D01*
X500Y462640D02*
X7500Y462640D01*
X1729500Y462640D02*
X1736500Y462640D01*
X500Y461640D02*
X7500Y461640D01*
X1729500Y461640D02*
X1736500Y461640D01*
X500Y460640D02*
X7500Y460640D01*
X1729500Y460640D02*
X1736500Y460640D01*
X500Y459640D02*
X7500Y459640D01*
X1729500Y459640D02*
X1736500Y459640D01*
X500Y458640D02*
X7500Y458640D01*
X1729500Y458640D02*
X1736500Y458640D01*
X500Y457640D02*
X7500Y457640D01*
X1729500Y457640D02*
X1736500Y457640D01*
X500Y456640D02*
X7500Y456640D01*
X1729500Y456640D02*
X1736500Y456640D01*
X500Y455640D02*
X7500Y455640D01*
X1729500Y455640D02*
X1736500Y455640D01*
X500Y454640D02*
X7500Y454640D01*
X1729500Y454640D02*
X1736500Y454640D01*
X500Y453640D02*
X7500Y453640D01*
X1729500Y453640D02*
X1736500Y453640D01*
X500Y452640D02*
X7500Y452640D01*
X1729500Y452640D02*
X1736500Y452640D01*
X500Y451640D02*
X7500Y451640D01*
X1729500Y451640D02*
X1736500Y451640D01*
X500Y450640D02*
X7500Y450640D01*
X1729500Y450640D02*
X1736500Y450640D01*
X500Y449640D02*
X7500Y449640D01*
X1729500Y449640D02*
X1736500Y449640D01*
X500Y448640D02*
X7500Y448640D01*
X1729500Y448640D02*
X1736500Y448640D01*
X500Y447640D02*
X7500Y447640D01*
X1729500Y447640D02*
X1736500Y447640D01*
X500Y446640D02*
X7500Y446640D01*
X1729500Y446640D02*
X1736500Y446640D01*
X500Y445640D02*
X7500Y445640D01*
X1729500Y445640D02*
X1736500Y445640D01*
X500Y444640D02*
X7500Y444640D01*
X1729500Y444640D02*
X1736500Y444640D01*
X500Y443640D02*
X7500Y443640D01*
X1729500Y443640D02*
X1736500Y443640D01*
X500Y442640D02*
X7500Y442640D01*
X1729500Y442640D02*
X1736500Y442640D01*
X500Y441640D02*
X7500Y441640D01*
X1729500Y441640D02*
X1736500Y441640D01*
X500Y440640D02*
X7500Y440640D01*
X1729500Y440640D02*
X1736500Y440640D01*
X500Y439640D02*
X7500Y439640D01*
X1729500Y439640D02*
X1736500Y439640D01*
X500Y438640D02*
X7500Y438640D01*
X1729500Y438640D02*
X1736500Y438640D01*
X500Y437640D02*
X7500Y437640D01*
X1729500Y437640D02*
X1736500Y437640D01*
X500Y436640D02*
X7500Y436640D01*
X1729500Y436640D02*
X1736500Y436640D01*
X500Y435640D02*
X7500Y435640D01*
X1729500Y435640D02*
X1736500Y435640D01*
X500Y434640D02*
X7500Y434640D01*
X1729500Y434640D02*
X1736500Y434640D01*
X500Y433640D02*
X7500Y433640D01*
X1729500Y433640D02*
X1736500Y433640D01*
X500Y432640D02*
X7500Y432640D01*
X1729500Y432640D02*
X1736500Y432640D01*
X500Y431640D02*
X7500Y431640D01*
X1729500Y431640D02*
X1736500Y431640D01*
X500Y430640D02*
X7500Y430640D01*
X1729500Y430640D02*
X1736500Y430640D01*
X500Y429640D02*
X7500Y429640D01*
X1729500Y429640D02*
X1736500Y429640D01*
X500Y428640D02*
X7500Y428640D01*
X1729500Y428640D02*
X1736500Y428640D01*
X500Y427640D02*
X7500Y427640D01*
X1729500Y427640D02*
X1736500Y427640D01*
X500Y426640D02*
X7500Y426640D01*
X1729500Y426640D02*
X1736500Y426640D01*
X500Y425640D02*
X7500Y425640D01*
X1729500Y425640D02*
X1736500Y425640D01*
X500Y424640D02*
X7500Y424640D01*
X1729500Y424640D02*
X1736500Y424640D01*
X500Y423640D02*
X7500Y423640D01*
X1729500Y423640D02*
X1736500Y423640D01*
X500Y422640D02*
X7500Y422640D01*
X1729500Y422640D02*
X1736500Y422640D01*
X500Y421640D02*
X7500Y421640D01*
X1729500Y421640D02*
X1736500Y421640D01*
X500Y420640D02*
X7500Y420640D01*
X1729500Y420640D02*
X1736500Y420640D01*
X500Y419640D02*
X7500Y419640D01*
X1729500Y419640D02*
X1736500Y419640D01*
X500Y418640D02*
X7500Y418640D01*
X1729500Y418640D02*
X1736500Y418640D01*
X500Y417640D02*
X7500Y417640D01*
X1729500Y417640D02*
X1736500Y417640D01*
X500Y416640D02*
X7500Y416640D01*
X1729500Y416640D02*
X1736500Y416640D01*
X500Y415640D02*
X7500Y415640D01*
X1729500Y415640D02*
X1736500Y415640D01*
X500Y414640D02*
X7500Y414640D01*
X1729500Y414640D02*
X1736500Y414640D01*
X500Y413640D02*
X7500Y413640D01*
X1729500Y413640D02*
X1736500Y413640D01*
X500Y412640D02*
X7500Y412640D01*
X1729500Y412640D02*
X1736500Y412640D01*
X500Y411640D02*
X7500Y411640D01*
X1729500Y411640D02*
X1736500Y411640D01*
X500Y410640D02*
X7500Y410640D01*
X1729500Y410640D02*
X1736500Y410640D01*
X500Y409640D02*
X7500Y409640D01*
X1729500Y409640D02*
X1736500Y409640D01*
X500Y408640D02*
X7500Y408640D01*
X1729500Y408640D02*
X1736500Y408640D01*
X500Y407640D02*
X7500Y407640D01*
X1729500Y407640D02*
X1736500Y407640D01*
X500Y406640D02*
X7500Y406640D01*
X1729500Y406640D02*
X1736500Y406640D01*
X500Y405640D02*
X7500Y405640D01*
X1729500Y405640D02*
X1736500Y405640D01*
X500Y404640D02*
X7500Y404640D01*
X1729500Y404640D02*
X1736500Y404640D01*
X500Y403640D02*
X7500Y403640D01*
X1729500Y403640D02*
X1736500Y403640D01*
X500Y402640D02*
X7500Y402640D01*
X1729500Y402640D02*
X1736500Y402640D01*
X500Y401640D02*
X7500Y401640D01*
X1729500Y401640D02*
X1736500Y401640D01*
X500Y400640D02*
X7500Y400640D01*
X1729500Y400640D02*
X1736500Y400640D01*
X500Y399640D02*
X7500Y399640D01*
X1729500Y399640D02*
X1736500Y399640D01*
X500Y398640D02*
X7500Y398640D01*
X1729500Y398640D02*
X1736500Y398640D01*
X500Y397640D02*
X7500Y397640D01*
X1729500Y397640D02*
X1736500Y397640D01*
X500Y396640D02*
X7500Y396640D01*
X1729500Y396640D02*
X1736500Y396640D01*
X500Y395640D02*
X7500Y395640D01*
X1729500Y395640D02*
X1736500Y395640D01*
X500Y394640D02*
X7500Y394640D01*
X1729500Y394640D02*
X1736500Y394640D01*
X500Y393640D02*
X7500Y393640D01*
X1729500Y393640D02*
X1736500Y393640D01*
X500Y392640D02*
X7500Y392640D01*
X1729500Y392640D02*
X1736500Y392640D01*
X500Y391640D02*
X7500Y391640D01*
X1729500Y391640D02*
X1736500Y391640D01*
X500Y390640D02*
X7500Y390640D01*
X1729500Y390640D02*
X1736500Y390640D01*
X500Y389640D02*
X7500Y389640D01*
X1729500Y389640D02*
X1736500Y389640D01*
X500Y388640D02*
X7500Y388640D01*
X1729500Y388640D02*
X1736500Y388640D01*
X500Y387640D02*
X7500Y387640D01*
X1729500Y387640D02*
X1736500Y387640D01*
X500Y386640D02*
X7500Y386640D01*
X1729500Y386640D02*
X1736500Y386640D01*
X500Y385640D02*
X7500Y385640D01*
X1729500Y385640D02*
X1736500Y385640D01*
X500Y384640D02*
X7500Y384640D01*
X1729500Y384640D02*
X1736500Y384640D01*
X500Y383640D02*
X7500Y383640D01*
X1729500Y383640D02*
X1736500Y383640D01*
X500Y382640D02*
X7500Y382640D01*
X1729500Y382640D02*
X1736500Y382640D01*
X500Y381640D02*
X7500Y381640D01*
X1729500Y381640D02*
X1736500Y381640D01*
X500Y380640D02*
X7500Y380640D01*
X1729500Y380640D02*
X1736500Y380640D01*
X500Y379640D02*
X7500Y379640D01*
X1729500Y379640D02*
X1736500Y379640D01*
X500Y378640D02*
X7500Y378640D01*
X1729500Y378640D02*
X1736500Y378640D01*
X500Y377640D02*
X7500Y377640D01*
X1729500Y377640D02*
X1736500Y377640D01*
X500Y376640D02*
X7500Y376640D01*
X1729500Y376640D02*
X1736500Y376640D01*
X500Y375640D02*
X7500Y375640D01*
X1729500Y375640D02*
X1736500Y375640D01*
X500Y374640D02*
X7500Y374640D01*
X1729500Y374640D02*
X1736500Y374640D01*
X500Y373640D02*
X7500Y373640D01*
X1729500Y373640D02*
X1736500Y373640D01*
X500Y372640D02*
X7500Y372640D01*
X1729500Y372640D02*
X1736500Y372640D01*
X500Y371640D02*
X7500Y371640D01*
X1729500Y371640D02*
X1736500Y371640D01*
X500Y370640D02*
X7500Y370640D01*
X1729500Y370640D02*
X1736500Y370640D01*
X500Y369640D02*
X7500Y369640D01*
X1729500Y369640D02*
X1736500Y369640D01*
X500Y368640D02*
X7500Y368640D01*
X1729500Y368640D02*
X1736500Y368640D01*
X500Y367640D02*
X7500Y367640D01*
X1729500Y367640D02*
X1736500Y367640D01*
X500Y366640D02*
X7500Y366640D01*
X1729500Y366640D02*
X1736500Y366640D01*
X500Y365640D02*
X7500Y365640D01*
X1729500Y365640D02*
X1736500Y365640D01*
X500Y364640D02*
X7500Y364640D01*
X1729500Y364640D02*
X1736500Y364640D01*
X500Y363640D02*
X7500Y363640D01*
X1729500Y363640D02*
X1736500Y363640D01*
X500Y362640D02*
X7500Y362640D01*
X1729500Y362640D02*
X1736500Y362640D01*
X500Y361640D02*
X7500Y361640D01*
X1729500Y361640D02*
X1736500Y361640D01*
X500Y360640D02*
X7500Y360640D01*
X1729500Y360640D02*
X1736500Y360640D01*
X500Y359640D02*
X7500Y359640D01*
X1729500Y359640D02*
X1736500Y359640D01*
X500Y358640D02*
X7500Y358640D01*
X1729500Y358640D02*
X1736500Y358640D01*
X500Y357640D02*
X7500Y357640D01*
X1729500Y357640D02*
X1736500Y357640D01*
X500Y356640D02*
X7500Y356640D01*
X1729500Y356640D02*
X1736500Y356640D01*
X500Y355640D02*
X7500Y355640D01*
X1729500Y355640D02*
X1736500Y355640D01*
X500Y354640D02*
X7500Y354640D01*
X1729500Y354640D02*
X1736500Y354640D01*
X500Y353640D02*
X7500Y353640D01*
X1729500Y353640D02*
X1736500Y353640D01*
X500Y352640D02*
X7500Y352640D01*
X1729500Y352640D02*
X1736500Y352640D01*
X500Y351640D02*
X7500Y351640D01*
X1729500Y351640D02*
X1736500Y351640D01*
X500Y350640D02*
X7500Y350640D01*
X1729500Y350640D02*
X1736500Y350640D01*
X500Y349640D02*
X7500Y349640D01*
X1729500Y349640D02*
X1736500Y349640D01*
X500Y348640D02*
X7500Y348640D01*
X1729500Y348640D02*
X1736500Y348640D01*
X500Y347640D02*
X7500Y347640D01*
X1729500Y347640D02*
X1736500Y347640D01*
X500Y346640D02*
X7500Y346640D01*
X1729500Y346640D02*
X1736500Y346640D01*
X500Y345640D02*
X7500Y345640D01*
X1729500Y345640D02*
X1736500Y345640D01*
X500Y344640D02*
X7500Y344640D01*
X1729500Y344640D02*
X1736500Y344640D01*
X500Y343640D02*
X7500Y343640D01*
X1729500Y343640D02*
X1736500Y343640D01*
X500Y342640D02*
X7500Y342640D01*
X1729500Y342640D02*
X1736500Y342640D01*
X500Y341640D02*
X7500Y341640D01*
X1729500Y341640D02*
X1736500Y341640D01*
X500Y340640D02*
X7500Y340640D01*
X1729500Y340640D02*
X1736500Y340640D01*
X500Y339640D02*
X7500Y339640D01*
X1729500Y339640D02*
X1736500Y339640D01*
X500Y338640D02*
X7500Y338640D01*
X1729500Y338640D02*
X1736500Y338640D01*
X500Y337640D02*
X7500Y337640D01*
X1729500Y337640D02*
X1736500Y337640D01*
X500Y336640D02*
X7500Y336640D01*
X1729500Y336640D02*
X1736500Y336640D01*
X500Y335640D02*
X7500Y335640D01*
X1729500Y335640D02*
X1736500Y335640D01*
X500Y334640D02*
X7500Y334640D01*
X1729500Y334640D02*
X1736500Y334640D01*
X500Y333640D02*
X7500Y333640D01*
X1729500Y333640D02*
X1736500Y333640D01*
X500Y332640D02*
X7500Y332640D01*
X1729500Y332640D02*
X1736500Y332640D01*
X500Y331640D02*
X7500Y331640D01*
X1729500Y331640D02*
X1736500Y331640D01*
X500Y330640D02*
X7500Y330640D01*
X1729500Y330640D02*
X1736500Y330640D01*
X500Y329640D02*
X7500Y329640D01*
X1729500Y329640D02*
X1736500Y329640D01*
X500Y328640D02*
X7500Y328640D01*
X1729500Y328640D02*
X1736500Y328640D01*
X500Y327640D02*
X7500Y327640D01*
X1729500Y327640D02*
X1736500Y327640D01*
X500Y326640D02*
X7500Y326640D01*
X1729500Y326640D02*
X1736500Y326640D01*
X500Y325640D02*
X7500Y325640D01*
X1729500Y325640D02*
X1736500Y325640D01*
X500Y324640D02*
X7500Y324640D01*
X1729500Y324640D02*
X1736500Y324640D01*
X500Y323640D02*
X7500Y323640D01*
X1729500Y323640D02*
X1736500Y323640D01*
X500Y322640D02*
X7500Y322640D01*
X1729500Y322640D02*
X1736500Y322640D01*
X500Y321640D02*
X7500Y321640D01*
X1729500Y321640D02*
X1736500Y321640D01*
X500Y320640D02*
X7500Y320640D01*
X1729500Y320640D02*
X1736500Y320640D01*
X500Y319640D02*
X7500Y319640D01*
X1729500Y319640D02*
X1736500Y319640D01*
X500Y318640D02*
X7500Y318640D01*
X1729500Y318640D02*
X1736500Y318640D01*
X500Y317640D02*
X7500Y317640D01*
X1729500Y317640D02*
X1736500Y317640D01*
X500Y316640D02*
X7500Y316640D01*
X1729500Y316640D02*
X1736500Y316640D01*
X500Y315640D02*
X7500Y315640D01*
X1729500Y315640D02*
X1736500Y315640D01*
X500Y314640D02*
X7500Y314640D01*
X1729500Y314640D02*
X1736500Y314640D01*
X500Y313640D02*
X7500Y313640D01*
X1729500Y313640D02*
X1736500Y313640D01*
X500Y312640D02*
X7500Y312640D01*
X1729500Y312640D02*
X1736500Y312640D01*
X500Y311640D02*
X7500Y311640D01*
X1729500Y311640D02*
X1736500Y311640D01*
X500Y310640D02*
X7500Y310640D01*
X1729500Y310640D02*
X1736500Y310640D01*
X500Y309640D02*
X7500Y309640D01*
X1729500Y309640D02*
X1736500Y309640D01*
X500Y308640D02*
X7500Y308640D01*
X1729500Y308640D02*
X1736500Y308640D01*
X500Y307640D02*
X7500Y307640D01*
X1729500Y307640D02*
X1736500Y307640D01*
X500Y306640D02*
X7500Y306640D01*
X1729500Y306640D02*
X1736500Y306640D01*
X500Y305640D02*
X7500Y305640D01*
X1729500Y305640D02*
X1736500Y305640D01*
X500Y304640D02*
X7500Y304640D01*
X1729500Y304640D02*
X1736500Y304640D01*
X500Y303640D02*
X7500Y303640D01*
X1729500Y303640D02*
X1736500Y303640D01*
X500Y302640D02*
X7500Y302640D01*
X1729500Y302640D02*
X1736500Y302640D01*
X500Y301640D02*
X7500Y301640D01*
X1729500Y301640D02*
X1736500Y301640D01*
X500Y300640D02*
X7500Y300640D01*
X1729500Y300640D02*
X1736500Y300640D01*
X500Y299640D02*
X7500Y299640D01*
X1729500Y299640D02*
X1736500Y299640D01*
X500Y298640D02*
X7500Y298640D01*
X1729500Y298640D02*
X1736500Y298640D01*
X500Y297640D02*
X7500Y297640D01*
X1729500Y297640D02*
X1736500Y297640D01*
X500Y296640D02*
X7500Y296640D01*
X1729500Y296640D02*
X1736500Y296640D01*
X500Y295640D02*
X7500Y295640D01*
X1729500Y295640D02*
X1736500Y295640D01*
X500Y294640D02*
X7500Y294640D01*
X1729500Y294640D02*
X1736500Y294640D01*
X500Y293640D02*
X7500Y293640D01*
X1729500Y293640D02*
X1736500Y293640D01*
X500Y292640D02*
X7500Y292640D01*
X1729500Y292640D02*
X1736500Y292640D01*
X500Y291640D02*
X7500Y291640D01*
X1729500Y291640D02*
X1736500Y291640D01*
X500Y290640D02*
X7500Y290640D01*
X1729500Y290640D02*
X1736500Y290640D01*
X500Y289640D02*
X7500Y289640D01*
X1729500Y289640D02*
X1736500Y289640D01*
X500Y288640D02*
X7500Y288640D01*
X1729500Y288640D02*
X1736500Y288640D01*
X500Y287640D02*
X7500Y287640D01*
X1729500Y287640D02*
X1736500Y287640D01*
X500Y286640D02*
X7500Y286640D01*
X1729500Y286640D02*
X1736500Y286640D01*
X500Y285640D02*
X7500Y285640D01*
X1729500Y285640D02*
X1736500Y285640D01*
X500Y284640D02*
X7500Y284640D01*
X1729500Y284640D02*
X1736500Y284640D01*
X500Y283640D02*
X7500Y283640D01*
X1729500Y283640D02*
X1736500Y283640D01*
X500Y282640D02*
X7500Y282640D01*
X1729500Y282640D02*
X1736500Y282640D01*
X500Y281640D02*
X7500Y281640D01*
X1729500Y281640D02*
X1736500Y281640D01*
X500Y280640D02*
X7500Y280640D01*
X1729500Y280640D02*
X1736500Y280640D01*
X500Y279640D02*
X7500Y279640D01*
X1729500Y279640D02*
X1736500Y279640D01*
X500Y278640D02*
X7500Y278640D01*
X1729500Y278640D02*
X1736500Y278640D01*
X500Y277640D02*
X7500Y277640D01*
X1729500Y277640D02*
X1736500Y277640D01*
X500Y276640D02*
X7500Y276640D01*
X1729500Y276640D02*
X1736500Y276640D01*
X500Y275640D02*
X7500Y275640D01*
X1729500Y275640D02*
X1736500Y275640D01*
X500Y274640D02*
X7500Y274640D01*
X1729500Y274640D02*
X1736500Y274640D01*
X500Y273640D02*
X7500Y273640D01*
X1729500Y273640D02*
X1736500Y273640D01*
X500Y272640D02*
X7500Y272640D01*
X1729500Y272640D02*
X1736500Y272640D01*
X500Y271640D02*
X7500Y271640D01*
X1729500Y271640D02*
X1736500Y271640D01*
X500Y270640D02*
X7500Y270640D01*
X1729500Y270640D02*
X1736500Y270640D01*
X500Y269640D02*
X7500Y269640D01*
X1729500Y269640D02*
X1736500Y269640D01*
X500Y268640D02*
X7500Y268640D01*
X1729500Y268640D02*
X1736500Y268640D01*
X500Y267640D02*
X7500Y267640D01*
X1729500Y267640D02*
X1736500Y267640D01*
X500Y266640D02*
X7500Y266640D01*
X1729500Y266640D02*
X1736500Y266640D01*
X500Y265640D02*
X7500Y265640D01*
X1729500Y265640D02*
X1736500Y265640D01*
X500Y264640D02*
X7500Y264640D01*
X1729500Y264640D02*
X1736500Y264640D01*
X500Y263640D02*
X7500Y263640D01*
X1729500Y263640D02*
X1736500Y263640D01*
X500Y262640D02*
X7500Y262640D01*
X1729500Y262640D02*
X1736500Y262640D01*
X500Y261640D02*
X7500Y261640D01*
X1729500Y261640D02*
X1736500Y261640D01*
X500Y260640D02*
X7500Y260640D01*
X1729500Y260640D02*
X1736500Y260640D01*
X500Y259640D02*
X7500Y259640D01*
X1729500Y259640D02*
X1736500Y259640D01*
X500Y258640D02*
X7500Y258640D01*
X1729500Y258640D02*
X1736500Y258640D01*
X500Y257640D02*
X7500Y257640D01*
X1729500Y257640D02*
X1736500Y257640D01*
X500Y256640D02*
X7500Y256640D01*
X1729500Y256640D02*
X1736500Y256640D01*
X500Y255640D02*
X7500Y255640D01*
X1729500Y255640D02*
X1736500Y255640D01*
X500Y254640D02*
X7500Y254640D01*
X1729500Y254640D02*
X1736500Y254640D01*
X500Y253640D02*
X7500Y253640D01*
X1729500Y253640D02*
X1736500Y253640D01*
X500Y252640D02*
X7500Y252640D01*
X1729500Y252640D02*
X1736500Y252640D01*
X500Y251640D02*
X7500Y251640D01*
X1729500Y251640D02*
X1736500Y251640D01*
X500Y250640D02*
X7500Y250640D01*
X1729500Y250640D02*
X1736500Y250640D01*
X500Y249640D02*
X7500Y249640D01*
X1729500Y249640D02*
X1736500Y249640D01*
X500Y248640D02*
X7500Y248640D01*
X1729500Y248640D02*
X1736500Y248640D01*
X500Y247640D02*
X7500Y247640D01*
X1729500Y247640D02*
X1736500Y247640D01*
X500Y246640D02*
X7500Y246640D01*
X1729500Y246640D02*
X1736500Y246640D01*
X500Y245640D02*
X7500Y245640D01*
X1729500Y245640D02*
X1736500Y245640D01*
X500Y244640D02*
X7500Y244640D01*
X1729500Y244640D02*
X1736500Y244640D01*
X500Y243640D02*
X7500Y243640D01*
X1729500Y243640D02*
X1736500Y243640D01*
X500Y242640D02*
X7500Y242640D01*
X1729500Y242640D02*
X1736500Y242640D01*
X500Y241640D02*
X7500Y241640D01*
X1729500Y241640D02*
X1736500Y241640D01*
X500Y240640D02*
X7500Y240640D01*
X1729500Y240640D02*
X1736500Y240640D01*
X500Y239640D02*
X7500Y239640D01*
X1729500Y239640D02*
X1736500Y239640D01*
X500Y238640D02*
X7500Y238640D01*
X1729500Y238640D02*
X1736500Y238640D01*
X500Y237640D02*
X7500Y237640D01*
X1729500Y237640D02*
X1736500Y237640D01*
X500Y236640D02*
X7500Y236640D01*
X1729500Y236640D02*
X1736500Y236640D01*
X500Y235640D02*
X7500Y235640D01*
X1729500Y235640D02*
X1736500Y235640D01*
X500Y234640D02*
X7500Y234640D01*
X1729500Y234640D02*
X1736500Y234640D01*
X500Y233640D02*
X7500Y233640D01*
X1729500Y233640D02*
X1736500Y233640D01*
X500Y232640D02*
X7500Y232640D01*
X1729500Y232640D02*
X1736500Y232640D01*
X500Y231640D02*
X7500Y231640D01*
X1729500Y231640D02*
X1736500Y231640D01*
X500Y230640D02*
X7500Y230640D01*
X1729500Y230640D02*
X1736500Y230640D01*
X500Y229640D02*
X7500Y229640D01*
X1729500Y229640D02*
X1736500Y229640D01*
X500Y228640D02*
X7500Y228640D01*
X1729500Y228640D02*
X1736500Y228640D01*
X500Y227640D02*
X7500Y227640D01*
X1729500Y227640D02*
X1736500Y227640D01*
X500Y226640D02*
X7500Y226640D01*
X1729500Y226640D02*
X1736500Y226640D01*
X500Y225640D02*
X7500Y225640D01*
X1729500Y225640D02*
X1736500Y225640D01*
X500Y224640D02*
X7500Y224640D01*
X1729500Y224640D02*
X1736500Y224640D01*
X500Y223640D02*
X7500Y223640D01*
X1729500Y223640D02*
X1736500Y223640D01*
X500Y222640D02*
X7500Y222640D01*
X1729500Y222640D02*
X1736500Y222640D01*
X500Y221640D02*
X7500Y221640D01*
X1729500Y221640D02*
X1736500Y221640D01*
X500Y220640D02*
X7500Y220640D01*
X1729500Y220640D02*
X1736500Y220640D01*
X500Y219640D02*
X7500Y219640D01*
X1729500Y219640D02*
X1736500Y219640D01*
X500Y218640D02*
X7500Y218640D01*
X1729500Y218640D02*
X1736500Y218640D01*
X500Y217640D02*
X7500Y217640D01*
X1729500Y217640D02*
X1736500Y217640D01*
X500Y216640D02*
X7500Y216640D01*
X1729500Y216640D02*
X1736500Y216640D01*
X500Y215640D02*
X7500Y215640D01*
X1729500Y215640D02*
X1736500Y215640D01*
X500Y214640D02*
X7500Y214640D01*
X1729500Y214640D02*
X1736500Y214640D01*
X500Y213640D02*
X7500Y213640D01*
X1729500Y213640D02*
X1736500Y213640D01*
X500Y212640D02*
X7500Y212640D01*
X1729500Y212640D02*
X1736500Y212640D01*
X500Y211640D02*
X7500Y211640D01*
X1729500Y211640D02*
X1736500Y211640D01*
X500Y210640D02*
X7500Y210640D01*
X1729500Y210640D02*
X1736500Y210640D01*
X500Y209640D02*
X7500Y209640D01*
X1729500Y209640D02*
X1736500Y209640D01*
X500Y208640D02*
X7500Y208640D01*
X1729500Y208640D02*
X1736500Y208640D01*
X500Y207640D02*
X7500Y207640D01*
X1729500Y207640D02*
X1736500Y207640D01*
X500Y206640D02*
X7500Y206640D01*
X1729500Y206640D02*
X1736500Y206640D01*
X500Y205640D02*
X7500Y205640D01*
X1729500Y205640D02*
X1736500Y205640D01*
X500Y204640D02*
X7500Y204640D01*
X1729500Y204640D02*
X1736500Y204640D01*
X500Y203640D02*
X7500Y203640D01*
X1729500Y203640D02*
X1736500Y203640D01*
X500Y202640D02*
X7500Y202640D01*
X1729500Y202640D02*
X1736500Y202640D01*
X500Y201640D02*
X7500Y201640D01*
X1729500Y201640D02*
X1736500Y201640D01*
X500Y200640D02*
X7500Y200640D01*
X1729500Y200640D02*
X1736500Y200640D01*
X500Y199640D02*
X7500Y199640D01*
X1729500Y199640D02*
X1736500Y199640D01*
X500Y198640D02*
X7500Y198640D01*
X1729500Y198640D02*
X1736500Y198640D01*
X500Y197640D02*
X7500Y197640D01*
X1729500Y197640D02*
X1736500Y197640D01*
X500Y196640D02*
X7500Y196640D01*
X1729500Y196640D02*
X1736500Y196640D01*
X500Y195640D02*
X7500Y195640D01*
X1729500Y195640D02*
X1736500Y195640D01*
X500Y194640D02*
X7500Y194640D01*
X1729500Y194640D02*
X1736500Y194640D01*
X500Y193640D02*
X7500Y193640D01*
X1729500Y193640D02*
X1736500Y193640D01*
X500Y192640D02*
X7500Y192640D01*
X1729500Y192640D02*
X1736500Y192640D01*
X500Y191640D02*
X7500Y191640D01*
X1729500Y191640D02*
X1736500Y191640D01*
X500Y190640D02*
X7500Y190640D01*
X1729500Y190640D02*
X1736500Y190640D01*
X500Y189640D02*
X7500Y189640D01*
X1729500Y189640D02*
X1736500Y189640D01*
X500Y188640D02*
X7500Y188640D01*
X1729500Y188640D02*
X1736500Y188640D01*
X500Y187640D02*
X7500Y187640D01*
X1729500Y187640D02*
X1736500Y187640D01*
X500Y186640D02*
X7500Y186640D01*
X1729500Y186640D02*
X1736500Y186640D01*
X500Y185640D02*
X7500Y185640D01*
X1729500Y185640D02*
X1736500Y185640D01*
X500Y184640D02*
X7500Y184640D01*
X1729500Y184640D02*
X1736500Y184640D01*
X500Y183640D02*
X7500Y183640D01*
X1729500Y183640D02*
X1736500Y183640D01*
X500Y182640D02*
X7500Y182640D01*
X1729500Y182640D02*
X1736500Y182640D01*
X500Y181640D02*
X7500Y181640D01*
X1729500Y181640D02*
X1736500Y181640D01*
X500Y180640D02*
X7500Y180640D01*
X1729500Y180640D02*
X1736500Y180640D01*
X500Y179640D02*
X7500Y179640D01*
X1729500Y179640D02*
X1736500Y179640D01*
X500Y178640D02*
X7500Y178640D01*
X1729500Y178640D02*
X1736500Y178640D01*
X500Y177640D02*
X7500Y177640D01*
X1729500Y177640D02*
X1736500Y177640D01*
X500Y176640D02*
X7500Y176640D01*
X1729500Y176640D02*
X1736500Y176640D01*
X500Y175640D02*
X7500Y175640D01*
X1729500Y175640D02*
X1736500Y175640D01*
X500Y174640D02*
X7500Y174640D01*
X1729500Y174640D02*
X1736500Y174640D01*
X500Y173640D02*
X7500Y173640D01*
X1729500Y173640D02*
X1736500Y173640D01*
X500Y172640D02*
X7500Y172640D01*
X1729500Y172640D02*
X1736500Y172640D01*
X500Y171640D02*
X7500Y171640D01*
X1729500Y171640D02*
X1736500Y171640D01*
X500Y170640D02*
X7500Y170640D01*
X1729500Y170640D02*
X1736500Y170640D01*
X500Y169640D02*
X7500Y169640D01*
X1729500Y169640D02*
X1736500Y169640D01*
X500Y168640D02*
X7500Y168640D01*
X1729500Y168640D02*
X1736500Y168640D01*
X500Y167640D02*
X7500Y167640D01*
X1729500Y167640D02*
X1736500Y167640D01*
X500Y166640D02*
X7500Y166640D01*
X1729500Y166640D02*
X1736500Y166640D01*
X500Y165640D02*
X7500Y165640D01*
X1729500Y165640D02*
X1736500Y165640D01*
X500Y164640D02*
X7500Y164640D01*
X1729500Y164640D02*
X1736500Y164640D01*
X500Y163640D02*
X7500Y163640D01*
X1729500Y163640D02*
X1736500Y163640D01*
X500Y162640D02*
X7500Y162640D01*
X1729500Y162640D02*
X1736500Y162640D01*
X500Y161640D02*
X7500Y161640D01*
X1729500Y161640D02*
X1736500Y161640D01*
X500Y160640D02*
X7500Y160640D01*
X1729500Y160640D02*
X1736500Y160640D01*
X500Y159640D02*
X7500Y159640D01*
X1729500Y159640D02*
X1736500Y159640D01*
X500Y158640D02*
X7500Y158640D01*
X1729500Y158640D02*
X1736500Y158640D01*
X500Y157640D02*
X7500Y157640D01*
X1729500Y157640D02*
X1736500Y157640D01*
X500Y156640D02*
X7500Y156640D01*
X1729500Y156640D02*
X1736500Y156640D01*
X500Y155640D02*
X7500Y155640D01*
X1729500Y155640D02*
X1736500Y155640D01*
X500Y154640D02*
X7500Y154640D01*
X1729500Y154640D02*
X1736500Y154640D01*
X500Y153640D02*
X7500Y153640D01*
X1729500Y153640D02*
X1736500Y153640D01*
X500Y152640D02*
X7500Y152640D01*
X1729500Y152640D02*
X1736500Y152640D01*
X500Y151640D02*
X7500Y151640D01*
X1729500Y151640D02*
X1736500Y151640D01*
X500Y150640D02*
X7500Y150640D01*
X1729500Y150640D02*
X1736500Y150640D01*
X500Y149640D02*
X7500Y149640D01*
X1729500Y149640D02*
X1736500Y149640D01*
X500Y148640D02*
X7500Y148640D01*
X1729500Y148640D02*
X1736500Y148640D01*
X500Y147640D02*
X7500Y147640D01*
X1729500Y147640D02*
X1736500Y147640D01*
X500Y146640D02*
X7500Y146640D01*
X1729500Y146640D02*
X1736500Y146640D01*
X500Y145640D02*
X7500Y145640D01*
X1729500Y145640D02*
X1736500Y145640D01*
X500Y144640D02*
X7500Y144640D01*
X1729500Y144640D02*
X1736500Y144640D01*
X500Y143640D02*
X7500Y143640D01*
X1729500Y143640D02*
X1736500Y143640D01*
X500Y142640D02*
X7500Y142640D01*
X1729500Y142640D02*
X1736500Y142640D01*
X500Y141640D02*
X7500Y141640D01*
X1729500Y141640D02*
X1736500Y141640D01*
X500Y140640D02*
X7500Y140640D01*
X1729500Y140640D02*
X1736500Y140640D01*
X500Y139640D02*
X7500Y139640D01*
X1729500Y139640D02*
X1736500Y139640D01*
X500Y138640D02*
X7500Y138640D01*
X1729500Y138640D02*
X1736500Y138640D01*
X500Y137640D02*
X7500Y137640D01*
X1729500Y137640D02*
X1736500Y137640D01*
X500Y136640D02*
X7500Y136640D01*
X1729500Y136640D02*
X1736500Y136640D01*
X500Y135640D02*
X7500Y135640D01*
X1729500Y135640D02*
X1736500Y135640D01*
X500Y134640D02*
X7500Y134640D01*
X1729500Y134640D02*
X1736500Y134640D01*
X500Y133640D02*
X7500Y133640D01*
X1729500Y133640D02*
X1736500Y133640D01*
X500Y132640D02*
X7500Y132640D01*
X1729500Y132640D02*
X1736500Y132640D01*
X500Y131640D02*
X7500Y131640D01*
X1729500Y131640D02*
X1736500Y131640D01*
X500Y130640D02*
X7500Y130640D01*
X1729500Y130640D02*
X1736500Y130640D01*
X500Y129640D02*
X7500Y129640D01*
X1729500Y129640D02*
X1736500Y129640D01*
X500Y128640D02*
X7500Y128640D01*
X1729500Y128640D02*
X1736500Y128640D01*
X500Y127640D02*
X7500Y127640D01*
X1729500Y127640D02*
X1736500Y127640D01*
X500Y126640D02*
X7500Y126640D01*
X1729500Y126640D02*
X1736500Y126640D01*
X500Y125640D02*
X7500Y125640D01*
X1729500Y125640D02*
X1736500Y125640D01*
X500Y124640D02*
X7500Y124640D01*
X1729500Y124640D02*
X1736500Y124640D01*
X500Y123640D02*
X7500Y123640D01*
X1729500Y123640D02*
X1736500Y123640D01*
X500Y122640D02*
X7500Y122640D01*
X1729500Y122640D02*
X1736500Y122640D01*
X500Y121640D02*
X7500Y121640D01*
X1729500Y121640D02*
X1736500Y121640D01*
X500Y120640D02*
X7500Y120640D01*
X1729500Y120640D02*
X1736500Y120640D01*
X500Y119640D02*
X7500Y119640D01*
X1729500Y119640D02*
X1736500Y119640D01*
X500Y118640D02*
X7500Y118640D01*
X1729500Y118640D02*
X1736500Y118640D01*
X500Y117640D02*
X7500Y117640D01*
X1729500Y117640D02*
X1736500Y117640D01*
X500Y116640D02*
X7500Y116640D01*
X1729500Y116640D02*
X1736500Y116640D01*
X500Y115640D02*
X7500Y115640D01*
X1729500Y115640D02*
X1736500Y115640D01*
X500Y114640D02*
X7500Y114640D01*
X1729500Y114640D02*
X1736500Y114640D01*
X500Y113640D02*
X7500Y113640D01*
X1729500Y113640D02*
X1736500Y113640D01*
X500Y112640D02*
X7500Y112640D01*
X1729500Y112640D02*
X1736500Y112640D01*
X500Y111640D02*
X7500Y111640D01*
X1729500Y111640D02*
X1736500Y111640D01*
X500Y110640D02*
X7500Y110640D01*
X1729500Y110640D02*
X1736500Y110640D01*
X500Y109640D02*
X7500Y109640D01*
X1729500Y109640D02*
X1736500Y109640D01*
X500Y108640D02*
X7500Y108640D01*
X1729500Y108640D02*
X1736500Y108640D01*
X500Y107640D02*
X7500Y107640D01*
X1729500Y107640D02*
X1736500Y107640D01*
X500Y106640D02*
X7500Y106640D01*
X1729500Y106640D02*
X1736500Y106640D01*
X500Y105640D02*
X7500Y105640D01*
X1729500Y105640D02*
X1736500Y105640D01*
X500Y104640D02*
X7500Y104640D01*
X1729500Y104640D02*
X1736500Y104640D01*
X500Y103640D02*
X7500Y103640D01*
X1729500Y103640D02*
X1736500Y103640D01*
X500Y102640D02*
X7500Y102640D01*
X1729500Y102640D02*
X1736500Y102640D01*
X500Y101640D02*
X7500Y101640D01*
X1729500Y101640D02*
X1736500Y101640D01*
X500Y100640D02*
X7500Y100640D01*
X1729500Y100640D02*
X1736500Y100640D01*
X500Y99640D02*
X7500Y99640D01*
X1729500Y99640D02*
X1736500Y99640D01*
X500Y98640D02*
X7500Y98640D01*
X1729500Y98640D02*
X1736500Y98640D01*
X500Y97640D02*
X7500Y97640D01*
X1729500Y97640D02*
X1736500Y97640D01*
X500Y96640D02*
X7500Y96640D01*
X1729500Y96640D02*
X1736500Y96640D01*
X500Y95640D02*
X7500Y95640D01*
X1729500Y95640D02*
X1736500Y95640D01*
X500Y94640D02*
X7500Y94640D01*
X1729500Y94640D02*
X1736500Y94640D01*
X500Y93640D02*
X7500Y93640D01*
X1729500Y93640D02*
X1736500Y93640D01*
X500Y92640D02*
X7500Y92640D01*
X1729500Y92640D02*
X1736500Y92640D01*
X500Y91640D02*
X7500Y91640D01*
X1729500Y91640D02*
X1736500Y91640D01*
X500Y90640D02*
X7500Y90640D01*
X1729500Y90640D02*
X1736500Y90640D01*
X500Y89640D02*
X7500Y89640D01*
X1729500Y89640D02*
X1736500Y89640D01*
X500Y88640D02*
X7500Y88640D01*
X1729500Y88640D02*
X1736500Y88640D01*
X500Y87640D02*
X7500Y87640D01*
X1729500Y87640D02*
X1736500Y87640D01*
X500Y86640D02*
X7500Y86640D01*
X1729500Y86640D02*
X1736500Y86640D01*
X500Y85640D02*
X7500Y85640D01*
X1729500Y85640D02*
X1736500Y85640D01*
X500Y84640D02*
X7500Y84640D01*
X1729500Y84640D02*
X1736500Y84640D01*
X500Y83640D02*
X7500Y83640D01*
X1729500Y83640D02*
X1736500Y83640D01*
X500Y82640D02*
X7500Y82640D01*
X1729500Y82640D02*
X1736500Y82640D01*
X500Y81640D02*
X7500Y81640D01*
X1729500Y81640D02*
X1736500Y81640D01*
X500Y80640D02*
X7500Y80640D01*
X1729500Y80640D02*
X1736500Y80640D01*
X500Y79640D02*
X7500Y79640D01*
X1729500Y79640D02*
X1736500Y79640D01*
X500Y78640D02*
X7500Y78640D01*
X1729500Y78640D02*
X1736500Y78640D01*
X500Y77640D02*
X7500Y77640D01*
X1729500Y77640D02*
X1736500Y77640D01*
X500Y76640D02*
X7500Y76640D01*
X1729500Y76640D02*
X1736500Y76640D01*
X500Y75640D02*
X7500Y75640D01*
X1729500Y75640D02*
X1736500Y75640D01*
X500Y74640D02*
X7500Y74640D01*
X1729500Y74640D02*
X1736500Y74640D01*
X500Y73640D02*
X7500Y73640D01*
X1729500Y73640D02*
X1736500Y73640D01*
X500Y72640D02*
X7500Y72640D01*
X1729500Y72640D02*
X1736500Y72640D01*
X500Y71640D02*
X7500Y71640D01*
X1729500Y71640D02*
X1736500Y71640D01*
X500Y70640D02*
X7500Y70640D01*
X1729500Y70640D02*
X1736500Y70640D01*
X500Y69640D02*
X7500Y69640D01*
X1729500Y69640D02*
X1736500Y69640D01*
X500Y68640D02*
X7500Y68640D01*
X1729500Y68640D02*
X1736500Y68640D01*
X500Y67640D02*
X7500Y67640D01*
X1729500Y67640D02*
X1736500Y67640D01*
X500Y66640D02*
X7500Y66640D01*
X1729500Y66640D02*
X1736500Y66640D01*
X500Y65640D02*
X7500Y65640D01*
X1729500Y65640D02*
X1736500Y65640D01*
X500Y64640D02*
X7500Y64640D01*
X1729500Y64640D02*
X1736500Y64640D01*
X500Y63640D02*
X7500Y63640D01*
X1729500Y63640D02*
X1736500Y63640D01*
X500Y62640D02*
X7500Y62640D01*
X1729500Y62640D02*
X1736500Y62640D01*
X500Y61640D02*
X7500Y61640D01*
X1729500Y61640D02*
X1736500Y61640D01*
X500Y60640D02*
X7500Y60640D01*
X1729500Y60640D02*
X1736500Y60640D01*
X500Y59640D02*
X7500Y59640D01*
X1729500Y59640D02*
X1736500Y59640D01*
X500Y58640D02*
X7500Y58640D01*
X1729500Y58640D02*
X1736500Y58640D01*
X500Y57640D02*
X7500Y57640D01*
X1729500Y57640D02*
X1736500Y57640D01*
X500Y56640D02*
X7500Y56640D01*
X1729500Y56640D02*
X1736500Y56640D01*
X500Y55640D02*
X7500Y55640D01*
X1729500Y55640D02*
X1736500Y55640D01*
X500Y54640D02*
X7500Y54640D01*
X1729500Y54640D02*
X1736500Y54640D01*
X500Y53640D02*
X7500Y53640D01*
X1729500Y53640D02*
X1736500Y53640D01*
X500Y52640D02*
X7500Y52640D01*
X1729500Y52640D02*
X1736500Y52640D01*
X500Y51640D02*
X7500Y51640D01*
X1729500Y51640D02*
X1736500Y51640D01*
X500Y50640D02*
X7500Y50640D01*
X1729500Y50640D02*
X1736500Y50640D01*
X500Y49640D02*
X7500Y49640D01*
X1729500Y49640D02*
X1736500Y49640D01*
X500Y48640D02*
X7500Y48640D01*
X1729500Y48640D02*
X1736500Y48640D01*
X500Y47640D02*
X7500Y47640D01*
X1729500Y47640D02*
X1736500Y47640D01*
X500Y46640D02*
X7500Y46640D01*
X1729500Y46640D02*
X1736500Y46640D01*
X500Y45640D02*
X7500Y45640D01*
X1729500Y45640D02*
X1736500Y45640D01*
X500Y44640D02*
X7500Y44640D01*
X1729500Y44640D02*
X1736500Y44640D01*
X500Y43640D02*
X7500Y43640D01*
X1729500Y43640D02*
X1736500Y43640D01*
X500Y42640D02*
X7500Y42640D01*
X1729500Y42640D02*
X1736500Y42640D01*
X500Y41640D02*
X7500Y41640D01*
X1729500Y41640D02*
X1736500Y41640D01*
X500Y40640D02*
X7500Y40640D01*
X1729500Y40640D02*
X1736500Y40640D01*
X500Y39640D02*
X7500Y39640D01*
X1729500Y39640D02*
X1736500Y39640D01*
X500Y38640D02*
X7500Y38640D01*
X1729500Y38640D02*
X1736500Y38640D01*
X500Y37640D02*
X7500Y37640D01*
X1729500Y37640D02*
X1736500Y37640D01*
X500Y36640D02*
X7500Y36640D01*
X1729500Y36640D02*
X1736500Y36640D01*
X500Y35640D02*
X7500Y35640D01*
X1729500Y35640D02*
X1736500Y35640D01*
X500Y34640D02*
X7500Y34640D01*
X1729500Y34640D02*
X1736500Y34640D01*
X500Y33640D02*
X7500Y33640D01*
X1729500Y33640D02*
X1736500Y33640D01*
X500Y32640D02*
X7500Y32640D01*
X1729500Y32640D02*
X1736500Y32640D01*
X500Y31640D02*
X7500Y31640D01*
X1729500Y31640D02*
X1736500Y31640D01*
X500Y30640D02*
X7500Y30640D01*
X1729500Y30640D02*
X1736500Y30640D01*
X500Y29640D02*
X7500Y29640D01*
X1729500Y29640D02*
X1736500Y29640D01*
X500Y28640D02*
X7500Y28640D01*
X1729500Y28640D02*
X1736500Y28640D01*
X500Y27640D02*
X7500Y27640D01*
X1729500Y27640D02*
X1736500Y27640D01*
X500Y26640D02*
X7500Y26640D01*
X1729500Y26640D02*
X1736500Y26640D01*
X500Y25640D02*
X7500Y25640D01*
X1729500Y25640D02*
X1736500Y25640D01*
X500Y24640D02*
X7500Y24640D01*
X1729500Y24640D02*
X1736500Y24640D01*
X500Y23640D02*
X7500Y23640D01*
X1729500Y23640D02*
X1736500Y23640D01*
X500Y22640D02*
X7500Y22640D01*
X1729500Y22640D02*
X1736500Y22640D01*
X500Y21640D02*
X7500Y21640D01*
X1729500Y21640D02*
X1736500Y21640D01*
X500Y20640D02*
X7500Y20640D01*
X1729500Y20640D02*
X1736500Y20640D01*
X500Y19640D02*
X7500Y19640D01*
X1729500Y19640D02*
X1736500Y19640D01*
X500Y18640D02*
X7500Y18640D01*
X1729500Y18640D02*
X1736500Y18640D01*
X500Y17640D02*
X7500Y17640D01*
X1729500Y17640D02*
X1736500Y17640D01*
X500Y16640D02*
X7500Y16640D01*
X1729500Y16640D02*
X1736500Y16640D01*
X500Y15640D02*
X7500Y15640D01*
X1729500Y15640D02*
X1736500Y15640D01*
X500Y14640D02*
X7500Y14640D01*
X1729500Y14640D02*
X1736500Y14640D01*
X500Y13640D02*
X7500Y13640D01*
X1729500Y13640D02*
X1736500Y13640D01*
X500Y12640D02*
X7500Y12640D01*
X1729500Y12640D02*
X1736500Y12640D01*
X500Y11640D02*
X7500Y11640D01*
X1729500Y11640D02*
X1736500Y11640D01*
X500Y10640D02*
X7500Y10640D01*
X1729500Y10640D02*
X1736500Y10640D01*
X500Y9640D02*
X7500Y9640D01*
X1729500Y9640D02*
X1736500Y9640D01*
X500Y8640D02*
X7500Y8640D01*
X1729500Y8640D02*
X1736500Y8640D01*
X500Y7640D02*
X1736500Y7640D01*
X500Y6640D02*
X1736500Y6640D01*
X500Y5640D02*
X1736500Y5640D01*
X500Y4640D02*
X1736500Y4640D01*
X500Y3640D02*
X1736500Y3640D01*
X500Y2640D02*
X1736500Y2640D01*
X500Y1640D02*
X1736500Y1640D01*
X500Y640D02*
X1736500Y640D01*
D02*
G04 End of Silk0*
M02*