; NON-PLATED HOLES START AT T1
; THROUGH (PLATED) HOLES START AT T100
M48
INCH
T1C0.064000
T100C0.015748
T101C0.035000
T102C0.040000
%
T1
X002154Y012724
X003157Y012724
X004157Y011724
X004157Y012724
X002157Y011724
X003157Y011724
T100
X003547Y014451
X000750Y015539
T101
X007547Y004750
X007547Y003750
X016547Y000750
X012547Y000750
X004812Y000750
X010547Y003750
X000812Y000750
X010547Y004750
T102
X011547Y015850
X002558Y017057
X012547Y015750
X013547Y015850
X015547Y015850
X010547Y015750
X014547Y015750
X004558Y017057
T00
M30
