G04 MADE WITH FRITZING*
G04 WWW.FRITZING.ORG*
G04 DOUBLE SIDED*
G04 HOLES PLATED*
G04 CONTOUR ON CENTER OF CONTOUR VECTOR*
%FSLAX26Y26*%
%MOIN*%
%ADD10C,0.074000*%
%ADD11C,0.075000*%
%ADD12C,0.064000*%
%ADD13C,0.039370*%
%ADD14C,0.080000*%
%ADD15R,0.181102X0.039370*%
%ADD16R,0.133858X0.062992*%
%ADD17R,0.075000X0.075000*%
%ADD18R,0.070247X0.121256*%
%ADD19R,0.070000X0.121256*%
%ADD20R,0.080000X0.079986*%
%ADD21C,0.024000*%
%G04COPPER1*%
%FSLAX26Y26*%
%MOIN*%
D10*
X1554720Y1585050D03*
X1454720Y1575050D03*
X1354720Y1585050D03*
X1254720Y1575050D03*
X1154720Y1585050D03*
X1054720Y1575050D03*
X1554720Y1585050D03*
X1454720Y1575050D03*
X1354720Y1585050D03*
X1254720Y1575050D03*
X1154720Y1585050D03*
X1054720Y1575050D03*
D11*
X754721Y475050D03*
X1054720Y475050D03*
X754721Y375050D03*
X1054720Y375050D03*
D12*
X215427Y1272434D03*
X315719Y1272434D03*
X415719Y1272456D03*
X215719Y1172456D03*
X315719Y1172456D03*
X415719Y1172456D03*
D11*
X481207Y75050D03*
X81207Y75050D03*
X1654720Y75050D03*
X1254720Y75050D03*
D13*
X75044Y1553988D03*
X354719Y1445101D03*
D14*
X255841Y1705737D03*
X455841Y1705737D03*
X255841Y1705737D03*
X455841Y1705737D03*
D15*
X1354731Y675045D03*
X1354731Y596305D03*
D16*
X1559449Y769538D03*
X1559449Y501824D03*
D15*
X354718Y475055D03*
X354718Y553795D03*
D16*
X149994Y380564D03*
X149994Y648284D03*
D15*
X1354731Y1175050D03*
X1354731Y1096309D03*
D16*
X1559449Y1269538D03*
X1559449Y1001821D03*
D17*
X754721Y475050D03*
D18*
X461029Y1049821D03*
X552334Y1049821D03*
X254511Y892271D03*
X354843Y892271D03*
X454843Y892271D03*
X554843Y892271D03*
X654843Y892271D03*
X754843Y892271D03*
X854843Y892271D03*
D19*
X854719Y1552828D03*
X754719Y1552828D03*
X654719Y1552828D03*
X554719Y1552828D03*
X454719Y1552828D03*
X354719Y1552828D03*
X254719Y1552828D03*
D20*
X255841Y1705744D03*
X255841Y1705744D03*
D21*
X1254400Y524610D02*
X1334950Y582180D01*
D02*
X1654630Y374860D02*
X1254400Y374860D01*
D02*
X1254400Y374860D02*
X1254400Y524610D01*
D02*
X1654710Y92550D02*
X1654630Y374860D01*
D02*
X753430Y674360D02*
X1269730Y674960D01*
D02*
X754606Y492550D02*
X753428Y674360D01*
D02*
X461029Y1049821D02*
X437766Y1011492D01*
D02*
X437766Y1011492D02*
X197766Y1011492D01*
D02*
X197766Y1011492D02*
X197766Y699490D01*
D02*
X197766Y699490D02*
X245766Y699490D01*
D02*
X245766Y699490D02*
X486607Y698860D01*
D02*
X486608Y698860D02*
X485767Y507490D01*
D02*
X485766Y507490D02*
X411806Y489190D01*
D02*
X1354720Y1565050D02*
X1354720Y1189180D01*
D02*
X552731Y1104893D02*
X554675Y1374080D01*
D02*
X554675Y1374080D02*
X53705Y1374080D01*
D02*
X53705Y1374080D02*
X53766Y723490D01*
D02*
X53766Y723490D02*
X53704Y560010D01*
D02*
X53705Y560010D02*
X269724Y555550D01*
D02*
X1469490Y1461206D02*
X1469760Y1323492D01*
D02*
X1543380Y1568575D02*
X1469490Y1461206D01*
D02*
X1469760Y1323492D02*
X1469760Y1131492D01*
D02*
X1469760Y1131492D02*
X1400920Y1110439D01*
D02*
X82918Y1553937D02*
X225275Y1553018D01*
D02*
X654881Y837198D02*
X655412Y75370D01*
D02*
X655408Y75370D02*
X954900Y75370D01*
D02*
X952609Y404840D02*
X1040300Y465130D01*
D02*
X954908Y274130D02*
X952609Y404840D01*
D02*
X954900Y75370D02*
X954908Y274130D01*
D02*
X498707Y75080D02*
X655412Y75370D01*
D02*
X354719Y1497755D02*
X354719Y1452975D01*
G04 End of Copper1*
M02*