G04 EAGLE Gerber RS-274X export*
G75*
%MOMM*%
%FSLAX34Y34*%
%LPD*%
%INSoldermask Top*%
%IPPOS*%
%AMOC8*
5,1,8,0,0,1.08239X$1,22.5*%
G01*
G04 Define Apertures*
%ADD10R,1.203200X1.403200*%
%ADD11C,1.551200*%
%ADD12R,1.853200X1.853200*%
%ADD13C,1.853200*%
%ADD14R,1.177100X1.001900*%
%ADD15R,3.203200X2.203200*%
%ADD16R,3.703200X3.703200*%
%ADD17C,1.703200*%
%ADD18R,2.503200X1.503200*%
%ADD19R,1.913200X0.833200*%
%ADD20C,0.959600*%
G36*
X166464Y748591D02*
X166480Y748382D01*
X166480Y739578D01*
X166464Y739369D01*
X166414Y739162D01*
X166333Y738967D01*
X166223Y738787D01*
X166084Y738626D01*
X165923Y738487D01*
X165743Y738377D01*
X165548Y738296D01*
X165339Y738246D01*
X162528Y738230D01*
X162319Y738246D01*
X162112Y738296D01*
X161917Y738377D01*
X161737Y738487D01*
X161576Y738626D01*
X161437Y738787D01*
X161327Y738967D01*
X161246Y739162D01*
X161196Y739369D01*
X161180Y739578D01*
X161180Y748382D01*
X161196Y748591D01*
X161246Y748798D01*
X161327Y748993D01*
X161437Y749173D01*
X161576Y749334D01*
X161737Y749473D01*
X161917Y749583D01*
X162112Y749664D01*
X162321Y749714D01*
X165132Y749730D01*
X165341Y749714D01*
X165548Y749664D01*
X165743Y749583D01*
X165923Y749473D01*
X166084Y749334D01*
X166223Y749173D01*
X166333Y748993D01*
X166414Y748798D01*
X166464Y748591D01*
G37*
G36*
X166464Y769391D02*
X166480Y769182D01*
X166480Y760378D01*
X166464Y760169D01*
X166414Y759962D01*
X166333Y759767D01*
X166223Y759587D01*
X166084Y759426D01*
X165923Y759287D01*
X165743Y759177D01*
X165548Y759096D01*
X165339Y759046D01*
X162528Y759030D01*
X162319Y759046D01*
X162112Y759096D01*
X161917Y759177D01*
X161737Y759287D01*
X161576Y759426D01*
X161437Y759587D01*
X161327Y759767D01*
X161246Y759962D01*
X161196Y760169D01*
X161180Y760378D01*
X161180Y769182D01*
X161196Y769391D01*
X161246Y769598D01*
X161327Y769793D01*
X161437Y769973D01*
X161576Y770134D01*
X161737Y770273D01*
X161917Y770383D01*
X162112Y770464D01*
X162321Y770514D01*
X165132Y770530D01*
X165341Y770514D01*
X165548Y770464D01*
X165743Y770383D01*
X165923Y770273D01*
X166084Y770134D01*
X166223Y769973D01*
X166333Y769793D01*
X166414Y769598D01*
X166464Y769391D01*
G37*
D10*
X196850Y765650D03*
X186850Y745650D03*
X206850Y745650D03*
D11*
X119380Y651510D03*
X144380Y651510D03*
X193040Y641350D03*
X193040Y666350D03*
X36830Y651510D03*
X61830Y651510D03*
D12*
X26670Y701040D03*
D13*
X52070Y701040D03*
X77470Y701040D03*
X102870Y701040D03*
X128270Y701040D03*
X153670Y701040D03*
D14*
X116840Y746228D03*
X116840Y762532D03*
X139700Y746228D03*
X139700Y762532D03*
D15*
X25160Y812800D03*
X25160Y838200D03*
X25160Y863600D03*
X25160Y889000D03*
X25160Y914400D03*
X25160Y939800D03*
X25160Y965200D03*
X195160Y812800D03*
X195160Y838200D03*
X195160Y863600D03*
X195160Y889000D03*
X195160Y914400D03*
X195160Y939800D03*
X195160Y965200D03*
D16*
X118460Y870300D03*
D17*
X97460Y974800D03*
X122860Y974800D03*
X122860Y949400D03*
X97460Y949400D03*
D18*
X65160Y912000D03*
X65160Y893000D03*
D17*
X97460Y924000D03*
X122860Y924000D03*
D19*
X22610Y758190D03*
X22610Y732790D03*
X86610Y758190D03*
X86610Y732790D03*
D20*
X173192Y792952D03*
X121920Y901065D03*
M02*
