G04 EAGLE Gerber RS-274X export*
G75*
%MOMM*%
%FSLAX34Y34*%
%LPD*%
%INSilkscreen Bottom*%
%IPPOS*%
%AMOC8*
5,1,8,0,0,1.08239X$1,22.5*%
G01*
G04 Define Apertures*
G36*
X89095Y806366D02*
X88880Y806372D01*
X88671Y806391D01*
X88275Y806466D01*
X87905Y806590D01*
X87561Y806765D01*
X87249Y806987D01*
X86974Y807255D01*
X86736Y807568D01*
X86535Y807927D01*
X87190Y808254D01*
X87355Y807966D01*
X87541Y807716D01*
X87745Y807505D01*
X87969Y807332D01*
X88212Y807198D01*
X88474Y807102D01*
X88756Y807044D01*
X89057Y807025D01*
X89293Y807035D01*
X89516Y807066D01*
X89727Y807118D01*
X89926Y807190D01*
X90112Y807283D01*
X90285Y807397D01*
X90446Y807531D01*
X90595Y807686D01*
X90728Y807858D01*
X90843Y808043D01*
X90941Y808241D01*
X91021Y808453D01*
X91083Y808678D01*
X91128Y808917D01*
X91154Y809168D01*
X91163Y809433D01*
X91155Y809701D01*
X91129Y809954D01*
X91087Y810192D01*
X91027Y810416D01*
X90950Y810625D01*
X90856Y810819D01*
X90746Y810999D01*
X90618Y811164D01*
X90475Y811312D01*
X90318Y811441D01*
X90147Y811549D01*
X89963Y811638D01*
X89765Y811707D01*
X89554Y811756D01*
X89329Y811786D01*
X89090Y811796D01*
X88788Y811779D01*
X88508Y811728D01*
X88248Y811642D01*
X88010Y811523D01*
X87798Y811372D01*
X87617Y811190D01*
X87467Y810977D01*
X87349Y810734D01*
X86590Y810986D01*
X86759Y811327D01*
X86971Y811623D01*
X87225Y811874D01*
X87521Y812081D01*
X87857Y812243D01*
X88232Y812358D01*
X88646Y812427D01*
X89099Y812451D01*
X89427Y812438D01*
X89738Y812400D01*
X90030Y812338D01*
X90303Y812250D01*
X90558Y812137D01*
X90795Y812000D01*
X91014Y811837D01*
X91214Y811649D01*
X91393Y811439D01*
X91548Y811210D01*
X91679Y810962D01*
X91786Y810694D01*
X91870Y810408D01*
X91930Y810102D01*
X91965Y809777D01*
X91977Y809433D01*
X91956Y808977D01*
X91892Y808553D01*
X91785Y808160D01*
X91635Y807799D01*
X91445Y807474D01*
X91216Y807189D01*
X90948Y806943D01*
X90641Y806737D01*
X90300Y806575D01*
X89928Y806459D01*
X89526Y806389D01*
X89095Y806366D01*
G37*
G36*
X104376Y806366D02*
X104161Y806372D01*
X103953Y806391D01*
X103556Y806466D01*
X103186Y806590D01*
X102842Y806765D01*
X102530Y806987D01*
X102255Y807255D01*
X102017Y807568D01*
X101816Y807927D01*
X102471Y808254D01*
X102637Y807966D01*
X102822Y807716D01*
X103026Y807505D01*
X103250Y807332D01*
X103493Y807198D01*
X103756Y807102D01*
X104037Y807044D01*
X104338Y807025D01*
X104574Y807035D01*
X104798Y807066D01*
X105009Y807118D01*
X105207Y807190D01*
X105393Y807283D01*
X105567Y807397D01*
X105728Y807531D01*
X105876Y807686D01*
X106009Y807858D01*
X106125Y808043D01*
X106222Y808241D01*
X106302Y808453D01*
X106365Y808678D01*
X106409Y808917D01*
X106436Y809168D01*
X106445Y809433D01*
X106436Y809701D01*
X106410Y809954D01*
X106368Y810192D01*
X106308Y810416D01*
X106231Y810625D01*
X106138Y810819D01*
X106027Y810999D01*
X105899Y811164D01*
X105756Y811312D01*
X105599Y811441D01*
X105429Y811549D01*
X105244Y811638D01*
X105047Y811707D01*
X104835Y811756D01*
X104610Y811786D01*
X104372Y811796D01*
X104070Y811779D01*
X103789Y811728D01*
X103529Y811642D01*
X103291Y811523D01*
X103079Y811372D01*
X102898Y811190D01*
X102749Y810977D01*
X102630Y810734D01*
X101871Y810986D01*
X102041Y811327D01*
X102253Y811623D01*
X102506Y811874D01*
X102802Y812081D01*
X103139Y812243D01*
X103514Y812358D01*
X103927Y812427D01*
X104380Y812451D01*
X104709Y812438D01*
X105019Y812400D01*
X105311Y812338D01*
X105584Y812250D01*
X105840Y812137D01*
X106076Y812000D01*
X106295Y811837D01*
X106495Y811649D01*
X106674Y811439D01*
X106829Y811210D01*
X106960Y810962D01*
X107068Y810694D01*
X107151Y810408D01*
X107211Y810102D01*
X107247Y809777D01*
X107259Y809433D01*
X107237Y808977D01*
X107173Y808553D01*
X107066Y808160D01*
X106917Y807799D01*
X106726Y807474D01*
X106497Y807189D01*
X106229Y806943D01*
X105922Y806737D01*
X105581Y806575D01*
X105209Y806459D01*
X104808Y806389D01*
X104376Y806366D01*
G37*
G36*
X119657Y806366D02*
X119442Y806372D01*
X119234Y806391D01*
X118837Y806466D01*
X118467Y806590D01*
X118123Y806765D01*
X117811Y806987D01*
X117536Y807255D01*
X117298Y807568D01*
X117097Y807927D01*
X117752Y808254D01*
X117918Y807966D01*
X118103Y807716D01*
X118308Y807505D01*
X118531Y807332D01*
X118775Y807198D01*
X119037Y807102D01*
X119318Y807044D01*
X119619Y807025D01*
X119855Y807035D01*
X120079Y807066D01*
X120290Y807118D01*
X120488Y807190D01*
X120674Y807283D01*
X120848Y807397D01*
X121009Y807531D01*
X121157Y807686D01*
X121291Y807858D01*
X121406Y808043D01*
X121504Y808241D01*
X121584Y808453D01*
X121646Y808678D01*
X121690Y808917D01*
X121717Y809168D01*
X121726Y809433D01*
X121717Y809701D01*
X121692Y809954D01*
X121649Y810192D01*
X121589Y810416D01*
X121513Y810625D01*
X121419Y810819D01*
X121308Y810999D01*
X121180Y811164D01*
X121037Y811312D01*
X120880Y811441D01*
X120710Y811549D01*
X120526Y811638D01*
X120328Y811707D01*
X120117Y811756D01*
X119892Y811786D01*
X119653Y811796D01*
X119351Y811779D01*
X119070Y811728D01*
X118811Y811642D01*
X118572Y811523D01*
X118360Y811372D01*
X118180Y811190D01*
X118030Y810977D01*
X117912Y810734D01*
X117152Y810986D01*
X117322Y811327D01*
X117534Y811623D01*
X117788Y811874D01*
X118084Y812081D01*
X118420Y812243D01*
X118795Y812358D01*
X119209Y812427D01*
X119661Y812451D01*
X119990Y812438D01*
X120300Y812400D01*
X120592Y812338D01*
X120866Y812250D01*
X121121Y812137D01*
X121358Y812000D01*
X121576Y811837D01*
X121776Y811649D01*
X121955Y811439D01*
X122110Y811210D01*
X122242Y810962D01*
X122349Y810694D01*
X122432Y810408D01*
X122492Y810102D01*
X122528Y809777D01*
X122540Y809433D01*
X122519Y808977D01*
X122454Y808553D01*
X122348Y808160D01*
X122198Y807799D01*
X122007Y807474D01*
X121778Y807189D01*
X121510Y806943D01*
X121203Y806737D01*
X120862Y806575D01*
X120491Y806459D01*
X120089Y806389D01*
X119657Y806366D01*
G37*
G36*
X134938Y806366D02*
X134723Y806372D01*
X134515Y806391D01*
X134119Y806466D01*
X133748Y806590D01*
X133405Y806765D01*
X133093Y806987D01*
X132818Y807255D01*
X132580Y807568D01*
X132379Y807927D01*
X133033Y808254D01*
X133199Y807966D01*
X133384Y807716D01*
X133589Y807505D01*
X133813Y807332D01*
X134056Y807198D01*
X134318Y807102D01*
X134600Y807044D01*
X134901Y807025D01*
X135137Y807035D01*
X135360Y807066D01*
X135571Y807118D01*
X135770Y807190D01*
X135956Y807283D01*
X136129Y807397D01*
X136290Y807531D01*
X136438Y807686D01*
X136572Y807858D01*
X136687Y808043D01*
X136785Y808241D01*
X136865Y808453D01*
X136927Y808678D01*
X136972Y808917D01*
X136998Y809168D01*
X137007Y809433D01*
X136999Y809701D01*
X136973Y809954D01*
X136930Y810192D01*
X136871Y810416D01*
X136794Y810625D01*
X136700Y810819D01*
X136589Y810999D01*
X136462Y811164D01*
X136318Y811312D01*
X136162Y811441D01*
X135991Y811549D01*
X135807Y811638D01*
X135609Y811707D01*
X135398Y811756D01*
X135173Y811786D01*
X134934Y811796D01*
X134632Y811779D01*
X134351Y811728D01*
X134092Y811642D01*
X133854Y811523D01*
X133642Y811372D01*
X133461Y811190D01*
X133311Y810977D01*
X133193Y810734D01*
X132433Y810986D01*
X132603Y811327D01*
X132815Y811623D01*
X133069Y811874D01*
X133365Y812081D01*
X133701Y812243D01*
X134076Y812358D01*
X134490Y812427D01*
X134943Y812451D01*
X135271Y812438D01*
X135581Y812400D01*
X135873Y812338D01*
X136147Y812250D01*
X136402Y812137D01*
X136639Y812000D01*
X136857Y811837D01*
X137057Y811649D01*
X137236Y811439D01*
X137392Y811210D01*
X137523Y810962D01*
X137630Y810694D01*
X137714Y810408D01*
X137773Y810102D01*
X137809Y809777D01*
X137821Y809433D01*
X137800Y808977D01*
X137736Y808553D01*
X137629Y808160D01*
X137479Y807799D01*
X137289Y807474D01*
X137060Y807189D01*
X136791Y806943D01*
X136485Y806737D01*
X136143Y806575D01*
X135772Y806459D01*
X135370Y806389D01*
X134938Y806366D01*
G37*
G36*
X99559Y806366D02*
X99362Y806374D01*
X99175Y806397D01*
X99000Y806435D01*
X98835Y806489D01*
X98681Y806559D01*
X98537Y806643D01*
X98405Y806744D01*
X98283Y806859D01*
X98174Y806988D01*
X98079Y807129D01*
X97999Y807281D01*
X97934Y807444D01*
X97883Y807619D01*
X97846Y807805D01*
X97825Y808003D01*
X97817Y808212D01*
X97817Y812362D01*
X99752Y812362D01*
X99752Y811708D01*
X98614Y811708D01*
X98614Y808196D01*
X98630Y807924D01*
X98677Y807686D01*
X98756Y807484D01*
X98866Y807317D01*
X99004Y807185D01*
X99164Y807091D01*
X99348Y807035D01*
X99554Y807016D01*
X99745Y807034D01*
X99920Y807085D01*
X100077Y807170D01*
X100217Y807289D01*
X100338Y807439D01*
X100435Y807615D01*
X100508Y807819D01*
X100557Y808049D01*
X101342Y807919D01*
X101253Y807555D01*
X101125Y807239D01*
X100959Y806973D01*
X100756Y806754D01*
X100514Y806584D01*
X100233Y806463D01*
X99915Y806390D01*
X99742Y806372D01*
X99559Y806366D01*
G37*
G36*
X114840Y806366D02*
X114643Y806374D01*
X114456Y806397D01*
X114281Y806435D01*
X114116Y806489D01*
X113962Y806559D01*
X113819Y806643D01*
X113686Y806744D01*
X113564Y806859D01*
X113455Y806988D01*
X113360Y807129D01*
X113280Y807281D01*
X113215Y807444D01*
X113164Y807619D01*
X113128Y807805D01*
X113106Y808003D01*
X113098Y808212D01*
X113098Y812362D01*
X115033Y812362D01*
X115033Y811708D01*
X113896Y811708D01*
X113896Y808196D01*
X113911Y807924D01*
X113959Y807686D01*
X114037Y807484D01*
X114148Y807317D01*
X114285Y807185D01*
X114445Y807091D01*
X114629Y807035D01*
X114836Y807016D01*
X115027Y807034D01*
X115201Y807085D01*
X115358Y807170D01*
X115499Y807289D01*
X115619Y807439D01*
X115716Y807615D01*
X115789Y807819D01*
X115839Y808049D01*
X116623Y807919D01*
X116534Y807555D01*
X116406Y807239D01*
X116241Y806973D01*
X116037Y806754D01*
X115795Y806584D01*
X115515Y806463D01*
X115196Y806390D01*
X115023Y806372D01*
X114840Y806366D01*
G37*
G36*
X130121Y806366D02*
X129924Y806374D01*
X129738Y806397D01*
X129562Y806435D01*
X129397Y806489D01*
X129243Y806559D01*
X129100Y806643D01*
X128967Y806744D01*
X128845Y806859D01*
X128736Y806988D01*
X128642Y807129D01*
X128562Y807281D01*
X128496Y807444D01*
X128445Y807619D01*
X128409Y807805D01*
X128387Y808003D01*
X128380Y808212D01*
X128380Y812362D01*
X130314Y812362D01*
X130314Y811708D01*
X129177Y811708D01*
X129177Y808196D01*
X129193Y807924D01*
X129240Y807686D01*
X129319Y807484D01*
X129429Y807317D01*
X129566Y807185D01*
X129727Y807091D01*
X129910Y807035D01*
X130117Y807016D01*
X130308Y807034D01*
X130482Y807085D01*
X130639Y807170D01*
X130780Y807289D01*
X130900Y807439D01*
X130997Y807615D01*
X131070Y807819D01*
X131120Y808049D01*
X131905Y807919D01*
X131815Y807555D01*
X131688Y807239D01*
X131522Y806973D01*
X131318Y806754D01*
X131076Y806584D01*
X130796Y806463D01*
X130478Y806390D01*
X130304Y806372D01*
X130121Y806366D01*
G37*
G36*
X145402Y806366D02*
X145205Y806374D01*
X145019Y806397D01*
X144843Y806435D01*
X144679Y806489D01*
X144524Y806559D01*
X144381Y806643D01*
X144249Y806744D01*
X144127Y806859D01*
X144018Y806988D01*
X143923Y807129D01*
X143843Y807281D01*
X143777Y807444D01*
X143726Y807619D01*
X143690Y807805D01*
X143668Y808003D01*
X143661Y808212D01*
X143661Y812362D01*
X145595Y812362D01*
X145595Y811708D01*
X144458Y811708D01*
X144458Y808196D01*
X144474Y807924D01*
X144521Y807686D01*
X144600Y807484D01*
X144710Y807317D01*
X144847Y807185D01*
X145008Y807091D01*
X145192Y807035D01*
X145398Y807016D01*
X145589Y807034D01*
X145763Y807085D01*
X145921Y807170D01*
X146061Y807289D01*
X146182Y807439D01*
X146278Y807615D01*
X146352Y807819D01*
X146401Y808049D01*
X147186Y807919D01*
X147096Y807555D01*
X146969Y807239D01*
X146803Y806973D01*
X146599Y806754D01*
X146357Y806584D01*
X146077Y806463D01*
X145759Y806390D01*
X145585Y806372D01*
X145402Y806366D01*
G37*
G36*
X96490Y806450D02*
X92701Y806450D01*
X92701Y807105D01*
X95689Y807105D01*
X95689Y812362D01*
X96490Y812362D01*
X96490Y806450D01*
G37*
G36*
X111771Y806450D02*
X107982Y806450D01*
X107982Y807105D01*
X110970Y807105D01*
X110970Y812362D01*
X111771Y812362D01*
X111771Y806450D01*
G37*
G36*
X127053Y806450D02*
X123263Y806450D01*
X123263Y807105D01*
X126251Y807105D01*
X126251Y812362D01*
X127053Y812362D01*
X127053Y806450D01*
G37*
G36*
X142334Y806450D02*
X138545Y806450D01*
X138545Y807105D01*
X141532Y807105D01*
X141532Y812362D01*
X142334Y812362D01*
X142334Y806450D01*
G37*
M02*
