G04 EAGLE Gerber RS-274X export*
G75*
%MOMM*%
%FSLAX34Y34*%
%LPD*%
%INSilkscreen Top*%
%IPPOS*%
%AMOC8*
5,1,8,0,0,1.08239X$1,22.5*%
G01*
G04 Define Apertures*
%ADD10C,0.203200*%
%ADD11C,0.120000*%
%ADD12C,0.050000*%
%ADD13C,0.152400*%
%ADD14C,0.127000*%
%ADD15C,0.200000*%
%ADD16C,0.076200*%
G36*
X122400Y773346D02*
X122153Y773358D01*
X121922Y773395D01*
X121707Y773455D01*
X121508Y773540D01*
X121324Y773649D01*
X121157Y773783D01*
X121005Y773940D01*
X120869Y774122D01*
X120749Y774328D01*
X120645Y774555D01*
X120557Y774805D01*
X120485Y775077D01*
X120429Y775371D01*
X120389Y775688D01*
X120365Y776027D01*
X120357Y776388D01*
X120365Y776757D01*
X120388Y777102D01*
X120427Y777423D01*
X120481Y777721D01*
X120551Y777994D01*
X120637Y778244D01*
X120738Y778469D01*
X120854Y778671D01*
X120988Y778849D01*
X121139Y779003D01*
X121308Y779134D01*
X121496Y779241D01*
X121701Y779324D01*
X121925Y779383D01*
X122166Y779419D01*
X122426Y779431D01*
X122678Y779419D01*
X122914Y779383D01*
X123132Y779323D01*
X123334Y779239D01*
X123518Y779131D01*
X123685Y778999D01*
X123835Y778843D01*
X123968Y778663D01*
X124084Y778459D01*
X124185Y778233D01*
X124271Y777983D01*
X124341Y777710D01*
X124395Y777414D01*
X124434Y777095D01*
X124457Y776753D01*
X124465Y776388D01*
X124457Y776029D01*
X124432Y775691D01*
X124392Y775376D01*
X124334Y775082D01*
X124261Y774810D01*
X124171Y774561D01*
X124065Y774333D01*
X123943Y774127D01*
X123804Y773944D01*
X123650Y773785D01*
X123481Y773651D01*
X123296Y773541D01*
X123095Y773456D01*
X122879Y773395D01*
X122648Y773358D01*
X122400Y773346D01*
G37*
%LPC*%
G36*
X122409Y773963D02*
X122570Y773972D01*
X122720Y774000D01*
X122859Y774047D01*
X122987Y774112D01*
X123104Y774196D01*
X123209Y774298D01*
X123303Y774419D01*
X123387Y774559D01*
X123459Y774718D01*
X123522Y774897D01*
X123619Y775314D01*
X123678Y775811D01*
X123697Y776388D01*
X123679Y776984D01*
X123623Y777492D01*
X123531Y777912D01*
X123471Y778088D01*
X123401Y778243D01*
X123321Y778378D01*
X123229Y778495D01*
X123125Y778593D01*
X123009Y778674D01*
X122881Y778737D01*
X122742Y778782D01*
X122590Y778809D01*
X122426Y778818D01*
X122258Y778809D01*
X122102Y778782D01*
X121958Y778738D01*
X121827Y778676D01*
X121708Y778597D01*
X121602Y778499D01*
X121507Y778384D01*
X121425Y778251D01*
X121354Y778098D01*
X121292Y777923D01*
X121239Y777724D01*
X121197Y777502D01*
X121140Y776991D01*
X121121Y776388D01*
X121140Y775801D01*
X121198Y775298D01*
X121241Y775079D01*
X121294Y774880D01*
X121357Y774703D01*
X121429Y774546D01*
X121512Y774409D01*
X121606Y774291D01*
X121711Y774191D01*
X121828Y774109D01*
X121956Y774045D01*
X122096Y773999D01*
X122247Y773972D01*
X122409Y773963D01*
G37*
%LPD*%
G36*
X117472Y773346D02*
X117143Y773364D01*
X116849Y773419D01*
X116588Y773510D01*
X116362Y773638D01*
X116169Y773806D01*
X116004Y774019D01*
X115870Y774277D01*
X115765Y774580D01*
X116486Y774693D01*
X116551Y774520D01*
X116634Y774370D01*
X116733Y774243D01*
X116849Y774139D01*
X116983Y774058D01*
X117133Y774001D01*
X117300Y773966D01*
X117485Y773955D01*
X117643Y773964D01*
X117792Y773992D01*
X117931Y774039D01*
X118062Y774106D01*
X118183Y774191D01*
X118295Y774294D01*
X118398Y774417D01*
X118492Y774559D01*
X118576Y774718D01*
X118649Y774893D01*
X118712Y775085D01*
X118764Y775292D01*
X118836Y775755D01*
X118865Y776283D01*
X118767Y776104D01*
X118638Y775943D01*
X118479Y775801D01*
X118291Y775677D01*
X118082Y775577D01*
X117864Y775506D01*
X117635Y775463D01*
X117397Y775448D01*
X117202Y775457D01*
X117018Y775482D01*
X116844Y775525D01*
X116679Y775585D01*
X116525Y775661D01*
X116380Y775755D01*
X116246Y775866D01*
X116121Y775994D01*
X116009Y776136D01*
X115912Y776289D01*
X115830Y776453D01*
X115762Y776629D01*
X115710Y776815D01*
X115673Y777013D01*
X115650Y777222D01*
X115643Y777442D01*
X115651Y777667D01*
X115675Y777880D01*
X115716Y778081D01*
X115773Y778270D01*
X115846Y778446D01*
X115936Y778610D01*
X116041Y778761D01*
X116163Y778900D01*
X116300Y779024D01*
X116449Y779132D01*
X116611Y779223D01*
X116785Y779298D01*
X116973Y779356D01*
X117173Y779397D01*
X117385Y779422D01*
X117611Y779431D01*
X117850Y779419D01*
X118074Y779385D01*
X118283Y779328D01*
X118477Y779248D01*
X118657Y779145D01*
X118821Y779020D01*
X118970Y778872D01*
X119105Y778700D01*
X119224Y778506D01*
X119327Y778289D01*
X119414Y778050D01*
X119485Y777787D01*
X119541Y777501D01*
X119581Y777192D01*
X119604Y776860D01*
X119612Y776506D01*
X119604Y776136D01*
X119578Y775788D01*
X119534Y775463D01*
X119473Y775159D01*
X119395Y774877D01*
X119300Y774618D01*
X119187Y774380D01*
X119056Y774164D01*
X118910Y773973D01*
X118749Y773806D01*
X118573Y773666D01*
X118382Y773551D01*
X118177Y773461D01*
X117957Y773397D01*
X117722Y773359D01*
X117472Y773346D01*
G37*
%LPC*%
G36*
X117577Y776044D02*
X117738Y776054D01*
X117893Y776081D01*
X118042Y776128D01*
X118186Y776193D01*
X118319Y776275D01*
X118437Y776373D01*
X118540Y776486D01*
X118628Y776615D01*
X118699Y776756D01*
X118750Y776907D01*
X118780Y777067D01*
X118790Y777236D01*
X118770Y777575D01*
X118708Y777880D01*
X118606Y778149D01*
X118463Y778384D01*
X118285Y778574D01*
X118080Y778709D01*
X117967Y778757D01*
X117847Y778791D01*
X117720Y778811D01*
X117586Y778818D01*
X117327Y778795D01*
X117098Y778725D01*
X116897Y778609D01*
X116725Y778447D01*
X116588Y778244D01*
X116489Y778010D01*
X116430Y777742D01*
X116411Y777442D01*
X116430Y777135D01*
X116489Y776863D01*
X116588Y776624D01*
X116725Y776420D01*
X116897Y776255D01*
X117096Y776138D01*
X117323Y776068D01*
X117577Y776044D01*
G37*
%LPD*%
G36*
X112886Y773346D02*
X112667Y773352D01*
X112460Y773371D01*
X112264Y773403D01*
X112079Y773447D01*
X111905Y773504D01*
X111743Y773574D01*
X111592Y773656D01*
X111453Y773751D01*
X111326Y773858D01*
X111213Y773978D01*
X111113Y774109D01*
X111027Y774253D01*
X110954Y774409D01*
X110895Y774577D01*
X110849Y774757D01*
X110817Y774949D01*
X111598Y775020D01*
X111651Y774774D01*
X111735Y774561D01*
X111850Y774381D01*
X111995Y774234D01*
X112172Y774119D01*
X112379Y774037D01*
X112617Y773988D01*
X112886Y773971D01*
X113156Y773989D01*
X113395Y774042D01*
X113604Y774129D01*
X113782Y774252D01*
X113924Y774410D01*
X114026Y774602D01*
X114087Y774828D01*
X114107Y775087D01*
X114084Y775316D01*
X114014Y775517D01*
X113898Y775692D01*
X113736Y775841D01*
X113529Y775959D01*
X113282Y776044D01*
X112993Y776094D01*
X112664Y776111D01*
X112236Y776111D01*
X112236Y776766D01*
X112647Y776766D01*
X112940Y776783D01*
X113198Y776834D01*
X113421Y776918D01*
X113610Y777037D01*
X113759Y777185D01*
X113866Y777359D01*
X113930Y777559D01*
X113952Y777786D01*
X113934Y778010D01*
X113882Y778210D01*
X113795Y778385D01*
X113673Y778535D01*
X113516Y778655D01*
X113326Y778741D01*
X113102Y778792D01*
X112844Y778809D01*
X112606Y778793D01*
X112392Y778745D01*
X112202Y778666D01*
X112036Y778554D01*
X111898Y778412D01*
X111792Y778245D01*
X111719Y778052D01*
X111678Y777832D01*
X110918Y777891D01*
X110946Y778067D01*
X110987Y778234D01*
X111042Y778390D01*
X111111Y778537D01*
X111193Y778673D01*
X111288Y778800D01*
X111397Y778917D01*
X111520Y779023D01*
X111798Y779202D01*
X111950Y779272D01*
X112112Y779329D01*
X112284Y779373D01*
X112464Y779405D01*
X112654Y779424D01*
X112852Y779431D01*
X113069Y779424D01*
X113272Y779405D01*
X113464Y779372D01*
X113643Y779327D01*
X113810Y779269D01*
X113964Y779198D01*
X114106Y779114D01*
X114235Y779017D01*
X114351Y778909D01*
X114451Y778790D01*
X114536Y778661D01*
X114605Y778523D01*
X114659Y778374D01*
X114697Y778214D01*
X114720Y778045D01*
X114728Y777865D01*
X114708Y777595D01*
X114649Y777352D01*
X114550Y777135D01*
X114411Y776944D01*
X114235Y776781D01*
X114023Y776647D01*
X113774Y776541D01*
X113490Y776464D01*
X113490Y776447D01*
X113803Y776392D01*
X114080Y776300D01*
X114320Y776170D01*
X114523Y776002D01*
X114684Y775803D01*
X114799Y775581D01*
X114869Y775333D01*
X114892Y775062D01*
X114884Y774864D01*
X114859Y774676D01*
X114819Y774501D01*
X114762Y774336D01*
X114689Y774184D01*
X114599Y774043D01*
X114493Y773913D01*
X114371Y773795D01*
X114234Y773690D01*
X114083Y773599D01*
X113919Y773521D01*
X113740Y773458D01*
X113547Y773409D01*
X113341Y773374D01*
X113120Y773353D01*
X112886Y773346D01*
G37*
G36*
X139209Y773346D02*
X138962Y773358D01*
X138731Y773395D01*
X138516Y773455D01*
X138316Y773540D01*
X138133Y773649D01*
X137965Y773783D01*
X137814Y773940D01*
X137678Y774122D01*
X137558Y774328D01*
X137454Y774555D01*
X137366Y774805D01*
X137294Y775077D01*
X137238Y775371D01*
X137198Y775688D01*
X137174Y776027D01*
X137166Y776388D01*
X137173Y776757D01*
X137197Y777102D01*
X137236Y777423D01*
X137290Y777721D01*
X137360Y777994D01*
X137445Y778244D01*
X137546Y778469D01*
X137663Y778671D01*
X137796Y778849D01*
X137948Y779003D01*
X138117Y779134D01*
X138304Y779241D01*
X138510Y779324D01*
X138733Y779383D01*
X138975Y779419D01*
X139234Y779431D01*
X139487Y779419D01*
X139723Y779383D01*
X139941Y779323D01*
X140142Y779239D01*
X140327Y779131D01*
X140494Y778999D01*
X140644Y778843D01*
X140776Y778663D01*
X140893Y778459D01*
X140994Y778233D01*
X141080Y777983D01*
X141149Y777710D01*
X141204Y777414D01*
X141243Y777095D01*
X141266Y776753D01*
X141274Y776388D01*
X141266Y776029D01*
X141241Y775691D01*
X141200Y775376D01*
X141143Y775082D01*
X141070Y774810D01*
X140980Y774561D01*
X140874Y774333D01*
X140751Y774127D01*
X140613Y773944D01*
X140459Y773785D01*
X140290Y773651D01*
X140105Y773541D01*
X139904Y773456D01*
X139688Y773395D01*
X139456Y773358D01*
X139209Y773346D01*
G37*
%LPC*%
G36*
X139218Y773963D02*
X139379Y773972D01*
X139529Y774000D01*
X139668Y774047D01*
X139796Y774112D01*
X139912Y774196D01*
X140018Y774298D01*
X140112Y774419D01*
X140195Y774559D01*
X140268Y774718D01*
X140331Y774897D01*
X140428Y775314D01*
X140486Y775811D01*
X140506Y776388D01*
X140487Y776984D01*
X140432Y777492D01*
X140339Y777912D01*
X140279Y778088D01*
X140210Y778243D01*
X140130Y778378D01*
X140038Y778495D01*
X139934Y778593D01*
X139818Y778674D01*
X139690Y778737D01*
X139550Y778782D01*
X139398Y778809D01*
X139234Y778818D01*
X139066Y778809D01*
X138911Y778782D01*
X138767Y778738D01*
X138636Y778676D01*
X138517Y778597D01*
X138410Y778499D01*
X138316Y778384D01*
X138234Y778251D01*
X138162Y778098D01*
X138101Y777923D01*
X138048Y777724D01*
X138005Y777502D01*
X137948Y776991D01*
X137929Y776388D01*
X137949Y775801D01*
X138007Y775298D01*
X138050Y775079D01*
X138103Y774880D01*
X138166Y774703D01*
X138238Y774546D01*
X138321Y774409D01*
X138415Y774291D01*
X138520Y774191D01*
X138637Y774109D01*
X138765Y774045D01*
X138905Y773999D01*
X139055Y773972D01*
X139218Y773963D01*
G37*
%LPD*%
G36*
X143118Y773430D02*
X142316Y773430D01*
X142316Y779342D01*
X143118Y779342D01*
X143118Y776380D01*
X145967Y779342D01*
X146911Y779342D01*
X144393Y776774D01*
X147247Y773430D01*
X146252Y773430D01*
X143890Y776283D01*
X143118Y775696D01*
X143118Y773430D01*
G37*
G36*
X136440Y773430D02*
X132735Y773430D01*
X132735Y774072D01*
X134241Y774072D01*
X134241Y778621D01*
X132907Y777668D01*
X132907Y778381D01*
X134304Y779342D01*
X135001Y779342D01*
X135001Y774072D01*
X136440Y774072D01*
X136440Y773430D01*
G37*
G36*
X187654Y773524D02*
X185253Y773524D01*
X185253Y779436D01*
X187402Y779436D01*
X187890Y779414D01*
X188109Y779386D01*
X188312Y779347D01*
X188499Y779296D01*
X188670Y779235D01*
X188825Y779162D01*
X188963Y779078D01*
X189085Y778982D01*
X189191Y778876D01*
X189280Y778758D01*
X189353Y778629D01*
X189410Y778489D01*
X189451Y778338D01*
X189475Y778175D01*
X189483Y778001D01*
X189465Y777750D01*
X189410Y777519D01*
X189318Y777309D01*
X189189Y777120D01*
X189064Y776993D01*
X189027Y776956D01*
X188835Y776822D01*
X188612Y776717D01*
X188359Y776642D01*
X188691Y776581D01*
X188983Y776482D01*
X189234Y776345D01*
X189394Y776212D01*
X189445Y776170D01*
X189613Y775963D01*
X189732Y775731D01*
X189803Y775473D01*
X189827Y775190D01*
X189818Y774998D01*
X189791Y774817D01*
X189746Y774647D01*
X189684Y774489D01*
X189603Y774341D01*
X189504Y774204D01*
X189387Y774078D01*
X189252Y773962D01*
X189102Y773860D01*
X188937Y773771D01*
X188758Y773695D01*
X188565Y773634D01*
X188358Y773586D01*
X188138Y773551D01*
X187903Y773531D01*
X187654Y773524D01*
G37*
%LPC*%
G36*
X187612Y774166D02*
X187954Y774183D01*
X188246Y774234D01*
X188489Y774319D01*
X188682Y774439D01*
X188829Y774592D01*
X188934Y774779D01*
X188996Y774999D01*
X189017Y775253D01*
X188995Y775498D01*
X188926Y775710D01*
X188811Y775890D01*
X188650Y776036D01*
X188444Y776151D01*
X188191Y776232D01*
X187893Y776281D01*
X187549Y776298D01*
X186055Y776298D01*
X186055Y774166D01*
X187612Y774166D01*
G37*
G36*
X187402Y776923D02*
X187703Y776938D01*
X187963Y776983D01*
X188182Y777059D01*
X188361Y777164D01*
X188499Y777301D01*
X188598Y777470D01*
X188658Y777671D01*
X188678Y777905D01*
X188657Y778127D01*
X188596Y778315D01*
X188493Y778469D01*
X188350Y778589D01*
X188168Y778679D01*
X187950Y778743D01*
X187694Y778782D01*
X187402Y778794D01*
X186055Y778794D01*
X186055Y776923D01*
X187402Y776923D01*
G37*
%LPD*%
G36*
X203628Y773440D02*
X203397Y773447D01*
X203180Y773468D01*
X202975Y773503D01*
X202783Y773552D01*
X202604Y773615D01*
X202438Y773693D01*
X202285Y773784D01*
X202145Y773889D01*
X202019Y774007D01*
X201910Y774137D01*
X201818Y774279D01*
X201743Y774432D01*
X201685Y774598D01*
X201643Y774775D01*
X201618Y774964D01*
X201609Y775165D01*
X201630Y775443D01*
X201692Y775698D01*
X201796Y775929D01*
X201941Y776138D01*
X202118Y776316D01*
X202319Y776455D01*
X202542Y776555D01*
X202789Y776617D01*
X202789Y776633D01*
X202560Y776707D01*
X202357Y776813D01*
X202179Y776952D01*
X202027Y777124D01*
X201905Y777321D01*
X201818Y777534D01*
X201765Y777764D01*
X201748Y778010D01*
X201756Y778175D01*
X201780Y778331D01*
X201819Y778480D01*
X201874Y778621D01*
X201945Y778754D01*
X202032Y778879D01*
X202135Y778996D01*
X202254Y779105D01*
X202385Y779203D01*
X202528Y779288D01*
X202682Y779361D01*
X202846Y779420D01*
X203021Y779466D01*
X203207Y779498D01*
X203404Y779518D01*
X203611Y779525D01*
X203824Y779518D01*
X204025Y779499D01*
X204214Y779467D01*
X204392Y779422D01*
X204559Y779364D01*
X204714Y779293D01*
X204857Y779210D01*
X204990Y779113D01*
X205108Y779006D01*
X205211Y778890D01*
X205298Y778764D01*
X205369Y778630D01*
X205424Y778486D01*
X205464Y778334D01*
X205487Y778172D01*
X205495Y778001D01*
X205478Y777756D01*
X205425Y777526D01*
X205337Y777313D01*
X205214Y777116D01*
X205061Y776945D01*
X205052Y776938D01*
X204881Y776809D01*
X204677Y776708D01*
X204446Y776642D01*
X204446Y776625D01*
X204714Y776560D01*
X204950Y776459D01*
X205154Y776320D01*
X205312Y776160D01*
X205327Y776145D01*
X205465Y775938D01*
X205563Y775708D01*
X205622Y775453D01*
X205642Y775173D01*
X205634Y774974D01*
X205609Y774787D01*
X205569Y774610D01*
X205512Y774445D01*
X205439Y774291D01*
X205349Y774149D01*
X205244Y774017D01*
X205122Y773897D01*
X204985Y773790D01*
X204833Y773697D01*
X204668Y773619D01*
X204488Y773554D01*
X204294Y773504D01*
X204086Y773469D01*
X203864Y773447D01*
X203628Y773440D01*
G37*
%LPC*%
G36*
X203636Y774007D02*
X203925Y774025D01*
X204174Y774081D01*
X204384Y774173D01*
X204555Y774302D01*
X204687Y774472D01*
X204782Y774686D01*
X204838Y774943D01*
X204857Y775244D01*
X204837Y775502D01*
X204775Y775726D01*
X204673Y775917D01*
X204530Y776073D01*
X204350Y776195D01*
X204137Y776282D01*
X203890Y776335D01*
X203611Y776352D01*
X203339Y776333D01*
X203099Y776277D01*
X202890Y776183D01*
X202713Y776052D01*
X202572Y775888D01*
X202471Y775696D01*
X202410Y775476D01*
X202390Y775228D01*
X202409Y774941D01*
X202468Y774693D01*
X202565Y774484D01*
X202702Y774312D01*
X202877Y774178D01*
X203091Y774083D01*
X203344Y774026D01*
X203636Y774007D01*
G37*
G36*
X203619Y776919D02*
X203870Y776934D01*
X204089Y776980D01*
X204276Y777057D01*
X204431Y777164D01*
X204553Y777306D01*
X204641Y777486D01*
X204693Y777704D01*
X204710Y777959D01*
X204693Y778194D01*
X204642Y778398D01*
X204556Y778570D01*
X204436Y778712D01*
X204281Y778821D01*
X204092Y778900D01*
X203869Y778947D01*
X203611Y778962D01*
X203360Y778946D01*
X203142Y778899D01*
X202954Y778821D01*
X202799Y778710D01*
X202677Y778569D01*
X202590Y778397D01*
X202537Y778194D01*
X202520Y777959D01*
X202538Y777721D01*
X202592Y777512D01*
X202682Y777333D01*
X202807Y777185D01*
X202966Y777069D01*
X203154Y776985D01*
X203372Y776935D01*
X203619Y776919D01*
G37*
%LPD*%
G36*
X209714Y773524D02*
X209001Y773524D01*
X209001Y774863D01*
X206215Y774863D01*
X206215Y775450D01*
X208921Y779436D01*
X209714Y779436D01*
X209714Y775458D01*
X210545Y775458D01*
X210545Y774863D01*
X209714Y774863D01*
X209714Y773524D01*
G37*
%LPC*%
G36*
X209001Y775458D02*
X209001Y778585D01*
X208883Y778362D01*
X208720Y778085D01*
X207205Y775853D01*
X206978Y775542D01*
X206911Y775458D01*
X209001Y775458D01*
G37*
%LPD*%
G36*
X195248Y773524D02*
X190540Y773524D01*
X190540Y774124D01*
X194140Y778782D01*
X190846Y778782D01*
X190846Y779436D01*
X195051Y779436D01*
X195051Y778853D01*
X191451Y774179D01*
X195248Y774179D01*
X195248Y773524D01*
G37*
G36*
X196596Y773524D02*
X195710Y773524D01*
X197959Y776596D01*
X195882Y779436D01*
X196768Y779436D01*
X198413Y777116D01*
X200011Y779436D01*
X200897Y779436D01*
X198874Y776625D01*
X201069Y773524D01*
X200183Y773524D01*
X198408Y776109D01*
X196596Y773524D01*
G37*
G36*
X161273Y775914D02*
X160975Y775933D01*
X160711Y775989D01*
X160481Y776082D01*
X160286Y776213D01*
X160130Y776378D01*
X160019Y776575D01*
X159952Y776802D01*
X159930Y777062D01*
X159944Y777247D01*
X159985Y777416D01*
X160054Y777571D01*
X160150Y777710D01*
X160268Y777828D01*
X160402Y777920D01*
X160550Y777987D01*
X160714Y778028D01*
X160714Y778039D01*
X160562Y778088D01*
X160427Y778159D01*
X160309Y778251D01*
X160208Y778366D01*
X160126Y778497D01*
X160068Y778639D01*
X160034Y778792D01*
X160022Y778955D01*
X160043Y779169D01*
X160106Y779362D01*
X160211Y779534D01*
X160358Y779684D01*
X160541Y779806D01*
X160752Y779893D01*
X160993Y779946D01*
X161262Y779963D01*
X161537Y779946D01*
X161781Y779895D01*
X161996Y779809D01*
X162179Y779689D01*
X162326Y779541D01*
X162431Y779368D01*
X162494Y779171D01*
X162515Y778949D01*
X162504Y778786D01*
X162469Y778633D01*
X162410Y778491D01*
X162328Y778360D01*
X162226Y778246D01*
X162221Y778242D01*
X162107Y778156D01*
X161971Y778089D01*
X161817Y778045D01*
X161817Y778034D01*
X161995Y777991D01*
X162152Y777923D01*
X162289Y777831D01*
X162394Y777724D01*
X162404Y777714D01*
X162495Y777577D01*
X162561Y777423D01*
X162600Y777253D01*
X162613Y777067D01*
X162592Y776810D01*
X162527Y776583D01*
X162418Y776386D01*
X162267Y776219D01*
X162075Y776085D01*
X161845Y775990D01*
X161578Y775933D01*
X161273Y775914D01*
G37*
%LPC*%
G36*
X161278Y776291D02*
X161471Y776303D01*
X161637Y776340D01*
X161776Y776402D01*
X161890Y776488D01*
X161978Y776601D01*
X162041Y776743D01*
X162078Y776914D01*
X162091Y777115D01*
X162077Y777287D01*
X162037Y777436D01*
X161969Y777562D01*
X161873Y777666D01*
X161753Y777748D01*
X161611Y777806D01*
X161448Y777840D01*
X161262Y777852D01*
X161081Y777840D01*
X160921Y777802D01*
X160782Y777740D01*
X160664Y777652D01*
X160570Y777543D01*
X160503Y777415D01*
X160463Y777269D01*
X160449Y777104D01*
X160462Y776913D01*
X160501Y776748D01*
X160566Y776609D01*
X160656Y776494D01*
X160773Y776405D01*
X160916Y776342D01*
X161084Y776304D01*
X161278Y776291D01*
G37*
G36*
X161267Y778229D02*
X161434Y778239D01*
X161580Y778270D01*
X161704Y778321D01*
X161808Y778392D01*
X161889Y778487D01*
X161947Y778606D01*
X161982Y778751D01*
X161993Y778922D01*
X161982Y779078D01*
X161948Y779213D01*
X161890Y779328D01*
X161810Y779422D01*
X161708Y779495D01*
X161582Y779547D01*
X161433Y779578D01*
X161262Y779589D01*
X161095Y779578D01*
X160949Y779547D01*
X160825Y779495D01*
X160721Y779421D01*
X160640Y779327D01*
X160582Y779213D01*
X160547Y779077D01*
X160536Y778922D01*
X160548Y778763D01*
X160584Y778624D01*
X160643Y778505D01*
X160727Y778406D01*
X160832Y778329D01*
X160958Y778273D01*
X161103Y778240D01*
X161267Y778229D01*
G37*
%LPD*%
G36*
X171064Y775970D02*
X170428Y775970D01*
X169269Y779904D01*
X169825Y779904D01*
X170531Y777405D01*
X170763Y776439D01*
X170918Y777109D01*
X171693Y779904D01*
X172204Y779904D01*
X172888Y777456D01*
X173134Y776439D01*
X173159Y776537D01*
X173282Y777060D01*
X174066Y779904D01*
X174622Y779904D01*
X173463Y775970D01*
X172826Y775970D01*
X172145Y778469D01*
X171950Y779310D01*
X171827Y778768D01*
X171064Y775970D01*
G37*
G36*
X167542Y775914D02*
X167323Y775926D01*
X167127Y775963D01*
X166954Y776023D01*
X166803Y776108D01*
X166674Y776220D01*
X166565Y776362D01*
X166475Y776534D01*
X166405Y776735D01*
X166886Y776810D01*
X166929Y776695D01*
X166984Y776595D01*
X167050Y776511D01*
X167127Y776442D01*
X167216Y776388D01*
X167316Y776350D01*
X167427Y776327D01*
X167550Y776319D01*
X167655Y776325D01*
X167754Y776344D01*
X167934Y776420D01*
X168089Y776545D01*
X168220Y776721D01*
X168325Y776944D01*
X168401Y777209D01*
X168449Y777517D01*
X168469Y777869D01*
X168403Y777749D01*
X168317Y777642D01*
X168212Y777548D01*
X168086Y777465D01*
X167948Y777399D01*
X167802Y777351D01*
X167650Y777323D01*
X167492Y777313D01*
X167240Y777336D01*
X167014Y777404D01*
X166815Y777517D01*
X166643Y777676D01*
X166503Y777872D01*
X166404Y778098D01*
X166344Y778354D01*
X166324Y778639D01*
X166346Y778932D01*
X166411Y779191D01*
X166519Y779417D01*
X166671Y779610D01*
X166861Y779764D01*
X167085Y779875D01*
X167342Y779941D01*
X167634Y779963D01*
X167793Y779955D01*
X167942Y779933D01*
X168081Y779895D01*
X168211Y779842D01*
X168330Y779773D01*
X168439Y779690D01*
X168539Y779591D01*
X168628Y779477D01*
X168707Y779348D01*
X168776Y779204D01*
X168881Y778869D01*
X168945Y778474D01*
X168966Y778017D01*
X168943Y777539D01*
X168914Y777323D01*
X168873Y777120D01*
X168821Y776933D01*
X168758Y776760D01*
X168683Y776602D01*
X168596Y776459D01*
X168498Y776331D01*
X168391Y776220D01*
X168274Y776127D01*
X168147Y776050D01*
X168011Y775991D01*
X167864Y775948D01*
X167708Y775923D01*
X167542Y775914D01*
G37*
%LPC*%
G36*
X167612Y777710D02*
X167822Y777734D01*
X168016Y777809D01*
X168184Y777928D01*
X168311Y778089D01*
X168392Y778283D01*
X168412Y778390D01*
X168419Y778503D01*
X168405Y778728D01*
X168364Y778931D01*
X168296Y779110D01*
X168201Y779266D01*
X168083Y779393D01*
X167946Y779483D01*
X167791Y779537D01*
X167617Y779555D01*
X167445Y779540D01*
X167293Y779494D01*
X167159Y779416D01*
X167045Y779308D01*
X166953Y779174D01*
X166888Y779018D01*
X166848Y778839D01*
X166835Y778639D01*
X166848Y778436D01*
X166888Y778254D01*
X166953Y778096D01*
X167045Y777960D01*
X167159Y777850D01*
X167291Y777772D01*
X167442Y777725D01*
X167612Y777710D01*
G37*
%LPD*%
G36*
X153344Y775970D02*
X152869Y775970D01*
X152869Y779904D01*
X153489Y779904D01*
X155617Y776531D01*
X155583Y777324D01*
X155583Y779904D01*
X156064Y779904D01*
X156064Y775970D01*
X155421Y775970D01*
X153316Y779321D01*
X153330Y779050D01*
X153344Y778584D01*
X153344Y775970D01*
G37*
G36*
X176545Y775914D02*
X176205Y775930D01*
X175902Y775977D01*
X175637Y776055D01*
X175410Y776164D01*
X175220Y776305D01*
X175068Y776476D01*
X174955Y776680D01*
X174878Y776914D01*
X175395Y777017D01*
X175452Y776852D01*
X175535Y776710D01*
X175642Y776591D01*
X175775Y776496D01*
X175933Y776424D01*
X176118Y776372D01*
X176328Y776341D01*
X176565Y776330D01*
X176809Y776341D01*
X177023Y776375D01*
X177207Y776430D01*
X177362Y776508D01*
X177485Y776607D01*
X177573Y776726D01*
X177625Y776867D01*
X177643Y777028D01*
X177621Y777203D01*
X177555Y777341D01*
X177449Y777451D01*
X177308Y777539D01*
X177133Y777611D01*
X176928Y777671D01*
X176439Y777785D01*
X176029Y777888D01*
X175732Y777992D01*
X175515Y778101D01*
X175350Y778222D01*
X175227Y778360D01*
X175137Y778519D01*
X175081Y778702D01*
X175063Y778910D01*
X175087Y779149D01*
X175159Y779358D01*
X175280Y779538D01*
X175449Y779689D01*
X175664Y779809D01*
X175920Y779895D01*
X176217Y779946D01*
X176557Y779963D01*
X176872Y779950D01*
X177148Y779912D01*
X177384Y779848D01*
X177581Y779758D01*
X177745Y779637D01*
X177883Y779480D01*
X177994Y779287D01*
X178078Y779058D01*
X177554Y778966D01*
X177500Y779112D01*
X177428Y779236D01*
X177336Y779339D01*
X177224Y779420D01*
X177091Y779482D01*
X176934Y779526D01*
X176754Y779552D01*
X176551Y779561D01*
X176329Y779551D01*
X176135Y779522D01*
X175969Y779473D01*
X175831Y779405D01*
X175722Y779317D01*
X175644Y779210D01*
X175598Y779084D01*
X175582Y778938D01*
X175606Y778772D01*
X175678Y778638D01*
X175796Y778528D01*
X175956Y778437D01*
X176228Y778345D01*
X176680Y778235D01*
X177041Y778149D01*
X177386Y778046D01*
X177695Y777905D01*
X177829Y777815D01*
X177944Y777707D01*
X178039Y777579D01*
X178111Y777430D01*
X178156Y777257D01*
X178171Y777056D01*
X178164Y776924D01*
X178144Y776799D01*
X178111Y776682D01*
X178064Y776573D01*
X177931Y776378D01*
X177745Y776213D01*
X177510Y776082D01*
X177232Y775989D01*
X176910Y775933D01*
X176545Y775914D01*
G37*
G36*
X158069Y775914D02*
X157807Y775929D01*
X157572Y775974D01*
X157363Y776049D01*
X157181Y776154D01*
X157028Y776288D01*
X156905Y776448D01*
X156814Y776635D01*
X156754Y776850D01*
X157262Y776908D01*
X157310Y776771D01*
X157373Y776653D01*
X157452Y776553D01*
X157546Y776471D01*
X157656Y776407D01*
X157782Y776361D01*
X157923Y776334D01*
X158080Y776325D01*
X158272Y776340D01*
X158441Y776386D01*
X158589Y776462D01*
X158714Y776569D01*
X158814Y776703D01*
X158886Y776859D01*
X158929Y777038D01*
X158943Y777241D01*
X158929Y777417D01*
X158886Y777576D01*
X158814Y777717D01*
X158713Y777841D01*
X158588Y777941D01*
X158442Y778013D01*
X158277Y778056D01*
X158092Y778070D01*
X157895Y778054D01*
X157712Y778006D01*
X157536Y777919D01*
X157360Y777788D01*
X156868Y777788D01*
X157000Y779904D01*
X159236Y779904D01*
X159236Y779477D01*
X157458Y779477D01*
X157382Y778229D01*
X157556Y778339D01*
X157749Y778418D01*
X157962Y778465D01*
X158195Y778480D01*
X158470Y778459D01*
X158717Y778395D01*
X158933Y778289D01*
X159120Y778140D01*
X159271Y777956D01*
X159379Y777747D01*
X159444Y777512D01*
X159465Y777252D01*
X159442Y776957D01*
X159373Y776695D01*
X159257Y776467D01*
X159095Y776272D01*
X158892Y776115D01*
X158654Y776004D01*
X158379Y775937D01*
X158069Y775914D01*
G37*
G36*
X165770Y775970D02*
X163304Y775970D01*
X163304Y776397D01*
X164307Y776397D01*
X164307Y779424D01*
X163419Y778790D01*
X163419Y779265D01*
X164349Y779904D01*
X164812Y779904D01*
X164812Y776397D01*
X165770Y776397D01*
X165770Y775970D01*
G37*
G36*
X116900Y621110D02*
X115583Y621110D01*
X115583Y630828D01*
X120156Y630828D01*
X120554Y630816D01*
X120930Y630782D01*
X121282Y630725D01*
X121610Y630644D01*
X121915Y630541D01*
X122197Y630415D01*
X122455Y630265D01*
X122690Y630093D01*
X122900Y629901D01*
X123081Y629690D01*
X123235Y629461D01*
X123360Y629215D01*
X123458Y628950D01*
X123528Y628668D01*
X123569Y628367D01*
X123583Y628048D01*
X123574Y627783D01*
X123544Y627528D01*
X123495Y627285D01*
X123426Y627052D01*
X123337Y626830D01*
X123228Y626618D01*
X123100Y626417D01*
X122952Y626228D01*
X122787Y626052D01*
X122607Y625893D01*
X122412Y625751D01*
X122324Y625699D01*
X122201Y625626D01*
X121976Y625518D01*
X121736Y625427D01*
X121481Y625353D01*
X121211Y625296D01*
X122385Y623514D01*
X123970Y621110D01*
X122452Y621110D01*
X119928Y625145D01*
X116900Y625145D01*
X116900Y621110D01*
G37*
%LPC*%
G36*
X120080Y626186D02*
X120333Y626194D01*
X120571Y626217D01*
X120794Y626255D01*
X121003Y626308D01*
X121197Y626376D01*
X121376Y626460D01*
X121541Y626558D01*
X121690Y626672D01*
X121824Y626800D01*
X121939Y626940D01*
X122037Y627092D01*
X122117Y627256D01*
X122179Y627432D01*
X122224Y627621D01*
X122250Y627822D01*
X122259Y628035D01*
X122250Y628240D01*
X122223Y628434D01*
X122178Y628614D01*
X122115Y628782D01*
X122034Y628937D01*
X121935Y629080D01*
X121818Y629210D01*
X121683Y629328D01*
X121531Y629432D01*
X121364Y629522D01*
X121180Y629599D01*
X120981Y629661D01*
X120765Y629710D01*
X120534Y629745D01*
X120287Y629766D01*
X120025Y629773D01*
X116900Y629773D01*
X116900Y626186D01*
X120080Y626186D01*
G37*
%LPD*%
G36*
X130849Y621110D02*
X129677Y621110D01*
X129677Y630828D01*
X131208Y630828D01*
X136463Y622496D01*
X136401Y623662D01*
X136381Y624455D01*
X136381Y630828D01*
X137567Y630828D01*
X137567Y621110D01*
X135981Y621110D01*
X130780Y629386D01*
X130815Y628717D01*
X130849Y627566D01*
X130849Y621110D01*
G37*
G36*
X144344Y620972D02*
X143970Y620982D01*
X143608Y621010D01*
X143260Y621057D01*
X142925Y621124D01*
X142603Y621209D01*
X142294Y621313D01*
X141999Y621437D01*
X141716Y621579D01*
X141448Y621739D01*
X141197Y621916D01*
X140962Y622109D01*
X140743Y622320D01*
X140540Y622546D01*
X140354Y622790D01*
X140184Y623050D01*
X140030Y623327D01*
X139893Y623619D01*
X139775Y623923D01*
X139675Y624240D01*
X139593Y624570D01*
X139529Y624912D01*
X139484Y625267D01*
X139456Y625634D01*
X139447Y626014D01*
X139467Y626588D01*
X139526Y627130D01*
X139626Y627638D01*
X139764Y628112D01*
X139943Y628553D01*
X140161Y628961D01*
X140419Y629335D01*
X140716Y629676D01*
X141049Y629980D01*
X141415Y630243D01*
X141812Y630466D01*
X142242Y630649D01*
X142704Y630790D01*
X143198Y630892D01*
X143724Y630952D01*
X144282Y630973D01*
X144676Y630964D01*
X145051Y630939D01*
X145407Y630896D01*
X145744Y630836D01*
X146062Y630760D01*
X146361Y630666D01*
X146642Y630556D01*
X146903Y630428D01*
X147147Y630281D01*
X147377Y630114D01*
X147593Y629927D01*
X147794Y629719D01*
X147981Y629491D01*
X148153Y629242D01*
X148311Y628973D01*
X148455Y628683D01*
X147199Y628310D01*
X146973Y628696D01*
X146707Y629026D01*
X146559Y629170D01*
X146402Y629300D01*
X146235Y629416D01*
X146058Y629517D01*
X145672Y629683D01*
X145241Y629802D01*
X145010Y629843D01*
X144767Y629873D01*
X144513Y629891D01*
X144247Y629897D01*
X143839Y629881D01*
X143456Y629833D01*
X143097Y629754D01*
X142763Y629642D01*
X142454Y629499D01*
X142169Y629325D01*
X141910Y629118D01*
X141675Y628879D01*
X141466Y628612D01*
X141286Y628319D01*
X141133Y628000D01*
X141008Y627654D01*
X140910Y627283D01*
X140841Y626886D01*
X140799Y626463D01*
X140785Y626014D01*
X140800Y625565D01*
X140844Y625141D01*
X140918Y624742D01*
X141021Y624366D01*
X141154Y624015D01*
X141317Y623688D01*
X141509Y623385D01*
X141730Y623107D01*
X141978Y622857D01*
X142248Y622640D01*
X142541Y622457D01*
X142856Y622307D01*
X143194Y622191D01*
X143555Y622108D01*
X143938Y622058D01*
X144344Y622041D01*
X144812Y622059D01*
X145264Y622114D01*
X145700Y622204D01*
X146120Y622331D01*
X146512Y622489D01*
X146866Y622672D01*
X147180Y622882D01*
X147455Y623117D01*
X147455Y624869D01*
X144551Y624869D01*
X144551Y625972D01*
X148668Y625972D01*
X148668Y622620D01*
X148260Y622250D01*
X147809Y621923D01*
X147314Y621641D01*
X146775Y621403D01*
X146203Y621215D01*
X145908Y621140D01*
X145607Y621080D01*
X145300Y621033D01*
X144987Y620999D01*
X144669Y620979D01*
X144344Y620972D01*
G37*
G36*
X127233Y621110D02*
X125915Y621110D01*
X125915Y630828D01*
X127233Y630828D01*
X127233Y621110D01*
G37*
G36*
X213280Y641998D02*
X203562Y641998D01*
X203562Y645529D01*
X203571Y645944D01*
X203599Y646331D01*
X203645Y646692D01*
X203710Y647026D01*
X203793Y647333D01*
X203894Y647614D01*
X204014Y647868D01*
X204152Y648095D01*
X204309Y648295D01*
X204484Y648469D01*
X204677Y648616D01*
X204889Y648736D01*
X205119Y648830D01*
X205368Y648897D01*
X205635Y648937D01*
X205921Y648950D01*
X206132Y648943D01*
X206335Y648920D01*
X206529Y648882D01*
X206714Y648829D01*
X206891Y648762D01*
X207059Y648679D01*
X207218Y648581D01*
X207369Y648467D01*
X207510Y648340D01*
X207582Y648262D01*
X207638Y648201D01*
X207755Y648049D01*
X207859Y647885D01*
X207951Y647708D01*
X208031Y647518D01*
X208100Y647316D01*
X208156Y647102D01*
X208198Y647383D01*
X208256Y647648D01*
X208329Y647896D01*
X208419Y648128D01*
X208523Y648343D01*
X208644Y648541D01*
X208780Y648723D01*
X208850Y648799D01*
X208931Y648888D01*
X209096Y649035D01*
X209271Y649163D01*
X209457Y649271D01*
X209653Y649359D01*
X209860Y649427D01*
X210077Y649476D01*
X210304Y649506D01*
X210542Y649516D01*
X210857Y649501D01*
X211154Y649457D01*
X211433Y649383D01*
X211695Y649279D01*
X211938Y649147D01*
X212163Y648984D01*
X212370Y648792D01*
X212559Y648571D01*
X212728Y648323D01*
X212875Y648052D01*
X212998Y647758D01*
X213100Y647441D01*
X213179Y647101D01*
X213235Y646738D01*
X213269Y646352D01*
X213280Y645943D01*
X213280Y641998D01*
G37*
%LPC*%
G36*
X212225Y643315D02*
X212225Y645874D01*
X212218Y646166D01*
X212197Y646437D01*
X212162Y646687D01*
X212113Y646917D01*
X212050Y647127D01*
X211973Y647316D01*
X211882Y647485D01*
X211776Y647633D01*
X211658Y647762D01*
X211525Y647874D01*
X211378Y647969D01*
X211218Y648047D01*
X211044Y648107D01*
X210856Y648150D01*
X210654Y648176D01*
X210438Y648185D01*
X210231Y648175D01*
X210036Y648147D01*
X209855Y648100D01*
X209687Y648034D01*
X209533Y647949D01*
X209392Y647845D01*
X209265Y647723D01*
X209150Y647581D01*
X209050Y647421D01*
X208963Y647242D01*
X208889Y647044D01*
X208828Y646827D01*
X208782Y646591D01*
X208748Y646336D01*
X208728Y646063D01*
X208721Y645771D01*
X208721Y643315D01*
X212225Y643315D01*
G37*
G36*
X207693Y643315D02*
X207693Y645529D01*
X207687Y645785D01*
X207669Y646023D01*
X207638Y646246D01*
X207594Y646451D01*
X207539Y646640D01*
X207470Y646811D01*
X207390Y646967D01*
X207297Y647105D01*
X207191Y647227D01*
X207072Y647333D01*
X206940Y647423D01*
X206794Y647496D01*
X206635Y647553D01*
X206463Y647593D01*
X206278Y647618D01*
X206080Y647626D01*
X205890Y647618D01*
X205714Y647592D01*
X205553Y647550D01*
X205405Y647491D01*
X205272Y647416D01*
X205152Y647323D01*
X205047Y647214D01*
X204955Y647088D01*
X204876Y646946D01*
X204808Y646789D01*
X204702Y646429D01*
X204639Y646009D01*
X204617Y645529D01*
X204617Y643315D01*
X207693Y643315D01*
G37*
%LPD*%
G36*
X213280Y650273D02*
X203562Y654239D01*
X203562Y655736D01*
X213280Y659639D01*
X213280Y658294D01*
X210438Y657184D01*
X210438Y652756D01*
X213280Y651639D01*
X213280Y650273D01*
G37*
%LPC*%
G36*
X209411Y653156D02*
X209411Y656791D01*
X206204Y655542D01*
X205697Y655349D01*
X205128Y655156D01*
X204555Y654970D01*
X204748Y654908D01*
X205402Y654694D01*
X206218Y654398D01*
X209411Y653156D01*
G37*
%LPD*%
G36*
X204638Y658938D02*
X203562Y658938D01*
X203562Y666925D01*
X204638Y666925D01*
X204638Y663586D01*
X213280Y663586D01*
X213280Y662276D01*
X204638Y662276D01*
X204638Y658938D01*
G37*
G36*
X49481Y620972D02*
X49120Y620982D01*
X48771Y621010D01*
X48435Y621058D01*
X48111Y621125D01*
X47800Y621210D01*
X47501Y621315D01*
X47214Y621439D01*
X46940Y621582D01*
X46679Y621743D01*
X46435Y621920D01*
X46207Y622114D01*
X45995Y622324D01*
X45798Y622550D01*
X45618Y622793D01*
X45454Y623052D01*
X45305Y623327D01*
X45173Y623618D01*
X45059Y623921D01*
X44962Y624237D01*
X44883Y624566D01*
X44822Y624909D01*
X44778Y625264D01*
X44752Y625632D01*
X44743Y626014D01*
X44763Y626579D01*
X44821Y627113D01*
X44919Y627615D01*
X45057Y628086D01*
X45233Y628526D01*
X45449Y628934D01*
X45704Y629310D01*
X45998Y629655D01*
X46327Y629964D01*
X46686Y630232D01*
X47075Y630458D01*
X47495Y630643D01*
X47944Y630787D01*
X48424Y630890D01*
X48934Y630952D01*
X49474Y630973D01*
X49854Y630963D01*
X50218Y630935D01*
X50566Y630887D01*
X50898Y630821D01*
X51215Y630736D01*
X51515Y630631D01*
X51799Y630508D01*
X52067Y630366D01*
X52319Y630205D01*
X52554Y630026D01*
X52771Y629828D01*
X52971Y629612D01*
X53154Y629378D01*
X53319Y629126D01*
X53468Y628855D01*
X53599Y628566D01*
X52350Y628152D01*
X52259Y628358D01*
X52156Y628551D01*
X52039Y628732D01*
X51910Y628900D01*
X51768Y629056D01*
X51613Y629199D01*
X51445Y629330D01*
X51264Y629448D01*
X51073Y629554D01*
X50872Y629645D01*
X50663Y629722D01*
X50446Y629785D01*
X50219Y629834D01*
X49984Y629869D01*
X49741Y629890D01*
X49488Y629897D01*
X49096Y629881D01*
X48726Y629832D01*
X48378Y629751D01*
X48053Y629637D01*
X47751Y629491D01*
X47471Y629313D01*
X47213Y629102D01*
X46978Y628859D01*
X46767Y628587D01*
X46585Y628292D01*
X46431Y627972D01*
X46305Y627629D01*
X46207Y627261D01*
X46137Y626869D01*
X46095Y626453D01*
X46081Y626014D01*
X46096Y625578D01*
X46139Y625164D01*
X46212Y624772D01*
X46315Y624402D01*
X46446Y624054D01*
X46607Y623728D01*
X46796Y623424D01*
X47015Y623141D01*
X47259Y622887D01*
X47524Y622666D01*
X47809Y622479D01*
X48115Y622326D01*
X48441Y622208D01*
X48788Y622123D01*
X49155Y622072D01*
X49543Y622055D01*
X49794Y622063D01*
X50038Y622086D01*
X50273Y622126D01*
X50501Y622181D01*
X50720Y622252D01*
X50932Y622339D01*
X51135Y622442D01*
X51331Y622560D01*
X51519Y622694D01*
X51699Y622844D01*
X51871Y623010D01*
X52035Y623192D01*
X52340Y623602D01*
X52612Y624076D01*
X53688Y623538D01*
X53531Y623233D01*
X53358Y622948D01*
X53170Y622681D01*
X52967Y622432D01*
X52748Y622203D01*
X52515Y621992D01*
X52266Y621800D01*
X52002Y621627D01*
X51725Y621474D01*
X51437Y621341D01*
X51138Y621228D01*
X50829Y621136D01*
X50508Y621064D01*
X50177Y621013D01*
X49834Y620982D01*
X49481Y620972D01*
G37*
G36*
X59669Y620972D02*
X59308Y620982D01*
X58959Y621010D01*
X58623Y621058D01*
X58299Y621125D01*
X57987Y621210D01*
X57688Y621315D01*
X57401Y621439D01*
X57127Y621582D01*
X56867Y621743D01*
X56623Y621920D01*
X56395Y622114D01*
X56182Y622324D01*
X55986Y622550D01*
X55805Y622793D01*
X55641Y623052D01*
X55493Y623327D01*
X55361Y623618D01*
X55247Y623921D01*
X55150Y624237D01*
X55071Y624566D01*
X55009Y624909D01*
X54966Y625264D01*
X54939Y625632D01*
X54930Y626014D01*
X54950Y626579D01*
X55009Y627113D01*
X55107Y627615D01*
X55244Y628086D01*
X55421Y628526D01*
X55636Y628934D01*
X55891Y629310D01*
X56186Y629655D01*
X56515Y629964D01*
X56874Y630232D01*
X57263Y630458D01*
X57682Y630643D01*
X58132Y630787D01*
X58612Y630890D01*
X59122Y630952D01*
X59662Y630973D01*
X60042Y630963D01*
X60406Y630935D01*
X60754Y630887D01*
X61086Y630821D01*
X61402Y630736D01*
X61702Y630631D01*
X61987Y630508D01*
X62255Y630366D01*
X62507Y630205D01*
X62741Y630026D01*
X62958Y629828D01*
X63158Y629612D01*
X63341Y629378D01*
X63507Y629126D01*
X63655Y628855D01*
X63786Y628566D01*
X62538Y628152D01*
X62447Y628358D01*
X62343Y628551D01*
X62227Y628732D01*
X62097Y628900D01*
X61955Y629056D01*
X61800Y629199D01*
X61632Y629330D01*
X61451Y629448D01*
X61260Y629554D01*
X61060Y629645D01*
X60851Y629722D01*
X60633Y629785D01*
X60407Y629834D01*
X60172Y629869D01*
X59928Y629890D01*
X59676Y629897D01*
X59283Y629881D01*
X58913Y629832D01*
X58566Y629751D01*
X58241Y629637D01*
X57938Y629491D01*
X57658Y629313D01*
X57400Y629102D01*
X57165Y628859D01*
X56955Y628587D01*
X56773Y628292D01*
X56619Y627972D01*
X56493Y627629D01*
X56395Y627261D01*
X56324Y626869D01*
X56282Y626453D01*
X56268Y626014D01*
X56283Y625578D01*
X56327Y625164D01*
X56400Y624772D01*
X56502Y624402D01*
X56633Y624054D01*
X56794Y623728D01*
X56984Y623424D01*
X57203Y623141D01*
X57447Y622887D01*
X57711Y622666D01*
X57996Y622479D01*
X58302Y622326D01*
X58628Y622208D01*
X58975Y622123D01*
X59343Y622072D01*
X59731Y622055D01*
X59982Y622063D01*
X60225Y622086D01*
X60461Y622126D01*
X60688Y622181D01*
X60908Y622252D01*
X61119Y622339D01*
X61323Y622442D01*
X61519Y622560D01*
X61707Y622694D01*
X61887Y622844D01*
X62059Y623010D01*
X62223Y623192D01*
X62527Y623602D01*
X62800Y624076D01*
X63876Y623538D01*
X63718Y623233D01*
X63545Y622948D01*
X63357Y622681D01*
X63154Y622432D01*
X62936Y622203D01*
X62702Y621992D01*
X62453Y621800D01*
X62189Y621627D01*
X61912Y621474D01*
X61625Y621341D01*
X61326Y621228D01*
X61016Y621136D01*
X60696Y621064D01*
X60364Y621013D01*
X60022Y620982D01*
X59669Y620972D01*
G37*
G36*
X40013Y621110D02*
X38647Y621110D01*
X34681Y630828D01*
X36068Y630828D01*
X38758Y623986D01*
X39337Y622269D01*
X39916Y623986D01*
X42592Y630828D01*
X43979Y630828D01*
X40013Y621110D01*
G37*
G36*
X79286Y770850D02*
X76083Y770850D01*
X76083Y778740D01*
X78950Y778740D01*
X79287Y778733D01*
X79601Y778710D01*
X79894Y778673D01*
X80166Y778621D01*
X80415Y778553D01*
X80643Y778471D01*
X80849Y778374D01*
X81034Y778262D01*
X81196Y778134D01*
X81337Y777992D01*
X81457Y777835D01*
X81554Y777663D01*
X81630Y777476D01*
X81685Y777274D01*
X81717Y777057D01*
X81728Y776825D01*
X81722Y776654D01*
X81704Y776489D01*
X81630Y776181D01*
X81508Y775901D01*
X81336Y775649D01*
X81168Y775480D01*
X81120Y775431D01*
X80863Y775252D01*
X80565Y775112D01*
X80227Y775011D01*
X80456Y774976D01*
X80671Y774929D01*
X80872Y774870D01*
X81060Y774797D01*
X81235Y774712D01*
X81396Y774614D01*
X81544Y774504D01*
X81605Y774447D01*
X81678Y774381D01*
X81797Y774247D01*
X81901Y774105D01*
X81988Y773954D01*
X82060Y773795D01*
X82116Y773627D01*
X82155Y773451D01*
X82179Y773266D01*
X82187Y773073D01*
X82175Y772817D01*
X82139Y772576D01*
X82079Y772349D01*
X81995Y772137D01*
X81888Y771940D01*
X81756Y771757D01*
X81600Y771589D01*
X81420Y771435D01*
X81219Y771298D01*
X80999Y771179D01*
X80760Y771079D01*
X80503Y770996D01*
X80227Y770932D01*
X79932Y770887D01*
X79619Y770859D01*
X79286Y770850D01*
G37*
%LPC*%
G36*
X79230Y771707D02*
X79687Y771730D01*
X79891Y771758D01*
X80077Y771798D01*
X80248Y771849D01*
X80401Y771912D01*
X80538Y771985D01*
X80658Y772071D01*
X80763Y772167D01*
X80854Y772275D01*
X80931Y772394D01*
X80994Y772524D01*
X81043Y772666D01*
X81078Y772818D01*
X81099Y772982D01*
X81106Y773157D01*
X81099Y773326D01*
X81076Y773484D01*
X81038Y773631D01*
X80984Y773767D01*
X80915Y773893D01*
X80831Y774007D01*
X80731Y774110D01*
X80616Y774203D01*
X80486Y774285D01*
X80341Y774355D01*
X80180Y774415D01*
X80004Y774464D01*
X79606Y774530D01*
X79146Y774552D01*
X77153Y774552D01*
X77153Y771707D01*
X79230Y771707D01*
G37*
G36*
X78950Y775386D02*
X79352Y775406D01*
X79699Y775466D01*
X79992Y775567D01*
X80230Y775708D01*
X80329Y775794D01*
X80415Y775891D01*
X80488Y775998D01*
X80547Y776116D01*
X80593Y776245D01*
X80626Y776385D01*
X80646Y776535D01*
X80653Y776696D01*
X80646Y776850D01*
X80626Y776993D01*
X80591Y777124D01*
X80544Y777244D01*
X80482Y777352D01*
X80407Y777449D01*
X80318Y777535D01*
X80216Y777609D01*
X79973Y777729D01*
X79681Y777815D01*
X79340Y777866D01*
X78950Y777884D01*
X77153Y777884D01*
X77153Y775386D01*
X78950Y775386D01*
G37*
%LPD*%
G36*
X56678Y770738D02*
X56370Y770747D01*
X56080Y770775D01*
X55807Y770822D01*
X55551Y770888D01*
X55312Y770972D01*
X55090Y771075D01*
X54886Y771197D01*
X54699Y771337D01*
X54531Y771495D01*
X54386Y771668D01*
X54264Y771857D01*
X54163Y772062D01*
X54085Y772283D01*
X54029Y772519D01*
X53996Y772772D01*
X53985Y773040D01*
X53992Y773229D01*
X54012Y773411D01*
X54047Y773585D01*
X54095Y773751D01*
X54157Y773909D01*
X54233Y774060D01*
X54427Y774339D01*
X54664Y774576D01*
X54931Y774762D01*
X55229Y774895D01*
X55390Y774943D01*
X55558Y774977D01*
X55558Y775000D01*
X55253Y775097D01*
X54982Y775239D01*
X54745Y775425D01*
X54542Y775655D01*
X54379Y775918D01*
X54263Y776202D01*
X54193Y776508D01*
X54169Y776836D01*
X54180Y777056D01*
X54212Y777266D01*
X54264Y777465D01*
X54338Y777653D01*
X54433Y777830D01*
X54549Y777997D01*
X54686Y778153D01*
X54844Y778298D01*
X55020Y778429D01*
X55211Y778543D01*
X55415Y778639D01*
X55635Y778718D01*
X55868Y778779D01*
X56116Y778823D01*
X56379Y778849D01*
X56656Y778858D01*
X56939Y778849D01*
X57208Y778824D01*
X57461Y778781D01*
X57698Y778721D01*
X57920Y778644D01*
X58127Y778549D01*
X58319Y778438D01*
X58495Y778309D01*
X58654Y778166D01*
X58791Y778011D01*
X58907Y777843D01*
X59002Y777664D01*
X59075Y777472D01*
X59128Y777269D01*
X59160Y777053D01*
X59170Y776825D01*
X59147Y776497D01*
X59076Y776191D01*
X58959Y775906D01*
X58795Y775644D01*
X58590Y775415D01*
X58579Y775406D01*
X58351Y775233D01*
X58078Y775099D01*
X57770Y775011D01*
X57770Y774988D01*
X57954Y774951D01*
X58127Y774902D01*
X58290Y774840D01*
X58442Y774766D01*
X58715Y774582D01*
X58926Y774368D01*
X58946Y774347D01*
X59130Y774072D01*
X59261Y773764D01*
X59307Y773598D01*
X59340Y773424D01*
X59360Y773241D01*
X59366Y773051D01*
X59355Y772785D01*
X59323Y772535D01*
X59269Y772300D01*
X59193Y772079D01*
X59095Y771874D01*
X58976Y771684D01*
X58835Y771509D01*
X58672Y771348D01*
X58489Y771205D01*
X58287Y771081D01*
X58066Y770976D01*
X57826Y770891D01*
X57568Y770824D01*
X57290Y770776D01*
X56994Y770748D01*
X56678Y770738D01*
G37*
%LPC*%
G36*
X56689Y771494D02*
X56889Y771500D01*
X57075Y771519D01*
X57248Y771550D01*
X57408Y771593D01*
X57554Y771648D01*
X57688Y771716D01*
X57808Y771796D01*
X57916Y771889D01*
X58010Y771995D01*
X58092Y772115D01*
X58162Y772251D01*
X58218Y772400D01*
X58262Y772565D01*
X58294Y772744D01*
X58313Y772938D01*
X58319Y773146D01*
X58312Y773324D01*
X58292Y773490D01*
X58258Y773645D01*
X58210Y773789D01*
X58148Y773922D01*
X58073Y774043D01*
X57985Y774153D01*
X57882Y774252D01*
X57642Y774415D01*
X57357Y774531D01*
X57029Y774601D01*
X56656Y774624D01*
X56469Y774618D01*
X56293Y774599D01*
X56128Y774568D01*
X55973Y774524D01*
X55828Y774468D01*
X55694Y774399D01*
X55457Y774224D01*
X55269Y774005D01*
X55195Y773882D01*
X55134Y773749D01*
X55087Y773606D01*
X55053Y773455D01*
X55033Y773294D01*
X55026Y773124D01*
X55033Y772926D01*
X55052Y772742D01*
X55085Y772570D01*
X55130Y772411D01*
X55189Y772264D01*
X55260Y772131D01*
X55345Y772010D01*
X55442Y771901D01*
X55552Y771806D01*
X55676Y771723D01*
X55812Y771653D01*
X55962Y771596D01*
X56124Y771551D01*
X56300Y771519D01*
X56488Y771500D01*
X56689Y771494D01*
G37*
G36*
X56667Y775380D02*
X57001Y775401D01*
X57294Y775462D01*
X57543Y775565D01*
X57751Y775708D01*
X57838Y775796D01*
X57914Y775897D01*
X57978Y776011D01*
X58030Y776137D01*
X58071Y776276D01*
X58100Y776428D01*
X58123Y776769D01*
X58100Y777083D01*
X58031Y777355D01*
X57917Y777585D01*
X57756Y777773D01*
X57550Y777919D01*
X57298Y778024D01*
X57000Y778087D01*
X56656Y778108D01*
X56321Y778087D01*
X56029Y778024D01*
X55780Y777919D01*
X55572Y777772D01*
X55409Y777583D01*
X55293Y777353D01*
X55223Y777082D01*
X55200Y776769D01*
X55206Y776605D01*
X55224Y776451D01*
X55296Y776172D01*
X55416Y775934D01*
X55583Y775736D01*
X55795Y775580D01*
X56046Y775469D01*
X56337Y775403D01*
X56667Y775380D01*
G37*
%LPD*%
G36*
X41465Y770850D02*
X40396Y770850D01*
X40396Y778740D01*
X43717Y778740D01*
X44039Y778731D01*
X44343Y778702D01*
X44628Y778653D01*
X44894Y778585D01*
X45142Y778498D01*
X45370Y778391D01*
X45580Y778264D01*
X45772Y778119D01*
X45942Y777955D01*
X46090Y777776D01*
X46215Y777581D01*
X46318Y777370D01*
X46397Y777143D01*
X46454Y776900D01*
X46488Y776641D01*
X46500Y776366D01*
X46488Y776093D01*
X46454Y775835D01*
X46397Y775591D01*
X46317Y775361D01*
X46214Y775145D01*
X46089Y774944D01*
X45940Y774758D01*
X45769Y774585D01*
X45578Y774430D01*
X45371Y774296D01*
X45147Y774183D01*
X44907Y774090D01*
X44651Y774017D01*
X44378Y773966D01*
X44089Y773935D01*
X43784Y773924D01*
X41465Y773924D01*
X41465Y770850D01*
G37*
%LPC*%
G36*
X43633Y774770D02*
X43850Y774776D01*
X44053Y774795D01*
X44242Y774826D01*
X44417Y774869D01*
X44578Y774925D01*
X44725Y774993D01*
X44858Y775073D01*
X44977Y775166D01*
X45082Y775271D01*
X45173Y775389D01*
X45250Y775519D01*
X45313Y775661D01*
X45362Y775816D01*
X45397Y775983D01*
X45418Y776163D01*
X45425Y776355D01*
X45417Y776540D01*
X45396Y776713D01*
X45360Y776874D01*
X45310Y777024D01*
X45245Y777161D01*
X45166Y777286D01*
X45073Y777400D01*
X44965Y777501D01*
X44843Y777591D01*
X44707Y777669D01*
X44556Y777734D01*
X44391Y777788D01*
X44212Y777830D01*
X44018Y777860D01*
X43810Y777878D01*
X43588Y777884D01*
X41465Y777884D01*
X41465Y774770D01*
X43633Y774770D01*
G37*
%LPD*%
G36*
X70789Y770738D02*
X70485Y770746D01*
X70192Y770769D01*
X69909Y770807D01*
X69637Y770861D01*
X69375Y770930D01*
X69125Y771015D01*
X68885Y771115D01*
X68655Y771231D01*
X68438Y771361D01*
X68234Y771504D01*
X68043Y771661D01*
X67865Y771832D01*
X67701Y772016D01*
X67549Y772214D01*
X67411Y772425D01*
X67286Y772650D01*
X67175Y772887D01*
X67079Y773134D01*
X66998Y773392D01*
X66931Y773659D01*
X66880Y773937D01*
X66843Y774225D01*
X66820Y774523D01*
X66813Y774832D01*
X66829Y775298D01*
X66877Y775738D01*
X66958Y776150D01*
X67071Y776535D01*
X67216Y776894D01*
X67393Y777225D01*
X67602Y777528D01*
X67843Y777805D01*
X68114Y778052D01*
X68411Y778266D01*
X68734Y778447D01*
X69082Y778595D01*
X69457Y778710D01*
X69858Y778792D01*
X70285Y778842D01*
X70739Y778858D01*
X71059Y778851D01*
X71363Y778830D01*
X71652Y778796D01*
X71926Y778747D01*
X72184Y778685D01*
X72427Y778609D01*
X72655Y778519D01*
X72867Y778416D01*
X73065Y778297D01*
X73252Y778161D01*
X73427Y778009D01*
X73590Y777840D01*
X73742Y777655D01*
X73882Y777453D01*
X74010Y777234D01*
X74127Y776999D01*
X73107Y776696D01*
X72923Y777010D01*
X72708Y777277D01*
X72460Y777500D01*
X72181Y777676D01*
X71867Y777811D01*
X71518Y777907D01*
X71132Y777965D01*
X70711Y777984D01*
X70379Y777971D01*
X70068Y777933D01*
X69776Y777868D01*
X69505Y777778D01*
X69254Y777662D01*
X69023Y777520D01*
X68813Y777352D01*
X68622Y777158D01*
X68453Y776941D01*
X68306Y776703D01*
X68182Y776444D01*
X68080Y776164D01*
X68001Y775862D01*
X67945Y775540D01*
X67911Y775196D01*
X67899Y774832D01*
X67911Y774468D01*
X67947Y774123D01*
X68007Y773799D01*
X68091Y773494D01*
X68199Y773209D01*
X68331Y772943D01*
X68487Y772697D01*
X68667Y772471D01*
X68868Y772268D01*
X69087Y772093D01*
X69325Y771944D01*
X69581Y771822D01*
X69855Y771728D01*
X70148Y771660D01*
X70459Y771620D01*
X70789Y771606D01*
X71169Y771621D01*
X71536Y771665D01*
X71890Y771738D01*
X72231Y771841D01*
X72550Y771969D01*
X72837Y772118D01*
X73091Y772288D01*
X73315Y772480D01*
X73315Y773902D01*
X70957Y773902D01*
X70957Y774798D01*
X74300Y774798D01*
X74300Y772076D01*
X73969Y771775D01*
X73602Y771510D01*
X73200Y771281D01*
X72763Y771088D01*
X72298Y770935D01*
X71815Y770826D01*
X71311Y770760D01*
X70789Y770738D01*
G37*
G36*
X30112Y770850D02*
X29048Y770850D01*
X29048Y777867D01*
X26338Y777867D01*
X26338Y778740D01*
X32822Y778740D01*
X32822Y777867D01*
X30112Y777867D01*
X30112Y770850D01*
G37*
G36*
X52930Y770850D02*
X47985Y770850D01*
X47985Y771707D01*
X49995Y771707D01*
X49995Y777777D01*
X48214Y776506D01*
X48214Y777458D01*
X50079Y778740D01*
X51009Y778740D01*
X51009Y771707D01*
X52930Y771707D01*
X52930Y770850D01*
G37*
G36*
X65680Y770850D02*
X60735Y770850D01*
X60735Y771707D01*
X62745Y771707D01*
X62745Y777777D01*
X60964Y776506D01*
X60964Y777458D01*
X62829Y778740D01*
X63759Y778740D01*
X63759Y771707D01*
X65680Y771707D01*
X65680Y770850D01*
G37*
G36*
X39078Y770850D02*
X34021Y770850D01*
X34021Y778740D01*
X35090Y778740D01*
X35090Y771724D01*
X39078Y771724D01*
X39078Y770850D01*
G37*
D10*
X182850Y767150D02*
X189850Y767150D01*
X182850Y767150D02*
X182850Y753650D01*
X193850Y744150D02*
X199850Y744150D01*
X210850Y753650D02*
X210850Y767150D01*
X203850Y767150D01*
D11*
X159430Y745380D02*
X156830Y745380D01*
X168230Y763380D02*
X170830Y763380D01*
X170830Y745380D01*
X168230Y745380D01*
X156830Y745380D02*
X156830Y763380D01*
X159430Y763380D01*
D12*
X161330Y756880D02*
X166330Y756880D01*
X163830Y751880D01*
X161330Y756880D01*
X161330Y751880D02*
X166330Y751880D01*
D13*
X168880Y675010D02*
X94880Y675010D01*
X94880Y617510D01*
X168880Y617510D02*
X168880Y675010D01*
X168880Y617510D02*
X94880Y617510D01*
X169540Y616850D02*
X169540Y690850D01*
X169540Y616850D02*
X227040Y616850D01*
X227040Y690850D02*
X169540Y690850D01*
X227040Y690850D02*
X227040Y616850D01*
X86330Y675010D02*
X12330Y675010D01*
X12330Y617510D01*
X86330Y617510D02*
X86330Y675010D01*
X86330Y617510D02*
X12330Y617510D01*
D14*
X13970Y713740D02*
X166370Y713740D01*
X166370Y688340D01*
X13970Y688340D01*
X13970Y713740D01*
D15*
X26270Y681040D02*
X26272Y681103D01*
X26278Y681165D01*
X26288Y681227D01*
X26301Y681289D01*
X26319Y681349D01*
X26340Y681408D01*
X26365Y681466D01*
X26394Y681522D01*
X26426Y681576D01*
X26461Y681628D01*
X26499Y681677D01*
X26541Y681725D01*
X26585Y681769D01*
X26633Y681811D01*
X26682Y681849D01*
X26734Y681884D01*
X26788Y681916D01*
X26844Y681945D01*
X26902Y681970D01*
X26961Y681991D01*
X27021Y682009D01*
X27083Y682022D01*
X27145Y682032D01*
X27207Y682038D01*
X27270Y682040D01*
X27333Y682038D01*
X27395Y682032D01*
X27457Y682022D01*
X27519Y682009D01*
X27579Y681991D01*
X27638Y681970D01*
X27696Y681945D01*
X27752Y681916D01*
X27806Y681884D01*
X27858Y681849D01*
X27907Y681811D01*
X27955Y681769D01*
X27999Y681725D01*
X28041Y681677D01*
X28079Y681628D01*
X28114Y681576D01*
X28146Y681522D01*
X28175Y681466D01*
X28200Y681408D01*
X28221Y681349D01*
X28239Y681289D01*
X28252Y681227D01*
X28262Y681165D01*
X28268Y681103D01*
X28270Y681040D01*
X28268Y680977D01*
X28262Y680915D01*
X28252Y680853D01*
X28239Y680791D01*
X28221Y680731D01*
X28200Y680672D01*
X28175Y680614D01*
X28146Y680558D01*
X28114Y680504D01*
X28079Y680452D01*
X28041Y680403D01*
X27999Y680355D01*
X27955Y680311D01*
X27907Y680269D01*
X27858Y680231D01*
X27806Y680196D01*
X27752Y680164D01*
X27696Y680135D01*
X27638Y680110D01*
X27579Y680089D01*
X27519Y680071D01*
X27457Y680058D01*
X27395Y680048D01*
X27333Y680042D01*
X27270Y680040D01*
X27207Y680042D01*
X27145Y680048D01*
X27083Y680058D01*
X27021Y680071D01*
X26961Y680089D01*
X26902Y680110D01*
X26844Y680135D01*
X26788Y680164D01*
X26734Y680196D01*
X26682Y680231D01*
X26633Y680269D01*
X26585Y680311D01*
X26541Y680355D01*
X26499Y680403D01*
X26461Y680452D01*
X26426Y680504D01*
X26394Y680558D01*
X26365Y680614D01*
X26340Y680672D01*
X26319Y680731D01*
X26301Y680791D01*
X26288Y680853D01*
X26278Y680915D01*
X26272Y680977D01*
X26270Y681040D01*
D14*
X108831Y745880D02*
X108831Y762880D01*
X124849Y762880D02*
X124849Y745880D01*
X131691Y745880D02*
X131691Y762880D01*
X147709Y762880D02*
X147709Y745880D01*
X198160Y784000D02*
X22160Y784000D01*
X198160Y784000D02*
X198160Y994000D01*
X22160Y994000D01*
X22160Y784000D01*
X62160Y1008200D02*
X158160Y1008200D01*
X158160Y934680D01*
X62160Y934680D01*
X62160Y1008200D01*
D16*
X69902Y808609D02*
X69900Y808520D01*
X69894Y808432D01*
X69885Y808344D01*
X69872Y808256D01*
X69855Y808169D01*
X69835Y808083D01*
X69810Y807998D01*
X69783Y807913D01*
X69751Y807830D01*
X69717Y807749D01*
X69678Y807669D01*
X69637Y807591D01*
X69592Y807514D01*
X69544Y807440D01*
X69493Y807367D01*
X69439Y807297D01*
X69381Y807230D01*
X69321Y807164D01*
X69259Y807102D01*
X69193Y807042D01*
X69126Y806984D01*
X69056Y806930D01*
X68983Y806879D01*
X68909Y806831D01*
X68832Y806786D01*
X68754Y806745D01*
X68674Y806706D01*
X68593Y806672D01*
X68510Y806640D01*
X68425Y806613D01*
X68340Y806588D01*
X68254Y806568D01*
X68167Y806551D01*
X68079Y806538D01*
X67991Y806529D01*
X67903Y806523D01*
X67814Y806521D01*
X67685Y806523D01*
X67556Y806529D01*
X67427Y806538D01*
X67299Y806551D01*
X67171Y806568D01*
X67044Y806589D01*
X66917Y806613D01*
X66791Y806641D01*
X66666Y806673D01*
X66542Y806708D01*
X66419Y806747D01*
X66297Y806790D01*
X66177Y806836D01*
X66058Y806886D01*
X65940Y806939D01*
X65824Y806995D01*
X65710Y807055D01*
X65597Y807118D01*
X65487Y807185D01*
X65378Y807254D01*
X65272Y807327D01*
X65167Y807403D01*
X65065Y807482D01*
X64966Y807564D01*
X64868Y807648D01*
X64773Y807736D01*
X64681Y807826D01*
X64943Y813831D02*
X64945Y813920D01*
X64951Y814008D01*
X64960Y814096D01*
X64973Y814184D01*
X64990Y814271D01*
X65010Y814357D01*
X65035Y814442D01*
X65062Y814527D01*
X65094Y814610D01*
X65128Y814691D01*
X65167Y814771D01*
X65208Y814849D01*
X65253Y814926D01*
X65301Y815000D01*
X65352Y815073D01*
X65406Y815143D01*
X65464Y815210D01*
X65524Y815276D01*
X65586Y815338D01*
X65652Y815398D01*
X65719Y815456D01*
X65789Y815510D01*
X65862Y815561D01*
X65936Y815609D01*
X66013Y815654D01*
X66091Y815695D01*
X66171Y815734D01*
X66252Y815768D01*
X66335Y815800D01*
X66420Y815827D01*
X66505Y815852D01*
X66591Y815872D01*
X66678Y815889D01*
X66766Y815902D01*
X66854Y815911D01*
X66942Y815917D01*
X67031Y815919D01*
X67151Y815917D01*
X67271Y815912D01*
X67391Y815902D01*
X67510Y815890D01*
X67629Y815873D01*
X67747Y815853D01*
X67865Y815829D01*
X67981Y815802D01*
X68097Y815771D01*
X68212Y815737D01*
X68326Y815699D01*
X68439Y815657D01*
X68550Y815612D01*
X68660Y815564D01*
X68768Y815513D01*
X68875Y815458D01*
X68980Y815400D01*
X69083Y815338D01*
X69184Y815274D01*
X69284Y815206D01*
X69381Y815136D01*
X65987Y812004D02*
X65909Y812052D01*
X65833Y812104D01*
X65760Y812158D01*
X65689Y812216D01*
X65620Y812277D01*
X65554Y812341D01*
X65491Y812408D01*
X65431Y812477D01*
X65374Y812549D01*
X65320Y812623D01*
X65270Y812700D01*
X65222Y812779D01*
X65179Y812859D01*
X65138Y812942D01*
X65102Y813026D01*
X65069Y813111D01*
X65040Y813198D01*
X65014Y813287D01*
X64992Y813376D01*
X64975Y813466D01*
X64961Y813556D01*
X64951Y813648D01*
X64945Y813739D01*
X64943Y813831D01*
X68859Y810436D02*
X68937Y810388D01*
X69013Y810336D01*
X69086Y810282D01*
X69157Y810224D01*
X69226Y810163D01*
X69292Y810099D01*
X69355Y810032D01*
X69415Y809963D01*
X69472Y809891D01*
X69526Y809817D01*
X69576Y809740D01*
X69624Y809661D01*
X69667Y809581D01*
X69708Y809498D01*
X69744Y809414D01*
X69777Y809329D01*
X69806Y809242D01*
X69832Y809153D01*
X69854Y809064D01*
X69871Y808974D01*
X69885Y808884D01*
X69895Y808792D01*
X69901Y808701D01*
X69903Y808609D01*
X68858Y810437D02*
X65987Y812003D01*
X75000Y806521D02*
X77610Y806521D01*
X75000Y806521D02*
X74923Y806523D01*
X74847Y806529D01*
X74770Y806538D01*
X74694Y806551D01*
X74619Y806568D01*
X74545Y806588D01*
X74472Y806613D01*
X74401Y806640D01*
X74330Y806671D01*
X74262Y806706D01*
X74195Y806744D01*
X74130Y806785D01*
X74067Y806829D01*
X74007Y806876D01*
X73948Y806927D01*
X73893Y806980D01*
X73840Y807035D01*
X73789Y807094D01*
X73742Y807154D01*
X73698Y807217D01*
X73657Y807282D01*
X73619Y807349D01*
X73584Y807417D01*
X73553Y807488D01*
X73526Y807559D01*
X73501Y807632D01*
X73481Y807706D01*
X73464Y807781D01*
X73451Y807857D01*
X73442Y807934D01*
X73436Y808010D01*
X73434Y808087D01*
X73433Y808087D02*
X73433Y810698D01*
X73434Y810698D02*
X73436Y810788D01*
X73442Y810877D01*
X73451Y810967D01*
X73465Y811056D01*
X73482Y811144D01*
X73503Y811231D01*
X73528Y811318D01*
X73557Y811403D01*
X73589Y811487D01*
X73624Y811569D01*
X73664Y811650D01*
X73706Y811729D01*
X73752Y811806D01*
X73802Y811881D01*
X73854Y811954D01*
X73910Y812025D01*
X73968Y812093D01*
X74030Y812158D01*
X74094Y812221D01*
X74161Y812281D01*
X74230Y812338D01*
X74302Y812392D01*
X74376Y812443D01*
X74452Y812491D01*
X74530Y812535D01*
X74610Y812576D01*
X74692Y812614D01*
X74775Y812648D01*
X74860Y812678D01*
X74946Y812705D01*
X75032Y812728D01*
X75120Y812747D01*
X75209Y812762D01*
X75298Y812774D01*
X75387Y812782D01*
X75477Y812786D01*
X75567Y812786D01*
X75657Y812782D01*
X75746Y812774D01*
X75835Y812762D01*
X75924Y812747D01*
X76012Y812728D01*
X76098Y812705D01*
X76184Y812678D01*
X76269Y812648D01*
X76352Y812614D01*
X76434Y812576D01*
X76514Y812535D01*
X76592Y812491D01*
X76668Y812443D01*
X76742Y812392D01*
X76814Y812338D01*
X76883Y812281D01*
X76950Y812221D01*
X77014Y812158D01*
X77076Y812093D01*
X77134Y812025D01*
X77190Y811954D01*
X77242Y811881D01*
X77292Y811806D01*
X77338Y811729D01*
X77380Y811650D01*
X77420Y811569D01*
X77455Y811487D01*
X77487Y811403D01*
X77516Y811318D01*
X77541Y811231D01*
X77562Y811144D01*
X77579Y811056D01*
X77593Y810967D01*
X77602Y810877D01*
X77608Y810788D01*
X77610Y810698D01*
X77610Y809654D01*
X73433Y809654D01*
X82924Y806521D02*
X85535Y806521D01*
X82924Y806521D02*
X82847Y806523D01*
X82771Y806529D01*
X82694Y806538D01*
X82618Y806551D01*
X82543Y806568D01*
X82469Y806588D01*
X82396Y806613D01*
X82325Y806640D01*
X82254Y806671D01*
X82186Y806706D01*
X82119Y806744D01*
X82054Y806785D01*
X81991Y806829D01*
X81931Y806876D01*
X81872Y806927D01*
X81817Y806980D01*
X81764Y807035D01*
X81713Y807094D01*
X81666Y807154D01*
X81622Y807217D01*
X81581Y807282D01*
X81543Y807349D01*
X81508Y807417D01*
X81477Y807488D01*
X81450Y807559D01*
X81425Y807632D01*
X81405Y807706D01*
X81388Y807781D01*
X81375Y807857D01*
X81366Y807934D01*
X81360Y808010D01*
X81358Y808087D01*
X81358Y810698D01*
X81360Y810788D01*
X81366Y810877D01*
X81375Y810967D01*
X81389Y811056D01*
X81406Y811144D01*
X81427Y811231D01*
X81452Y811318D01*
X81481Y811403D01*
X81513Y811487D01*
X81548Y811569D01*
X81588Y811650D01*
X81630Y811729D01*
X81676Y811806D01*
X81726Y811881D01*
X81778Y811954D01*
X81834Y812025D01*
X81892Y812093D01*
X81954Y812158D01*
X82018Y812221D01*
X82085Y812281D01*
X82154Y812338D01*
X82226Y812392D01*
X82300Y812443D01*
X82376Y812491D01*
X82454Y812535D01*
X82534Y812576D01*
X82616Y812614D01*
X82699Y812648D01*
X82784Y812678D01*
X82870Y812705D01*
X82956Y812728D01*
X83044Y812747D01*
X83133Y812762D01*
X83222Y812774D01*
X83311Y812782D01*
X83401Y812786D01*
X83491Y812786D01*
X83581Y812782D01*
X83670Y812774D01*
X83759Y812762D01*
X83848Y812747D01*
X83936Y812728D01*
X84022Y812705D01*
X84108Y812678D01*
X84193Y812648D01*
X84276Y812614D01*
X84358Y812576D01*
X84438Y812535D01*
X84516Y812491D01*
X84592Y812443D01*
X84666Y812392D01*
X84738Y812338D01*
X84807Y812281D01*
X84874Y812221D01*
X84938Y812158D01*
X85000Y812093D01*
X85058Y812025D01*
X85114Y811954D01*
X85166Y811881D01*
X85216Y811806D01*
X85262Y811729D01*
X85304Y811650D01*
X85344Y811569D01*
X85379Y811487D01*
X85411Y811403D01*
X85440Y811318D01*
X85465Y811231D01*
X85486Y811144D01*
X85503Y811056D01*
X85517Y810967D01*
X85526Y810877D01*
X85532Y810788D01*
X85534Y810698D01*
X85535Y810698D02*
X85535Y809654D01*
X81358Y809654D01*
X90849Y806521D02*
X93460Y806521D01*
X90849Y806521D02*
X90772Y806523D01*
X90696Y806529D01*
X90619Y806538D01*
X90543Y806551D01*
X90468Y806568D01*
X90394Y806588D01*
X90321Y806613D01*
X90250Y806640D01*
X90179Y806671D01*
X90111Y806706D01*
X90044Y806744D01*
X89979Y806785D01*
X89916Y806829D01*
X89856Y806876D01*
X89797Y806927D01*
X89742Y806980D01*
X89689Y807035D01*
X89638Y807094D01*
X89591Y807154D01*
X89547Y807217D01*
X89506Y807282D01*
X89468Y807349D01*
X89433Y807417D01*
X89402Y807488D01*
X89375Y807559D01*
X89350Y807632D01*
X89330Y807706D01*
X89313Y807781D01*
X89300Y807857D01*
X89291Y807934D01*
X89285Y808010D01*
X89283Y808087D01*
X89283Y810698D01*
X89285Y810788D01*
X89291Y810877D01*
X89300Y810967D01*
X89314Y811056D01*
X89331Y811144D01*
X89352Y811231D01*
X89377Y811318D01*
X89406Y811403D01*
X89438Y811487D01*
X89473Y811569D01*
X89513Y811650D01*
X89555Y811729D01*
X89601Y811806D01*
X89651Y811881D01*
X89703Y811954D01*
X89759Y812025D01*
X89817Y812093D01*
X89879Y812158D01*
X89943Y812221D01*
X90010Y812281D01*
X90079Y812338D01*
X90151Y812392D01*
X90225Y812443D01*
X90301Y812491D01*
X90379Y812535D01*
X90459Y812576D01*
X90541Y812614D01*
X90624Y812648D01*
X90709Y812678D01*
X90795Y812705D01*
X90881Y812728D01*
X90969Y812747D01*
X91058Y812762D01*
X91147Y812774D01*
X91236Y812782D01*
X91326Y812786D01*
X91416Y812786D01*
X91506Y812782D01*
X91595Y812774D01*
X91684Y812762D01*
X91773Y812747D01*
X91861Y812728D01*
X91947Y812705D01*
X92033Y812678D01*
X92118Y812648D01*
X92201Y812614D01*
X92283Y812576D01*
X92363Y812535D01*
X92441Y812491D01*
X92517Y812443D01*
X92591Y812392D01*
X92663Y812338D01*
X92732Y812281D01*
X92799Y812221D01*
X92863Y812158D01*
X92925Y812093D01*
X92983Y812025D01*
X93039Y811954D01*
X93091Y811881D01*
X93141Y811806D01*
X93187Y811729D01*
X93229Y811650D01*
X93269Y811569D01*
X93304Y811487D01*
X93336Y811403D01*
X93365Y811318D01*
X93390Y811231D01*
X93411Y811144D01*
X93428Y811056D01*
X93442Y810967D01*
X93451Y810877D01*
X93457Y810788D01*
X93459Y810698D01*
X93460Y810698D02*
X93460Y809654D01*
X89283Y809654D01*
X101339Y806521D02*
X101339Y815919D01*
X101339Y806521D02*
X98728Y806521D01*
X98651Y806523D01*
X98575Y806529D01*
X98498Y806538D01*
X98422Y806551D01*
X98347Y806568D01*
X98273Y806588D01*
X98200Y806613D01*
X98129Y806640D01*
X98058Y806671D01*
X97990Y806706D01*
X97923Y806744D01*
X97858Y806785D01*
X97795Y806829D01*
X97735Y806876D01*
X97676Y806927D01*
X97621Y806980D01*
X97568Y807035D01*
X97517Y807094D01*
X97470Y807154D01*
X97426Y807217D01*
X97385Y807282D01*
X97347Y807349D01*
X97312Y807417D01*
X97281Y807488D01*
X97254Y807559D01*
X97229Y807632D01*
X97209Y807706D01*
X97192Y807781D01*
X97179Y807857D01*
X97170Y807934D01*
X97164Y808010D01*
X97162Y808087D01*
X97162Y811220D01*
X97164Y811297D01*
X97170Y811373D01*
X97179Y811450D01*
X97192Y811526D01*
X97209Y811601D01*
X97229Y811675D01*
X97254Y811748D01*
X97281Y811819D01*
X97312Y811890D01*
X97347Y811958D01*
X97385Y812025D01*
X97426Y812090D01*
X97470Y812153D01*
X97517Y812213D01*
X97568Y812272D01*
X97621Y812327D01*
X97676Y812380D01*
X97735Y812431D01*
X97795Y812478D01*
X97858Y812522D01*
X97923Y812563D01*
X97990Y812601D01*
X98058Y812636D01*
X98129Y812667D01*
X98200Y812694D01*
X98273Y812719D01*
X98347Y812739D01*
X98422Y812756D01*
X98498Y812769D01*
X98575Y812778D01*
X98651Y812784D01*
X98728Y812786D01*
X101339Y812786D01*
X113229Y806521D02*
X113318Y806523D01*
X113406Y806529D01*
X113494Y806538D01*
X113582Y806551D01*
X113669Y806568D01*
X113755Y806588D01*
X113840Y806613D01*
X113925Y806640D01*
X114008Y806672D01*
X114089Y806706D01*
X114169Y806745D01*
X114247Y806786D01*
X114324Y806831D01*
X114398Y806879D01*
X114471Y806930D01*
X114541Y806984D01*
X114608Y807042D01*
X114674Y807102D01*
X114736Y807164D01*
X114796Y807230D01*
X114854Y807297D01*
X114908Y807367D01*
X114959Y807440D01*
X115007Y807514D01*
X115052Y807591D01*
X115093Y807669D01*
X115132Y807749D01*
X115166Y807830D01*
X115198Y807913D01*
X115225Y807998D01*
X115250Y808083D01*
X115270Y808169D01*
X115287Y808256D01*
X115300Y808344D01*
X115309Y808432D01*
X115315Y808520D01*
X115317Y808609D01*
X113229Y806521D02*
X113100Y806523D01*
X112971Y806529D01*
X112842Y806538D01*
X112714Y806551D01*
X112586Y806568D01*
X112459Y806589D01*
X112332Y806613D01*
X112206Y806641D01*
X112081Y806673D01*
X111957Y806708D01*
X111834Y806747D01*
X111712Y806790D01*
X111592Y806836D01*
X111473Y806886D01*
X111355Y806939D01*
X111239Y806995D01*
X111125Y807055D01*
X111012Y807118D01*
X110902Y807185D01*
X110793Y807254D01*
X110687Y807327D01*
X110582Y807403D01*
X110480Y807482D01*
X110381Y807564D01*
X110283Y807648D01*
X110188Y807736D01*
X110096Y807826D01*
X110358Y813831D02*
X110360Y813920D01*
X110366Y814008D01*
X110375Y814096D01*
X110388Y814184D01*
X110405Y814271D01*
X110425Y814357D01*
X110450Y814442D01*
X110477Y814527D01*
X110509Y814610D01*
X110543Y814691D01*
X110582Y814771D01*
X110623Y814849D01*
X110668Y814926D01*
X110716Y815000D01*
X110767Y815073D01*
X110821Y815143D01*
X110879Y815210D01*
X110939Y815276D01*
X111001Y815338D01*
X111067Y815398D01*
X111134Y815456D01*
X111204Y815510D01*
X111277Y815561D01*
X111351Y815609D01*
X111428Y815654D01*
X111506Y815695D01*
X111586Y815734D01*
X111667Y815768D01*
X111750Y815800D01*
X111835Y815827D01*
X111920Y815852D01*
X112006Y815872D01*
X112093Y815889D01*
X112181Y815902D01*
X112269Y815911D01*
X112357Y815917D01*
X112446Y815919D01*
X112566Y815917D01*
X112686Y815912D01*
X112806Y815902D01*
X112925Y815890D01*
X113044Y815873D01*
X113162Y815853D01*
X113280Y815829D01*
X113396Y815802D01*
X113512Y815771D01*
X113627Y815737D01*
X113741Y815699D01*
X113854Y815657D01*
X113965Y815612D01*
X114075Y815564D01*
X114183Y815513D01*
X114290Y815458D01*
X114395Y815400D01*
X114498Y815338D01*
X114599Y815274D01*
X114699Y815206D01*
X114796Y815136D01*
X111402Y812004D02*
X111324Y812052D01*
X111248Y812104D01*
X111175Y812158D01*
X111104Y812216D01*
X111035Y812277D01*
X110969Y812341D01*
X110906Y812408D01*
X110846Y812477D01*
X110789Y812549D01*
X110735Y812623D01*
X110685Y812700D01*
X110637Y812779D01*
X110594Y812859D01*
X110553Y812942D01*
X110517Y813026D01*
X110484Y813111D01*
X110455Y813198D01*
X110429Y813287D01*
X110407Y813376D01*
X110390Y813466D01*
X110376Y813556D01*
X110366Y813648D01*
X110360Y813739D01*
X110358Y813831D01*
X114274Y810436D02*
X114352Y810388D01*
X114428Y810336D01*
X114501Y810282D01*
X114572Y810224D01*
X114641Y810163D01*
X114707Y810099D01*
X114770Y810032D01*
X114830Y809963D01*
X114887Y809891D01*
X114941Y809817D01*
X114991Y809740D01*
X115039Y809661D01*
X115082Y809581D01*
X115123Y809498D01*
X115159Y809414D01*
X115192Y809329D01*
X115221Y809242D01*
X115247Y809153D01*
X115269Y809064D01*
X115286Y808974D01*
X115300Y808884D01*
X115310Y808792D01*
X115316Y808701D01*
X115318Y808609D01*
X114273Y810437D02*
X111402Y812003D01*
X118079Y812786D02*
X121212Y812786D01*
X119124Y815919D02*
X119124Y808087D01*
X119126Y808010D01*
X119132Y807934D01*
X119141Y807857D01*
X119154Y807781D01*
X119171Y807706D01*
X119191Y807632D01*
X119216Y807559D01*
X119243Y807488D01*
X119274Y807417D01*
X119309Y807349D01*
X119347Y807282D01*
X119388Y807217D01*
X119432Y807154D01*
X119479Y807094D01*
X119530Y807035D01*
X119583Y806980D01*
X119638Y806927D01*
X119697Y806876D01*
X119757Y806829D01*
X119820Y806785D01*
X119885Y806744D01*
X119952Y806706D01*
X120020Y806671D01*
X120091Y806640D01*
X120162Y806613D01*
X120235Y806588D01*
X120309Y806568D01*
X120384Y806551D01*
X120460Y806538D01*
X120537Y806529D01*
X120613Y806523D01*
X120690Y806521D01*
X121212Y806521D01*
X124944Y808087D02*
X124944Y812786D01*
X124944Y808087D02*
X124946Y808010D01*
X124952Y807934D01*
X124961Y807857D01*
X124974Y807781D01*
X124991Y807706D01*
X125011Y807632D01*
X125036Y807559D01*
X125063Y807488D01*
X125094Y807417D01*
X125129Y807349D01*
X125167Y807282D01*
X125208Y807217D01*
X125252Y807154D01*
X125299Y807094D01*
X125350Y807035D01*
X125403Y806980D01*
X125458Y806927D01*
X125517Y806876D01*
X125577Y806829D01*
X125640Y806785D01*
X125705Y806744D01*
X125772Y806706D01*
X125840Y806671D01*
X125911Y806640D01*
X125982Y806613D01*
X126055Y806588D01*
X126129Y806568D01*
X126204Y806551D01*
X126280Y806538D01*
X126357Y806529D01*
X126433Y806523D01*
X126510Y806521D01*
X129121Y806521D01*
X129121Y812786D01*
X137305Y815919D02*
X137305Y806521D01*
X134694Y806521D01*
X134617Y806523D01*
X134541Y806529D01*
X134464Y806538D01*
X134388Y806551D01*
X134313Y806568D01*
X134239Y806588D01*
X134166Y806613D01*
X134095Y806640D01*
X134024Y806671D01*
X133956Y806706D01*
X133889Y806744D01*
X133824Y806785D01*
X133761Y806829D01*
X133701Y806876D01*
X133642Y806927D01*
X133587Y806980D01*
X133534Y807035D01*
X133483Y807094D01*
X133436Y807154D01*
X133392Y807217D01*
X133351Y807282D01*
X133313Y807349D01*
X133278Y807417D01*
X133247Y807488D01*
X133220Y807559D01*
X133195Y807632D01*
X133175Y807706D01*
X133158Y807781D01*
X133145Y807857D01*
X133136Y807934D01*
X133130Y808010D01*
X133128Y808087D01*
X133128Y811220D01*
X133130Y811297D01*
X133136Y811373D01*
X133145Y811450D01*
X133158Y811526D01*
X133175Y811601D01*
X133195Y811675D01*
X133220Y811748D01*
X133247Y811819D01*
X133278Y811890D01*
X133313Y811958D01*
X133351Y812025D01*
X133392Y812090D01*
X133436Y812153D01*
X133483Y812213D01*
X133534Y812272D01*
X133587Y812327D01*
X133642Y812380D01*
X133701Y812431D01*
X133761Y812478D01*
X133824Y812522D01*
X133889Y812563D01*
X133956Y812601D01*
X134024Y812636D01*
X134095Y812667D01*
X134166Y812694D01*
X134239Y812719D01*
X134313Y812739D01*
X134388Y812756D01*
X134464Y812769D01*
X134541Y812778D01*
X134617Y812784D01*
X134694Y812786D01*
X137305Y812786D01*
X141358Y812786D02*
X141358Y806521D01*
X141097Y815397D02*
X141097Y815919D01*
X141619Y815919D01*
X141619Y815397D01*
X141097Y815397D01*
X145061Y810698D02*
X145061Y808609D01*
X145061Y810698D02*
X145063Y810788D01*
X145069Y810877D01*
X145078Y810967D01*
X145092Y811056D01*
X145109Y811144D01*
X145130Y811231D01*
X145155Y811318D01*
X145184Y811403D01*
X145216Y811487D01*
X145251Y811569D01*
X145291Y811650D01*
X145333Y811729D01*
X145379Y811806D01*
X145429Y811881D01*
X145481Y811954D01*
X145537Y812025D01*
X145595Y812093D01*
X145657Y812158D01*
X145721Y812221D01*
X145788Y812281D01*
X145857Y812338D01*
X145929Y812392D01*
X146003Y812443D01*
X146079Y812491D01*
X146157Y812535D01*
X146237Y812576D01*
X146319Y812614D01*
X146402Y812648D01*
X146487Y812678D01*
X146573Y812705D01*
X146659Y812728D01*
X146747Y812747D01*
X146836Y812762D01*
X146925Y812774D01*
X147014Y812782D01*
X147104Y812786D01*
X147194Y812786D01*
X147284Y812782D01*
X147373Y812774D01*
X147462Y812762D01*
X147551Y812747D01*
X147639Y812728D01*
X147725Y812705D01*
X147811Y812678D01*
X147896Y812648D01*
X147979Y812614D01*
X148061Y812576D01*
X148141Y812535D01*
X148219Y812491D01*
X148295Y812443D01*
X148369Y812392D01*
X148441Y812338D01*
X148510Y812281D01*
X148577Y812221D01*
X148641Y812158D01*
X148703Y812093D01*
X148761Y812025D01*
X148817Y811954D01*
X148869Y811881D01*
X148919Y811806D01*
X148965Y811729D01*
X149007Y811650D01*
X149047Y811569D01*
X149082Y811487D01*
X149114Y811403D01*
X149143Y811318D01*
X149168Y811231D01*
X149189Y811144D01*
X149206Y811056D01*
X149220Y810967D01*
X149229Y810877D01*
X149235Y810788D01*
X149237Y810698D01*
X149238Y810698D02*
X149238Y808609D01*
X149237Y808609D02*
X149235Y808519D01*
X149229Y808430D01*
X149220Y808340D01*
X149206Y808251D01*
X149189Y808163D01*
X149168Y808076D01*
X149143Y807989D01*
X149114Y807904D01*
X149082Y807820D01*
X149047Y807738D01*
X149007Y807657D01*
X148965Y807578D01*
X148919Y807501D01*
X148869Y807426D01*
X148817Y807353D01*
X148761Y807282D01*
X148703Y807214D01*
X148641Y807149D01*
X148577Y807086D01*
X148510Y807026D01*
X148441Y806969D01*
X148369Y806915D01*
X148295Y806864D01*
X148219Y806816D01*
X148141Y806772D01*
X148061Y806731D01*
X147979Y806693D01*
X147896Y806659D01*
X147811Y806629D01*
X147725Y806602D01*
X147639Y806579D01*
X147551Y806560D01*
X147462Y806545D01*
X147373Y806533D01*
X147284Y806525D01*
X147194Y806521D01*
X147104Y806521D01*
X147014Y806525D01*
X146925Y806533D01*
X146836Y806545D01*
X146747Y806560D01*
X146659Y806579D01*
X146573Y806602D01*
X146487Y806629D01*
X146402Y806659D01*
X146319Y806693D01*
X146237Y806731D01*
X146157Y806772D01*
X146079Y806816D01*
X146003Y806864D01*
X145929Y806915D01*
X145857Y806969D01*
X145788Y807026D01*
X145721Y807086D01*
X145657Y807149D01*
X145595Y807214D01*
X145537Y807282D01*
X145481Y807353D01*
X145429Y807426D01*
X145379Y807501D01*
X145333Y807578D01*
X145291Y807657D01*
X145251Y807738D01*
X145216Y807820D01*
X145184Y807904D01*
X145155Y807989D01*
X145130Y808076D01*
X145109Y808163D01*
X145092Y808251D01*
X145078Y808340D01*
X145069Y808430D01*
X145063Y808519D01*
X145061Y808609D01*
X101667Y800679D02*
X95401Y791281D01*
X101667Y791281D02*
X95401Y800679D01*
X105849Y800679D02*
X105849Y791281D01*
X104805Y791281D02*
X106893Y791281D01*
X106893Y800679D02*
X104805Y800679D01*
X113164Y800679D02*
X110032Y791281D01*
X116297Y791281D02*
X113164Y800679D01*
X115514Y793631D02*
X110815Y793631D01*
X119698Y793892D02*
X119698Y798068D01*
X119697Y798068D02*
X119699Y798169D01*
X119705Y798270D01*
X119715Y798371D01*
X119728Y798471D01*
X119746Y798571D01*
X119767Y798670D01*
X119793Y798768D01*
X119822Y798865D01*
X119854Y798961D01*
X119891Y799055D01*
X119931Y799148D01*
X119975Y799240D01*
X120022Y799329D01*
X120073Y799417D01*
X120127Y799503D01*
X120184Y799586D01*
X120244Y799668D01*
X120308Y799746D01*
X120374Y799823D01*
X120444Y799896D01*
X120516Y799967D01*
X120591Y800035D01*
X120669Y800100D01*
X120749Y800162D01*
X120831Y800221D01*
X120916Y800277D01*
X121003Y800329D01*
X121091Y800378D01*
X121182Y800424D01*
X121274Y800465D01*
X121368Y800504D01*
X121463Y800538D01*
X121559Y800569D01*
X121657Y800596D01*
X121755Y800620D01*
X121855Y800639D01*
X121955Y800655D01*
X122055Y800667D01*
X122156Y800675D01*
X122257Y800679D01*
X122359Y800679D01*
X122460Y800675D01*
X122561Y800667D01*
X122661Y800655D01*
X122761Y800639D01*
X122861Y800620D01*
X122959Y800596D01*
X123057Y800569D01*
X123153Y800538D01*
X123248Y800504D01*
X123342Y800465D01*
X123434Y800424D01*
X123525Y800378D01*
X123614Y800329D01*
X123700Y800277D01*
X123785Y800221D01*
X123867Y800162D01*
X123947Y800100D01*
X124025Y800035D01*
X124100Y799967D01*
X124172Y799896D01*
X124242Y799823D01*
X124308Y799746D01*
X124372Y799668D01*
X124432Y799586D01*
X124489Y799503D01*
X124543Y799417D01*
X124594Y799329D01*
X124641Y799240D01*
X124685Y799148D01*
X124725Y799055D01*
X124762Y798961D01*
X124794Y798865D01*
X124823Y798768D01*
X124849Y798670D01*
X124870Y798571D01*
X124888Y798471D01*
X124901Y798371D01*
X124911Y798270D01*
X124917Y798169D01*
X124919Y798068D01*
X124919Y793892D01*
X124917Y793791D01*
X124911Y793690D01*
X124901Y793589D01*
X124888Y793489D01*
X124870Y793389D01*
X124849Y793290D01*
X124823Y793192D01*
X124794Y793095D01*
X124762Y792999D01*
X124725Y792905D01*
X124685Y792812D01*
X124641Y792720D01*
X124594Y792631D01*
X124543Y792543D01*
X124489Y792457D01*
X124432Y792374D01*
X124372Y792292D01*
X124308Y792214D01*
X124242Y792137D01*
X124172Y792064D01*
X124100Y791993D01*
X124025Y791925D01*
X123947Y791860D01*
X123867Y791798D01*
X123785Y791739D01*
X123700Y791683D01*
X123613Y791631D01*
X123525Y791582D01*
X123434Y791536D01*
X123342Y791495D01*
X123248Y791456D01*
X123153Y791422D01*
X123057Y791391D01*
X122959Y791364D01*
X122861Y791340D01*
X122761Y791321D01*
X122661Y791305D01*
X122561Y791293D01*
X122460Y791285D01*
X122359Y791281D01*
X122257Y791281D01*
X122156Y791285D01*
X122055Y791293D01*
X121955Y791305D01*
X121855Y791321D01*
X121755Y791340D01*
X121657Y791364D01*
X121559Y791391D01*
X121463Y791422D01*
X121368Y791456D01*
X121274Y791495D01*
X121182Y791536D01*
X121091Y791582D01*
X121003Y791631D01*
X120916Y791683D01*
X120831Y791739D01*
X120749Y791798D01*
X120669Y791860D01*
X120591Y791925D01*
X120516Y791993D01*
X120444Y792064D01*
X120374Y792137D01*
X120308Y792214D01*
X120244Y792292D01*
X120184Y792374D01*
X120127Y792457D01*
X120073Y792543D01*
X120022Y792631D01*
X119975Y792720D01*
X119931Y792812D01*
X119891Y792905D01*
X119854Y792999D01*
X119822Y793095D01*
X119793Y793192D01*
X119767Y793290D01*
X119746Y793389D01*
X119728Y793489D01*
X119715Y793589D01*
X119705Y793690D01*
X119699Y793791D01*
X119697Y793892D01*
D14*
X48260Y763990D02*
X31860Y763990D01*
X48260Y763990D02*
X60960Y763990D01*
X77360Y763990D01*
X77360Y726990D02*
X31860Y726990D01*
X48260Y763990D02*
X48262Y763832D01*
X48268Y763673D01*
X48278Y763515D01*
X48292Y763358D01*
X48309Y763200D01*
X48331Y763044D01*
X48356Y762887D01*
X48386Y762732D01*
X48419Y762577D01*
X48456Y762423D01*
X48497Y762270D01*
X48542Y762118D01*
X48591Y761968D01*
X48643Y761818D01*
X48699Y761670D01*
X48759Y761523D01*
X48822Y761378D01*
X48889Y761235D01*
X48959Y761093D01*
X49033Y760953D01*
X49111Y760815D01*
X49192Y760679D01*
X49276Y760545D01*
X49363Y760413D01*
X49454Y760283D01*
X49548Y760156D01*
X49645Y760031D01*
X49746Y759908D01*
X49849Y759788D01*
X49955Y759671D01*
X50064Y759556D01*
X50176Y759444D01*
X50291Y759335D01*
X50408Y759229D01*
X50528Y759126D01*
X50651Y759025D01*
X50776Y758928D01*
X50903Y758834D01*
X51033Y758743D01*
X51165Y758656D01*
X51299Y758572D01*
X51435Y758491D01*
X51573Y758413D01*
X51713Y758339D01*
X51855Y758269D01*
X51998Y758202D01*
X52143Y758139D01*
X52290Y758079D01*
X52438Y758023D01*
X52588Y757971D01*
X52738Y757922D01*
X52890Y757877D01*
X53043Y757836D01*
X53197Y757799D01*
X53352Y757766D01*
X53507Y757736D01*
X53664Y757711D01*
X53820Y757689D01*
X53978Y757672D01*
X54135Y757658D01*
X54293Y757648D01*
X54452Y757642D01*
X54610Y757640D01*
X54768Y757642D01*
X54927Y757648D01*
X55085Y757658D01*
X55242Y757672D01*
X55400Y757689D01*
X55556Y757711D01*
X55713Y757736D01*
X55868Y757766D01*
X56023Y757799D01*
X56177Y757836D01*
X56330Y757877D01*
X56482Y757922D01*
X56632Y757971D01*
X56782Y758023D01*
X56930Y758079D01*
X57077Y758139D01*
X57222Y758202D01*
X57365Y758269D01*
X57507Y758339D01*
X57647Y758413D01*
X57785Y758491D01*
X57921Y758572D01*
X58055Y758656D01*
X58187Y758743D01*
X58317Y758834D01*
X58444Y758928D01*
X58569Y759025D01*
X58692Y759126D01*
X58812Y759229D01*
X58929Y759335D01*
X59044Y759444D01*
X59156Y759556D01*
X59265Y759671D01*
X59371Y759788D01*
X59474Y759908D01*
X59575Y760031D01*
X59672Y760156D01*
X59766Y760283D01*
X59857Y760413D01*
X59944Y760545D01*
X60028Y760679D01*
X60109Y760815D01*
X60187Y760953D01*
X60261Y761093D01*
X60331Y761235D01*
X60398Y761378D01*
X60461Y761523D01*
X60521Y761670D01*
X60577Y761818D01*
X60629Y761968D01*
X60678Y762118D01*
X60723Y762270D01*
X60764Y762423D01*
X60801Y762577D01*
X60834Y762732D01*
X60864Y762887D01*
X60889Y763044D01*
X60911Y763200D01*
X60928Y763358D01*
X60942Y763515D01*
X60952Y763673D01*
X60958Y763832D01*
X60960Y763990D01*
D15*
X6620Y758190D02*
X6622Y758253D01*
X6628Y758315D01*
X6638Y758377D01*
X6651Y758439D01*
X6669Y758499D01*
X6690Y758558D01*
X6715Y758616D01*
X6744Y758672D01*
X6776Y758726D01*
X6811Y758778D01*
X6849Y758827D01*
X6891Y758875D01*
X6935Y758919D01*
X6983Y758961D01*
X7032Y758999D01*
X7084Y759034D01*
X7138Y759066D01*
X7194Y759095D01*
X7252Y759120D01*
X7311Y759141D01*
X7371Y759159D01*
X7433Y759172D01*
X7495Y759182D01*
X7557Y759188D01*
X7620Y759190D01*
X7683Y759188D01*
X7745Y759182D01*
X7807Y759172D01*
X7869Y759159D01*
X7929Y759141D01*
X7988Y759120D01*
X8046Y759095D01*
X8102Y759066D01*
X8156Y759034D01*
X8208Y758999D01*
X8257Y758961D01*
X8305Y758919D01*
X8349Y758875D01*
X8391Y758827D01*
X8429Y758778D01*
X8464Y758726D01*
X8496Y758672D01*
X8525Y758616D01*
X8550Y758558D01*
X8571Y758499D01*
X8589Y758439D01*
X8602Y758377D01*
X8612Y758315D01*
X8618Y758253D01*
X8620Y758190D01*
X8618Y758127D01*
X8612Y758065D01*
X8602Y758003D01*
X8589Y757941D01*
X8571Y757881D01*
X8550Y757822D01*
X8525Y757764D01*
X8496Y757708D01*
X8464Y757654D01*
X8429Y757602D01*
X8391Y757553D01*
X8349Y757505D01*
X8305Y757461D01*
X8257Y757419D01*
X8208Y757381D01*
X8156Y757346D01*
X8102Y757314D01*
X8046Y757285D01*
X7988Y757260D01*
X7929Y757239D01*
X7869Y757221D01*
X7807Y757208D01*
X7745Y757198D01*
X7683Y757192D01*
X7620Y757190D01*
X7557Y757192D01*
X7495Y757198D01*
X7433Y757208D01*
X7371Y757221D01*
X7311Y757239D01*
X7252Y757260D01*
X7194Y757285D01*
X7138Y757314D01*
X7084Y757346D01*
X7032Y757381D01*
X6983Y757419D01*
X6935Y757461D01*
X6891Y757505D01*
X6849Y757553D01*
X6811Y757602D01*
X6776Y757654D01*
X6744Y757708D01*
X6715Y757764D01*
X6690Y757822D01*
X6669Y757881D01*
X6651Y757941D01*
X6638Y758003D01*
X6628Y758065D01*
X6622Y758127D01*
X6620Y758190D01*
M02*
